<svg width="225" height="34" viewBox="0 0 225 34" fill="none" xmlns="http://www.w3.org/2000/svg">
<path d="M10.3906 22.4219H8.53125C6.80208 22.4219 5.29167 22.5833 4 22.9062C2.36458 23.3125 1.54688 23.8958 1.54688 24.6562C1.54688 25.3438 1.66146 26.0781 1.89062 26.8594C2.13021 27.6406 2.36979 28.4323 2.60938 29.2344C2.85938 30.0365 2.98438 30.7708 2.98438 31.4375C2.98438 31.8333 2.95312 32.1927 2.89062 32.5156C2.83854 32.8385 2.73958 33.2604 2.59375 33.7812C2.32292 32.9167 2.05729 32.0521 1.79688 31.1875C1.29688 29.5417 0.927083 28.2969 0.6875 27.4531C0.3125 26.1198 0.125 25.3177 0.125 25.0469C0.125 23.7135 0.401042 22.6927 0.953125 21.9844C1.51562 21.2656 2.375 20.7344 3.53125 20.3906C4.44792 20.1198 5.82812 19.8906 7.67188 19.7031C7.01562 19.0365 6.60938 18.6406 6.45312 18.5156C5.92188 18.099 5.38542 17.8906 4.84375 17.8906C4.5 17.8906 4.17188 17.9948 3.85938 18.2031C3.60938 18.3698 3.30729 18.6562 2.95312 19.0625L2.23438 18.6094C2.54688 17.8281 2.90104 17.2031 3.29688 16.7344C3.95312 15.9635 4.72917 15.5781 5.625 15.5781C6.27083 15.5781 6.91667 15.8177 7.5625 16.2969C8.09375 16.6927 8.63542 17.2448 9.1875 17.9531C9.45833 18.2969 9.85938 18.8802 10.3906 19.7031V22.4219ZM18.2031 22.4219H9.29688V19.7031H17.0625C17.0625 18.474 16.9167 17.5365 16.625 16.8906C16.4271 16.4427 15.9375 15.7969 15.1562 14.9531L16.375 12.4062C17.125 13.3542 17.5938 14.0938 17.7812 14.625C18.0625 15.4271 18.2031 16.7552 18.2031 18.6094V22.4219ZM18.125 25.5469L16.9062 27.7969L14.375 26.4531L15.5469 24.2188L18.125 25.5469ZM14.5312 26.9531L13.3438 29.2188L10.8125 27.9062L11.9688 25.6406L14.5312 26.9531ZM35.1562 22.4219H17.1094V19.7031H29.8438C28.7812 18.8802 27.8854 18.2396 27.1562 17.7812C26.25 17.2083 25.4219 16.7917 24.6719 16.5312C23.8281 16.2396 22.974 16.0938 22.1094 16.0938C21.5781 16.0938 21.0417 16.1302 20.5 16.2031C20.8021 15.4323 21.1979 14.8125 21.6875 14.3438C22.3958 13.6667 23.2917 13.3281 24.375 13.3281C25.4375 13.3281 26.6927 13.849 28.1406 14.8906C28.8594 15.4115 30.0312 16.401 31.6562 17.8594C32.9167 18.9948 33.7708 19.6094 34.2188 19.7031H35.1562V22.4219ZM50.8125 22.4219C50.8125 23.5677 50.3229 24.7552 49.3438 25.9844C48.4896 27.0677 47.4271 28 46.1562 28.7812C44.9479 29.5312 43.9531 29.9062 43.1719 29.9062C42.4531 29.9062 41.6771 29.8021 40.8438 29.5938C40.2083 29.4375 39.4479 29.1927 38.5625 28.8594C37.8125 28.5781 37.0677 28.2969 36.3281 28.0156L36.5938 27.3906C37.2812 27.526 37.9948 27.6615 38.7344 27.7969C39.4844 27.9427 40.1615 28.0156 40.7656 28.0156C42.099 28.0156 43.4896 27.5885 44.9375 26.7344C46.25 25.9531 47.3698 24.9688 48.2969 23.7812C49.224 22.5833 49.6875 21.5052 49.6875 20.5469C49.6875 19.724 49.4479 18.8594 48.9688 17.9531C48.5833 17.224 48.0417 16.474 47.3438 15.7031L48.2344 13.25C49.0885 14.0417 49.7188 14.8333 50.125 15.625C50.5833 16.5208 50.8125 17.5208 50.8125 18.625V22.4219ZM57.4531 22.4219H49.7344V19.7031H55.875L54.0156 6.45312L53.2031 6.0625C53.2031 5.34375 53.2656 4.67188 53.3906 4.04688C53.5156 3.41146 53.7031 2.79688 53.9531 2.20312L54.1875 2.375C54.1875 2.97917 54.526 3.43229 55.2031 3.73438C55.724 3.94271 56.25 4.15104 56.7812 4.35938C56.7812 4.88021 56.7396 5.4375 56.6562 6.03125C56.5729 6.625 56.474 7.06771 56.3594 7.35938L55.6094 7.10938L57.4531 19.3594V22.4219ZM62.7344 18.4375C62.7344 19.2708 62.5833 20.0781 62.2812 20.8594C62.125 21.276 61.7865 21.9375 61.2656 22.8438L60.9844 22.6875C61.0156 22.3854 61.0417 22.0365 61.0625 21.6406C61.0938 21.2448 61.1094 20.9792 61.1094 20.8438C61.1094 19.7604 61.0208 18.25 60.8438 16.3125C60.6771 14.3646 60.474 12.3333 60.2344 10.2188C60.0885 8.9375 59.9271 7.63021 59.75 6.29688C59.9583 5.83854 60.1927 5.34375 60.4531 4.8125C60.724 4.28125 60.9792 3.78125 61.2188 3.3125C61.3854 4.5 61.5938 6.125 61.8438 8.1875C62.1042 10.25 62.3073 12.1094 62.4531 13.7656C62.6406 15.8281 62.7344 17.3854 62.7344 18.4375ZM83.0938 10.4375L81.9219 12.6719L79.4844 11.3281L80.6094 9.15625L83.0938 10.4375ZM88.9062 22.4219C88.9062 24.7448 88.224 26.4531 86.8594 27.5469C85.3906 28.724 83.0208 29.3125 79.75 29.3125C77.6667 29.3125 76.0729 28.9479 74.9688 28.2188C73.7604 27.4167 73.1562 26.1875 73.1562 24.5312C73.1562 23.6354 73.2656 22.7292 73.4844 21.8125C73.7031 20.8958 74 19.974 74.375 19.0469C74.6042 18.4844 75 17.6198 75.5625 16.4531L76.1875 16.7344C75.4583 18.2344 74.974 19.4167 74.7344 20.2812C74.5052 21.1458 74.3906 21.9375 74.3906 22.6562C74.3906 23.9479 74.849 24.9323 75.7656 25.6094C76.6927 26.276 78.0104 26.6094 79.7188 26.6094C81.6875 26.6094 83.4323 26.2604 84.9531 25.5625C86.8385 24.6979 87.7812 23.4896 87.7812 21.9375C87.7812 20.875 87.625 19.8854 87.3125 18.9688C87.0417 18.1562 86.6562 17.4479 86.1562 16.8438L87.4531 13.6406C88.0052 14.4844 88.3854 15.3438 88.5938 16.2188C88.8021 17.0938 88.9062 18.2552 88.9062 19.7031V22.4219ZM101.531 22.4219H99.9062C99.2083 22.4219 98.4219 22.2656 97.5469 21.9531C96.5365 21.5885 95.6458 21.0885 94.875 20.4531C94.2708 21.1927 93.651 21.7083 93.0156 22C92.3906 22.2812 91.474 22.4219 90.2656 22.4219H87.8281V19.7031H90.2188C91.1667 19.7031 92.0104 19.4635 92.75 18.9844C93.3229 18.6094 93.8438 18.0833 94.3125 17.4062C94.9479 16.4896 95.7292 15.6927 96.6562 15.0156C97.4896 14.4115 98.2552 14.026 98.9531 13.8594C99.6719 14.9531 100.245 15.9375 100.672 16.8125C101.245 18 101.531 18.9635 101.531 19.7031V22.4219ZM99.7344 19.3438C99.599 18.7396 99.3906 18.1458 99.1094 17.5625C98.8698 17.0729 98.5521 16.5677 98.1562 16.0469C97.6562 16.1719 97.2344 16.4062 96.8906 16.75C96.6615 16.9688 96.3906 17.3385 96.0781 17.8594C96.4531 18.2656 96.9792 18.6302 97.6562 18.9531C98.3438 19.276 98.9896 19.474 99.5938 19.5469L99.7344 19.3438ZM118.5 22.4219H100.453V19.7031H113.188C112.125 18.8802 111.229 18.2396 110.5 17.7812C109.594 17.2083 108.766 16.7917 108.016 16.5312C107.172 16.2396 106.318 16.0938 105.453 16.0938C104.922 16.0938 104.385 16.1302 103.844 16.2031C104.146 15.4323 104.542 14.8125 105.031 14.3438C105.74 13.6667 106.635 13.3281 107.719 13.3281C108.781 13.3281 110.036 13.849 111.484 14.8906C112.203 15.4115 113.375 16.401 115 17.8594C116.26 18.9948 117.115 19.6094 117.562 19.7031H118.5V22.4219ZM134.156 22.4219C134.156 23.5677 133.667 24.7552 132.688 25.9844C131.833 27.0677 130.771 28 129.5 28.7812C128.292 29.5312 127.297 29.9062 126.516 29.9062C125.797 29.9062 125.021 29.8021 124.188 29.5938C123.552 29.4375 122.792 29.1927 121.906 28.8594C121.156 28.5781 120.411 28.2969 119.672 28.0156L119.938 27.3906C120.625 27.526 121.339 27.6615 122.078 27.7969C122.828 27.9427 123.505 28.0156 124.109 28.0156C125.443 28.0156 126.833 27.5885 128.281 26.7344C129.594 25.9531 130.714 24.9688 131.641 23.7812C132.568 22.5833 133.031 21.5052 133.031 20.5469C133.031 19.724 132.792 18.8594 132.312 17.9531C131.927 17.224 131.385 16.474 130.688 15.7031L131.578 13.25C132.432 14.0417 133.062 14.8333 133.469 15.625C133.927 16.5208 134.156 17.5208 134.156 18.625V22.4219ZM140.797 22.4219H133.078V19.7031H139.219L137.359 6.45312L136.547 6.0625C136.547 5.34375 136.609 4.67188 136.734 4.04688C136.859 3.41146 137.047 2.79688 137.297 2.20312L137.531 2.375C137.531 2.97917 137.87 3.43229 138.547 3.73438C139.068 3.94271 139.594 4.15104 140.125 4.35938C140.125 4.88021 140.083 5.4375 140 6.03125C139.917 6.625 139.818 7.06771 139.703 7.35938L138.953 7.10938L140.797 19.3594V22.4219ZM146.078 18.4375C146.078 19.2708 145.927 20.0781 145.625 20.8594C145.469 21.276 145.13 21.9375 144.609 22.8438L144.328 22.6875C144.359 22.3854 144.385 22.0365 144.406 21.6406C144.438 21.2448 144.453 20.9792 144.453 20.8438C144.453 19.7604 144.365 18.25 144.188 16.3125C144.021 14.3646 143.818 12.3333 143.578 10.2188C143.432 8.9375 143.271 7.63021 143.094 6.29688C143.302 5.83854 143.536 5.34375 143.797 4.8125C144.068 4.28125 144.323 3.78125 144.562 3.3125C144.729 4.5 144.938 6.125 145.188 8.1875C145.448 10.25 145.651 12.1094 145.797 13.7656C145.984 15.8281 146.078 17.3854 146.078 18.4375ZM161.719 15.0156H161.672C161.589 15.276 161.438 15.526 161.219 15.7656C161 16.0052 160.771 16.2083 160.531 16.375L157.672 18.3125V18.3594C157.797 18.4115 157.979 18.474 158.219 18.5469C158.469 18.6198 158.729 18.6875 159 18.75C159.271 18.8125 159.536 18.8698 159.797 18.9219C160.057 18.9635 160.266 18.9844 160.422 18.9844C160.682 18.9844 160.932 18.9219 161.172 18.7969C161.422 18.6719 161.63 18.4896 161.797 18.25L161.719 15.0156ZM174.578 18.5938C174.578 18.6979 174.573 18.8177 174.562 18.9531C174.552 19.0781 174.536 19.2083 174.516 19.3438C174.505 19.4792 174.49 19.6094 174.469 19.7344C174.448 19.849 174.427 19.9427 174.406 20.0156C174.365 20.1615 174.302 20.3698 174.219 20.6406C174.135 20.901 174.036 21.1615 173.922 21.4219C173.818 21.6719 173.698 21.8958 173.562 22.0938C173.427 22.2812 173.292 22.375 173.156 22.375C172.719 22.375 172.271 22.3281 171.812 22.2344C171.354 22.1302 170.917 21.974 170.5 21.7656C170.083 21.5469 169.703 21.2656 169.359 20.9219C169.016 20.5677 168.745 20.1406 168.547 19.6406C168.339 20.0885 168.125 20.5156 167.906 20.9219C167.698 21.3177 167.458 21.6667 167.188 21.9688C166.917 22.2604 166.604 22.4948 166.25 22.6719C165.906 22.849 165.495 22.9375 165.016 22.9375C164.516 22.9375 164.104 22.8646 163.781 22.7188C163.458 22.5729 163.193 22.3594 162.984 22.0781C162.776 21.7969 162.609 21.4531 162.484 21.0469C162.359 20.6406 162.245 20.1771 162.141 19.6562H162.094C161.469 20.9167 160.807 21.5469 160.109 21.5469C159.609 21.5469 159.13 21.526 158.672 21.4844C158.214 21.4323 157.771 21.3646 157.344 21.2812C157.167 21.25 156.979 21.2083 156.781 21.1562C156.594 21.1042 156.422 21.0417 156.266 20.9688C156.109 20.8958 155.979 20.8125 155.875 20.7188C155.771 20.6146 155.719 20.4948 155.719 20.3594C155.719 20.2135 155.781 19.9896 155.906 19.6875C156.042 19.3854 156.193 19.0729 156.359 18.75C156.536 18.4167 156.708 18.1042 156.875 17.8125C157.042 17.5208 157.167 17.3073 157.25 17.1719C157.323 17.0573 157.51 16.875 157.812 16.625C158.125 16.375 158.495 16.1042 158.922 15.8125C159.359 15.5208 159.823 15.2292 160.312 14.9375C160.802 14.6458 161.266 14.4062 161.703 14.2188C161.703 14.1042 161.698 14 161.688 13.9062C161.688 13.8021 161.688 13.6927 161.688 13.5781C161.688 13.4115 161.698 13.25 161.719 13.0938C161.74 12.9271 161.776 12.7656 161.828 12.6094C161.974 12.2344 162.161 11.9167 162.391 11.6562C162.63 11.3854 162.885 11.1354 163.156 10.9062H163.188V14.2656C163.188 14.8385 163.208 15.4479 163.25 16.0938C163.292 16.7292 163.365 17.3281 163.469 17.8906C163.594 18.6198 163.833 19.1406 164.188 19.4531C164.552 19.7552 165.005 19.9062 165.547 19.9062C166.089 19.9062 166.547 19.7396 166.922 19.4062C167.297 19.0729 167.677 18.6042 168.062 18L167.375 12.875C167.354 12.7083 167.328 12.526 167.297 12.3281C167.276 12.1198 167.255 11.9219 167.234 11.7344C167.224 11.5365 167.214 11.349 167.203 11.1719C167.193 10.9948 167.188 10.849 167.188 10.7344C167.188 10.526 167.219 10.3021 167.281 10.0625C167.344 9.8125 167.458 9.55729 167.625 9.29688C167.74 9.10938 167.885 8.9375 168.062 8.78125C168.24 8.61458 168.432 8.44271 168.641 8.26562H168.656C168.688 8.63021 168.719 8.98958 168.75 9.34375C168.781 9.69792 168.823 10.0573 168.875 10.4219L169.484 15.4531C169.536 15.849 169.594 16.2448 169.656 16.6406C169.729 17.026 169.839 17.3438 169.984 17.5938C170.099 17.8021 170.266 18.0156 170.484 18.2344C170.714 18.4427 170.964 18.6354 171.234 18.8125C171.505 18.9792 171.781 19.125 172.062 19.25C172.354 19.3646 172.625 19.4375 172.875 19.4688C173.083 19.3958 173.188 19.1927 173.188 18.8594C172.927 17.4844 172.693 16.1198 172.484 14.7656C172.286 13.401 172.115 12.026 171.969 10.6406C171.938 10.3802 171.917 10.1615 171.906 9.98438C171.896 9.79688 171.891 9.65104 171.891 9.54688C171.891 9.33854 171.922 9.11458 171.984 8.875C172.057 8.63542 172.167 8.39062 172.312 8.14062C172.438 7.92188 172.568 7.72917 172.703 7.5625C172.849 7.39583 172.99 7.22917 173.125 7.0625H173.156C173.167 7.23958 173.182 7.42188 173.203 7.60938C173.234 7.78646 173.266 7.99479 173.297 8.23438C173.339 8.46354 173.38 8.72917 173.422 9.03125C173.464 9.33333 173.51 9.69271 173.562 10.1094L174.312 15.3125C174.417 16.0312 174.484 16.6875 174.516 17.2812C174.557 17.875 174.578 18.3125 174.578 18.5938ZM179.453 18.4375C179.453 19.2708 179.302 20.0781 179 20.8594C178.844 21.276 178.505 21.9375 177.984 22.8438L177.703 22.6875C177.734 22.3854 177.76 22.0365 177.781 21.6406C177.812 21.2448 177.828 20.9792 177.828 20.8438C177.828 19.7604 177.74 18.25 177.562 16.3125C177.396 14.3646 177.193 12.3333 176.953 10.2188C176.807 8.9375 176.646 7.63021 176.469 6.29688C176.677 5.83854 176.911 5.34375 177.172 4.8125C177.443 4.28125 177.698 3.78125 177.938 3.3125C178.104 4.5 178.312 6.125 178.562 8.1875C178.823 10.25 179.026 12.1094 179.172 13.7656C179.359 15.8281 179.453 17.3854 179.453 18.4375ZM167.719 2.64062C167.719 3.14062 167.542 3.72396 167.188 4.39062H166.844C166.865 4.22396 166.88 4.06771 166.891 3.92188C166.901 3.77604 166.906 3.66667 166.906 3.59375C166.906 2.96875 166.729 2.35417 166.375 1.75C166.479 1.57292 166.589 1.39062 166.703 1.20312C166.828 1.00521 166.964 0.796875 167.109 0.578125C167.318 0.973958 167.469 1.35938 167.562 1.73438C167.667 2.09896 167.719 2.40104 167.719 2.64062ZM169.953 5.4375C169.953 5.73958 169.927 6.02604 169.875 6.29688C169.823 6.55729 169.729 6.79167 169.594 7C169.469 7.20833 169.297 7.375 169.078 7.5C168.87 7.61458 168.609 7.67188 168.297 7.67188C168.109 7.67188 167.938 7.64583 167.781 7.59375C167.625 7.53125 167.448 7.44271 167.25 7.32812C167.042 7.64062 166.839 7.88021 166.641 8.04688C166.318 8.33854 165.969 8.48438 165.594 8.48438C165.156 8.48438 164.828 8.38542 164.609 8.1875C164.391 7.98958 164.281 7.66146 164.281 7.20312C164.281 6.96354 164.318 6.73438 164.391 6.51562C164.464 6.29688 164.568 6.04167 164.703 5.75L165.031 5.625C165.031 5.70833 165.021 5.82812 165 5.98438C164.979 6.14062 164.969 6.27604 164.969 6.39062C164.969 6.57812 165.016 6.75521 165.109 6.92188C165.203 7.07812 165.344 7.15625 165.531 7.15625C165.979 7.15625 166.339 6.90104 166.609 6.39062C166.672 6.27604 166.74 6.09375 166.812 5.84375C166.896 5.58333 166.984 5.28646 167.078 4.95312H167.406C167.448 5.18229 167.484 5.36458 167.516 5.5C167.557 5.625 167.589 5.71354 167.609 5.76562C167.745 6.06771 167.964 6.21875 168.266 6.21875C168.63 6.21875 168.932 6 169.172 5.5625C169.359 5.1875 169.453 4.79688 169.453 4.39062L169.781 4.3125C169.823 4.48958 169.859 4.68229 169.891 4.89062C169.932 5.09896 169.953 5.28125 169.953 5.4375ZM199.609 22.4219H197.75C196.021 22.4219 194.51 22.5833 193.219 22.9062C191.583 23.3125 190.766 23.8958 190.766 24.6562C190.766 25.3438 190.88 26.0781 191.109 26.8594C191.349 27.6406 191.589 28.4323 191.828 29.2344C192.078 30.0365 192.203 30.7708 192.203 31.4375C192.203 31.8333 192.172 32.1927 192.109 32.5156C192.057 32.8385 191.958 33.2604 191.812 33.7812C191.542 32.9167 191.276 32.0521 191.016 31.1875C190.516 29.5417 190.146 28.2969 189.906 27.4531C189.531 26.1198 189.344 25.3177 189.344 25.0469C189.344 23.7135 189.62 22.6927 190.172 21.9844C190.734 21.2656 191.594 20.7344 192.75 20.3906C193.667 20.1198 195.047 19.8906 196.891 19.7031C196.234 19.0365 195.828 18.6406 195.672 18.5156C195.141 18.099 194.604 17.8906 194.062 17.8906C193.719 17.8906 193.391 17.9948 193.078 18.2031C192.828 18.3698 192.526 18.6562 192.172 19.0625L191.453 18.6094C191.766 17.8281 192.12 17.2031 192.516 16.7344C193.172 15.9635 193.948 15.5781 194.844 15.5781C195.49 15.5781 196.135 15.8177 196.781 16.2969C197.312 16.6927 197.854 17.2448 198.406 17.9531C198.677 18.2969 199.078 18.8802 199.609 19.7031V22.4219ZM216.594 22.4219H215.391C214.724 22.4219 214.151 22.3333 213.672 22.1562C213.193 21.9688 212.755 21.7083 212.359 21.375C211.87 21.7604 211.443 22.0156 211.078 22.1406C210.547 22.3281 209.818 22.4219 208.891 22.4219H207.875C207.333 22.4219 206.792 22.3177 206.25 22.1094C205.896 21.974 205.458 21.75 204.938 21.4375C204.438 21.8125 203.979 22.0729 203.562 22.2188C203.146 22.3542 202.469 22.4219 201.531 22.4219H198.516V19.7031H201.531C202.375 19.7031 202.979 19.6302 203.344 19.4844C203.948 19.2448 204.25 18.7656 204.25 18.0469C204.25 17.7448 204.234 17.4427 204.203 17.1406C204.172 16.8385 204.115 16.5 204.031 16.125L204.672 15.1875C204.964 16.1458 205.203 16.8438 205.391 17.2812C205.724 18.0417 206.089 18.6146 206.484 19C206.964 19.4688 207.536 19.7031 208.203 19.7031H209.25C210.031 19.7031 210.609 19.5833 210.984 19.3438C211.401 19.0729 211.609 18.6406 211.609 18.0469C211.609 17.724 211.589 17.4115 211.547 17.1094C211.505 16.8073 211.448 16.4792 211.375 16.125L212.031 15.1875L212.359 16.6562C212.641 17.8125 212.984 18.6146 213.391 19.0625C213.745 19.4583 214.224 19.6562 214.828 19.6562C215.109 19.6562 215.333 19.5729 215.5 19.4062C215.677 19.2292 215.766 19.0052 215.766 18.7344C215.766 18.151 215.552 17.5365 215.125 16.8906C215.052 16.7865 214.797 16.4479 214.359 15.875L215.375 14.1719C215.802 14.8177 216.094 15.375 216.25 15.8438C216.479 16.5521 216.594 17.4948 216.594 18.6719V22.4219ZM224.422 22.4219H215.516V19.7031H223.281C223.281 18.474 223.135 17.5365 222.844 16.8906C222.646 16.4427 222.156 15.7969 221.375 14.9531L222.594 12.4062C223.344 13.3542 223.812 14.0938 224 14.625C224.281 15.4271 224.422 16.7552 224.422 18.6094V22.4219ZM222.828 26.2188L221.609 28.4844L219.078 27.1719L220.234 24.8906L222.828 26.2188Z" fill="#211717"/>
</svg>
