<svg width="88" height="68" viewBox="0 0 88 68" fill="none" xmlns="http://www.w3.org/2000/svg">
<path fill-rule="evenodd" clip-rule="evenodd" d="M50.1273 4.09283C50.8702 4.27122 51.5795 4.56839 52.2277 4.97287C52.5681 5.18043 52.8587 4.67399 52.5349 4.44982C51.8563 3.98808 51.1038 3.64555 50.3099 3.43695C49.6336 3.16404 48.8812 3.14633 48.1928 3.38713C48.1671 3.40367 48.146 3.42641 48.1313 3.45325C48.1167 3.48008 48.109 3.51016 48.109 3.54073C48.109 3.5713 48.1167 3.60137 48.1313 3.62821C48.146 3.65504 48.1671 3.67778 48.1928 3.69432C48.8109 3.93395 49.4647 4.06864 50.1273 4.09283Z" fill="#211717"/>
<path fill-rule="evenodd" clip-rule="evenodd" d="M47.2547 5.53743C47.6882 5.6533 48.1345 5.71466 48.5831 5.72008C49.1145 5.7948 49.6458 5.88612 50.1689 5.98575C50.5508 6.05216 50.7168 5.47931 50.3349 5.39629C49.8119 5.28836 49.2888 5.17212 48.7575 5.08909C48.2643 4.96469 47.7479 4.96469 47.2547 5.08909C47.2126 5.10949 47.1771 5.14133 47.1523 5.18098C47.1274 5.22062 47.1143 5.26647 47.1143 5.31326C47.1143 5.36005 47.1274 5.4059 47.1523 5.44554C47.1771 5.48519 47.2126 5.51703 47.2547 5.53743Z" fill="#211717"/>
<path fill-rule="evenodd" clip-rule="evenodd" d="M60.4637 2.02552C60.2619 1.71726 60.0869 1.39228 59.9406 1.05415C59.8552 0.731401 59.7471 0.415119 59.6169 0.107687C59.5979 0.074937 59.5707 0.0477534 59.5379 0.0288521C59.5051 0.00995083 59.4679 0 59.4301 0C59.3922 0 59.355 0.00995083 59.3223 0.0288521C59.2895 0.0477534 59.2622 0.074937 59.2433 0.107687C58.9112 0.796779 59.5836 1.76815 59.9572 2.31611C60.1648 2.6399 60.663 2.34101 60.4637 2.02552Z" fill="#211717"/>
<path fill-rule="evenodd" clip-rule="evenodd" d="M70.194 4.30033C70.6257 3.78558 71.0242 3.27914 71.5307 2.80591C71.8157 2.50246 72.1269 2.22465 72.4605 1.97568C72.7041 1.83814 72.9139 1.64813 73.0749 1.41942C73.0912 1.39294 73.1001 1.36258 73.1007 1.33149C73.1013 1.30041 73.0936 1.26972 73.0784 1.24262C73.0631 1.21552 73.0409 1.19299 73.014 1.17736C72.9871 1.16174 72.9566 1.15358 72.9255 1.15375C72.3277 1.15375 71.7714 1.6934 71.3563 2.067C70.7811 2.61705 70.256 3.21718 69.7872 3.86031C69.5547 4.209 69.9532 4.62412 70.194 4.30033Z" fill="#211717"/>
<path fill-rule="evenodd" clip-rule="evenodd" d="M72.4854 5.55392C73.4477 5.00648 74.364 4.38175 75.2251 3.6859C75.3746 3.56137 75.2251 3.26248 75.0176 3.33721C74.0236 3.8341 73.0689 4.40584 72.1616 5.04748C72.0944 5.09042 72.0471 5.15827 72.03 5.23612C72.0128 5.31397 72.0273 5.39544 72.0703 5.4626C72.1132 5.52975 72.1811 5.57711 72.2589 5.59423C72.3368 5.61136 72.4182 5.59686 72.4854 5.55392Z" fill="#211717"/>
<path fill-rule="evenodd" clip-rule="evenodd" d="M76.0554 9.33159C76.4779 9.30412 76.8879 9.17603 77.2509 8.95799C77.2989 8.93228 77.339 8.89394 77.3668 8.84712C77.3946 8.8003 77.409 8.74676 77.4086 8.69231C77.4097 8.65128 77.4026 8.61045 77.3877 8.57221C77.3727 8.53398 77.3503 8.49913 77.3217 8.46972C77.293 8.44031 77.2588 8.41693 77.2209 8.40098C77.1831 8.38502 77.1425 8.37682 77.1015 8.37683C76.9503 8.4022 76.8061 8.45874 76.678 8.54287C76.4815 8.63216 76.2707 8.68559 76.0554 8.70062C75.6485 8.72553 75.6485 9.3565 76.0554 9.33159Z" fill="#211717"/>
<path fill-rule="evenodd" clip-rule="evenodd" d="M50.5756 62.4165L50.7748 62.6075L50.5839 62.4082L50.5756 62.4165Z" fill="#211717"/>
<path fill-rule="evenodd" clip-rule="evenodd" d="M76.2381 27.1566C73.3721 25.3477 70.1333 24.2123 66.7652 23.8357C66.7727 23.8029 66.7727 23.7688 66.7652 23.736C68.3011 21.7767 70.0861 20.0332 71.7051 18.1237C72.3618 17.3509 72.9429 16.5168 73.4402 15.633C73.7994 15.1914 74.0802 14.6916 74.2705 14.1552C74.2779 14.1207 74.2748 14.0849 74.2614 14.0522C74.2481 14.0196 74.2252 13.9918 74.1958 13.9725C74.3535 13.74 74.5278 13.5076 74.669 13.2585C74.7337 13.2593 74.7974 13.2411 74.8519 13.2062C74.9065 13.1714 74.9497 13.1213 74.9762 13.0622C75.0026 13.003 75.0112 12.9375 75.0009 12.8735C74.9906 12.8096 74.9618 12.75 74.9181 12.7022C72.2281 9.82965 69.4219 7.17291 67.0973 3.98482C67.0557 3.92806 66.9954 3.88779 66.9271 3.87108C66.8588 3.85438 66.7867 3.86231 66.7237 3.89349C66.6739 3.60291 66.1757 3.66934 66.2089 3.96822C66.3628 6.09729 66.6596 8.2136 67.0973 10.3029C66.5078 9.69681 65.8851 9.10736 65.3538 8.50959C64.333 7.24498 63.1557 6.11512 61.8502 5.14715C61.8691 5.10397 61.8913 5.06233 61.9166 5.02261C61.9247 4.98989 61.9247 4.9557 61.9166 4.92298H62.0329C63.0233 5.0154 64.0213 4.98752 65.0051 4.83996C65.0051 4.83996 65.0549 4.83996 65.0798 4.83996C65.2542 4.83996 65.4202 4.83996 65.5946 4.83996L65.661 4.89808C65.8851 5.08073 66.292 4.83997 66.0927 4.56599C66.0927 4.52448 66.0346 4.46636 66.0014 4.41654C66.0271 4.38647 66.0412 4.34819 66.0412 4.30861C66.0412 4.26903 66.0271 4.23076 66.0014 4.20069C66.0125 4.15266 66.0127 4.10276 66.0022 4.05462C65.9916 4.00648 65.9704 3.9613 65.9402 3.92235C65.91 3.8834 65.8715 3.85166 65.8275 3.82944C65.7836 3.80722 65.7352 3.79507 65.6859 3.79387C65.4534 3.79387 65.2209 3.79387 64.9885 3.79387C64.9476 3.79033 64.9064 3.79549 64.8676 3.80903C64.8289 3.82257 64.7934 3.84418 64.7636 3.87242C64.7338 3.90066 64.7103 3.93489 64.6947 3.97287C64.6791 4.01085 64.6717 4.05171 64.673 4.09275C63.602 4.09275 62.5144 4.2505 61.46 4.20898C59.9324 4.15087 58.4131 4.00972 56.8854 4.00972C56.8208 4.00791 56.7574 4.02837 56.706 4.06767C56.6547 4.10696 56.6184 4.16271 56.6032 4.22559C56.5566 4.24101 56.5141 4.26652 56.4786 4.30031C55.2399 5.61692 54.1151 7.03617 53.1162 8.54279C52.4105 9.47265 51.7048 10.4025 50.9742 11.3158C50.6979 11.7241 50.3897 12.11 50.0526 12.4698C49.8866 12.4698 49.7122 12.6026 49.7869 12.7936C49.8045 12.8534 49.8326 12.9097 49.87 12.9596C49.8381 12.9863 49.8154 13.0222 49.805 13.0624C49.7946 13.1026 49.797 13.145 49.8118 13.1838C50.6421 15.6745 53.1328 17.9244 54.9427 19.7343C56.2498 21.1206 57.6779 22.3876 59.2101 23.5202C57.3171 23.0884 54.9344 23.7277 52.7924 24.8153C49.7685 20.9152 45.755 17.8964 41.1692 16.073C29.604 11.3905 15.5565 14.6782 8.96447 25.3052C8.93742 25.3018 8.90996 25.3045 8.8841 25.3131C8.85824 25.3218 8.83465 25.3361 8.81504 25.355C3.83365 30.4194 2.89548 38.7715 4.0578 45.4881C4.68896 49.2916 6.14782 52.9101 8.33131 56.0878C10.5148 59.2655 13.3696 61.9247 16.6939 63.8777C26.4159 69.7807 39.1932 68.6765 47.8608 62.0595C49.0073 63.1006 50.2659 64.0111 51.6135 64.7744C61.8336 70.5362 74.1376 68.5934 80.7712 58.8299C87.4047 49.0664 86.5662 33.9977 76.2381 27.1566ZM66.0346 22.225C65.7025 22.4907 65.3538 22.7314 65.0051 22.9639C65.3317 22.2052 65.5901 21.4189 65.7772 20.6144C66.1259 19.7841 66.4497 18.9124 66.8482 18.1237C66.8654 18.0763 66.8655 18.0245 66.8485 17.9771C66.8315 17.9297 66.7985 17.8898 66.7551 17.8642C66.7118 17.8386 66.6608 17.8289 66.6111 17.8369C66.5614 17.8448 66.5161 17.8699 66.4829 17.9078V17.9576C66.8853 16.4252 67.3675 14.9149 67.9275 13.4329C67.9719 13.4232 68.0129 13.402 68.0465 13.3714C68.08 13.3408 68.1048 13.3018 68.1185 13.2585C68.7993 14.5537 69.5049 15.8405 70.2604 17.0942L69.2476 18.4142C68.4671 19.4022 67.7199 20.4151 67.0391 21.4778C66.6742 21.6836 66.3367 21.9347 66.0346 22.225ZM64.3326 22.6484L64.0835 23.6032C63.7099 23.6032 63.3363 23.6032 62.971 23.6032C62.8271 22.0534 62.6666 20.5037 62.4895 18.9539C64.316 17.5093 65.6361 15.5499 67.0475 13.7068C66.0135 16.2747 65.1943 18.9239 64.5983 21.6272C64.4904 21.9095 64.3824 22.1918 64.2911 22.4575C64.2802 22.4901 64.2783 22.525 64.2856 22.5587C64.2929 22.5923 64.3091 22.6233 64.3326 22.6484ZM61.9083 18.4142C61.9083 18.489 61.9083 18.572 61.9083 18.6467V18.7214C61.9047 18.6947 61.8954 18.669 61.8811 18.6461C61.8667 18.6232 61.8477 18.6036 61.8253 18.5886C60.0447 17.0276 58.3565 15.3644 56.7692 13.6072C59.6086 14.4873 63.2118 14.3129 66.2089 13.7898C65.0827 15.408 63.7948 16.9074 62.365 18.2648C62.1989 18.0988 61.8917 18.1403 61.9083 18.4142ZM62.2985 23.6032C62.0744 23.6032 61.8585 23.6032 61.6344 23.6032C60.2898 22.1736 59.0988 20.607 58.081 18.929C57.2507 17.4844 56.545 15.9734 55.8227 14.4706C55.8286 14.4591 55.8316 14.4463 55.8316 14.4333C55.8316 14.4203 55.8286 14.4075 55.8227 14.3959L55.6152 13.9642H56.1382C56.1718 13.9704 56.2062 13.9692 56.2392 13.9606C56.2722 13.952 56.3029 13.9362 56.3292 13.9144C57.9232 15.7077 59.4591 17.7085 61.4517 19.0203C61.4942 19.0449 61.5419 19.0593 61.5909 19.0623C61.6399 19.0652 61.689 19.0567 61.7342 19.0373C61.7793 19.018 61.8193 18.9883 61.851 18.9508C61.8827 18.9133 61.9052 18.8688 61.9166 18.8211C61.9244 18.8656 61.9413 18.908 61.9664 18.9456C61.9538 20.5017 62.0649 22.0564 62.2985 23.5949V23.6032ZM69.4551 19.7758C68.8491 20.4317 68.2264 21.0793 67.6203 21.7269C68.4505 20.5562 69.2808 19.4271 70.111 18.3229L70.5925 17.7334C70.6234 17.7815 70.6511 17.8314 70.6756 17.8829L69.3887 19.4105C69.3503 19.4667 69.3358 19.5358 69.3482 19.6027C69.3607 19.6696 69.3991 19.7289 69.4551 19.7675V19.7758ZM73.0251 14.7944C72.9172 14.9771 72.8093 15.1597 72.7096 15.3424C72.7073 15.3672 72.7073 15.3923 72.7096 15.4171C72.4689 15.7492 72.2281 16.0896 71.979 16.3885C71.73 16.6874 71.4394 17.0278 71.1488 17.3515C71.118 17.3035 71.0903 17.2536 71.0658 17.2021C71.9314 16.253 72.6862 15.2085 73.3157 14.0887C73.2327 14.3295 73.1248 14.562 72.9919 14.7944H73.0251ZM73.4652 13.6487C73.4554 13.6226 73.4391 13.5993 73.418 13.5811C73.3968 13.5629 73.3714 13.5503 73.3441 13.5445C73.3168 13.5387 73.2885 13.5399 73.2617 13.548C73.235 13.556 73.2107 13.5707 73.1912 13.5906C72.2793 14.4981 71.4461 15.4813 70.7005 16.5296C70.0778 15.4254 69.4551 14.3295 68.8159 13.2087C70.3888 13.3953 71.9729 13.4702 73.5565 13.4329C73.515 13.5242 73.4818 13.5823 73.4652 13.6487ZM66.8233 4.5909C68.7411 7.74578 71.6718 10.2531 74.204 12.8932C74.1786 12.8474 74.1413 12.8093 74.096 12.783C74.0507 12.7567 73.9991 12.7432 73.9467 12.7438C72.1389 12.7578 70.3318 12.6719 68.5336 12.4864L68.4671 12.312C68.6332 12.312 68.791 12.146 68.6664 11.98C68.4872 11.7226 68.2931 11.4759 68.0852 11.241C67.479 9.06359 67.0569 6.83905 66.8233 4.5909ZM64.8972 8.9247C65.6624 9.91582 66.4946 10.8534 67.3879 11.7309C67.3687 11.7817 67.3687 11.8378 67.3879 11.8886C67.4709 12.063 67.5622 12.2373 67.6535 12.4117C67.6205 12.4069 67.5869 12.4069 67.5539 12.4117C67.5029 12.3826 67.4433 12.3725 67.3855 12.3832C67.3278 12.3938 67.2757 12.4245 67.2384 12.4698L66.8648 12.8849C63.4193 13.4079 59.4924 13.7151 56.1631 12.7106C56.9934 11.7641 57.7655 10.7678 58.521 9.75494C59.6117 8.41065 60.6289 7.00826 61.5679 5.55395C62.7429 6.61116 63.8546 7.7367 64.8972 8.9247ZM57.1428 4.64071C58.6206 4.69052 60.1067 4.79845 61.5845 4.87317L61.543 4.91469C61.3106 4.78185 61.0449 5.10563 61.2358 5.29658C60.3273 6.34261 59.4949 7.45243 58.7451 8.61751C57.7157 10.0206 56.653 11.3905 55.5405 12.7687C55.4999 12.7564 55.4565 12.7564 55.4159 12.7687C55.8891 10.004 56.7775 7.38047 57.1428 4.64071ZM52.6097 10.2697C53.8966 8.60921 55.1004 6.89063 56.462 5.28829C55.9307 7.90352 55.1336 10.4606 54.7019 13.1008V13.2004H53.5728C52.8588 13.2004 51.2149 13.3498 50.5175 12.8102C51.298 12.3619 52.3275 10.635 52.6097 10.2697ZM50.4428 13.491C50.9081 13.6673 51.3986 13.7682 51.8957 13.7898C52.8505 13.8895 53.8136 13.8895 54.7683 13.9227C54.1458 15.1489 53.7893 16.4928 53.7223 17.8663C52.3544 16.6356 51.2403 15.1492 50.4428 13.491ZM55.308 19.369C54.9427 19.0369 54.5608 18.6799 54.1872 18.3146C54.4695 17.5342 54.5442 16.6542 54.76 15.8239C54.8929 15.3424 55.0506 14.8526 55.225 14.3793L55.5487 15.1265C55.4242 16.5296 55.0921 18.0323 55.4159 19.3773C55.4159 19.4037 55.4264 19.4291 55.4451 19.4478C55.4638 19.4664 55.4891 19.4769 55.5156 19.4769C55.542 19.4769 55.5673 19.4664 55.586 19.4478C55.6047 19.4291 55.6152 19.4037 55.6152 19.3773C55.8583 18.2123 55.9421 17.0197 55.8642 15.8322C55.9307 15.99 56.0054 16.1394 56.0801 16.2889C56.0641 16.2888 56.0483 16.2921 56.0336 16.2984C56.0189 16.3048 56.0057 16.3141 55.9948 16.3258C55.9839 16.3375 55.9755 16.3513 55.9702 16.3664C55.9649 16.3814 55.9627 16.3974 55.9639 16.4134C56.0327 17.0308 56.0605 17.652 56.0469 18.2731C55.9855 18.8858 56.0163 19.5043 56.1382 20.1079L55.308 19.369ZM56.3126 20.3072C56.3424 20.3067 56.3713 20.2969 56.3952 20.279C56.4191 20.2611 56.4366 20.2361 56.4454 20.2075C56.5895 19.5838 56.6092 18.9377 56.5035 18.3063C56.4601 17.788 56.388 17.2725 56.2877 16.7621L56.8107 17.8165C56.7661 17.8275 56.7263 17.8531 56.6978 17.8891C56.6692 17.9252 56.6535 17.9697 56.653 18.0157V19.2777C56.5821 19.6711 56.6224 20.0765 56.7692 20.4483C56.7844 20.4706 56.8049 20.4888 56.8288 20.5014C56.8526 20.5139 56.8792 20.5205 56.9062 20.5205C56.9332 20.5205 56.9597 20.5139 56.9836 20.5014C57.0075 20.4888 57.0279 20.4706 57.0432 20.4483C57.1848 20.1395 57.2282 19.7946 57.1677 19.4603C57.1677 19.1199 57.1677 18.7795 57.1677 18.4309C57.2922 18.6882 57.4334 18.9373 57.5662 19.1864C57.5327 19.2076 57.5052 19.2371 57.4863 19.2719C57.4674 19.3068 57.4578 19.346 57.4583 19.3856C57.4583 19.8422 57.4583 20.2989 57.4583 20.7472C57.4617 20.9754 57.498 21.2019 57.5662 21.4197C57.1262 21.0544 56.7111 20.6808 56.3126 20.3072ZM57.89 21.7103C57.9168 21.7066 57.9424 21.6973 57.9653 21.683C57.9882 21.6687 58.0078 21.6497 58.0228 21.6272C58.1723 21.3616 58.0229 21.0378 57.9813 20.7472C57.9398 20.4566 57.9398 20.1992 57.9315 19.917L58.164 20.3321C58.1188 20.3466 58.0797 20.3757 58.0527 20.4147C58.0257 20.4537 58.0122 20.5005 58.0145 20.5479C57.9789 21.1469 58.1651 21.738 58.5376 22.2084C58.557 22.2264 58.5806 22.2393 58.6062 22.2458C58.6319 22.2523 58.6588 22.2523 58.6845 22.2457C58.7101 22.239 58.7337 22.2261 58.753 22.208C58.7723 22.1898 58.7867 22.1672 58.795 22.142C58.8232 21.9218 58.7916 21.6982 58.7036 21.4944C58.6455 21.3201 58.5957 21.154 58.5542 20.988C58.9358 21.623 59.369 22.2255 59.8494 22.7896C59.7869 22.7859 59.7247 22.8015 59.6713 22.8341C59.6179 22.8668 59.5757 22.9149 59.5505 22.9722C58.9776 22.5654 58.4297 22.1669 57.89 21.7352V21.7103ZM45.3535 62.9063L45.0629 63.089L44.764 63.2467C38.2599 66.7684 30.6523 67.6599 23.5101 65.7374C23.5123 65.7115 23.5062 65.6855 23.4928 65.6631C23.4794 65.6408 23.4593 65.6232 23.4354 65.6129C17.3332 62.5244 12.5843 58.7469 8.7237 53.0183C3.40191 45.1062 5.83449 37.742 7.661 29.2571C7.67201 29.2207 7.66814 29.1815 7.65023 29.148C7.63233 29.1146 7.60186 29.0896 7.56553 29.0786C7.5292 29.0676 7.48998 29.0714 7.45651 29.0893C7.42303 29.1072 7.39805 29.1377 7.38704 29.174C4.29027 36.8703 3.36872 44.7077 7.38704 52.1548C10.1994 57.3221 14.4312 61.577 19.5831 64.4174C19.0933 64.2098 18.6117 63.9939 18.1385 63.7615C5.10388 57.4351 0.703664 40.0999 7.61119 27.8789C7.67761 28.1861 8.11764 28.3604 8.29199 28.0117C13.9625 16.8036 26.0091 12.9181 37.7984 15.8571C43.4987 17.3221 48.5952 20.5397 52.369 25.0561C51.8526 25.3313 51.351 25.6334 50.8663 25.961L50.6753 26.0275C50.5392 25.8525 50.3892 25.6887 50.227 25.5376C50.1914 25.5006 50.1466 25.4736 50.0972 25.4595C50.0478 25.4454 49.9956 25.4446 49.9458 25.4573C49.896 25.4699 49.8505 25.4956 49.8138 25.5316C49.7772 25.5676 49.7507 25.6126 49.7371 25.6622C49.5794 25.5293 49.4216 25.4048 49.3054 25.2886C49.2578 25.2458 49.1986 25.2182 49.1354 25.2091C49.0721 25.1999 49.0075 25.2097 48.9498 25.2373C48.892 25.2648 48.8438 25.3088 48.811 25.3637C48.7783 25.4187 48.7625 25.4821 48.7658 25.5459C48.5084 25.3218 48.2427 25.0893 47.9355 24.8817C47.907 24.8586 47.8738 24.8419 47.8383 24.8327C47.8028 24.8235 47.7657 24.8219 47.7295 24.8282C47.6933 24.8345 47.6589 24.8485 47.6286 24.8692C47.5983 24.8898 47.5727 24.9168 47.5536 24.9482C47.18 24.5746 46.7981 24.2093 46.3996 23.8606C46.371 23.8187 46.3269 23.79 46.2771 23.7806C46.2273 23.7713 46.1758 23.7821 46.1339 23.8107C46.0921 23.8394 46.0633 23.8834 46.054 23.9333C46.0446 23.9831 46.0555 24.0346 46.0841 24.0764C38.4211 17.5259 23.8837 17.2602 16.6026 24.3421C13.7092 26.5997 11.5449 29.6596 10.38 33.1398C9.21501 36.6199 9.10097 40.3661 10.0521 43.9107C10.017 43.9125 9.98265 43.9217 9.95138 43.9378C9.92011 43.9538 9.89259 43.9763 9.87064 44.0038C9.84868 44.0312 9.83279 44.063 9.82399 44.097C9.81519 44.1311 9.8137 44.1666 9.81961 44.2012C11.422 52.6613 18.0721 61.304 27.2545 61.8686C27.3054 61.8727 27.3562 61.8593 27.3985 61.8306C27.4408 61.8019 27.472 61.7597 27.4869 61.7108C30.2372 62.5242 33.1251 62.7644 35.9719 62.4165C36.7771 62.9163 37.7152 63.1595 38.6618 63.1139C38.7698 63.1139 38.8362 62.9562 38.7283 62.8897C38.2701 62.6754 37.7879 62.5165 37.292 62.4165C37.1591 62.4165 37.0346 62.3335 36.9018 62.292C37.375 62.2173 37.8482 62.1176 38.3132 62.0097C38.2954 62.0518 38.2941 62.099 38.3095 62.1421C38.3248 62.1851 38.3558 62.2208 38.3962 62.2422C39.1102 62.6241 40.6959 63.1222 41.2023 62.1591C41.2163 62.1335 41.2236 62.1047 41.2236 62.0755C41.2236 62.0462 41.2162 62.0175 41.2021 61.9919C41.1881 61.9662 41.1678 61.9446 41.1432 61.9288C41.1186 61.9131 41.0904 61.9038 41.0612 61.9018C40.7042 61.9018 40.3887 62.0844 40.0317 62.1259C39.574 62.1643 39.1137 62.0961 38.6867 61.9267C39.1766 61.8021 39.6664 61.6527 40.1563 61.495C40.1891 61.5483 40.2388 61.5892 40.2974 61.6112C40.6561 61.7344 41.0309 61.8043 41.4099 61.8187C41.8079 61.8388 42.1998 61.715 42.5141 61.47C42.5325 61.4559 42.5462 61.4366 42.5534 61.4146C42.5607 61.3926 42.5613 61.369 42.5551 61.3467C42.5488 61.3244 42.5361 61.3044 42.5184 61.2894C42.5008 61.2744 42.479 61.2651 42.456 61.2625C41.9496 61.2625 41.4348 61.2625 40.9367 61.2625C40.9824 61.243 41.0235 61.2143 41.0575 61.178C41.0915 61.1417 41.1175 61.0988 41.1339 61.0519C41.1503 61.005 41.1567 60.9552 41.1528 60.9057C41.1489 60.8562 41.1346 60.8081 41.111 60.7643C41.82 60.4652 42.5078 60.1185 43.17 59.7266L42.1903 60.5568C41.9994 60.7145 42.2484 61.0217 42.4477 60.8889C44.9048 59.4177 46.9766 57.3829 48.4918 54.9527C51.233 51.2011 52.8225 46.7324 53.0664 42.0924C53.074 42.1163 53.0878 42.1376 53.1064 42.1544C53.125 42.1711 53.1477 42.1826 53.1722 42.1877C53.1967 42.1927 53.2221 42.1912 53.2458 42.1832C53.2695 42.1752 53.2907 42.1611 53.3071 42.1423C53.9109 41.2872 54.3423 40.3228 54.5774 39.3029C54.677 39.0289 54.2453 38.921 54.1457 39.1783C53.709 40.0498 53.3506 40.9583 53.0747 41.8932C53.1677 40.0204 53.0479 38.1432 52.7177 36.2974C52.7384 36.3007 52.7597 36.2967 52.7778 36.2861C52.796 36.2755 52.8099 36.259 52.8173 36.2393C53.0153 35.5992 53.1434 34.9394 53.1992 34.2717C53.1992 34.1139 52.9916 34.0475 52.9667 34.2052C52.8315 34.7913 52.7289 35.3845 52.6596 35.9819C52.4865 35.0834 52.2591 34.1962 51.9788 33.3252C52.1809 32.8427 52.2663 32.3193 52.2278 31.7976C52.2324 31.7813 52.2324 31.764 52.2278 31.7478L52.3939 31.6232C52.8505 32.5697 53.2656 33.5411 53.6475 34.529C53.6214 34.514 53.5922 34.5051 53.5622 34.5029C53.5322 34.5008 53.502 34.5055 53.4741 34.5167C53.4461 34.5279 53.421 34.5453 53.4007 34.5675C53.3804 34.5898 53.3655 34.6164 53.3569 34.6453C53.0868 35.4471 52.9604 36.2902 52.9833 37.136C52.992 37.1575 53.0069 37.176 53.0261 37.1891C53.0453 37.2021 53.068 37.209 53.0913 37.209C53.1145 37.209 53.1372 37.2021 53.1564 37.1891C53.1757 37.176 53.1906 37.1575 53.1992 37.136C53.5316 36.3804 53.7202 35.5696 53.7554 34.7449C53.8302 34.9275 53.8883 35.1102 53.963 35.2928C53.8634 35.2928 53.7471 35.2929 53.7305 35.4008C53.606 36.2725 53.4234 37.136 53.3237 38.0077C53.3237 38.1322 53.5064 38.182 53.5562 38.0741C53.8491 37.2733 54.0252 36.4344 54.0792 35.5834C54.2121 35.9321 54.3449 36.2725 54.4695 36.6295C54.5193 36.7707 54.7683 36.7624 54.7517 36.588C54.5348 34.6593 53.9275 32.7949 52.9667 31.1085C53.7712 30.5866 54.6215 30.1392 55.5072 29.7718C58.33 36.1314 57.5164 43.7197 55.4325 50.2121C54.4998 53.1589 52.9678 55.8809 50.9327 58.2072C50.9062 58.1855 50.8755 58.1696 50.8424 58.1607C50.8094 58.1518 50.7748 58.15 50.741 58.1555C50.7072 58.161 50.675 58.1737 50.6465 58.1926C50.618 58.2115 50.5938 58.2363 50.5757 58.2654C49.6382 59.0426 48.7739 59.9041 47.9937 60.8391C47.1899 61.6203 46.3048 62.3134 45.3535 62.9063ZM48.1265 28.7423C46.8589 29.7658 45.7411 30.9619 44.8055 32.2957C45.8169 30.5242 47.1584 28.9628 48.7575 27.6962C48.5167 27.937 48.3008 28.1778 48.1099 28.4102C48.0694 28.4571 48.0486 28.5178 48.0517 28.5796C48.0547 28.6414 48.0815 28.6997 48.1265 28.7423ZM17.4079 55.866C18.5443 56.9227 19.7881 57.8577 21.119 58.6556C21.7423 59.0829 22.3881 59.4764 23.0535 59.8345C20.5231 58.8568 18.2202 57.3705 16.2871 55.4675C14.3127 53.4425 12.7729 51.0354 11.7623 48.3939C13.1655 51.2016 15.0639 53.7328 17.3664 55.866H17.4079ZM14.7927 27.2147H14.8923C10.3842 33.0927 9.0807 40.0086 11.8454 47.0406C10.4259 43.7925 9.9495 40.2104 10.4707 36.7042C10.992 33.198 12.4897 29.9094 14.7927 27.2147ZM21.8912 58.0744C19.3276 56.3127 17.0818 54.1286 15.2493 51.6152C7.87687 41.7936 11.1729 31.2662 19.4005 23.3873C19.4406 23.3537 19.4699 23.309 19.4846 23.2587C19.4994 23.2085 19.499 23.155 19.4835 23.105C27.7858 17.6753 41.0695 19.4686 47.4872 26.5671C47.7197 26.8162 47.9189 27.0902 48.1348 27.3974C45.2705 29.5726 43.3859 33.4248 41.8831 36.3887C39.2596 41.5196 39.0023 48.6015 41.9994 53.6244C42.5996 55.1654 43.3681 56.6355 44.2908 58.008L43.8508 58.3567C37.4829 62.6407 28.7489 61.9516 21.8912 58.0744ZM46.6072 54.5376C46.578 54.5582 46.5545 54.5856 46.5385 54.6175C46.5226 54.6493 46.5148 54.6846 46.5158 54.7203C46.4875 55.1063 46.5412 55.4939 46.6736 55.8577L46.5739 55.9656C46.5739 55.758 46.4826 55.5588 46.4577 55.3678C46.3664 54.8282 46.2751 54.2969 46.2004 53.7572C46.3249 54.0229 46.4743 54.2802 46.6072 54.5376ZM50.9825 32.5282C52.169 35.9836 52.5665 39.6609 52.1455 43.29C51.7245 46.9191 50.4959 50.4078 48.5499 53.4998C48.3174 53.8651 48.0684 54.2138 47.8193 54.5459C44.158 47.4723 46.0675 38.564 50.9825 32.5282ZM55.748 29.7718C63.5771 26.6086 73.7474 29.3152 78.0978 36.7042C82.166 43.6284 80.3893 52.9436 74.8433 58.4729C68.5336 64.7744 57.6492 64.8574 51.1983 59.0126C52.7543 57.3032 54.0572 55.3797 55.0672 53.3006C58.961 45.2058 58.961 36.7624 55.748 29.7386V29.7718ZM81.2942 56.6049C75.5407 67.6138 63.5273 69.515 52.8339 64.6664C51.1742 63.9075 49.6333 62.9119 48.2593 61.7108C48.4337 61.578 48.5914 61.4285 48.7575 61.2874C48.7695 61.5115 48.8445 61.7277 48.9737 61.9112C49.1029 62.0948 49.2811 62.2382 49.4881 62.3252C49.513 62.3316 49.5392 62.3322 49.5644 62.3268C49.5896 62.3214 49.6133 62.3102 49.6334 62.2941C49.6535 62.278 49.6696 62.2574 49.6804 62.234C49.6912 62.2105 49.6964 62.1849 49.6956 62.1591C49.6956 61.7108 49.3469 61.3289 49.2224 60.8889C49.3038 60.8213 49.3814 60.7492 49.4548 60.673C49.6375 61.2459 49.9115 62.0346 50.4594 62.0761C50.4914 62.0756 50.5224 62.0648 50.5478 62.0454C50.5732 62.026 50.5917 61.9989 50.6006 61.9682C50.6128 61.9135 50.6128 61.8568 50.6006 61.8021C51.1042 62.4231 51.6813 62.9806 52.3192 63.4626C52.3939 63.5124 52.4852 63.3962 52.4188 63.3298C51.866 62.8051 51.3422 62.2508 50.8496 61.6693C50.9497 61.7738 51.0644 61.8633 51.19 61.935C51.2096 61.9449 51.231 61.9509 51.2529 61.9525C51.2749 61.9541 51.2969 61.9514 51.3177 61.9444C51.3386 61.9375 51.3578 61.9265 51.3744 61.912C51.391 61.8976 51.4045 61.88 51.4142 61.8603C51.4079 61.8848 51.4079 61.9105 51.4142 61.935C52.1116 62.5576 52.8256 63.1637 53.5645 63.7366C54.2042 64.3611 54.9886 64.8175 55.8476 65.0649C55.8701 65.0654 55.8923 65.0598 55.9119 65.0487C55.9314 65.0375 55.9476 65.0213 55.9587 65.0017C55.9697 64.9821 55.9753 64.9599 55.9747 64.9374C55.9742 64.9149 55.9676 64.893 55.9556 64.874C55.4773 64.3715 54.9154 63.9558 54.2951 63.6452C53.3819 63.0226 52.5018 62.3667 51.6467 61.6776C51.625 61.6598 51.5995 61.6473 51.5722 61.641C51.5448 61.6347 51.5164 61.6347 51.4891 61.6411C51.4618 61.6476 51.4364 61.6602 51.4148 61.678C51.3931 61.6959 51.3759 61.7185 51.3644 61.744C51.0877 61.0622 50.7129 60.4245 50.2519 59.8511L50.3681 59.7349C51.2321 60.5698 52.1715 61.3229 53.1743 61.9848C53.2175 62.0071 53.2672 62.0136 53.3147 62.003C53.3622 61.9924 53.4044 61.9655 53.4341 61.9269C53.4638 61.8884 53.4789 61.8406 53.477 61.792C53.475 61.7434 53.456 61.697 53.4234 61.661L53.0415 61.2708C54.2547 62.0279 55.5607 62.625 56.9269 63.0475C56.9053 63.0577 56.8865 63.0731 56.872 63.0921C56.8575 63.1112 56.8478 63.1335 56.8438 63.1571C56.8397 63.1807 56.8413 63.2049 56.8486 63.2278C56.8558 63.2506 56.8685 63.2713 56.8854 63.2883C57.413 63.8126 58.0426 64.2231 58.7352 64.4945C59.4278 64.7658 60.1687 64.8921 60.9121 64.8657C61.02 64.8657 61.103 64.6913 60.9702 64.6332C59.6916 64.0438 58.2968 64.0936 57.1843 63.1222C58.1099 63.3953 59.057 63.5898 60.0154 63.7034C60.9762 64.3832 62.0768 64.8399 63.2367 65.04C63.2645 65.041 63.2918 65.0327 63.3143 65.0163C63.3368 65 63.3532 64.9765 63.3609 64.9498C63.3685 64.923 63.367 64.8945 63.3565 64.8687C63.346 64.843 63.3272 64.8214 63.3031 64.8076C62.5834 64.3961 61.8275 64.0514 61.0449 63.7781C62.1243 63.8485 63.2078 63.8235 64.2828 63.7034C64.276 63.7385 64.2813 63.7749 64.2979 63.8065C64.3145 63.8382 64.3414 63.8633 64.3741 63.8777C65.4371 64.3538 66.6263 64.4704 67.7615 64.2098C67.7835 64.2098 67.8046 64.2011 67.8202 64.1855C67.8357 64.1699 67.8445 64.1488 67.8445 64.1268C67.8445 64.1048 67.8357 64.0836 67.8202 64.0681C67.8046 64.0525 67.7835 64.0438 67.7615 64.0438C66.7735 63.7366 65.7108 63.9192 64.7062 63.6702C67.0292 63.3735 69.2794 62.659 71.348 61.5614C71.8536 61.6678 72.3767 61.6588 72.8783 61.5352C73.38 61.4116 73.8473 61.1765 74.2456 60.8474C74.2871 60.8474 74.2456 60.7228 74.1875 60.7477C73.454 61.0434 72.6772 61.2172 71.8877 61.2625C72.4274 60.9553 72.9504 60.6149 73.4652 60.2496C74.7799 60.0035 76.0027 59.4036 77.0019 58.5144C77.0517 58.4563 77.0019 58.3484 76.9189 58.3733C76.1265 58.6754 75.3505 59.019 74.5943 59.4028L74.669 59.3363C75.2441 58.8511 75.7825 58.3238 76.2796 57.7589C77.1053 57.3192 77.8272 56.7077 78.3967 55.9656C78.4548 55.8826 78.3386 55.7747 78.2639 55.8245C77.89 56.0751 77.5349 56.3526 77.2012 56.6547C81.6346 50.7352 81.9418 42.0592 78.2058 35.708C73.1081 27.0487 58.521 24.915 51.1153 31.673C51.0668 31.6748 51.0202 31.6923 50.9825 31.7229C48.6658 34.1015 46.9567 37.0035 45.9999 40.183C45.0432 43.3626 44.867 46.7259 45.4863 49.9879C45.3535 49.5728 45.2207 49.1577 45.1044 48.7343C43.5187 42.3913 46.0094 36.4469 50.2768 31.8225C50.3131 31.7861 50.3335 31.7369 50.3335 31.6855C50.3335 31.6341 50.3131 31.5848 50.2768 31.5485C50.2405 31.5122 50.1912 31.4918 50.1398 31.4918C50.0884 31.4918 50.0391 31.5122 50.0028 31.5485C43.7761 37.219 42.7632 46.1855 45.9845 53.4334C45.835 53.3587 45.5777 53.4334 45.5943 53.6493C45.6441 54.1972 45.669 54.7452 45.7437 55.3097C45.7624 55.712 45.8408 56.1094 45.9762 56.4887C45.8932 56.5717 45.8185 56.663 45.7354 56.7377C45.4365 56.9702 45.1543 57.2276 44.9052 57.4517L44.6561 57.651C43.8499 56.4624 43.163 55.197 42.6054 53.8734C42.6299 53.8121 42.6299 53.7438 42.6054 53.6825C42.456 53.3836 42.3232 53.0847 42.1986 52.7941C42.1986 52.7111 42.1322 52.6281 42.1073 52.5534C40.2227 47.1569 41.111 41.7603 43.1451 36.779C43.167 36.7851 43.19 36.7865 43.2124 36.7829C43.2349 36.7793 43.2563 36.771 43.2753 36.7583C43.2942 36.7457 43.3102 36.7292 43.3221 36.7098C43.334 36.6904 43.3416 36.6687 43.3444 36.6461C43.4115 36.3231 43.4974 36.0043 43.6017 35.6914C43.9338 34.9441 44.2825 34.2052 44.6561 33.4746C47.7363 30.245 50.8911 27.2396 55.1336 25.5044C56.7932 24.8397 58.5416 24.4229 60.3226 24.2674H60.3641C60.3656 24.2895 60.3656 24.3117 60.3641 24.3338C59.4598 24.4264 58.5703 24.63 57.7157 24.9399C57.3587 25.0727 57.5081 25.6456 57.8734 25.521C60.8622 24.45 63.602 25.3965 66.5991 25.5957C66.6367 25.5943 66.6728 25.5808 66.702 25.5572C66.7313 25.5336 66.7521 25.5012 66.7615 25.4648C66.7708 25.4284 66.7681 25.39 66.7538 25.3552C66.7395 25.3205 66.7144 25.2913 66.6822 25.272C66.1289 24.9645 65.5369 24.7328 64.9221 24.5829C64.9423 24.5385 64.9527 24.4904 64.9527 24.4417C64.9527 24.393 64.9423 24.3449 64.9221 24.3006H65.113H65.5115C65.5316 24.3521 65.5637 24.398 65.605 24.4347C65.6464 24.4713 65.6959 24.4977 65.7494 24.5114C65.8029 24.5252 65.8589 24.5261 65.9128 24.514C65.9667 24.5018 66.017 24.4771 66.0595 24.4417L66.1425 24.3836C68.046 24.6566 69.9214 25.0984 71.7466 25.7037C84.7812 30.0873 87.0311 45.6541 81.2942 56.6049Z" fill="#211717"/>
<path fill-rule="evenodd" clip-rule="evenodd" d="M54.2619 62.0263C54.0212 61.8602 53.8053 62.2504 54.0295 62.4165C55.2997 63.338 56.6862 64.6415 58.2304 65.0317C58.2464 65.0367 58.2636 65.0362 58.2793 65.0302C58.2949 65.0242 58.3081 65.0132 58.3168 64.9988C58.3254 64.9844 58.3289 64.9676 58.3268 64.951C58.3247 64.9344 58.3171 64.9189 58.3052 64.9072C57.2175 63.7448 55.5571 62.9478 54.2619 62.0263Z" fill="#211717"/>
<path fill-rule="evenodd" clip-rule="evenodd" d="M64.0751 64.3344C63.5677 64.2179 63.0685 64.0681 62.5807 63.8861C62.4728 63.8446 62.3981 64.0272 62.506 64.077C63.386 64.4506 64.5235 65.1729 65.5114 64.8409C65.5312 64.8409 65.5503 64.833 65.5643 64.819C65.5783 64.805 65.5861 64.786 65.5861 64.7661C65.5861 64.7463 65.5783 64.7273 65.5643 64.7133C65.5503 64.6993 65.5312 64.6914 65.5114 64.6914C65.0415 64.5393 64.5616 64.42 64.0751 64.3344Z" fill="#211717"/>
<path fill-rule="evenodd" clip-rule="evenodd" d="M67.67 63.5041C67.648 63.5006 67.6254 63.5052 67.6066 63.5172C67.5878 63.5292 67.574 63.5477 67.5678 63.5692C67.5617 63.5906 67.5636 63.6136 67.5733 63.6337C67.5829 63.6539 67.5996 63.6698 67.6202 63.6784C67.9709 63.8266 68.3478 63.903 68.7285 63.903C69.1093 63.903 69.4862 63.8266 69.8369 63.6784C69.8544 63.6701 69.8683 63.6559 69.8765 63.6384C69.8846 63.6209 69.8863 63.6011 69.8814 63.5824C69.8765 63.5637 69.8652 63.5473 69.8495 63.536C69.8338 63.5248 69.8147 63.5193 69.7954 63.5207C69.0875 63.5691 68.377 63.5636 67.67 63.5041Z" fill="#211717"/>
<path fill-rule="evenodd" clip-rule="evenodd" d="M71.2566 62.5825C70.8332 62.624 70.4264 62.6323 69.9864 62.6406C69.9423 62.6406 69.9001 62.6581 69.869 62.6892C69.8378 62.7204 69.8203 62.7626 69.8203 62.8067C69.8203 62.8507 69.8378 62.8929 69.869 62.9241C69.9001 62.9552 69.9423 62.9727 69.9864 62.9727C70.7968 63.107 71.6286 63.0092 72.3857 62.6904C72.4014 62.6794 72.4133 62.6637 72.4196 62.6456C72.4259 62.6274 72.4263 62.6078 72.4208 62.5894C72.4153 62.571 72.4041 62.5549 72.3888 62.5432C72.3736 62.5315 72.3551 62.5249 72.3359 62.5244C71.9751 62.4981 71.6125 62.5176 71.2566 62.5825Z" fill="#211717"/>
<path fill-rule="evenodd" clip-rule="evenodd" d="M78.4714 34.5208C79.4907 36.3445 80.2534 38.3001 80.738 40.3324C80.7961 40.5566 81.1863 40.5233 81.1614 40.2743C80.8569 38.12 80.0178 36.0764 78.7205 34.3298C78.6209 34.1887 78.3718 34.3547 78.4714 34.5208Z" fill="#211717"/>
<path fill-rule="evenodd" clip-rule="evenodd" d="M18.4123 58.6224C18.238 58.4065 17.8644 58.6971 18.0221 58.9213C19.4169 60.7976 21.4177 62.6739 23.7673 63.1887C23.9915 63.1887 24.1492 62.9147 23.9334 62.8068C21.814 61.8244 19.931 60.3973 18.4123 58.6224Z" fill="#211717"/>
<path fill-rule="evenodd" clip-rule="evenodd" d="M23.7426 61.4368C23.7006 61.4048 23.6484 61.3893 23.5958 61.3932C23.5432 61.3971 23.4938 61.4201 23.457 61.4579C23.4202 61.4957 23.3986 61.5457 23.3961 61.5984C23.3937 61.6511 23.4106 61.7029 23.4437 61.744C24.4729 62.9175 25.7929 63.7994 27.2711 64.3011C27.4205 64.3011 27.5617 64.1433 27.4288 64.0354C26.2416 63.0972 24.8385 62.4912 23.7426 61.4368Z" fill="#211717"/>
<path fill-rule="evenodd" clip-rule="evenodd" d="M26.4989 61.8686C26.2582 61.7191 26.0506 62.0844 26.2748 62.2422C27.4952 63.1222 28.7655 64.4589 30.2848 64.8076C30.4757 64.8574 30.6501 64.6083 30.484 64.4672C29.2256 63.4982 27.8931 62.6293 26.4989 61.8686Z" fill="#211717"/>
<path fill-rule="evenodd" clip-rule="evenodd" d="M30.65 63.2467C30.3843 63.1637 30.2764 63.5705 30.5338 63.6701C31.1405 63.9356 31.7717 64.1413 32.4184 64.2845C32.5595 64.2845 32.6592 64.1184 32.518 64.0437C31.9239 63.7156 31.298 63.4485 30.65 63.2467Z" fill="#211717"/>
<path fill-rule="evenodd" clip-rule="evenodd" d="M14.3775 24.9067C16.4697 22.6485 19.3589 20.382 22.4391 19.7178V19.6597C19.1435 20.2517 16.1931 22.0664 14.1783 24.7407C14.0454 24.8652 14.2779 25.0562 14.3775 24.9067Z" fill="#211717"/>
<path fill-rule="evenodd" clip-rule="evenodd" d="M40.9946 19.8921C43.9639 20.7604 46.7242 22.2267 49.106 24.201C49.2139 24.2923 49.3883 24.201 49.3135 24.0432C47.5867 21.32 44.025 20.3155 41.1025 19.4852C40.8452 19.4105 40.7372 19.809 40.9946 19.8921Z" fill="#211717"/>
<path fill-rule="evenodd" clip-rule="evenodd" d="M52.5017 32.3788C52.5099 32.7263 52.4849 33.0738 52.427 33.4166C52.427 33.4166 52.427 33.4664 52.4851 33.4166C52.6034 33.0781 52.6569 32.7204 52.6428 32.3622C52.6362 32.3479 52.6253 32.336 52.6115 32.3283C52.5978 32.3206 52.5819 32.3174 52.5663 32.3192C52.5506 32.3211 52.5359 32.3278 52.5243 32.3385C52.5127 32.3492 52.5048 32.3633 52.5017 32.3788Z" fill="#211717"/>
<path fill-rule="evenodd" clip-rule="evenodd" d="M52.7923 33.2671C52.6926 33.8234 52.6926 34.3796 52.6262 34.9276C52.6262 35.0023 52.7341 35.0189 52.7508 34.9276C52.8919 34.3879 52.95 33.8649 53.0579 33.3169C53.0662 33.1675 52.8255 33.1011 52.7923 33.2671Z" fill="#211717"/>
<path fill-rule="evenodd" clip-rule="evenodd" d="M53.8964 36.9783C53.5744 37.8575 53.2973 38.7525 53.0662 39.6599C53.0486 39.7028 53.0487 39.751 53.0666 39.7938C53.0846 39.8367 53.1187 39.8706 53.1617 39.8882C53.2046 39.9058 53.2528 39.9057 53.2956 39.8878C53.3384 39.8699 53.3724 39.8357 53.39 39.7928C53.8172 38.9408 54.0979 38.023 54.2202 37.0779C54.2139 37.0435 54.1983 37.0116 54.1751 36.9855C54.1519 36.9593 54.1219 36.9401 54.0886 36.9298C54.0552 36.9196 54.0196 36.9186 53.9857 36.9272C53.9518 36.9357 53.921 36.9534 53.8964 36.9783Z" fill="#211717"/>
<path fill-rule="evenodd" clip-rule="evenodd" d="M53.8966 41.9181C53.8925 41.8795 53.8925 41.8405 53.8966 41.8019V41.9181Z" fill="#211717"/>
<path fill-rule="evenodd" clip-rule="evenodd" d="M44.0915 50.5276C44.0842 50.499 44.0676 50.4737 44.0443 50.4556C44.021 50.4375 43.9923 50.4277 43.9628 50.4277C43.9333 50.4277 43.9046 50.4375 43.8813 50.4556C43.858 50.4737 43.8414 50.499 43.8341 50.5276C43.7345 51.4575 43.336 52.8523 43.9919 53.641C44.05 53.724 44.1745 53.641 44.1994 53.5912C44.2783 53.1491 44.2783 52.6966 44.1994 52.2545C44.1745 51.6816 44.1413 51.1088 44.0915 50.5276Z" fill="#211717"/>
<path fill-rule="evenodd" clip-rule="evenodd" d="M44.5812 54.9445C44.5867 54.9611 44.5973 54.9755 44.6114 54.9858C44.6256 54.996 44.6426 55.0016 44.6601 55.0016C44.6776 55.0016 44.6946 54.996 44.7088 54.9858C44.723 54.9755 44.7335 54.9611 44.739 54.9445C44.963 54.0197 44.963 53.0548 44.739 52.13C44.739 51.9141 44.3737 51.9058 44.3986 52.13C44.465 53.0598 44.2325 54.1142 44.5812 54.9445Z" fill="#211717"/>
<path fill-rule="evenodd" clip-rule="evenodd" d="M45.8931 56.3476C45.8528 55.8059 45.7752 55.2678 45.6606 54.7369C45.5585 54.078 45.5223 53.4105 45.5527 52.7443C45.5527 52.487 45.1957 52.5036 45.1625 52.7443C45.0213 53.8984 44.8968 55.4094 45.5444 56.4472C45.567 56.4804 45.5994 56.5056 45.6372 56.5193C45.675 56.533 45.7161 56.5344 45.7547 56.5234C45.7934 56.5124 45.8275 56.4894 45.8524 56.4579C45.8772 56.4263 45.8914 56.3877 45.8931 56.3476Z" fill="#211717"/>
<path fill-rule="evenodd" clip-rule="evenodd" d="M0.76182 42.8895C0.579011 45.5941 1.09958 48.2999 2.27285 50.7435C2.37248 50.9345 2.66306 50.8016 2.61325 50.5941C2.03208 48.0203 1.21015 45.5463 1.00259 42.8895C0.99556 42.863 0.979928 42.8395 0.958154 42.8227C0.93638 42.806 0.909671 42.7969 0.882195 42.7969C0.854719 42.7969 0.828035 42.806 0.806261 42.8227C0.784487 42.8395 0.768855 42.863 0.76182 42.8895Z" fill="#211717"/>
<path fill-rule="evenodd" clip-rule="evenodd" d="M0.454601 50.5856C0.354973 50.3117 -0.0850485 50.4279 0.0145793 50.7102C0.377269 51.5791 0.947385 52.3459 1.67504 52.9435C1.70851 52.9649 1.74826 52.9742 1.78774 52.9699C1.82721 52.9656 1.86405 52.9479 1.89213 52.9198C1.92021 52.8917 1.93786 52.8549 1.94217 52.8154C1.94647 52.776 1.93718 52.7362 1.91582 52.7027C1.29015 52.1035 0.792985 51.3832 0.454601 50.5856Z" fill="#211717"/>
<path fill-rule="evenodd" clip-rule="evenodd" d="M84.1667 34.3049C84.2663 34.5208 84.6067 34.363 84.5486 34.1471C83.7682 31.2247 81.4435 29.1159 79.4925 26.949C79.3514 26.7913 79.1438 27.0155 79.2683 27.1732C81.2117 29.3215 82.8591 31.72 84.1667 34.3049Z" fill="#211717"/>
<path fill-rule="evenodd" clip-rule="evenodd" d="M85.2045 30.4111C85.0883 30.1288 84.6233 30.245 84.7396 30.5356C85.9058 33.819 86.6371 37.241 86.9148 40.7142C86.9249 40.7673 86.9533 40.8152 86.995 40.8497C87.0367 40.8841 87.089 40.903 87.1431 40.903C87.1971 40.903 87.2495 40.8841 87.2912 40.8497C87.3329 40.8152 87.3612 40.7673 87.3714 40.7142C87.5707 37.1858 86.5246 33.6407 85.2045 30.4111Z" fill="#211717"/>
<path fill-rule="evenodd" clip-rule="evenodd" d="M11.5548 18.3146C12.7329 17.6547 13.8621 16.9111 14.9338 16.0896C15.1331 15.9402 15.0334 15.5749 14.7512 15.6579C13.4397 16.1641 12.2324 16.9071 11.1895 17.8497C10.9321 18.0656 11.2725 18.4724 11.5548 18.3146Z" fill="#211717"/>
<path fill-rule="evenodd" clip-rule="evenodd" d="M82.6058 60.2164C81.7487 62.1009 80.6031 63.8404 79.2102 65.3721C79.1742 65.4201 79.1568 65.4794 79.161 65.5392C79.1653 65.599 79.1909 65.6553 79.2333 65.6977C79.2757 65.7401 79.332 65.7657 79.3918 65.77C79.4516 65.7742 79.511 65.7568 79.5589 65.7208C81.1839 64.2779 82.3718 62.4083 82.9878 60.3243C83.0708 60.0752 82.6889 59.9756 82.6058 60.2164Z" fill="#211717"/>
</svg>
