<svg width="148" height="106" viewBox="0 0 148 106" fill="none" xmlns="http://www.w3.org/2000/svg">
<path d="M142.503 31.9717C142.534 31.9501 142.557 31.9188 142.568 31.8828C142.579 31.8468 142.578 31.8081 142.564 31.7729C142.551 31.7376 142.526 31.7079 142.494 31.6883C142.462 31.6686 142.424 31.6603 142.387 31.6646C140.904 31.6646 139.443 32.0035 137.97 32.1306C136.52 32.2065 135.065 32.1817 133.618 32.0564C135.154 28.3393 136.689 24.4527 138.034 20.4814C139.143 20.6402 140.272 20.608 141.37 20.3861C142.238 20.2378 143.552 20.1001 143.88 19.1576C143.903 19.0953 143.903 19.0266 143.88 18.9644C143.856 18.9021 143.811 18.8503 143.753 18.8187C142.99 18.3845 142.027 18.9034 141.243 19.0729C140.305 19.2385 139.356 19.3305 138.405 19.3482C140.049 14.5348 141.202 9.56744 141.846 4.52199C141.846 4.17251 141.359 3.95012 141.232 4.32077C139.633 8.88514 138.278 13.4919 136.837 18.088C136.574 17.9175 136.319 17.7337 136.075 17.5373C135.572 17.099 135.101 16.6248 134.666 16.1182C134.285 15.684 133.427 16.0017 133.703 16.6265C134.244 17.8741 135.177 18.9113 136.361 19.5812C135.228 23.1289 134.031 26.6555 132.612 30.1714L132.167 31.2304C131.734 31.1018 131.31 30.9461 130.896 30.7644C129.596 29.9264 128.407 28.9265 127.359 27.7886C127.327 27.7644 127.289 27.7498 127.248 27.7467C127.208 27.7435 127.168 27.7519 127.132 27.7708C127.097 27.7897 127.067 27.8183 127.048 27.8534C127.028 27.8884 127.018 27.9284 127.02 27.9686C127.444 29.5171 128.454 30.8393 129.837 31.654C130.375 32.0496 130.954 32.3869 131.563 32.6601C129.601 37.2139 127.458 41.6864 125.135 46.0778C124.08 45.3962 123.065 44.6536 122.096 43.8539C120.916 42.5273 119.812 41.1342 118.792 39.6814C118.718 39.5966 118.548 39.6814 118.569 39.7661C118.978 41.6099 119.925 43.2907 121.291 44.5952C122.186 45.6544 123.262 46.5471 124.468 47.2322C122.922 50.0986 121.298 52.9226 119.597 55.7043C118.495 57.4905 117.358 59.2555 116.186 60.9994C114.375 59.3752 112.65 57.6572 111.019 55.8526C109.568 54.0734 108.562 51.3835 106.782 50.028C106.758 50.0096 106.729 49.9986 106.699 49.9964C106.668 49.9941 106.638 50.0006 106.611 50.0151C106.584 50.0296 106.562 50.0515 106.548 50.0782C106.533 50.1049 106.526 50.1353 106.528 50.1656C106.581 52.6649 109.049 55.3231 110.542 57.1763C111.956 59.0283 113.621 60.6749 115.488 62.069C112.522 66.4216 109.345 70.6153 105.956 74.6713C103.465 72.6018 101.194 70.2808 99.1787 67.7453C97.2936 65.2249 96.1605 62.2914 94.4661 59.665C94.4158 59.6026 94.3471 59.5577 94.2698 59.5365C94.1924 59.5154 94.1104 59.5192 94.0354 59.5473C93.9603 59.5755 93.8961 59.6265 93.8517 59.6933C93.8073 59.7601 93.7852 59.8391 93.7883 59.9192C94.2648 66.0615 99.74 72.7439 105.014 75.8044C104.251 76.7152 103.478 77.626 102.695 78.5261C99.7471 81.8283 96.6257 84.971 93.3435 87.9408C92.7399 86.0769 91.0878 84.3507 90.1664 82.7092C88.5991 80.0087 87.7519 77.0011 86.301 74.2371C86.0786 73.8135 85.475 74.1418 85.4962 74.5336C85.6233 77.4142 86.9364 80.21 88.2496 82.7198C89.2451 84.6049 90.6006 87.4854 92.6128 88.6186C89.118 91.8592 85.6021 95.0574 82.3297 98.531C81.9485 98.944 82.5309 99.4947 82.9757 99.2299C86.9035 96.7214 90.5375 93.7801 93.8095 90.4612C96.4147 93.9136 101.413 98.2768 105.512 97.1542C105.568 97.1295 105.617 97.0888 105.65 97.0371C105.684 96.9853 105.702 96.9249 105.702 96.863C105.702 96.8012 105.684 96.7407 105.65 96.6889C105.617 96.6372 105.568 96.5965 105.512 96.5718C103.394 95.3751 101.159 94.9197 99.1575 93.49C97.6139 92.248 96.1397 90.9223 94.7414 89.5187C97.6643 86.5746 100.428 83.4823 103.055 80.57C104.22 79.2886 105.353 77.9754 106.465 76.6517C110.531 80.8877 118.643 84.9755 124.468 84.6049C124.536 84.5946 124.6 84.5631 124.649 84.5149C124.698 84.4666 124.731 84.404 124.743 84.336C124.755 84.268 124.744 84.198 124.714 84.136C124.684 84.074 124.635 84.0232 124.574 83.9906C121.82 82.6457 118.686 82.148 115.826 80.9725C112.649 79.6699 109.981 77.626 107.005 76.0162C110.535 71.7802 113.85 67.3641 116.949 62.7679C117.025 62.7421 117.091 62.6941 117.14 62.6303C119.184 64.0811 121.82 64.6 124.224 65.1825C127.507 65.9874 131.341 66.7287 134.698 66.0933C134.766 66.0803 134.827 66.0441 134.871 65.991C134.915 65.9378 134.939 65.871 134.939 65.802C134.939 65.7331 134.915 65.6663 134.871 65.6131C134.827 65.5599 134.766 65.5238 134.698 65.5108C131.765 64.8436 128.662 64.8648 125.675 64.3247C122.689 63.7846 120.147 62.5138 117.32 62.2067C118.379 60.6605 119.438 59.1143 120.38 57.547C122.392 54.377 124.288 51.1399 126.067 47.8358C127.412 48.7677 129.498 48.7042 131.055 48.7889C132.919 48.8842 135.185 48.9372 136.806 47.9205C136.843 47.8926 136.872 47.8543 136.889 47.8103C136.905 47.7663 136.909 47.7184 136.899 47.6726C136.888 47.6267 136.865 47.5847 136.832 47.5516C136.799 47.5186 136.756 47.4959 136.71 47.4863C134.73 47.1157 132.474 47.6664 130.473 47.5605C129.148 47.331 127.812 47.1789 126.47 47.1051C128.905 42.5372 131.126 37.874 133.131 33.1155C136.032 33.9839 140.184 33.772 142.503 31.9717Z" fill="white"/>
<path d="M84.0558 64.7696C84.012 64.711 83.9522 64.6664 83.8837 64.6409C83.8151 64.6154 83.7407 64.6101 83.6693 64.6257C83.5978 64.6414 83.5324 64.6772 83.4808 64.729C83.4291 64.7808 83.3935 64.8463 83.3781 64.9178C83.2404 66.9511 82.5097 72.744 84.6171 74.6926L84.7018 74.8302C84.9778 75.216 85.3406 75.5316 85.7609 75.7516L85.9303 75.8045C86.0229 75.8577 86.1306 75.8782 86.2362 75.8628C86.3418 75.8475 86.4392 75.7971 86.5128 75.7198C89.3509 72.7122 85.8138 67.523 84.0558 64.7696ZM86.3857 73.8136C86.3578 73.847 86.3208 73.8716 86.2792 73.8842C86.2375 73.8968 86.1931 73.8969 86.1514 73.8845C86.1097 73.8721 86.0725 73.8477 86.0445 73.8144C86.0165 73.7811 85.9989 73.7403 85.9938 73.6971C86.1235 72.2412 85.8564 70.7773 85.2208 69.461C84.6453 68.4772 84.2407 67.403 84.0241 66.284C84.0241 66.1992 84.1406 66.1675 84.1617 66.284C84.8713 68.2537 87.8895 71.579 86.4069 73.8136H86.3857Z" fill="white"/>
<path d="M92.3057 70.1175C92.2965 70.0443 92.2663 69.9754 92.2187 69.919C92.171 69.8627 92.1081 69.8214 92.0375 69.8001C91.9669 69.7788 91.8916 69.7784 91.8208 69.799C91.75 69.8197 91.6866 69.8604 91.6385 69.9163C90.5795 71.6213 87.0847 76.334 87.9743 79.0556C87.969 79.112 87.969 79.1687 87.9743 79.2251C88.0156 79.6838 88.1643 80.1265 88.4085 80.5171C88.4453 80.5646 88.488 80.6073 88.5356 80.6442C88.5903 80.7362 88.6743 80.8071 88.7742 80.8455C88.8741 80.8839 88.984 80.8876 89.0863 80.856C93.047 79.6169 92.5281 73.3581 92.3057 70.1175ZM89.9441 79.1509C89.7852 79.2357 89.5734 79.0133 89.6687 78.8544C90.4844 77.6384 90.9631 76.2279 91.0561 74.7666C91.0273 73.616 91.1993 72.4692 91.5644 71.3778C91.5699 71.364 91.5794 71.3522 91.5917 71.3439C91.6039 71.3356 91.6184 71.3311 91.6332 71.3311C91.648 71.3311 91.6625 71.3356 91.6748 71.3439C91.687 71.3522 91.6966 71.364 91.7021 71.3778C91.3102 73.5487 92.3375 77.9225 89.9441 79.1509Z" fill="white"/>
<path d="M77.2887 79.3521C77.219 79.3741 77.1571 79.4157 77.1104 79.4719C77.0637 79.5281 77.0341 79.5965 77.0252 79.669C77.0163 79.7416 77.0284 79.8152 77.0601 79.881C77.0918 79.9469 77.1417 80.0022 77.204 80.0404C79.0679 80.8559 84.2994 83.4611 86.8199 82.1585H86.9893C87.4374 82.0422 87.8512 81.8207 88.1966 81.5125L88.3025 81.3642C88.3826 81.2953 88.4374 81.2017 88.4585 81.0982C88.4796 80.9947 88.4657 80.8871 88.419 80.7924C86.5339 77.0434 80.4552 78.632 77.2887 79.3521ZM86.5869 80.1675C86.6088 80.2051 86.6192 80.2483 86.6168 80.2918C86.6144 80.3352 86.5992 80.377 86.5733 80.412C86.5474 80.4469 86.5118 80.4735 86.4709 80.4884C86.43 80.5033 86.3857 80.5059 86.3433 80.4958C85.0176 79.8938 83.5554 79.6561 82.1073 79.8075C80.9791 80.0244 79.822 80.0459 78.6866 79.871C78.6125 79.871 78.6231 79.7333 78.6866 79.7333C80.8788 79.7651 84.9772 78.0177 86.5869 80.1675Z" fill="white"/>
<path d="M104.431 96.5294C104.354 96.603 104.304 96.7004 104.288 96.806C104.273 96.9116 104.294 97.0193 104.347 97.1119C104.353 97.1713 104.371 97.2289 104.4 97.2813C104.612 97.7032 104.925 98.0668 105.31 98.3403L105.459 98.4356C107.386 100.554 113.189 99.8336 115.223 99.6959C115.294 99.6805 115.36 99.6448 115.412 99.5932C115.463 99.5416 115.499 99.4761 115.515 99.4047C115.531 99.3332 115.525 99.2588 115.5 99.1903C115.474 99.1217 115.43 99.062 115.371 99.0181C112.649 97.239 107.439 93.6913 104.431 96.5294ZM113.963 98.8698C114.037 98.8698 113.963 99.0181 113.963 99.0075C112.843 98.789 111.768 98.3807 110.786 97.8002C109.469 97.1638 108.007 96.8897 106.549 97.006C106.506 97.0039 106.464 96.9884 106.43 96.9616C106.395 96.9348 106.37 96.898 106.357 96.8563C106.344 96.8146 106.345 96.77 106.358 96.7285C106.372 96.6871 106.398 96.6508 106.433 96.6247C108.583 95.1421 111.887 98.1709 113.941 98.8698H113.963Z" fill="white"/>
<path d="M99.2951 93.9135C99.2635 94.0157 99.2672 94.1257 99.3056 94.2256C99.344 94.3255 99.4149 94.4095 99.5069 94.4642L99.634 94.5807C100.026 94.8313 100.473 94.9838 100.937 95.0255H101.106C103.817 95.9256 108.519 92.4944 110.245 91.3825C110.301 91.335 110.342 91.2725 110.363 91.2025C110.384 91.1325 110.385 91.0579 110.365 90.9875C110.345 90.9172 110.305 90.8541 110.25 90.8059C110.195 90.7576 110.127 90.7261 110.055 90.7153C106.804 90.5458 100.555 89.9634 99.2951 93.9135ZM108.742 91.3295C108.761 91.3295 108.78 91.3373 108.794 91.3512C108.808 91.3651 108.816 91.384 108.816 91.4036C108.816 91.4233 108.808 91.4421 108.794 91.456C108.78 91.4699 108.761 91.4778 108.742 91.4778C107.651 91.8302 106.509 91.9949 105.363 91.9649C103.899 92.0523 102.485 92.5275 101.265 93.3416C101.226 93.358 101.182 93.3627 101.14 93.3552C101.098 93.3477 101.059 93.3283 101.028 93.2993C100.997 93.2703 100.975 93.2329 100.964 93.1916C100.953 93.1502 100.955 93.1068 100.968 93.0663C102.25 90.6835 106.613 91.7213 108.742 91.3295Z" fill="white"/>
<path d="M99.4329 94.5913C99.3386 94.5427 99.2305 94.5277 99.1265 94.5489C99.0225 94.5701 98.9288 94.6262 98.861 94.7078L98.7128 94.8137C98.4075 95.1587 98.1832 95.5676 98.0562 96.0104C98.061 96.0668 98.061 96.1234 98.0562 96.1798C96.7218 98.7003 99.3164 103.932 100.121 105.806C100.158 105.872 100.214 105.925 100.281 105.959C100.348 105.993 100.424 106.006 100.499 105.997C100.574 105.988 100.644 105.957 100.701 105.908C100.759 105.859 100.8 105.794 100.82 105.722C101.498 102.555 103.118 96.4869 99.4329 94.5913ZM100.397 104.334C100.397 104.354 100.389 104.373 100.375 104.387C100.361 104.401 100.342 104.408 100.322 104.408C100.303 104.408 100.284 104.401 100.27 104.387C100.256 104.373 100.248 104.354 100.248 104.334C100.081 103.198 100.109 102.041 100.333 100.914C100.48 99.4667 100.247 98.0064 99.6553 96.6776C99.6405 96.6376 99.6374 96.5943 99.6465 96.5527C99.6556 96.5111 99.6764 96.4729 99.7065 96.4428C99.7366 96.4127 99.7747 96.3919 99.8164 96.3828C99.858 96.3737 99.9013 96.3768 99.9412 96.3916C102.123 98.0437 100.375 102.163 100.397 104.334Z" fill="white"/>
<path d="M122.593 83.853C122.527 83.9356 122.491 84.0383 122.491 84.1442C122.491 84.25 122.527 84.3528 122.593 84.4354C122.61 84.4951 122.635 84.5521 122.668 84.6048C122.925 84.9878 123.27 85.3037 123.674 85.5262L123.822 85.6003C125.94 87.5066 131.659 86.2357 133.66 85.8969C133.733 85.8779 133.799 85.8375 133.849 85.781C133.9 85.7245 133.932 85.6543 133.942 85.5793C133.952 85.5044 133.94 85.4281 133.907 85.3602C133.874 85.2923 133.821 85.2358 133.755 85.1979C130.822 83.747 125.357 80.7289 122.593 83.853ZM132.294 85.2403C132.368 85.2403 132.358 85.3779 132.294 85.3779C131.149 85.2769 130.031 84.9758 128.99 84.4884C127.611 83.9846 126.123 83.8603 124.68 84.1283C124.637 84.127 124.596 84.1136 124.561 84.0898C124.526 84.0659 124.499 84.0325 124.482 83.9936C124.465 83.9547 124.46 83.9118 124.467 83.87C124.474 83.8282 124.493 83.7892 124.521 83.7576C126.586 82.0632 130.187 84.7425 132.294 85.2403Z" fill="white"/>
<path d="M117.235 81.7562C117.215 81.8613 117.23 81.9701 117.278 82.0658C117.326 82.1615 117.404 82.2388 117.5 82.2857C117.539 82.3291 117.585 82.365 117.637 82.3916C118.051 82.6011 118.508 82.7099 118.972 82.7093H119.141C121.926 83.3341 126.29 79.4581 127.878 78.1767C127.931 78.1249 127.967 78.0583 127.982 77.9857C127.997 77.9131 127.989 77.8378 127.961 77.7694C127.932 77.701 127.884 77.6427 127.822 77.602C127.76 77.5614 127.687 77.5402 127.613 77.5413C124.373 77.6684 118.093 77.7107 117.235 81.7562ZM126.374 78.2508C126.393 78.2424 126.413 78.2416 126.432 78.2485C126.451 78.2555 126.467 78.2697 126.475 78.2879C126.483 78.3062 126.484 78.327 126.477 78.3459C126.47 78.3648 126.456 78.3801 126.438 78.3885C125.385 78.8538 124.26 79.1333 123.113 79.2145C121.664 79.4449 120.304 80.0593 119.173 80.9937C119.135 81.0136 119.092 81.022 119.049 81.0178C119.006 81.0136 118.965 80.997 118.931 80.9701C118.898 80.9432 118.873 80.907 118.859 80.8661C118.846 80.8252 118.844 80.7812 118.855 80.7395C119.851 78.2508 124.299 78.8545 126.417 78.2508H126.374Z" fill="white"/>
<path d="M117.436 82.4127C117.336 82.3734 117.226 82.3698 117.123 82.4026C117.021 82.4354 116.933 82.5026 116.875 82.5927C116.823 82.6237 116.776 82.663 116.737 82.7092C116.463 83.0809 116.281 83.513 116.208 83.9694C116.203 84.0258 116.203 84.0825 116.208 84.1388C115.149 86.7864 118.22 91.732 119.215 93.5111C119.259 93.5697 119.319 93.6143 119.388 93.6398C119.456 93.6653 119.53 93.6706 119.602 93.655C119.673 93.6393 119.739 93.6035 119.79 93.5517C119.842 93.4999 119.878 93.4344 119.893 93.3629C120.274 90.1329 121.28 83.9376 117.436 82.4127ZM119.353 92.0179C119.348 92.0317 119.338 92.0435 119.326 92.0518C119.313 92.0601 119.299 92.0646 119.284 92.0646C119.269 92.0646 119.255 92.0601 119.243 92.0518C119.23 92.0435 119.221 92.0317 119.215 92.0179C118.937 90.9041 118.847 89.7514 118.951 88.6079C118.989 87.1259 118.623 85.6613 117.892 84.3718C117.807 84.2024 118.04 84.0012 118.188 84.0965C120.454 85.5791 119.12 89.8681 119.353 92.0179Z" fill="white"/>
<path d="M133.417 65.6061C133.359 65.6804 133.328 65.7716 133.328 65.8656C133.328 65.9595 133.359 66.0508 133.417 66.125C133.439 66.1743 133.467 66.2206 133.501 66.2627C133.779 66.5614 134.124 66.79 134.507 66.9299H134.645C136.763 68.3172 141.592 66.4427 143.297 65.8709C143.356 65.8436 143.405 65.8002 143.44 65.7458C143.474 65.6914 143.493 65.6283 143.493 65.5638C143.493 65.4992 143.474 65.4361 143.44 65.3817C143.405 65.3273 143.356 65.2839 143.297 65.2566C140.597 64.4306 135.386 62.5032 133.417 65.6061ZM142.079 65.5426C142.154 65.5426 142.154 65.6591 142.079 65.6697C141.064 65.7282 140.047 65.61 139.072 65.3202C137.797 65.0644 136.478 65.1521 135.249 65.5743C135.211 65.5781 135.174 65.5713 135.14 65.5547C135.106 65.538 135.077 65.5123 135.058 65.4803C135.038 65.4483 135.027 65.4113 135.027 65.3737C135.027 65.336 135.038 65.2991 135.058 65.2672C136.668 63.5622 140.184 65.3837 142.079 65.5426Z" fill="white"/>
<path d="M128.534 64.7376C128.529 64.8328 128.556 64.927 128.612 65.0042C128.668 65.0815 128.749 65.1369 128.842 65.1612L128.979 65.2459C129.368 65.3729 129.782 65.4055 130.186 65.3412H130.324C132.855 65.5213 136.159 61.5394 137.377 60.2156C137.419 60.1639 137.443 60.101 137.448 60.035C137.453 59.9689 137.438 59.903 137.405 59.8457C137.372 59.7884 137.322 59.7426 137.262 59.7141C137.202 59.6856 137.135 59.6758 137.07 59.6861C134.243 60.2156 128.757 61.084 128.534 64.7376ZM136.075 60.5015C136.089 60.4917 136.106 60.4879 136.123 60.4908C136.14 60.4938 136.155 60.5034 136.165 60.5174C136.174 60.5315 136.178 60.5488 136.175 60.5657C136.172 60.5826 136.163 60.5976 136.149 60.6074C135.293 61.1571 134.346 61.5515 133.353 61.7724C132.124 62.1815 131.026 62.9129 130.176 63.8904C130.145 63.912 130.109 63.9248 130.072 63.9272C130.035 63.9296 129.998 63.9215 129.965 63.9039C129.932 63.8863 129.904 63.8599 129.885 63.8276C129.867 63.7952 129.857 63.7583 129.858 63.7209C130.367 61.3276 134.338 61.264 136.075 60.4698V60.5015Z" fill="white"/>
<path d="M128.799 65.2884C128.707 65.2697 128.611 65.2825 128.526 65.3248C128.442 65.367 128.374 65.4362 128.333 65.5213C128.295 65.5569 128.259 65.5959 128.228 65.6378C128.04 66.0019 127.939 66.404 127.931 66.8133V66.9616C127.338 69.4185 130.706 73.3157 131.796 74.7771C131.843 74.8249 131.902 74.8581 131.967 74.8726C132.031 74.887 132.099 74.8821 132.161 74.8584C132.223 74.8347 132.277 74.7933 132.316 74.7393C132.354 74.6853 132.376 74.6211 132.379 74.5548C132.305 71.6742 132.368 66.125 128.799 65.2884ZM131.754 73.4428C131.754 73.5169 131.659 73.5593 131.627 73.4428C131.238 72.5064 131.009 71.5111 130.949 70.4987C130.773 69.2129 130.254 67.9984 129.445 66.9828C129.35 66.8451 129.52 66.6333 129.668 66.6969C131.86 67.6712 131.256 71.5895 131.712 73.4428H131.754Z" fill="white"/>
<path d="M135.662 47.7299C135.633 47.7949 135.626 47.8679 135.643 47.937C135.661 48.0062 135.701 48.0675 135.757 48.1112L135.842 48.1959C136.085 48.3901 136.372 48.521 136.678 48.5771H136.784C138.532 49.3608 141.91 47.3804 143.138 46.7556C143.34 46.6603 143.255 46.332 143.054 46.3002C140.883 45.9825 136.753 45.1883 135.662 47.7299ZM142.122 46.6709C142.122 46.6709 142.196 46.745 142.122 46.7662C141.37 46.9286 140.597 46.9644 139.834 46.8721C138.851 46.8293 137.874 47.0525 137.007 47.5181C136.901 47.5711 136.763 47.4122 136.837 47.3063C137.843 45.7707 140.671 46.7556 142.122 46.6179V46.6709Z" fill="white"/>
<path d="M131.913 47.6771C131.92 47.7489 131.95 47.8163 132 47.8683C132.051 47.9203 132.117 47.9537 132.188 47.963H132.305C132.61 48.007 132.921 47.9816 133.216 47.8889H133.321C135.228 47.7194 137.219 44.3623 137.971 43.2186C138.087 43.0386 137.865 42.795 137.674 42.8691C135.63 43.5998 131.638 44.913 131.913 47.6771ZM137.028 43.5787C137.028 43.5787 137.134 43.5787 137.092 43.6528C136.517 44.1657 135.858 44.5742 135.143 44.8601C134.278 45.307 133.547 45.9758 133.025 46.7981C133.005 46.8187 132.979 46.833 132.951 46.8392C132.923 46.8455 132.894 46.8435 132.867 46.8334C132.84 46.8233 132.816 46.8055 132.799 46.7823C132.782 46.7591 132.772 46.7315 132.771 46.7028C132.866 44.9024 135.821 44.3729 137.007 43.5681L137.028 43.5787Z" fill="white"/>
<path d="M132.178 48.0477C132.106 48.0421 132.034 48.061 131.975 48.1014C131.915 48.1418 131.871 48.2013 131.849 48.2701C131.842 48.305 131.842 48.3412 131.849 48.376C131.748 48.6682 131.719 48.9808 131.765 49.2868C131.76 49.3255 131.76 49.3646 131.765 49.4033C131.606 51.3095 134.592 53.83 135.588 54.7619C135.628 54.7909 135.675 54.8078 135.724 54.8104C135.773 54.813 135.822 54.8012 135.865 54.7765C135.907 54.7518 135.942 54.7153 135.964 54.6713C135.987 54.6274 135.996 54.5779 135.99 54.5289C135.556 52.3897 134.942 48.2384 132.178 48.0477ZM135.355 53.777C135.355 53.83 135.302 53.8723 135.27 53.83C134.869 53.1764 134.579 52.4606 134.412 51.7119C134.123 50.7768 133.589 49.9359 132.866 49.2762C132.847 49.2537 132.835 49.226 132.832 49.1967C132.828 49.1674 132.834 49.1378 132.848 49.1116C132.861 49.0855 132.882 49.064 132.908 49.0499C132.934 49.0358 132.964 49.0298 132.993 49.0326C134.751 49.4562 134.772 52.4532 135.355 53.777Z" fill="white"/>
<path d="M141.243 32.0352C141.229 32.0929 141.236 32.1535 141.261 32.2073C141.286 32.2611 141.328 32.3049 141.381 32.3318L141.465 32.3953C141.689 32.5196 141.94 32.5886 142.196 32.5965H142.302C143.848 32.999 146.347 30.9127 147.248 30.2243C147.276 30.1961 147.295 30.1604 147.304 30.1215C147.313 30.0826 147.311 30.042 147.297 30.0043C147.284 29.9667 147.26 29.9336 147.229 29.9088C147.198 29.884 147.16 29.8686 147.121 29.8643C145.331 29.8854 141.825 29.8007 141.243 32.0352ZM146.4 30.2455C146.4 30.2455 146.475 30.309 146.4 30.3302C145.806 30.5667 145.176 30.6992 144.537 30.7221C143.728 30.8315 142.962 31.149 142.313 31.6434C142.228 31.707 142.09 31.6434 142.133 31.5057C142.8 30.129 145.267 30.542 146.432 30.2455H146.4Z" fill="white"/>
<path d="M138.193 32.5013C138.209 32.5591 138.244 32.61 138.292 32.6464C138.339 32.6827 138.398 32.7024 138.458 32.7025H138.564C138.818 32.7019 139.069 32.6401 139.294 32.5225H139.379C140.925 32.12 142.09 29.0807 142.556 28.0428C142.63 27.8734 142.408 27.7039 142.26 27.7886C140.682 28.6147 137.589 30.2773 138.193 32.5013ZM141.836 28.4346C141.836 28.4346 141.921 28.4346 141.889 28.4346C141.49 28.9355 141.006 29.3621 140.459 29.6949C139.802 30.1785 139.286 30.8294 138.966 31.5799C138.959 31.6036 138.944 31.6243 138.924 31.6391C138.904 31.6538 138.88 31.6617 138.855 31.6617C138.83 31.6617 138.806 31.6538 138.786 31.6391C138.766 31.6243 138.751 31.6036 138.744 31.5799C138.595 30.0973 140.957 29.2607 141.836 28.4346Z" fill="white"/>
<path d="M138.468 32.7765C138.408 32.7845 138.352 32.8114 138.309 32.8533C138.265 32.8952 138.235 32.9498 138.225 33.0095C138.223 33.0412 138.223 33.073 138.225 33.1048C138.182 33.3603 138.204 33.6224 138.288 33.8673V33.952C138.426 35.5405 141.222 37.2032 142.164 37.828C142.201 37.8454 142.241 37.852 142.281 37.8472C142.321 37.8423 142.359 37.8261 142.39 37.8006C142.421 37.775 142.444 37.7411 142.457 37.7028C142.469 37.6645 142.471 37.6235 142.461 37.5844C141.847 35.8794 140.756 32.5541 138.468 32.7765ZM141.868 37.0126C141.868 37.0126 141.868 37.0973 141.804 37.0126C141.377 36.537 141.04 35.988 140.809 35.3923C140.438 34.6625 139.883 34.042 139.199 33.5919C139.114 33.539 139.199 33.3801 139.273 33.3801C140.766 33.5814 141.243 36.0277 141.868 37.0867V37.0126Z" fill="white"/>
<path d="M142.884 19.2C142.872 19.2478 142.877 19.2983 142.899 19.3427C142.92 19.3872 142.956 19.4228 143.001 19.4435H143.064C143.248 19.5489 143.456 19.6038 143.668 19.6024C143.696 19.6076 143.725 19.6076 143.753 19.6024C145.023 19.9413 147.089 18.2045 147.84 17.6432C147.866 17.6208 147.884 17.5913 147.893 17.5584C147.901 17.5256 147.899 17.491 147.888 17.459C147.877 17.4271 147.856 17.3993 147.829 17.3793C147.801 17.3592 147.768 17.3479 147.735 17.3467C146.231 17.4102 143.361 17.3467 142.884 19.2ZM147.12 17.7173C147.12 17.7173 147.12 17.7173 147.12 17.7809C146.63 17.9748 146.111 18.0858 145.585 18.1092C144.911 18.197 144.272 18.4599 143.731 18.8717C143.668 18.8717 143.562 18.8717 143.594 18.7552C144.144 17.622 146.178 17.9609 147.152 17.7173H147.12Z" fill="white"/>
<path d="M140.888 8.81985C140.867 8.77402 140.862 8.72261 140.872 8.67335C141.328 6.82007 144.229 6.89419 145.723 6.8836C145.757 6.88268 145.792 6.8925 145.821 6.91172C145.85 6.93094 145.872 6.95863 145.885 6.99103C145.897 7.02343 145.9 7.05897 145.892 7.0928C145.884 7.12664 145.865 7.15712 145.839 7.18013C145.087 7.74141 143.011 9.46761 141.741 9.13932H141.656C141.445 9.13565 141.238 9.08117 141.052 8.98047L140.989 8.92752C140.944 8.90346 140.909 8.86567 140.888 8.81985Z" fill="white"/>
<path d="M140.967 19.1681C140.981 19.2156 141.011 19.257 141.051 19.2857C141.092 19.3145 141.14 19.329 141.19 19.327H141.243C141.456 19.3258 141.666 19.2751 141.857 19.1787H141.92C143.191 18.8504 144.166 16.3299 144.547 15.4721C144.61 15.3345 144.43 15.1968 144.303 15.2603C143.032 15.9699 140.47 17.3148 140.967 19.1681ZM143.986 15.7898C143.656 16.2103 143.254 16.5689 142.799 16.8489C142.255 17.2482 141.827 17.7856 141.56 18.4056C141.554 18.4243 141.542 18.4405 141.526 18.452C141.509 18.4634 141.49 18.4696 141.47 18.4696C141.451 18.4696 141.431 18.4634 141.415 18.452C141.399 18.4405 141.387 18.4243 141.38 18.4056C141.306 17.1666 143.255 16.4782 143.986 15.7898Z" fill="white"/>
<path d="M141.243 19.3906C141.194 19.3953 141.148 19.4169 141.113 19.4517C141.079 19.4865 141.057 19.5323 141.052 19.5813C141.047 19.6057 141.047 19.6309 141.052 19.6554C141.005 19.8645 141.005 20.0817 141.052 20.2908C141.049 20.3154 141.049 20.3404 141.052 20.3649C141.169 21.6781 143.488 23.0548 144.229 23.542C144.356 23.6267 144.526 23.4679 144.473 23.3302C143.986 21.9535 143.096 19.2 141.243 19.3906ZM144.06 22.9278C144.06 22.9278 144.06 22.9913 144.007 22.9278C143.658 22.5287 143.379 22.0741 143.181 21.5828C142.878 20.9742 142.418 20.4583 141.847 20.0896C141.783 20.0896 141.847 19.9096 141.921 19.9201C143.096 20.0472 143.456 22.0911 144.007 22.9278H144.06Z" fill="white"/>
<path d="M92.7717 51.3942C92.7316 51.3394 92.6765 51.2975 92.6131 51.2735C92.5496 51.2496 92.4806 51.2446 92.4143 51.2592C92.3481 51.2738 92.2875 51.3073 92.24 51.3557C92.1925 51.4042 92.1601 51.4654 92.1468 51.5319C92.0198 53.3852 91.3632 58.6697 93.2694 60.4382L93.3541 60.5653C93.5948 60.9162 93.9139 61.2062 94.2861 61.4125H94.4343C94.5177 61.4629 94.6158 61.483 94.7122 61.4695C94.8087 61.456 94.8975 61.4097 94.9638 61.3384C97.5584 58.6379 94.3496 53.9041 92.7717 51.3942ZM94.8897 59.644C94.7944 59.7816 94.5296 59.644 94.5402 59.5381C94.6513 58.2026 94.4065 56.8615 93.8307 55.6515C93.3135 54.7485 92.9553 53.7634 92.7717 52.7392C92.7772 52.7254 92.7867 52.7136 92.7989 52.7053C92.8112 52.697 92.8257 52.6925 92.8405 52.6925C92.8553 52.6925 92.8698 52.697 92.8821 52.7053C92.8943 52.7136 92.9038 52.7254 92.9093 52.7392C93.4918 54.5819 96.2452 57.6001 94.8897 59.644Z" fill="white"/>
<path d="M100.27 56.2761C100.264 56.2085 100.237 56.1442 100.194 56.0916C100.152 56.0391 100.094 56.0006 100.029 55.9812C99.9638 55.9618 99.8944 55.9624 99.8297 55.9828C99.765 56.0033 99.7079 56.0428 99.6659 56.096C98.6069 57.6422 95.504 61.9418 96.3194 64.4199C96.3137 64.4692 96.3137 64.5189 96.3194 64.5682C96.3498 64.9915 96.4883 65.3999 96.7218 65.7543C96.7475 65.8009 96.7838 65.8408 96.8277 65.8708C96.8774 65.954 96.953 66.0186 97.0428 66.055C97.1327 66.0913 97.2319 66.0972 97.3255 66.072C100.937 64.9282 100.428 59.2307 100.27 56.2761ZM98.1515 64.5046C98.0032 64.5894 97.8126 64.3882 97.8973 64.2399C98.64 63.1308 99.0748 61.8444 99.1576 60.5121C99.1353 59.4623 99.2929 58.4165 99.6235 57.4198C99.6235 57.403 99.6302 57.3868 99.6421 57.3749C99.6541 57.363 99.6702 57.3563 99.6871 57.3563C99.7039 57.3563 99.7201 57.363 99.732 57.3749C99.7439 57.3868 99.7506 57.403 99.7506 57.4198C99.3588 59.4002 100.291 63.3821 98.1197 64.5046H98.1515Z" fill="white"/>
<path d="M86.5763 64.6955C86.5109 64.7131 86.4523 64.7498 86.408 64.8011C86.3637 64.8523 86.3358 64.9156 86.3278 64.9828C86.3198 65.05 86.3322 65.1181 86.3633 65.1783C86.3943 65.2384 86.4427 65.2879 86.5022 65.3203C88.2072 66.0616 92.9622 68.4974 95.2708 67.2265H95.4191C95.8122 67.1111 96.1742 66.9083 96.4781 66.6335C96.5162 66.5923 96.5483 66.546 96.5734 66.4958C96.6491 66.4354 96.7011 66.3504 96.7205 66.2556C96.7398 66.1607 96.7253 66.0621 96.6793 65.9769C95.0061 62.588 89.4674 64.0389 86.5763 64.6955ZM95.0484 65.4368C95.1437 65.5745 94.9849 65.7969 94.826 65.7333C93.6073 65.1767 92.2605 64.9608 90.9289 65.1085C89.9025 65.3095 88.849 65.331 87.8153 65.172C87.7412 65.172 87.7518 65.0344 87.8153 65.0344C89.8169 65.0661 93.587 63.4776 95.059 65.4368H95.0484Z" fill="white"/>
<path d="M104.611 43.4409C104.573 43.3982 104.522 43.3682 104.466 43.3548C104.41 43.3415 104.351 43.3454 104.297 43.366C104.243 43.3866 104.197 43.423 104.164 43.4703C104.132 43.5177 104.114 43.5739 104.114 43.6315C104.198 45.1989 104.23 49.7103 106.03 50.9917L106.115 51.087C106.353 51.3542 106.65 51.5611 106.983 51.6906H107.121C107.197 51.7223 107.282 51.7269 107.361 51.7038C107.44 51.6807 107.508 51.6312 107.555 51.5636C109.472 48.9796 106.221 45.3471 104.611 43.4409ZM107.354 50.1127C107.336 50.1406 107.31 50.1625 107.28 50.1758C107.249 50.1892 107.216 50.1933 107.183 50.1876C107.15 50.182 107.12 50.1669 107.096 50.1441C107.072 50.1214 107.055 50.0921 107.047 50.0598C106.984 48.9251 106.619 47.828 105.988 46.8827C105.441 46.1834 105.018 45.3953 104.738 44.5529C104.738 44.4893 104.823 44.4576 104.844 44.5529C105.575 46.0037 108.223 48.2488 107.354 50.1127Z" fill="white"/>
<path d="M111.463 46.6814C111.446 46.6277 111.413 46.5799 111.37 46.5433C111.327 46.5067 111.275 46.4827 111.219 46.4739C111.163 46.4652 111.106 46.472 111.054 46.4936C111.002 46.5153 110.956 46.5509 110.923 46.5967C110.245 48.0157 108.074 51.9765 109.028 54.0098C109.032 54.052 109.032 54.0946 109.028 54.1369C109.108 54.4881 109.271 54.8149 109.504 55.09C109.533 55.1253 109.569 55.1541 109.61 55.1747C109.658 55.2405 109.728 55.2879 109.807 55.309C109.886 55.3302 109.969 55.3239 110.044 55.2912C112.978 53.8933 111.919 49.1595 111.463 46.6814ZM110.553 53.8509C110.523 53.8676 110.489 53.8749 110.455 53.8718C110.42 53.8688 110.388 53.8555 110.362 53.8337C110.336 53.8119 110.316 53.7827 110.307 53.7499C110.297 53.7171 110.298 53.6821 110.309 53.6497C110.817 52.6338 111.044 51.5001 110.966 50.3668C110.817 49.494 110.817 48.6025 110.966 47.7298C110.97 47.7185 110.979 47.7088 110.989 47.7021C110.999 47.6953 111.011 47.6917 111.024 47.6917C111.036 47.6917 111.048 47.6953 111.059 47.7021C111.069 47.7088 111.077 47.7185 111.082 47.7298C111.04 49.4137 112.258 52.6648 110.531 53.8509H110.553Z" fill="white"/>
<path d="M100.862 55.2701C100.811 55.2936 100.766 55.3316 100.736 55.3795C100.705 55.4274 100.688 55.4832 100.688 55.5402C100.688 55.5971 100.705 55.6529 100.736 55.7008C100.766 55.7487 100.811 55.7867 100.862 55.8102C102.377 56.2444 106.645 57.727 108.445 56.4456H108.572C108.903 56.3078 109.197 56.0937 109.43 55.8208C109.454 55.7835 109.475 55.7446 109.493 55.7043C109.546 55.64 109.575 55.5596 109.575 55.4766C109.575 55.3937 109.546 55.3132 109.493 55.2489C107.725 52.5696 103.224 54.4017 100.862 55.2701ZM108.085 54.963C108.102 54.9907 108.112 55.0226 108.112 55.0552C108.113 55.0879 108.104 55.1201 108.088 55.1484C108.072 55.1767 108.048 55.2 108.02 55.2158C107.991 55.2317 107.959 55.2395 107.926 55.2383C106.843 54.9052 105.69 54.8723 104.59 55.143C103.748 55.4252 102.862 55.5579 101.974 55.5349C101.911 55.5349 101.9 55.429 101.974 55.4184C103.637 55.2278 106.623 53.4804 108.085 54.963Z" fill="white"/>
<path d="M116.886 33.6237C116.851 33.5891 116.808 33.565 116.76 33.5544C116.713 33.5437 116.663 33.547 116.617 33.5637C116.572 33.5804 116.532 33.61 116.502 33.6488C116.473 33.6876 116.455 33.734 116.451 33.7826C116.526 35.1487 116.557 39.0777 118.114 40.1367L118.188 40.2214C118.4 40.4522 118.661 40.633 118.951 40.7509H119.067C119.134 40.7755 119.206 40.7784 119.275 40.7594C119.343 40.7404 119.404 40.7004 119.448 40.645C121.122 38.4529 118.284 35.297 116.886 33.6237ZM119.226 39.4378C119.208 39.4602 119.184 39.4772 119.157 39.4871C119.13 39.497 119.101 39.4994 119.072 39.4939C119.044 39.4885 119.018 39.4755 118.996 39.4562C118.975 39.437 118.959 39.4123 118.951 39.3848C118.909 38.4016 118.605 37.4475 118.072 36.6208C117.601 36.0151 117.242 35.3301 117.013 34.598H117.108C117.722 35.8689 120.063 37.8175 119.226 39.4378Z" fill="white"/>
<path d="M122.826 36.4619C122.815 36.4124 122.789 36.3674 122.752 36.3327C122.715 36.298 122.669 36.2752 122.618 36.2672C122.568 36.2592 122.517 36.2664 122.471 36.2879C122.425 36.3094 122.386 36.3442 122.36 36.3877C121.778 37.6162 119.893 41.058 120.719 42.7418C120.719 42.7418 120.719 42.816 120.719 42.8477C120.785 43.1512 120.923 43.4344 121.121 43.6738C121.149 43.7035 121.181 43.7286 121.217 43.7479C121.259 43.8058 121.32 43.8471 121.39 43.8645C121.46 43.8819 121.533 43.8744 121.598 43.8432C124.14 42.7101 123.239 38.6011 122.826 36.4619ZM122.043 42.6783C121.937 42.7418 121.778 42.6147 121.831 42.5088C122.268 41.6258 122.465 40.6434 122.403 39.6601C122.27 38.8998 122.27 38.1223 122.403 37.362C122.403 37.348 122.408 37.3345 122.418 37.3246C122.428 37.3147 122.442 37.3091 122.456 37.3091C122.47 37.3091 122.483 37.3147 122.493 37.3246C122.503 37.3345 122.509 37.348 122.509 37.362C122.456 38.8341 123.525 41.651 122.043 42.6783Z" fill="white"/>
<path d="M113.634 43.9069C113.589 43.9267 113.55 43.9592 113.523 44.0006C113.496 44.042 113.482 44.0904 113.482 44.1399C113.482 44.1893 113.496 44.2377 113.523 44.2791C113.55 44.3205 113.589 44.3531 113.634 44.3729C114.947 44.7541 118.643 46.0355 120.211 44.9341H120.317C120.604 44.8175 120.859 44.632 121.058 44.394C121.089 44.3654 121.111 44.3287 121.122 44.2881C121.164 44.2315 121.186 44.1628 121.186 44.0922C121.186 44.0216 121.164 43.9529 121.122 43.8963C119.586 41.5665 115.689 43.155 113.634 43.9069ZM119.893 43.6421C119.912 43.6646 119.924 43.6923 119.927 43.7216C119.931 43.7509 119.925 43.7806 119.912 43.8067C119.898 43.8329 119.877 43.8543 119.851 43.8684C119.825 43.8825 119.795 43.8885 119.766 43.8857C118.824 43.5984 117.822 43.5692 116.864 43.801C116.133 44.0398 115.367 44.1543 114.598 44.1399C114.545 44.1399 114.534 44.0446 114.598 44.0446C116.038 43.8751 118.633 42.3819 119.893 43.6421Z" fill="white"/>
<path d="M124.161 22.2606C124.126 22.2328 124.084 22.2159 124.04 22.2122C123.996 22.2085 123.952 22.2181 123.913 22.2397C123.874 22.2613 123.843 22.294 123.823 22.3336C123.803 22.3731 123.795 22.4178 123.801 22.4618C124.065 23.6373 124.648 27.0579 126.173 27.8098L126.247 27.8734C126.46 28.0458 126.71 28.1656 126.978 28.2228H127.084C127.146 28.2369 127.21 28.2299 127.268 28.2031C127.325 28.1763 127.372 28.131 127.401 28.0746C128.535 25.8506 125.622 23.4996 124.161 22.2606ZM127.031 27.005C127.019 27.0271 127.002 27.0457 126.98 27.0586C126.959 27.0716 126.934 27.0784 126.909 27.0784C126.884 27.0784 126.859 27.0716 126.838 27.0586C126.816 27.0457 126.799 27.0271 126.787 27.005C126.617 26.1495 126.214 25.3578 125.622 24.7175C125.125 24.2503 124.709 23.7025 124.394 23.0972H124.468C125.209 24.0715 127.476 25.4376 127.031 26.9732V27.005Z" fill="white"/>
<path d="M129.763 23.8596C129.747 23.8183 129.718 23.7829 129.681 23.758C129.645 23.733 129.601 23.7197 129.557 23.7197C129.512 23.7197 129.469 23.733 129.432 23.758C129.395 23.7829 129.367 23.8183 129.35 23.8596C129.001 25.0139 127.846 28.2863 128.81 29.6842C128.814 29.7123 128.814 29.7408 128.81 29.7689C128.91 30.025 129.07 30.2537 129.276 30.4361L129.371 30.489C129.423 30.5246 129.484 30.5436 129.546 30.5436C129.609 30.5436 129.67 30.5246 129.721 30.489C131.797 29.1441 130.409 25.6811 129.763 23.8596ZM129.954 29.4088C129.933 29.4221 129.909 29.4296 129.884 29.4304C129.86 29.4312 129.835 29.4254 129.813 29.4134C129.792 29.4015 129.774 29.384 129.761 29.3627C129.749 29.3414 129.742 29.3171 129.742 29.2923C130.006 28.459 130.039 27.5695 129.837 26.7189C129.626 26.0698 129.53 25.389 129.551 24.7068H129.636C129.774 25.9882 131.108 28.2969 129.954 29.4088Z" fill="white"/>
<path d="M122.784 31.6751C122.749 31.7009 122.721 31.736 122.705 31.7767C122.689 31.8173 122.684 31.8618 122.692 31.9049C122.7 31.948 122.719 31.9881 122.749 32.0205C122.778 32.0529 122.816 32.0764 122.858 32.0881C124.055 32.2364 127.476 32.8295 128.683 31.6328H128.778C129.007 31.48 129.202 31.2817 129.35 31.0503C129.355 31.0187 129.355 30.9866 129.35 30.955C129.391 30.9058 129.413 30.844 129.413 30.7803C129.413 30.7165 129.391 30.6548 129.35 30.6055C127.656 28.784 124.468 30.7326 122.784 31.6751ZM128.217 30.6161C128.236 30.6332 128.25 30.6558 128.256 30.681C128.263 30.7061 128.261 30.7325 128.252 30.7567C128.243 30.7808 128.226 30.8016 128.205 30.8163C128.184 30.8309 128.158 30.8386 128.132 30.8385C127.27 30.7225 126.392 30.8395 125.591 31.1774C124.985 31.4941 124.329 31.7054 123.653 31.8022V31.7175C124.881 31.3045 126.936 29.61 128.217 30.5632V30.6161Z" fill="white"/>
<path d="M131.976 12.2846C131.87 12.1893 131.669 12.2846 131.701 12.4329C131.902 13.333 132.336 15.9276 133.501 16.4995H133.554C133.719 16.6293 133.911 16.7198 134.116 16.7642C134.127 16.7698 134.14 16.7728 134.153 16.7728C134.165 16.7728 134.178 16.7698 134.19 16.7642C134.236 16.777 134.286 16.7735 134.33 16.7542C134.374 16.7349 134.411 16.7011 134.433 16.6583C135.27 15.038 133.078 13.2483 131.976 12.2846ZM134.147 15.8852C134.141 15.9039 134.129 15.9201 134.113 15.9316C134.096 15.9431 134.077 15.9492 134.057 15.9492C134.038 15.9492 134.018 15.9431 134.002 15.9316C133.986 15.9201 133.974 15.9039 133.967 15.8852C133.832 15.2369 133.525 14.6369 133.078 14.1485C132.7 13.7944 132.385 13.379 132.146 12.92C132.146 12.92 132.146 12.8564 132.209 12.92C132.771 13.6825 134.507 14.7309 134.147 15.9064V15.8852Z" fill="white"/>
<path d="M135.641 12.7293C135.625 12.7005 135.603 12.6765 135.575 12.6597C135.547 12.6429 135.515 12.634 135.482 12.634C135.449 12.634 135.417 12.6429 135.389 12.6597C135.361 12.6765 135.338 12.7005 135.323 12.7293C135.069 13.6083 134.19 16.097 134.921 17.156V17.2196C134.998 17.4128 135.117 17.5864 135.27 17.7279H135.344C135.384 17.7534 135.43 17.767 135.477 17.767C135.524 17.767 135.57 17.7534 135.609 17.7279C137.187 16.7748 136.139 14.1378 135.641 12.7293ZM135.789 16.9654C135.773 16.9749 135.754 16.9798 135.735 16.9796C135.716 16.9795 135.698 16.9743 135.682 16.9645C135.665 16.9548 135.652 16.9409 135.643 16.9243C135.634 16.9077 135.63 16.889 135.63 16.8701C135.824 16.2381 135.849 15.5664 135.704 14.9215C135.541 14.4302 135.466 13.914 135.482 13.3965H135.545C135.651 14.3708 136.657 16.1288 135.789 16.9654Z" fill="white"/>
<path d="M130.134 18.7234C130.107 18.743 130.086 18.7698 130.073 18.8008C130.06 18.8317 130.057 18.8656 130.062 18.8986C130.068 18.9316 130.082 18.9624 130.104 18.9875C130.126 19.0127 130.155 19.0313 130.187 19.0411C131.097 19.147 133.692 19.6024 134.613 18.6916H134.677C134.852 18.5803 135 18.4321 135.111 18.2574C135.114 18.2293 135.114 18.2008 135.111 18.1727C135.14 18.1344 135.155 18.088 135.155 18.0403C135.155 17.9926 135.14 17.9462 135.111 17.9079C133.83 16.5312 131.415 18.0244 130.134 18.7234ZM134.253 17.8762C134.269 17.8887 134.28 17.9059 134.285 17.9252C134.291 17.9446 134.29 17.9651 134.283 17.9838C134.276 18.0026 134.263 18.0187 134.246 18.0298C134.23 18.0408 134.21 18.0464 134.19 18.0456C133.536 17.9594 132.871 18.047 132.262 18.2998C131.803 18.5418 131.305 18.703 130.79 18.7763V18.7128C131.712 18.448 133.279 17.156 134.253 17.8762Z" fill="white"/>
<path d="M142.376 0.137788C142.361 0.108997 142.338 0.0849132 142.31 0.0681253C142.282 0.0513374 142.25 0.0424805 142.217 0.0424805C142.185 0.0424805 142.153 0.0513374 142.125 0.0681253C142.097 0.0849132 142.074 0.108997 142.058 0.137788C141.677 0.963822 140.449 3.31483 140.999 4.44798C140.999 4.44798 140.999 4.50094 140.999 4.52212C141.043 4.72608 141.138 4.9156 141.275 5.07281L141.338 5.12577C141.369 5.16154 141.41 5.18615 141.456 5.19574C141.502 5.20532 141.55 5.19933 141.592 5.1787C143.361 4.3209 142.662 1.56746 142.376 0.137788ZM141.91 4.3209C141.847 4.37385 141.73 4.3209 141.762 4.20441C142.05 3.60891 142.175 2.94719 142.122 2.28759C142.032 1.7797 142.032 1.25991 142.122 0.75202H142.185C142.154 1.73691 142.895 3.61136 141.91 4.3209Z" fill="white"/>
<path d="M136.255 5.36926C136.128 5.36926 135.979 5.49634 136.075 5.61283C136.615 6.35414 138.066 8.54632 139.358 8.59927H139.432C139.634 8.64703 139.844 8.64703 140.046 8.59927H140.12C140.167 8.58857 140.21 8.56345 140.242 8.52739C140.275 8.49134 140.295 8.44613 140.3 8.39805C140.385 6.54477 137.653 5.80346 136.255 5.36926ZM139.707 7.78382C139.707 7.85795 139.591 7.9109 139.538 7.84736C139.151 7.31076 138.628 6.88676 138.023 6.6189C137.535 6.45244 137.08 6.20153 136.678 5.87759C136.678 5.87759 136.678 5.80345 136.678 5.82463C137.557 6.37532 139.559 6.57654 139.707 7.78382Z" fill="white"/>
<path d="M5.40273 31.9717C5.37187 31.9501 5.34909 31.9188 5.33801 31.8828C5.32693 31.8468 5.32816 31.8081 5.34153 31.7729C5.35489 31.7376 5.37962 31.7079 5.4118 31.6882C5.44398 31.6686 5.48178 31.6603 5.51921 31.6646C7.00184 31.6646 8.46329 32.0035 9.92473 32.1306C11.3756 32.2067 12.8299 32.1819 14.2773 32.0564C12.7523 28.3393 11.2167 24.4527 9.87178 20.4814C8.76253 20.6404 7.63423 20.6082 6.53588 20.3861C5.66748 20.2378 4.3543 20.1001 4.026 19.1576C4.00021 19.0955 3.99899 19.026 4.02259 18.9631C4.04619 18.9001 4.09285 18.8485 4.15309 18.8187C4.91558 18.3845 5.86869 18.9034 6.66295 19.0729C7.5969 19.238 8.54228 19.33 9.49053 19.3482C7.85644 14.5319 6.70354 9.56561 6.04872 4.52199C6.04872 4.17251 6.54646 3.95012 6.67355 4.32077C8.26207 8.88514 9.62821 13.4919 11.0685 18.088C11.3318 17.9175 11.5863 17.7337 11.831 17.5373C12.331 17.0991 12.7982 16.6248 13.2289 16.1182C13.6207 15.684 14.4679 16.0017 14.2032 16.6265C13.6558 17.8703 12.7242 18.9059 11.545 19.5812C12.6782 23.1289 13.8749 26.6555 15.2939 30.1714L15.7387 31.2304C16.1711 31.1 16.5954 30.9444 17.0096 30.7644C18.2986 29.9116 19.4761 28.9013 20.5149 27.7568C20.5471 27.7326 20.5855 27.7181 20.6257 27.7149C20.6658 27.7118 20.7061 27.7201 20.7416 27.739C20.7772 27.7579 20.8066 27.7866 20.8265 27.8216C20.8464 27.8567 20.8558 27.8966 20.8538 27.9369C20.4305 29.4853 19.4199 30.8075 18.0368 31.6222C17.4972 32.0156 16.9188 32.3527 16.3106 32.6283C18.2663 37.1821 20.4055 41.6547 22.7282 46.0461C23.7873 45.3696 24.8024 44.6268 25.7676 43.8221C26.9545 42.4984 28.0613 41.1051 29.0823 39.6496C29.1565 39.5649 29.3259 39.6496 29.3047 39.7343C28.896 41.5781 27.9487 43.2589 26.5831 44.5634C25.6876 45.6227 24.6121 46.5154 23.406 47.2004C24.9522 50.0668 26.576 52.8908 28.2775 55.6725C29.3365 57.4623 30.512 59.2308 31.6769 60.9676C33.4944 59.3463 35.2231 57.6282 36.8555 55.8208C38.3064 54.0416 39.3125 51.3517 41.0916 49.9962C41.1159 49.9778 41.145 49.9669 41.1754 49.9646C41.2058 49.9623 41.2362 49.9688 41.263 49.9833C41.2897 49.9978 41.3118 50.0197 41.3265 50.0464C41.3412 50.0731 41.3479 50.1035 41.3458 50.1339C41.3458 52.6332 38.8253 55.2913 37.3321 57.1446C35.9179 58.9965 34.2535 60.6431 32.3865 62.0372C35.3517 66.3898 38.5288 70.5835 41.9176 74.6395C44.4063 72.5672 46.6773 70.2465 48.6954 67.7135C50.5804 65.1931 51.7136 62.2596 53.408 59.6332C53.4583 59.5708 53.527 59.5259 53.6043 59.5048C53.6816 59.4836 53.7636 59.4874 53.8387 59.5155C53.9137 59.5437 53.978 59.5948 54.0223 59.6615C54.0667 59.7283 54.0889 59.8073 54.0857 59.8874C53.6092 66.0297 48.1341 72.7121 42.8602 75.7727C43.6227 76.6834 44.3957 77.5942 45.1794 78.4943C48.1198 81.7996 51.2342 84.9458 54.5094 87.9196C55.113 86.0557 56.7651 84.3295 57.6864 82.688C59.2538 79.9876 60.0904 76.9799 61.5518 74.2159C61.7742 73.7923 62.3779 74.1206 62.3567 74.5124C62.2296 77.393 60.9164 80.1888 59.6032 82.6986C58.6078 84.5837 57.2416 87.4642 55.2401 88.5974C58.7242 91.838 62.2508 95.0362 65.5231 98.5098C65.9044 98.9228 65.3219 99.4735 64.8771 99.2087C60.9493 96.7002 57.3154 93.7589 54.0434 90.4401C51.4382 93.8925 46.4396 98.2556 42.3307 97.133C42.0447 97.0483 42.0977 96.6671 42.3307 96.5506C44.4487 95.3539 46.6832 94.8985 48.6848 93.4689C50.2283 92.2269 51.7026 90.9011 53.1009 89.4975C50.1674 86.5535 47.4034 83.4611 44.777 80.5488C43.6227 79.2674 42.4895 77.9542 41.3775 76.6305C37.3109 80.8665 29.1883 84.9544 23.3742 84.5837C23.306 84.5734 23.2427 84.5419 23.1934 84.4937C23.1441 84.4454 23.1112 84.3828 23.0995 84.3148C23.0878 84.2468 23.0978 84.1768 23.1281 84.1148C23.1584 84.0528 23.2075 84.002 23.2683 83.9695C26.0218 82.6245 29.1565 82.1268 32.0158 80.9513C35.1929 79.6487 37.8616 77.6048 40.8374 75.9951C37.3074 71.759 33.9927 67.3429 30.8933 62.7468C30.8174 62.7209 30.7511 62.6729 30.7027 62.6091C28.6587 64.0599 26.0218 64.5789 23.6178 65.1613C20.3349 65.9662 16.5012 66.7075 13.1441 66.0721C13.0764 66.0591 13.0153 66.0229 12.9714 65.9698C12.9274 65.9166 12.9034 65.8498 12.9034 65.7808C12.9034 65.7119 12.9274 65.6451 12.9714 65.5919C13.0153 65.5388 13.0764 65.5026 13.1441 65.4896C16.0776 64.8224 19.1805 64.8436 22.167 64.3035C25.1534 63.7634 27.6844 62.4926 30.5226 62.1855C29.4636 60.6393 28.4046 59.0932 27.4621 57.5258C25.4499 54.3558 23.5508 51.1188 21.7645 47.8146C20.4196 48.7466 18.3439 48.683 16.7766 48.7677C14.9233 48.863 12.657 48.916 11.0367 47.8993C10.9989 47.8714 10.9701 47.8331 10.9536 47.7891C10.9371 47.7451 10.9337 47.6973 10.9438 47.6514C10.9538 47.6055 10.977 47.5635 11.0104 47.5304C11.0438 47.4974 11.086 47.4747 11.132 47.4651C13.1124 47.0945 15.3681 47.6452 17.3696 47.5393C18.694 47.3098 20.0306 47.1577 21.3727 47.0839C18.937 42.516 16.7166 37.8528 14.7115 33.0943C11.8733 33.9838 7.8067 33.772 5.40273 31.9717Z" fill="white"/>
<path d="M61.414 75.7198C61.4866 75.7988 61.5841 75.8503 61.6902 75.8658C61.7963 75.8812 61.9045 75.8596 61.9965 75.8045L62.1659 75.7516C62.5862 75.5316 62.949 75.216 63.225 74.8302L63.3097 74.6926C65.4277 72.744 64.6864 66.9511 64.5487 64.9178C64.5333 64.8463 64.4977 64.7808 64.446 64.729C64.3944 64.6772 64.329 64.6414 64.2575 64.6257C64.1861 64.6101 64.1117 64.6154 64.0431 64.6409C63.9746 64.6664 63.9148 64.711 63.871 64.7696C62.0918 67.523 58.5653 72.7122 61.414 75.7198ZM63.7227 66.1886C63.7227 66.1039 63.871 66.1357 63.8604 66.1886C63.6437 67.3076 63.2391 68.3819 62.6637 69.3657C62.0299 70.6828 61.7594 72.1452 61.88 73.6018C61.8779 73.6453 61.8624 73.6872 61.8356 73.7216C61.8088 73.756 61.7721 73.7813 61.7303 73.7941C61.6886 73.8068 61.644 73.8064 61.6026 73.7928C61.5611 73.7792 61.5249 73.7532 61.4988 73.7183C60.0055 71.579 63.0237 68.2537 63.7227 66.2098V66.1886Z" fill="white"/>
<path d="M58.8089 80.856C58.9111 80.8876 59.0211 80.8839 59.121 80.8455C59.2209 80.8071 59.3049 80.7362 59.3596 80.6442C59.4072 80.6073 59.4499 80.5646 59.4867 80.5171C59.7308 80.1265 59.8796 79.6838 59.9209 79.2251C59.9261 79.1687 59.9261 79.112 59.9209 79.0556C60.8104 76.334 57.3686 71.6425 56.2567 69.9163C56.2085 69.8604 56.1452 69.8197 56.0744 69.799C56.0036 69.7784 55.9283 69.7788 55.8577 69.8001C55.7871 69.8214 55.7241 69.8627 55.6765 69.919C55.6289 69.9754 55.5987 70.0443 55.5895 70.1175C55.4624 73.3581 54.8588 79.6169 58.8089 80.856ZM56.2037 71.4201C56.2037 71.3354 56.3096 71.3036 56.3414 71.4201C56.7065 72.5116 56.8785 73.6584 56.8497 74.809C56.9376 76.2712 57.4167 77.6831 58.237 78.8968C58.3323 79.0556 58.1205 79.278 57.9617 79.1933C55.5683 77.9225 56.5955 73.5487 56.2037 71.4201Z" fill="white"/>
<path d="M59.4869 80.7288C59.4402 80.8236 59.4262 80.9312 59.4473 81.0347C59.4684 81.1382 59.5233 81.2318 59.6034 81.3007L59.7093 81.449C60.0546 81.7572 60.4685 81.9786 60.9165 82.095H61.0754C63.6064 83.4187 68.838 80.8136 70.7019 79.9769C70.7641 79.9387 70.8141 79.8833 70.8458 79.8175C70.8775 79.7516 70.8896 79.6781 70.8807 79.6055C70.8717 79.533 70.8422 79.4646 70.7954 79.4084C70.7487 79.3522 70.6868 79.3106 70.6171 79.2886C67.4401 78.632 61.3719 77.0435 59.4869 80.7288ZM69.2298 79.7334C69.3145 79.7334 69.3251 79.8604 69.2298 79.871C68.0944 80.0459 66.9373 80.0244 65.8092 79.8075C64.3612 79.6587 62.8995 79.8962 61.5731 80.4959C61.5308 80.5059 61.4864 80.5033 61.4455 80.4884C61.4047 80.4735 61.3691 80.4469 61.3431 80.412C61.3172 80.377 61.3021 80.3353 61.2997 80.2918C61.2973 80.2484 61.3077 80.2052 61.3296 80.1676C62.9287 78.0177 67.1118 79.7651 69.2298 79.7334Z" fill="white"/>
<path d="M32.5346 98.9757C32.4761 99.0195 32.4314 99.0793 32.4059 99.1478C32.3804 99.2164 32.3751 99.2908 32.3908 99.3622C32.4064 99.4337 32.4422 99.4991 32.494 99.5508C32.5458 99.6024 32.6114 99.638 32.6828 99.6534C34.7162 99.7911 40.509 100.501 42.447 98.3932L42.5952 98.2979C42.9805 98.0243 43.2932 97.6608 43.506 97.2389C43.5298 97.1845 43.5476 97.1277 43.559 97.0694C43.6121 96.9769 43.6326 96.8692 43.6173 96.7636C43.6019 96.658 43.5515 96.5606 43.4742 96.487C40.456 93.6912 35.2774 97.2389 32.5346 98.9757ZM41.568 96.6247C41.6029 96.6508 41.629 96.687 41.6425 96.7284C41.6561 96.7699 41.6566 96.8145 41.6438 96.8562C41.6311 96.8979 41.6058 96.9347 41.5713 96.9615C41.5369 96.9883 41.4951 97.0038 41.4515 97.0059C39.994 96.8891 38.5317 97.1633 37.2154 97.8002C36.2329 98.3806 35.1584 98.7889 34.0384 99.0074C34.0246 99.0019 34.0128 98.9924 34.0045 98.9802C33.9962 98.9679 33.9918 98.9534 33.9918 98.9386C33.9918 98.9238 33.9962 98.9093 34.0045 98.897C34.0128 98.8848 34.0246 98.8753 34.0384 98.8698C36.0187 98.1708 39.3229 95.142 41.568 96.6247Z" fill="white"/>
<path d="M37.851 90.7259C37.7786 90.7368 37.7109 90.7683 37.656 90.8165C37.601 90.8648 37.5611 90.9279 37.541 90.9982C37.5209 91.0685 37.5215 91.1432 37.5427 91.2132C37.5638 91.2832 37.6047 91.3457 37.6603 91.3931C39.3653 92.5051 44.0886 95.9363 46.7996 95.0361H46.9903C47.4509 94.9962 47.8946 94.8434 48.2823 94.5913C48.3341 94.5602 48.3806 94.5209 48.4199 94.4749C48.512 94.4202 48.5829 94.3361 48.6213 94.2362C48.6597 94.1363 48.6634 94.0264 48.6317 93.9242C47.3503 89.9634 41.1021 90.5459 37.851 90.7259ZM46.895 93.0664C46.9797 93.2252 46.7573 93.437 46.5984 93.3417C45.3785 92.5275 43.9641 92.0524 42.5 91.965C41.3545 91.995 40.2122 91.8302 39.1218 91.4778C39.1021 91.4778 39.0833 91.47 39.0693 91.4561C39.0554 91.4422 39.0476 91.4234 39.0476 91.4037C39.0476 91.384 39.0554 91.3652 39.0693 91.3513C39.0833 91.3374 39.1021 91.3296 39.1218 91.3296C41.2928 91.7214 45.6559 90.6836 46.895 93.0664Z" fill="white"/>
<path d="M47.1279 105.722C47.1483 105.794 47.1896 105.859 47.2468 105.908C47.304 105.957 47.3744 105.988 47.4491 105.997C47.5239 106.006 47.5997 105.993 47.6669 105.959C47.7342 105.925 47.7898 105.872 47.8269 105.806C48.6317 103.932 51.2263 98.7003 49.8814 96.1798V96.0104C49.7544 95.5676 49.5301 95.1587 49.2248 94.8137C49.1797 94.7727 49.13 94.7371 49.0765 94.7078C49.0087 94.6262 48.9151 94.5701 48.8111 94.5489C48.7071 94.5277 48.599 94.5427 48.5047 94.5913C44.7981 96.4869 46.4078 102.555 47.1279 105.722ZM47.9222 96.4128C47.9598 96.3909 48.003 96.3805 48.0465 96.3829C48.0899 96.3853 48.1317 96.4005 48.1666 96.4264C48.2016 96.4523 48.2282 96.4879 48.2431 96.5288C48.258 96.5697 48.2606 96.614 48.2505 96.6564C47.6545 97.9838 47.4206 99.4453 47.5727 100.892C47.7912 102.02 47.8198 103.176 47.6574 104.313C47.6574 104.333 47.6496 104.352 47.6357 104.365C47.6218 104.379 47.603 104.387 47.5833 104.387C47.5637 104.387 47.5448 104.379 47.5309 104.365C47.517 104.352 47.5092 104.333 47.5092 104.313C47.5304 102.163 45.783 98.0437 47.9222 96.3916V96.4128Z" fill="white"/>
<path d="M14.1607 85.1979C14.0991 85.2378 14.05 85.2942 14.019 85.3607C13.9879 85.4271 13.9761 85.501 13.9849 85.5738C13.9937 85.6467 14.0228 85.7156 14.0689 85.7727C14.115 85.8298 14.1761 85.8728 14.2454 85.8969C16.2576 86.2357 21.9551 87.5066 24.0943 85.6003L24.2426 85.5262C24.6659 85.3107 25.0296 84.9943 25.3016 84.6048C25.3341 84.5521 25.3591 84.4951 25.3757 84.4354C25.4419 84.3528 25.4779 84.25 25.4779 84.1442C25.4779 84.0383 25.4419 83.9356 25.3757 83.853C22.6328 80.7289 17.0836 83.747 14.1607 85.1979ZM23.3953 83.7576C23.4236 83.7892 23.4423 83.8282 23.4491 83.87C23.456 83.9118 23.4508 83.9547 23.4341 83.9936C23.4174 84.0325 23.3899 84.0659 23.3549 84.0898C23.3199 84.1136 23.2788 84.127 23.2365 84.1283C21.7935 83.8592 20.3046 83.9836 18.9263 84.4884C17.8854 84.9758 16.7671 85.2769 15.6221 85.3779C15.5374 85.3779 15.5162 85.2509 15.6221 85.2403C17.719 84.7425 21.3197 82.0632 23.4059 83.7576H23.3953Z" fill="white"/>
<path d="M20.282 77.5306C20.2088 77.5317 20.1375 77.5543 20.0772 77.5958C20.0169 77.6373 19.9702 77.6956 19.943 77.7636C19.9158 77.8315 19.9094 77.906 19.9245 77.9777C19.9396 78.0493 19.9755 78.1148 20.0278 78.166C21.6163 79.4475 25.9795 83.3235 28.7647 82.6986H28.9871C29.4507 82.6993 29.9079 82.5904 30.3214 82.3809C30.3734 82.3544 30.4201 82.3185 30.4591 82.275C30.5553 82.2281 30.6333 82.1508 30.6812 82.0551C30.729 81.9594 30.744 81.8506 30.7239 81.7455C29.8131 77.7107 23.5331 77.6683 20.282 77.5306ZM29.0506 80.7077C29.0616 80.7494 29.0603 80.7933 29.0468 80.8343C29.0333 80.8752 29.0082 80.9113 28.9746 80.9383C28.9409 80.9652 28.9001 80.9818 28.8572 80.9859C28.8143 80.9901 28.7712 80.9818 28.7329 80.9618C27.5855 80.0342 26.2106 79.4308 24.751 79.2145C23.6176 79.1284 22.5073 78.849 21.4681 78.3884C21.4543 78.3829 21.4425 78.3735 21.4342 78.3612C21.4259 78.3489 21.4214 78.3344 21.4214 78.3196C21.4214 78.3048 21.4259 78.2903 21.4342 78.278C21.4425 78.2658 21.4543 78.2563 21.4681 78.2508C23.6073 78.8544 28.0551 78.2508 29.0506 80.7395V80.7077Z" fill="white"/>
<path d="M28.0339 93.363C28.0493 93.4345 28.0849 93.5 28.1366 93.5518C28.1882 93.6036 28.2536 93.6394 28.3251 93.6551C28.3965 93.6707 28.4709 93.6654 28.5395 93.6399C28.608 93.6144 28.6678 93.5698 28.7116 93.5113C29.7071 91.7321 32.7994 86.7865 31.7192 84.1389C31.7192 84.086 31.7192 84.0225 31.7192 83.9695C31.646 83.5132 31.4644 83.081 31.1897 82.7093C31.1506 82.6631 31.104 82.6238 31.0521 82.5928C30.9923 82.5042 30.9044 82.4382 30.8026 82.4056C30.7008 82.3729 30.591 82.3755 30.4908 82.4128C26.6254 83.9377 27.6314 90.133 28.0339 93.363ZM29.7389 84.1813C29.8977 84.086 30.1307 84.2872 30.046 84.4567C29.3194 85.7481 28.9536 87.2113 28.987 88.6927C29.0994 89.8356 29.0134 90.9892 28.7328 92.1028C28.7328 92.1224 28.725 92.1413 28.7111 92.1552C28.6972 92.1691 28.6783 92.1769 28.6587 92.1769C28.639 92.1769 28.6202 92.1691 28.6063 92.1552C28.5924 92.1413 28.5846 92.1224 28.5846 92.1028C28.7858 89.8682 27.4514 85.5792 29.7389 84.1813Z" fill="white"/>
<path d="M4.56611 65.3203C4.50765 65.3476 4.4582 65.3909 4.42354 65.4453C4.38889 65.4997 4.37048 65.5629 4.37048 65.6274C4.37048 65.6919 4.38889 65.7551 4.42354 65.8095C4.4582 65.8639 4.50765 65.9073 4.56611 65.9345C6.27113 66.4958 11.0897 68.3703 13.2183 66.9935H13.3559C13.7583 66.8613 14.122 66.6322 14.415 66.3264C14.449 66.2843 14.4774 66.238 14.4997 66.1887C14.5572 66.1144 14.5884 66.0232 14.5884 65.9292C14.5884 65.8353 14.5572 65.744 14.4997 65.6698C12.5193 62.5033 7.29837 64.4307 4.56611 65.3203ZM12.837 65.3203C12.857 65.3522 12.8677 65.3891 12.8678 65.4267C12.8679 65.4644 12.8574 65.5013 12.8375 65.5333C12.8177 65.5653 12.7892 65.5911 12.7554 65.6077C12.7217 65.6244 12.6839 65.6312 12.6464 65.6274C11.4171 65.2052 10.0977 65.1174 8.82335 65.3733C7.84862 65.663 6.83096 65.7813 5.81575 65.7227C5.7989 65.7227 5.78273 65.716 5.77082 65.7041C5.7589 65.6922 5.7522 65.676 5.7522 65.6592C5.7522 65.6423 5.7589 65.6262 5.77082 65.6143C5.78273 65.6023 5.7989 65.5956 5.81575 65.5956C7.73257 65.3838 11.2379 63.5623 12.837 65.2673V65.3203Z" fill="white"/>
<path d="M10.8354 59.665C10.77 59.6547 10.7031 59.6645 10.6433 59.693C10.5836 59.7214 10.5338 59.7673 10.5006 59.8246C10.4674 59.8819 10.4523 59.9478 10.4572 60.0138C10.4622 60.0798 10.4869 60.1428 10.5283 60.1945C11.7462 61.5183 15.0503 65.4896 17.5708 65.3201H17.719C18.1233 65.3844 18.5371 65.3518 18.9263 65.2248L19.064 65.1401C19.1562 65.1158 19.2372 65.0603 19.2932 64.9831C19.3492 64.9059 19.3767 64.8117 19.3711 64.7165C19.1487 61.084 13.663 60.2157 10.8354 59.665ZM18.0897 63.6469C18.0907 63.6842 18.0813 63.7212 18.0625 63.7535C18.0437 63.7858 18.0162 63.8122 17.9832 63.8298C17.9502 63.8474 17.913 63.8555 17.8757 63.8531C17.8384 63.8507 17.8025 63.838 17.772 63.8163C16.9215 62.8389 15.8243 62.1074 14.5949 61.6983C13.6018 61.4774 12.6553 61.083 11.7991 60.5334C11.7991 60.5334 11.7991 60.3957 11.8627 60.4274C13.5677 61.2641 17.539 61.3276 18.0897 63.6469Z" fill="white"/>
<path d="M15.527 74.5548C15.5313 74.619 15.5539 74.6806 15.592 74.7325C15.6302 74.7844 15.6823 74.8243 15.7423 74.8476C15.8022 74.871 15.8676 74.8767 15.9308 74.8642C15.9939 74.8518 16.0522 74.8215 16.0988 74.7771C17.1579 73.3475 20.5679 69.4185 19.9748 66.9616V66.8133C19.9671 66.404 19.8657 66.0019 19.6783 65.6378C19.6466 65.5959 19.6112 65.5569 19.5724 65.5213C19.5318 65.4362 19.4639 65.367 19.3795 65.3248C19.2951 65.2825 19.199 65.2697 19.1065 65.2884C15.5376 66.125 15.6011 71.6742 15.527 74.5548ZM18.2381 66.7392C18.3863 66.6757 18.5558 66.8875 18.4605 67.0251C17.6524 68.0407 17.1329 69.2553 16.9566 70.5411C16.8974 71.5535 16.6683 72.5487 16.2789 73.4851C16.2789 73.502 16.2722 73.5182 16.2603 73.5301C16.2484 73.542 16.2322 73.5487 16.2153 73.5487C16.1985 73.5487 16.1823 73.542 16.1704 73.5301C16.1585 73.5182 16.1518 73.502 16.1518 73.4851C16.6495 71.5895 16.0459 67.6711 18.2381 66.7392Z" fill="white"/>
<path d="M4.87324 46.3214C4.67202 46.3214 4.5873 46.6814 4.78851 46.7767C5.99579 47.4016 9.37406 49.3819 11.1426 48.5983H11.2485C11.5546 48.5422 11.842 48.4112 12.0851 48.217C12.1174 48.1964 12.1431 48.167 12.1593 48.1323C12.216 48.0889 12.257 48.0282 12.2761 47.9594C12.2952 47.8906 12.2914 47.8175 12.2652 47.7511C11.1426 45.1882 7.02304 45.9825 4.87324 46.3214ZM11.0473 47.2745C11.1214 47.3804 10.9838 47.5393 10.8779 47.4863C10.0105 47.0207 9.03375 46.7975 8.05029 46.8403C7.28722 46.9326 6.51409 46.8968 5.76281 46.7344C5.76281 46.7344 5.76281 46.6285 5.76281 46.6391C7.22425 46.7556 10.0624 45.7707 11.0473 47.2745Z" fill="white"/>
<path d="M10.2318 42.8584C10.0412 42.7842 9.80823 43.0278 9.93531 43.2079C10.6872 44.3516 12.6782 47.7087 14.5844 47.8781H14.6903C14.9845 47.9709 15.2958 47.9962 15.6011 47.9522H15.7175C15.7884 47.9412 15.8536 47.9072 15.9033 47.8556C15.953 47.804 15.9845 47.7375 15.9929 47.6663C16.2788 44.9129 12.2757 43.5997 10.2318 42.8584ZM15.2198 46.692C15.2182 46.7208 15.2083 46.7484 15.1912 46.7716C15.1742 46.7948 15.1508 46.8125 15.1238 46.8226C15.0969 46.8327 15.0676 46.8348 15.0395 46.8285C15.0114 46.8222 14.9857 46.8079 14.9656 46.7873C14.4438 45.9651 13.7128 45.2963 12.8476 44.8493C12.1327 44.5635 11.4733 44.1549 10.899 43.6421C10.899 43.6421 10.899 43.5361 10.9626 43.5679C12.0428 44.3728 15.0398 44.9023 15.2198 46.692Z" fill="white"/>
<path d="M11.9474 54.5289C11.9421 54.5779 11.9511 54.6273 11.9733 54.6713C11.9956 54.7153 12.0301 54.7518 12.0727 54.7765C12.1154 54.8012 12.1643 54.8129 12.2135 54.8103C12.2627 54.8077 12.31 54.7909 12.3499 54.7619C13.3453 53.8299 16.3318 51.3095 16.1729 49.4032C16.1779 49.3646 16.1779 49.3254 16.1729 49.2868C16.219 48.9808 16.1899 48.6682 16.0882 48.376C16.096 48.3411 16.096 48.305 16.0882 48.2701C16.0652 48.2023 16.0207 48.1439 15.9614 48.1037C15.9021 48.0636 15.8314 48.0439 15.7599 48.0477C12.9641 48.2383 12.3393 52.3897 11.9474 54.5289ZM14.9021 49.022C14.9323 49.0166 14.9635 49.0207 14.9913 49.0338C15.0191 49.0469 15.0421 49.0682 15.0572 49.095C15.0724 49.1217 15.0788 49.1525 15.0757 49.1831C15.0725 49.2136 15.06 49.2424 15.0398 49.2656C14.3167 49.9253 13.7829 50.7662 13.4936 51.7013C13.3271 52.45 13.0372 53.1658 12.6358 53.8193C12.6358 53.8193 12.5193 53.8193 12.5511 53.7664C13.1018 52.4532 13.1547 49.4562 14.9021 49.022Z" fill="white"/>
<path d="M0.764175 29.8643C0.724506 29.8686 0.686869 29.884 0.655592 29.9088C0.624316 29.9336 0.600673 29.9667 0.587392 30.0043C0.574111 30.042 0.571731 30.0826 0.580524 30.1215C0.589318 30.1604 0.608931 30.1961 0.637098 30.2243C1.53726 30.9127 4.03654 32.999 5.58271 32.5965H5.68861C5.94472 32.5886 6.19525 32.5196 6.41933 32.3953C6.44888 32.3806 6.47434 32.3587 6.49346 32.3318C6.5491 32.3082 6.59399 32.2648 6.61943 32.21C6.64487 32.1552 6.64905 32.0929 6.63113 32.0352C6.06985 29.8007 2.57509 29.8854 0.764175 29.8643ZM5.68861 31.5057C5.68861 31.601 5.5933 31.707 5.50858 31.6434C4.85953 31.149 4.09321 30.8315 3.28464 30.7221C2.64549 30.6992 2.01502 30.5667 1.42077 30.3302V30.2455C2.63864 30.542 5.10615 30.129 5.68861 31.5057Z" fill="white"/>
<path d="M5.68857 27.7569C5.54031 27.6722 5.31791 27.8416 5.39204 28.0111C5.85801 29.0701 7.02293 32.0883 8.5691 32.4907H8.64323C8.87304 32.6074 9.12682 32.669 9.38454 32.6708H9.49044C9.55047 32.6707 9.60883 32.651 9.65663 32.6146C9.70442 32.5783 9.73903 32.5273 9.75519 32.4695C10.3165 30.2774 7.21355 28.6147 5.68857 27.7569ZM9.20451 31.5905C9.1971 31.6142 9.18232 31.635 9.16232 31.6497C9.14232 31.6644 9.11813 31.6723 9.0933 31.6723C9.06848 31.6723 9.0443 31.6644 9.0243 31.6497C9.00429 31.635 8.98951 31.6142 8.98211 31.5905C8.66183 30.84 8.14619 30.1891 7.48889 29.7055C6.94082 29.3701 6.45378 28.944 6.04863 28.4453C6.04863 28.4453 6.04864 28.3605 6.11218 28.4453C6.9488 29.2607 9.31041 30.0973 9.16214 31.5905H9.20451Z" fill="white"/>
<path d="M5.44483 37.5844C5.43485 37.6235 5.43622 37.6645 5.44875 37.7028C5.46128 37.7411 5.48447 37.775 5.51559 37.8006C5.54672 37.8261 5.5845 37.8423 5.62448 37.8472C5.66447 37.852 5.70502 37.8454 5.74136 37.828C6.68389 37.2032 9.47969 35.5405 9.61736 33.952V33.8673C9.70165 33.6224 9.72348 33.3603 9.6809 33.1048V33.0095C9.67606 32.9493 9.64997 32.8928 9.60728 32.8501C9.56459 32.8074 9.5081 32.7813 9.44792 32.7765C7.14986 32.5541 6.05906 35.8794 5.44483 37.5844ZM8.62188 33.4649C8.71719 33.4649 8.78074 33.6237 8.69601 33.6767C8.01218 34.1268 7.4574 34.7472 7.08631 35.477C6.85076 36.0706 6.51393 36.6189 6.09083 37.0973C6.09083 37.0973 6.00611 37.0973 6.02729 37.0973C6.74743 36.0277 7.13926 33.5814 8.63248 33.4649H8.62188Z" fill="white"/>
<path d="M0.171039 17.3998C0.0227764 17.3998 -0.0619456 17.6116 0.0545463 17.6963C0.806449 18.2576 2.88213 19.9944 4.15295 19.6555C4.18095 19.6607 4.20966 19.6607 4.23766 19.6555C4.44938 19.6569 4.65768 19.602 4.8413 19.4966H4.90485C4.94957 19.4759 4.98567 19.4403 5.00693 19.3958C5.0282 19.3514 5.03329 19.3009 5.02134 19.2531C4.56596 17.3468 1.66425 17.4104 0.171039 17.3998ZM4.25885 18.7553C4.25885 18.8295 4.18471 18.9248 4.12117 18.8718C3.5797 18.4617 2.94117 18.199 2.26789 18.1093C1.74135 18.0859 1.22239 17.975 0.732317 17.781V17.7175C1.7172 17.9611 3.76111 17.6222 4.25885 18.7553Z" fill="white"/>
<path d="M2.18333 6.8836C2.14853 6.88268 2.11429 6.8925 2.08527 6.91172C2.05625 6.93094 2.03386 6.95863 2.02114 6.99103C2.00841 7.02343 2.00596 7.05897 2.01414 7.0928C2.02232 7.12664 2.04072 7.15712 2.06683 7.18013C2.81874 7.74141 4.88382 9.46761 6.16523 9.13932H6.23936C6.45378 9.1357 6.66429 9.08126 6.85359 8.98047L6.91714 8.92752C6.96144 8.90346 6.99674 8.86567 7.01774 8.81985C7.03875 8.77402 7.04432 8.72261 7.03362 8.67335C6.57824 6.82007 3.67654 6.89419 2.18333 6.8836ZM6.27114 8.23915C6.27114 8.31328 6.197 8.398 6.12287 8.35564C5.58769 7.94159 4.95144 7.67832 4.28018 7.59314C3.75364 7.56977 3.23468 7.45882 2.74461 7.26485V7.20131C3.72949 7.4343 5.7734 7.09541 6.27114 8.23915Z" fill="white"/>
<path d="M3.57048 15.2287C3.4434 15.1652 3.26336 15.3029 3.3269 15.4405C3.70815 16.2983 4.67186 18.8188 5.95327 19.1471H6.01681C6.20729 19.2435 6.41757 19.2942 6.63104 19.2953H6.74753C6.797 19.2974 6.84573 19.2829 6.88601 19.2541C6.92629 19.2253 6.95582 19.184 6.96993 19.1365C7.43589 17.315 4.87307 15.97 3.57048 15.2287ZM6.48278 18.4058C6.47627 18.4245 6.46411 18.4407 6.44798 18.4521C6.43185 18.4636 6.41255 18.4698 6.39276 18.4698C6.37297 18.4698 6.35367 18.4636 6.33754 18.4521C6.32141 18.4407 6.30925 18.4245 6.30275 18.4058C6.03501 17.7832 5.60307 17.2451 5.05311 16.849C4.60252 16.5632 4.20184 16.2055 3.86701 15.79C4.6295 16.4784 6.59927 17.1667 6.48278 18.4058Z" fill="white"/>
<path d="M3.40125 23.3195C3.40125 23.4572 3.51774 23.6161 3.64482 23.5313C4.4285 23.0124 6.74774 21.6357 6.82187 20.3543C6.82052 20.3296 6.82052 20.3049 6.82187 20.2802C6.88713 20.0751 6.90524 19.8578 6.87483 19.6448V19.5706C6.87013 19.5217 6.84854 19.4758 6.81375 19.4411C6.77897 19.4063 6.73317 19.3847 6.68421 19.38C4.80974 19.2 3.90957 21.9534 3.40125 23.3195ZM6.0382 19.9201C6.12293 19.9201 6.17587 20.0472 6.10174 20.0895C5.53403 20.4589 5.07666 20.9749 4.77797 21.5828C4.5759 22.0745 4.29313 22.5291 3.94135 22.9277C3.86722 22.9277 3.94135 22.9277 3.94135 22.9277C4.44967 22.0911 4.79915 20.0472 6.0382 19.9625V19.9201Z" fill="white"/>
<path d="M52.9314 61.3806C52.9994 61.4528 53.0901 61.4995 53.1883 61.513C53.2866 61.5265 53.3865 61.5059 53.4715 61.4548H53.6197C53.9919 61.2485 54.311 60.9584 54.5517 60.6076L54.6258 60.4805C56.5426 58.7119 55.886 53.4274 55.759 51.5741C55.7456 51.5076 55.7133 51.4464 55.6658 51.398C55.6183 51.3496 55.5577 51.316 55.4915 51.3014C55.4252 51.2868 55.3562 51.2918 55.2927 51.3158C55.2293 51.3398 55.1742 51.3817 55.1341 51.4365C53.5562 53.904 50.3474 58.6378 52.9314 61.3806ZM55.0494 52.7073C55.0494 52.6904 55.0561 52.6743 55.068 52.6624C55.0799 52.6504 55.0961 52.6437 55.113 52.6437C55.1298 52.6437 55.146 52.6504 55.1579 52.6624C55.1698 52.6743 55.1765 52.6904 55.1765 52.7073C54.9981 53.7329 54.6396 54.7189 54.1175 55.6196C53.5368 56.8281 53.2917 58.1705 53.4079 59.5062C53.4079 59.665 53.1538 59.7497 53.0585 59.6121C51.6606 57.5999 54.4034 54.5817 55.0388 52.7073H55.0494Z" fill="white"/>
<path d="M50.57 66.072C50.6635 66.0972 50.7628 66.0913 50.8526 66.055C50.9425 66.0186 51.018 65.954 51.0677 65.8708C51.1117 65.8408 51.1479 65.8009 51.1736 65.7543C51.3978 65.3954 51.5355 64.9894 51.576 64.5682C51.5817 64.5189 51.5817 64.4692 51.576 64.4199C52.3915 61.9418 49.2462 57.6422 48.2295 56.096C48.1875 56.0428 48.1304 56.0033 48.0657 55.9828C48.001 55.9624 47.9317 55.9618 47.8666 55.9812C47.8016 56.0006 47.7438 56.0391 47.7009 56.0916C47.658 56.1442 47.6319 56.2085 47.6259 56.2761C47.4776 59.2307 46.9905 64.9282 50.57 66.072ZM48.1872 57.4622C48.1872 57.4453 48.1939 57.4292 48.2058 57.4172C48.2177 57.4053 48.2339 57.3986 48.2507 57.3986C48.2676 57.3986 48.2837 57.4053 48.2956 57.4172C48.3076 57.4292 48.3143 57.4453 48.3143 57.4622C48.6465 58.4582 48.8007 59.505 48.7696 60.5545C48.8494 61.8889 49.2885 63.177 50.0405 64.2822C50.1252 64.4305 49.9346 64.6317 49.7863 64.547C47.6153 63.3821 48.5472 59.4002 48.1872 57.4622Z" fill="white"/>
<path d="M51.2265 65.945C51.1806 66.0302 51.166 66.1288 51.1853 66.2237C51.2047 66.3185 51.2568 66.4036 51.3324 66.4639C51.3575 66.5141 51.3896 66.5605 51.4277 66.6016C51.7316 66.8765 52.0936 67.0792 52.4868 67.1947H52.635C54.9437 68.4125 59.6987 66.0297 61.4037 65.2884C61.4631 65.256 61.5115 65.2066 61.5426 65.1464C61.5737 65.0863 61.586 65.0182 61.578 64.9509C61.5701 64.8837 61.5421 64.8204 61.4978 64.7692C61.4535 64.718 61.3949 64.6812 61.3295 64.6636C58.4384 64.0388 52.8998 62.5879 51.2265 65.945ZM60.1011 65.0343C60.1148 65.0398 60.1266 65.0493 60.1349 65.0615C60.1433 65.0738 60.1477 65.0883 60.1477 65.1031C60.1477 65.1179 60.1433 65.1324 60.1349 65.1447C60.1266 65.1569 60.1148 65.1664 60.1011 65.1719C59.0674 65.3309 58.0139 65.3094 56.9876 65.1084C55.6559 64.9607 54.3091 65.1766 53.0904 65.7332C53.052 65.7428 53.0117 65.7408 52.9744 65.7275C52.9372 65.7142 52.9046 65.6903 52.8809 65.6587C52.8572 65.627 52.8433 65.5891 52.841 65.5496C52.8387 65.5101 52.8481 65.4709 52.868 65.4367C54.3189 63.4775 58.0889 65.066 60.0587 65.0343H60.1011Z" fill="white"/>
<path d="M40.3398 51.5636C40.3885 51.632 40.4591 51.6819 40.5399 51.705C40.6207 51.7281 40.707 51.723 40.7846 51.6906H40.9222C41.254 51.5583 41.551 51.3518 41.7906 51.087L41.8754 50.9917C43.6757 49.7103 43.7075 45.1989 43.7922 43.6315C43.7919 43.5739 43.7742 43.5177 43.7414 43.4703C43.7086 43.423 43.6623 43.3866 43.6085 43.366C43.5547 43.3454 43.4959 43.3415 43.4399 43.3548C43.3838 43.3682 43.3331 43.3982 43.2944 43.4409C41.6953 45.3471 38.5183 48.9796 40.3398 51.5636ZM43.072 44.4999C43.072 44.447 43.1885 44.4999 43.1779 44.4999C42.8979 45.3424 42.4752 46.1304 41.9283 46.8297C41.2976 47.775 40.9318 48.8721 40.8693 50.0068C40.8616 50.0391 40.8446 50.0684 40.8204 50.0912C40.7963 50.1139 40.7659 50.129 40.7332 50.1347C40.7005 50.1403 40.6668 50.1362 40.6364 50.1229C40.606 50.1096 40.5802 50.0876 40.5622 50.0598C39.6832 48.2488 42.3307 46.0037 43.072 44.4999Z" fill="white"/>
<path d="M37.8298 55.249C37.9062 55.2824 37.9917 55.2892 38.0724 55.268C38.1532 55.2469 38.2244 55.1991 38.2746 55.1325C38.3154 55.1119 38.3515 55.0831 38.3805 55.0478C38.6141 54.7747 38.7745 54.4467 38.8464 54.0946V53.9676C39.7996 51.9766 37.6286 48.0159 36.9508 46.5544C36.9175 46.5087 36.8723 46.4731 36.8201 46.4514C36.7679 46.4298 36.7107 46.4229 36.6549 46.4317C36.599 46.4404 36.5467 46.4645 36.5036 46.5011C36.4605 46.5377 36.4284 46.5855 36.4107 46.6392C35.9871 49.1596 34.9281 53.8934 37.8298 55.249ZM36.7708 47.7405C36.7708 47.7265 36.7764 47.713 36.7863 47.7031C36.7962 47.6932 36.8097 47.6876 36.8237 47.6876C36.8378 47.6876 36.8512 47.6932 36.8612 47.7031C36.8711 47.713 36.8767 47.7265 36.8767 47.7405C37.0478 48.6097 37.0657 49.5021 36.9296 50.3775C36.8511 51.5108 37.0778 52.6445 37.5862 53.6604C37.597 53.6929 37.5977 53.7278 37.5882 53.7606C37.5788 53.7935 37.5596 53.8227 37.5333 53.8444C37.507 53.8662 37.4747 53.8795 37.4406 53.8825C37.4066 53.8856 37.3725 53.8783 37.3426 53.8616C35.6482 52.665 36.8661 49.4138 36.7814 47.7405H36.7708Z" fill="white"/>
<path d="M38.3699 55.2067C38.3175 55.271 38.2888 55.3514 38.2888 55.4344C38.2888 55.5173 38.3175 55.5978 38.3699 55.6621C38.3884 55.7023 38.4097 55.7412 38.4335 55.7785C38.6662 56.0515 38.9601 56.2656 39.2913 56.4034H39.4184C41.2187 57.6848 45.4865 56.2022 47.0009 55.768C47.0528 55.7444 47.0968 55.7064 47.1277 55.6585C47.1586 55.6107 47.175 55.5549 47.175 55.4979C47.175 55.4409 47.1586 55.3852 47.1277 55.3373C47.0968 55.2894 47.0528 55.2514 47.0009 55.2279C44.6817 54.4018 40.1809 52.5697 38.3699 55.2067ZM45.9313 55.4185C45.9427 55.4234 45.9523 55.4316 45.9591 55.4419C45.9659 55.4523 45.9695 55.4644 45.9695 55.4767C45.9695 55.4891 45.9659 55.5012 45.9591 55.5115C45.9523 55.5219 45.9427 55.53 45.9313 55.535C45.0432 55.558 44.1579 55.4254 43.3156 55.1431C42.2155 54.8724 41.0625 54.9053 39.9796 55.2385C39.947 55.2396 39.9147 55.2318 39.8861 55.2159C39.8576 55.2001 39.8338 55.1768 39.8175 55.1485C39.8012 55.1202 39.7929 55.088 39.7935 55.0554C39.794 55.0227 39.8035 54.9908 39.8208 54.9631C41.2717 53.4805 44.2687 55.2279 45.9313 55.4185Z" fill="white"/>
<path d="M28.631 40.8125C28.5626 40.7935 28.5019 40.7535 28.4574 40.6981C26.8689 38.453 29.6223 35.2971 31.0202 33.6769C31.0545 33.6422 31.098 33.6181 31.1455 33.6075C31.193 33.5968 31.2426 33.6001 31.2884 33.6168C31.3341 33.6335 31.3741 33.6631 31.4035 33.7019C31.433 33.7407 31.4507 33.7871 31.4544 33.8357C31.3697 35.1701 31.3485 39.1308 29.7812 40.1898L29.7177 40.2745C29.5058 40.5052 29.2454 40.6861 28.9552 40.804H28.8387C28.772 40.8285 28.6994 40.8315 28.631 40.8125Z" fill="white"/>
<path d="M26.2864 43.8856C26.3511 43.9168 26.4246 43.9244 26.4943 43.9069C26.5639 43.8895 26.6253 43.8483 26.6677 43.7903C26.7033 43.771 26.7355 43.7459 26.763 43.7162C26.9559 43.4736 27.0933 43.1916 27.1654 42.8902C27.1654 42.8902 27.1654 42.816 27.1654 42.7843C27.9914 41.0581 26.1064 37.6163 25.5133 36.4302C25.4861 36.39 25.448 36.3584 25.4035 36.3392C25.3589 36.3199 25.3098 36.3139 25.2619 36.3217C25.2141 36.3295 25.1694 36.3508 25.1333 36.3831C25.0971 36.4155 25.071 36.4575 25.0579 36.5043C24.6767 38.6011 23.7659 42.7101 26.2864 43.8856ZM25.3651 37.3833C25.3651 37.3303 25.4498 37.3091 25.4604 37.3833C25.5982 38.1431 25.5982 38.9215 25.4604 39.6813C25.3981 40.6646 25.5954 41.647 26.0322 42.5301C26.0322 42.636 25.9263 42.7631 25.8204 42.6995C24.3802 41.6511 25.4392 38.8341 25.3651 37.3833Z" fill="white"/>
<path d="M26.7419 43.854C26.6981 43.9099 26.6743 43.9789 26.6743 44.05C26.6743 44.121 26.6981 44.19 26.7419 44.2459V44.3518C26.9472 44.5878 27.2046 44.7727 27.4938 44.8919H27.5997C29.1671 45.9509 32.8948 44.7118 34.1762 44.3306C34.388 44.3306 34.3774 43.9387 34.1762 43.8646C32.217 43.1551 28.3198 41.5666 26.7419 43.854ZM33.3078 44.0447C33.3714 44.0447 33.3078 44.1294 33.3078 44.14C32.5388 44.1544 31.7727 44.0399 31.0415 43.8011C30.0841 43.5693 29.0821 43.5985 28.1398 43.8858C28.1111 43.8864 28.0828 43.8792 28.0579 43.865C28.0329 43.8508 28.0123 43.8301 27.9982 43.8052C27.9841 43.7802 27.977 43.7518 27.9777 43.7231C27.9784 43.6945 27.9868 43.6665 28.0021 43.6422C29.273 42.382 31.8676 43.8752 33.3078 44.0447Z" fill="white"/>
<path d="M20.6484 28.1713C20.5909 28.1445 20.5439 28.0993 20.5149 28.0428C19.3924 25.8506 22.2835 23.4996 23.692 22.2605C23.7216 22.2159 23.7656 22.1828 23.8168 22.1668C23.8679 22.1509 23.923 22.153 23.9727 22.1729C24.0224 22.1928 24.0638 22.2292 24.0898 22.2761C24.1158 22.3229 24.1249 22.3772 24.1156 22.43C23.8614 23.6055 23.2684 27.0261 21.7434 27.778L21.6692 27.8416C21.4566 28.014 21.2062 28.1338 20.9385 28.191H20.8326C20.7707 28.2051 20.7059 28.1982 20.6484 28.1713Z" fill="white"/>
<path d="M18.1427 30.5315C18.1941 30.567 18.255 30.5861 18.3175 30.5861C18.3799 30.5861 18.4408 30.567 18.4922 30.5315L18.5875 30.4786C18.7903 30.2934 18.9495 30.0656 19.0535 29.8114V29.7267C20.0278 28.3288 18.8734 25.0564 18.524 23.9021C18.5075 23.8608 18.479 23.8254 18.4422 23.8005C18.4054 23.7755 18.3619 23.7622 18.3175 23.7622C18.273 23.7622 18.2296 23.7755 18.1928 23.8005C18.1559 23.8254 18.1275 23.8608 18.111 23.9021C17.4967 25.6812 16.1094 29.1442 18.1427 30.5315ZM18.2698 24.7069C18.2698 24.7069 18.3439 24.7069 18.3545 24.7069C18.3763 25.3891 18.2796 26.0699 18.0686 26.7191C17.8686 27.5692 17.8978 28.4573 18.1533 29.2925C18.1533 29.3984 18.0262 29.4831 17.9521 29.409C16.7978 28.297 18.1321 25.9883 18.2698 24.7069Z" fill="white"/>
<path d="M18.5557 30.5632C18.5153 30.6124 18.4932 30.6742 18.4932 30.7379C18.4932 30.8017 18.5153 30.8634 18.5557 30.9127C18.5509 30.9442 18.5509 30.9764 18.5557 31.008C18.7012 31.2418 18.8965 31.4406 19.1276 31.5904H19.2229C20.4302 32.7871 23.8508 32.1941 25.0475 32.0458C25.0897 32.034 25.1277 32.0106 25.1572 31.9782C25.1867 31.9458 25.2064 31.9057 25.2142 31.8626C25.2219 31.8194 25.2173 31.775 25.201 31.7344C25.1846 31.6937 25.1571 31.6585 25.1216 31.6328C23.4378 30.7326 20.2501 28.784 18.5557 30.5632ZM24.2638 31.6222V31.7069C23.5871 31.6101 22.9317 31.3988 22.3258 31.0821C21.5241 30.7442 20.6464 30.6272 19.7842 30.7432C19.7583 30.7433 19.733 30.7356 19.7117 30.721C19.6903 30.7063 19.674 30.6856 19.6648 30.6614C19.6555 30.6372 19.6539 30.6108 19.6601 30.5857C19.6663 30.5606 19.6801 30.5379 19.6995 30.5208C20.9703 29.6101 23.0248 31.3045 24.2638 31.6646V31.6222Z" fill="white"/>
<path d="M13.4724 16.7007C13.4948 16.7435 13.5312 16.7773 13.5755 16.7966C13.6198 16.8158 13.6694 16.8194 13.716 16.8066C13.7275 16.8122 13.7402 16.8151 13.753 16.8151C13.7659 16.8151 13.7786 16.8122 13.7901 16.8066C13.9949 16.7622 14.1869 16.6717 14.3514 16.5418C15.5163 15.97 15.9505 13.3648 16.1517 12.4752C16.1517 12.3375 15.9823 12.2316 15.8764 12.3269C14.8279 13.2483 12.6358 15.038 13.4724 16.7007ZM15.6963 12.8882C15.6963 12.8882 15.7705 12.8882 15.7599 12.8882C15.5168 13.3476 15.1981 13.7629 14.8174 14.1167C14.3774 14.6087 14.0743 15.2076 13.9384 15.8535C13.9319 15.8722 13.9197 15.8884 13.9036 15.8998C13.8874 15.9113 13.8681 15.9175 13.8484 15.9175C13.8286 15.9175 13.8093 15.9113 13.7931 15.8998C13.777 15.8884 13.7648 15.8722 13.7583 15.8535C13.3983 14.7309 15.1351 13.6825 15.6963 12.8882Z" fill="white"/>
<path d="M12.3977 17.8624C12.3508 17.8624 12.3048 17.8488 12.2654 17.8232C10.7192 16.7748 11.7676 14.1379 12.2336 12.8247C12.2489 12.7959 12.2718 12.7718 12.2998 12.755C12.3278 12.7382 12.3598 12.7294 12.3924 12.7294C12.4251 12.7294 12.4571 12.7382 12.4851 12.755C12.513 12.7718 12.5359 12.7959 12.5513 12.8247C12.8055 13.7037 13.6844 16.1924 12.9537 17.2514V17.3149C12.8762 17.5108 12.7527 17.6851 12.5937 17.8232H12.5301C12.4907 17.8488 12.4447 17.8624 12.3977 17.8624Z" fill="white"/>
<path d="M12.7402 18.0084C12.7402 17.9608 12.7555 17.9144 12.7839 17.8761C14.0759 16.5311 16.4905 18.0243 17.7084 18.6915C17.7371 18.7069 17.7612 18.7298 17.778 18.7577C17.7948 18.7857 17.8037 18.8177 17.8037 18.8504C17.8037 18.883 17.7948 18.915 17.778 18.943C17.7612 18.971 17.7371 18.9939 17.7084 19.0092C16.7976 19.1151 14.203 19.5705 13.2817 18.6597H13.2181C13.0434 18.5484 12.8952 18.4002 12.7839 18.2255C12.7806 18.1974 12.7806 18.169 12.7839 18.1408C12.7555 18.1025 12.7402 18.0561 12.7402 18.0084Z" fill="white"/>
<path d="M6.40176 5.15453C6.35392 5.1641 6.30426 5.15768 6.26043 5.13624C4.62955 4.3208 5.24377 1.56736 5.48735 0.0953238C5.5027 0.0665328 5.52559 0.0424489 5.55357 0.025661C5.58155 0.00887307 5.61357 0 5.6462 0C5.67883 0 5.71085 0.00887307 5.73883 0.025661C5.7668 0.0424489 5.7897 0.0665328 5.80505 0.0953238C6.20748 0.921357 7.43594 3.25119 6.86407 4.40552V4.47965C6.82052 4.68361 6.72576 4.87312 6.58872 5.03033L6.52519 5.08329C6.49297 5.11993 6.4496 5.14496 6.40176 5.15453Z" fill="white"/>
<path d="M7.60533 8.40848C7.61073 8.45657 7.63096 8.50177 7.66323 8.53782C7.69549 8.57388 7.73818 8.59901 7.78537 8.6097H7.8595C8.06145 8.65747 8.27176 8.65747 8.47372 8.6097H8.54785C9.83985 8.6097 11.2907 6.36458 11.8308 5.62326C11.9261 5.50677 11.8308 5.33733 11.6508 5.37969C10.2423 5.8033 7.5206 6.54461 7.60533 8.40848ZM11.1954 5.82448C11.1954 5.82448 11.2589 5.82448 11.1954 5.87743C10.7939 6.20137 10.3387 6.45229 9.85045 6.61874C9.24395 6.88393 8.72062 7.30845 8.33605 7.84721C8.33605 7.91075 8.15601 7.84721 8.1666 7.78367C8.34664 6.57639 10.3482 6.37517 11.1954 5.82448Z" fill="white"/>
</svg>
