<svg width="82" height="25" viewBox="0 0 82 25" fill="none" xmlns="http://www.w3.org/2000/svg">
<path fill-rule="evenodd" clip-rule="evenodd" d="M1.92709 0.0588978C1.62118 0.215603 1.34425 0.617836 1.22265 1.08199C1.09023 1.58744 1.11865 1.73122 1.88494 4.42974C2.26571 5.77077 2.62804 7.07698 2.69005 7.33241C2.82806 7.90068 2.89977 8.46151 3.0019 9.77065C3.13237 11.4433 3.25834 12.1844 3.56909 13.1077C4.18782 14.9459 5.3845 16.4877 7.00985 17.5407C7.45585 17.8297 8.41442 18.2943 8.93654 18.4746C11.0085 19.19 13.5163 19.2191 15.7349 18.5534C18.8154 17.6291 20.4291 15.1162 20.6165 10.9511C20.6295 10.6637 20.6558 9.8974 20.6749 9.24817C20.7056 8.20991 20.7213 8.01883 20.8053 7.66138C21.0359 6.68012 21.5085 5.88634 22.1336 5.43031C22.3374 5.28162 22.3515 5.26269 22.2704 5.24663C22.2207 5.23676 22.0216 5.19968 21.8281 5.16423C21.6345 5.12878 21.2035 5.01972 20.8702 4.92184C20.3194 4.76006 20.2267 4.74381 19.8536 4.74334C19.4945 4.74288 19.4112 4.756 19.189 4.84807C18.2863 5.2219 17.5838 6.21546 16.9809 7.971C16.7285 8.70603 16.5899 9.01279 16.3504 9.3661C16.0097 9.86873 15.6868 10.169 15.2009 10.4348C14.2169 10.9731 12.935 10.8459 12.2021 10.1372C11.9401 9.88378 11.8058 9.6475 11.6644 9.19105C11.4685 8.55873 11.4065 8.10495 11.3707 7.04214C11.3367 6.03205 11.2967 5.81222 11.0956 5.53268C10.7739 5.08551 9.98851 5.20162 9.66756 5.7438C9.51339 6.00419 9.49373 6.2311 9.57607 6.7996C9.74345 7.95509 9.64543 8.54387 9.24142 8.80991C9.10669 8.89865 9.0301 8.91739 8.74589 8.93116C8.3024 8.95268 8.02285 8.87431 7.79229 8.66392C7.57256 8.46345 7.4745 8.25023 7.41808 7.85021C7.36377 7.465 7.42676 6.89422 7.71874 5.12638C7.91486 3.93884 7.92557 3.63081 7.78322 3.27506C7.61424 2.85285 7.33386 2.65238 6.91211 2.65218C6.49055 2.65199 6.11802 2.86934 5.92175 3.22997C5.85317 3.35595 5.83753 3.44968 5.83781 3.7331L5.83812 4.08142L6.18085 4.73936C6.43034 5.21826 6.55198 5.50261 6.6279 5.78432C6.72608 6.14866 6.73222 6.22239 6.73284 7.04214C6.73339 7.77358 6.71932 7.9943 6.64495 8.42126C6.35121 10.1071 5.93946 10.9707 5.48346 10.8574C5.11324 10.7654 4.66138 9.95395 4.47019 9.03763C4.39137 8.65994 4.39399 8.44529 4.49099 7.33241C4.58678 6.23319 4.60703 4.63776 4.53298 4.02337C4.41925 3.07922 4.18102 2.21272 3.85326 1.55079C3.50016 0.837781 3.02915 0.272767 2.63727 0.092143C2.40096 -0.0167652 2.10209 -0.0307754 1.92709 0.0588978ZM20.0258 5.57339C20.4608 5.9514 20.1325 6.62845 19.5653 6.52315C19.1097 6.4385 18.9709 5.88506 19.3276 5.57506C19.4454 5.47269 19.4961 5.45535 19.6777 5.45535C19.8586 5.45535 19.9101 5.4728 20.0258 5.57339ZM38.1596 6.71372C37.85 6.87843 37.71 7.10728 37.71 7.44852C37.71 7.71123 37.7763 7.87397 37.9497 8.03637C38.1145 8.19079 38.2494 8.24191 38.492 8.24191C38.7263 8.24191 38.8689 8.19098 39.0136 8.0556C39.3858 7.70728 39.3555 7.11398 38.9492 6.79395C38.823 6.6946 38.7605 6.67482 38.5386 6.66406C38.3523 6.655 38.2431 6.66932 38.1596 6.71372ZM47.4445 6.7422C46.8712 7.02922 46.8828 7.90815 47.4634 8.16915C47.7143 8.28201 48.0177 8.26579 48.2375 8.12782C48.4801 7.97553 48.5947 7.75794 48.5971 7.4455C48.5985 7.24974 48.5791 7.17872 48.4816 7.02275C48.2619 6.67168 47.8227 6.55287 47.4445 6.7422ZM66.193 6.71944C65.892 6.87654 65.7431 7.12102 65.744 7.45664C65.7448 7.72245 65.8454 7.92405 66.0645 8.09864C66.2223 8.2245 66.4821 8.27307 66.7405 8.22508C66.9098 8.19365 67.1805 7.96372 67.2547 7.7884C67.3177 7.63951 67.3237 7.28365 67.2659 7.13174C67.2096 6.98397 67.0025 6.77367 66.8492 6.70857C66.6821 6.63759 66.339 6.64324 66.193 6.71944ZM8.32782 7.04478C7.81289 7.15264 7.79729 7.92285 8.30666 8.08927C8.55603 8.17074 8.86858 8.03064 8.96918 7.79231C9.14911 7.36604 8.79035 6.94783 8.32782 7.04478ZM29.9685 11.2994V15.0922L31.5227 15.0922C32.7038 15.0921 33.1539 15.0787 33.398 15.0362C34.7707 14.797 35.7952 14.0743 36.2533 13.0216C36.5213 12.4059 36.5926 12.0483 36.5926 11.3187C36.5926 10.7198 36.5597 10.4911 36.4006 9.98286C36.0548 8.87841 35.2529 8.10491 34.0552 7.72032C33.4692 7.53215 33.1674 7.50688 31.5031 7.50673L29.9685 7.50657V11.2994ZM50.2996 8.33867V9.09336H49.9477H49.5958V9.57563V10.0579L49.938 10.0691L50.2801 10.0803L50.3004 11.996C50.32 13.8462 50.3237 13.9205 50.4077 14.1673C50.5581 14.6089 50.8956 14.8989 51.4153 15.0329C51.5814 15.0757 51.8441 15.0922 52.3605 15.0922H53.0756V14.5945V14.0968L52.5372 14.0776C51.9729 14.0576 51.8425 14.0231 51.6875 13.8537C51.6121 13.7712 51.6091 13.7053 51.5985 11.9146L51.5877 10.0609H52.3316H53.0756V9.57714V9.09336H52.3327H51.5899V8.33867V7.58398H50.9447H50.2996V8.33867ZM61.9509 8.33867V9.09336H61.599H61.2471V9.57714V10.0609H61.5967H61.9462L61.9601 11.9864C61.9753 14.0995 61.975 14.0967 62.2213 14.4811C62.3596 14.6968 62.5799 14.8637 62.8836 14.9826C63.0812 15.06 63.1892 15.0706 63.9156 15.084L64.7269 15.099V14.5979V14.0968L64.1827 14.0774C63.5656 14.0555 63.4283 14.0079 63.3096 13.775C63.2475 13.6531 63.2412 13.478 63.2412 11.8509L63.2411 10.0609H63.984H64.7269V9.57714V9.09336H63.984H63.2411V8.33867V7.58398H62.596H61.9509V8.33867ZM5.16438 8.47258C4.70967 8.74698 4.93468 9.48085 5.47329 9.48023C5.73901 9.47996 6.01242 9.20835 6.01269 8.9444C6.0132 8.51627 5.53374 8.24962 5.16438 8.47258ZM32.8073 8.51097C33.6384 8.57905 34.0852 8.75615 34.5293 9.19356C34.8418 9.50132 35.0656 9.90449 35.1934 10.3899C35.2933 10.7694 35.2956 11.8645 35.1971 12.2282C35.0046 12.9402 34.5683 13.5052 33.9957 13.7846C33.4669 14.0425 32.9705 14.1219 31.8746 14.1237L31.2588 14.1247V11.3252C31.2588 9.78548 31.2705 8.51411 31.2849 8.49994C31.3227 8.4624 32.3012 8.46948 32.8073 8.51097ZM55.9862 9.05315C55.8345 9.09255 55.6435 9.15238 55.5618 9.18617C55.2896 9.29876 54.8815 9.59646 54.632 9.86435C54.0345 10.5062 53.8277 11.1481 53.8682 12.2356C53.8925 12.8884 53.9552 13.16 54.1923 13.6409C54.5494 14.3652 55.2292 14.9166 56.0345 15.1353C56.2948 15.206 56.408 15.2151 56.809 15.1978C57.3253 15.1754 57.5365 15.1188 57.9973 14.8791C58.2739 14.7352 58.7839 14.3459 58.7839 14.2786C58.7839 14.2578 58.8015 14.2408 58.823 14.2408C58.8467 14.2408 58.8621 14.4085 58.8621 14.6665V15.0922H59.4681H60.0742V12.0928V9.09336H59.4681H58.8621V9.49974C58.8621 9.86869 58.8282 9.99865 58.7706 9.85011C58.7328 9.7527 58.1486 9.31776 57.9008 9.20258C57.7699 9.14174 57.5412 9.06647 57.3925 9.03527C57.0113 8.95535 56.3296 8.96398 55.9862 9.05315ZM70.8206 9.03345C69.7023 9.26381 68.8189 10.0867 68.5332 11.1639C68.4316 11.5469 68.4301 12.6396 68.5305 13.0023C68.7921 13.9465 69.4473 14.6625 70.3766 15.0197C70.9035 15.2223 71.6659 15.2685 72.2177 15.1315C72.586 15.0401 73.3165 14.69 73.5631 14.4868C73.8602 14.2419 74.1456 13.8879 74.3075 13.5635C74.5581 13.0611 74.5993 12.8502 74.5985 12.0734C74.5978 11.4776 74.5867 11.3589 74.5059 11.0865C74.3541 10.5745 74.1551 10.2336 73.8001 9.87705C73.4516 9.52702 72.9487 9.22747 72.4686 9.0838C72.1341 8.98372 71.2004 8.9552 70.8206 9.03345ZM78.3014 9.05563C77.9425 9.14871 77.673 9.29245 77.407 9.53264L77.1992 9.72038V9.40685V9.09336H76.5541H75.909V12.0928V15.0922H76.5524H77.1958L77.2073 13.1281C77.2185 11.2028 77.2205 11.1594 77.3062 10.9345C77.5446 10.3092 78.1695 9.98027 78.9525 10.068C79.2287 10.0989 79.6226 10.267 79.7879 10.4246C79.9392 10.5688 80.0778 10.818 80.1561 11.0865C80.2151 11.2888 80.2258 11.5618 80.2393 13.2055L80.2547 15.0922H80.8774H81.5L81.4996 13.3603C81.4992 10.8343 81.4542 10.5088 81.0212 9.89725C80.5064 9.17015 79.2997 8.79675 78.3014 9.05563ZM37.8273 12.0928V15.0922H38.4724H39.1175V12.0928V9.09336H38.4724H37.8273V12.0928ZM40.095 9.11291C40.095 9.12367 40.5895 10.4255 41.1939 12.0059C41.7984 13.5863 42.3103 14.9273 42.3316 14.9858L42.3703 15.0922H43.1392H43.908L45.0414 12.1276C45.6648 10.4971 46.1806 9.14735 46.1878 9.1282C46.1952 9.10842 45.9144 9.09336 45.5379 9.09336H44.875L44.4048 10.4383C44.1461 11.178 43.7618 12.277 43.5507 12.8805L43.1668 13.9779L43.1046 13.8287C43.0703 13.7467 42.6739 12.6477 42.2235 11.3866L41.4048 9.09364L40.7499 9.09352C40.3897 9.09344 40.095 9.10215 40.095 9.11291ZM47.1718 12.0928V15.0922H47.8169H48.462V12.0928V9.09336H47.8169H47.1718V12.0928ZM65.8998 12.0928V15.0922H66.5449H67.1901V12.0928V9.09336H66.5449H65.8998V12.0928ZM57.7565 10.233C58.4017 10.5363 58.8223 11.2547 58.8265 12.0609C58.8327 13.2481 58.0594 14.0921 56.9659 14.0918C56.188 14.0915 55.5437 13.644 55.271 12.9147C55.0918 12.4354 55.092 11.6699 55.2715 11.1941C55.6366 10.2266 56.7921 9.77959 57.7565 10.233ZM72.1915 10.1758C72.7438 10.3913 73.1124 10.8113 73.2722 11.4072C73.3529 11.7083 73.3516 12.4466 73.2697 12.7506C73.1325 13.2597 72.7794 13.6968 72.3382 13.9036C72.0234 14.0511 71.821 14.0944 71.4502 14.0933C70.368 14.0901 69.7285 13.3489 69.7265 12.0954C69.7251 11.1632 70.0567 10.5478 70.7328 10.2277C71.1804 10.0159 71.7313 9.99629 72.1915 10.1758ZM21.7694 15.9046C21.0614 15.9974 20.4136 16.2821 19.8027 16.7689C19.6564 16.8854 19.1571 17.3402 18.693 17.7795C17.7556 18.6668 17.4047 18.9597 16.8124 19.3496C16.0537 19.8489 15.3614 20.0587 14.3017 20.1102C13.4279 20.1528 12.5107 20.0365 10.0009 19.5651C8.37485 19.2597 7.29046 19.1174 6.38428 19.0905C5.13842 19.0536 4.46425 19.1681 3.40222 19.5971C2.56114 19.9368 2.44064 19.9567 1.7364 19.8719C1.03752 19.7877 0.770833 19.8108 0.610648 19.9693C0.519315 20.0597 0.5 20.1119 0.5 20.2683C0.5 20.3725 0.527916 20.5509 0.562088 20.6647C0.763718 21.3368 1.39175 21.3294 4.11377 20.6229C5.65307 20.2234 6.18781 20.1501 6.92106 20.2378C7.94297 20.3601 8.6632 20.7123 10.2944 21.8875C11.386 22.674 12.4718 23.4139 13.246 23.8991C13.9218 24.3225 15.0813 25 15.1302 25C15.1789 25 15.168 24.9295 15.0662 24.586C14.6455 23.1675 13.4369 21.9052 11.5943 20.9598C11.3202 20.8191 11.1098 20.704 11.1267 20.704C11.1437 20.704 12.318 20.8683 13.7364 21.069C16.8668 21.5121 17.4497 21.5811 18.5047 21.6339C20.1645 21.7168 21.8337 21.564 23.392 21.1863C24.1047 21.0136 25.8479 20.4541 25.9316 20.3713C26.0116 20.2921 26.0082 20.2678 25.9041 20.1735C25.7079 19.9959 25.1152 19.7815 24.2234 19.5655C22.8038 19.2216 22.1938 19.294 20.2446 20.0377C19.5749 20.2932 19.2798 20.3672 18.9474 20.363C18.4464 20.3566 18.1041 19.9915 18.2716 19.6422C18.3607 19.4564 18.5097 19.3779 19.0002 19.2585C20.0551 19.0016 21.0093 18.4113 22.0431 17.376C22.8622 16.5558 23.085 16.0974 22.7483 15.925C22.6252 15.862 22.1673 15.8524 21.7694 15.9046ZM22.8446 17.8208C22.6443 17.8909 22.4464 18.1036 22.4119 18.2858C22.3599 18.5602 22.5267 18.8852 22.7718 18.9865C23.2606 19.1887 23.7647 18.7937 23.6681 18.2842C23.6298 18.0825 23.41 17.8586 23.1983 17.8059C22.9947 17.7551 23.0375 17.7533 22.8446 17.8208ZM2.25156 17.9575C1.71932 18.0481 1.45024 18.7068 1.78051 19.1107C1.98687 19.3631 2.07843 19.4075 2.39239 19.4075C2.64438 19.4075 2.69243 19.3951 2.82294 19.2966C3.09425 19.0917 3.20251 18.8028 3.12064 18.5018C3.07724 18.3424 2.89543 18.1012 2.76738 18.0334C2.64505 17.9686 2.39892 17.9324 2.25156 17.9575ZM18.0067 22.0805C17.8866 22.145 17.7813 22.3193 17.7816 22.4534C17.7818 22.6021 17.9198 22.7821 18.0716 22.8317C18.264 22.8945 18.4666 22.8259 18.5663 22.6642C18.6568 22.5172 18.6613 22.4021 18.5823 22.2509C18.4741 22.0437 18.2169 21.9676 18.0067 22.0805ZM15.7572 22.2932C15.1286 22.6092 15.1239 23.4864 15.7489 23.8116C15.9296 23.9056 15.9983 23.9207 16.1852 23.9078C16.6368 23.8766 16.9995 23.5023 16.9995 23.0674C16.9995 22.8114 16.8323 22.4984 16.6166 22.3503C16.3876 22.1932 16.0066 22.1679 15.7572 22.2932Z" fill="white"/>
</svg>
