<svg width="125" height="98" viewBox="0 0 125 98" fill="none" xmlns="http://www.w3.org/2000/svg">
<path fill-rule="evenodd" clip-rule="evenodd" d="M69.5099 76.9724C68.9799 74.9724 66.3399 73.3923 64.4099 74.6423C62.986 75.6086 61.7802 76.8621 60.8699 78.3224C60.5254 76.1904 60.6104 74.011 61.1199 71.9124C61.786 70.0341 62.9935 68.3952 64.5899 67.2023C65.1512 68.1333 65.9215 68.9208 66.8399 69.5024C68.6799 70.6724 71.2399 70.5024 71.4599 68.1224C71.5099 68.3324 71.5599 68.5524 71.5999 68.7824C71.6399 69.0124 71.9799 68.9423 71.9699 68.7323C71.7299 63.3523 68.1699 64.2424 65.0199 66.6324C63.5999 64.0624 65.1999 60.9023 67.0199 58.7423C70.3299 54.7423 70.3499 60.7924 73.0999 61.5924C76.7899 62.6524 78.4299 56.4224 76.6999 52.9424C78.3999 52.5724 79.8899 50.4223 80.7599 48.3623C81.3197 48.4873 81.9001 48.4873 82.4599 48.3623C82.7099 48.3023 82.5999 47.9324 82.3499 47.9724C81.965 48.0754 81.5598 48.0754 81.1749 47.9723C80.7901 47.8691 80.4392 47.6665 80.1575 47.3848C79.8757 47.103 79.6731 46.7521 79.57 46.3673C79.4668 45.9824 79.4668 45.5772 79.5699 45.1924C79.9499 43.4124 81.9099 42.9823 83.4199 43.4523C84.3945 43.8648 85.248 44.5187 85.8999 45.3524C85.3941 45.9543 85.0572 46.6798 84.9237 47.4546C84.7901 48.2294 84.8648 49.0258 85.1399 49.7623C85.1651 49.8366 85.2167 49.899 85.2849 49.9378C85.3531 49.9765 85.4332 49.9888 85.5099 49.9724C88.1899 49.2624 88.0499 47.2423 86.8499 45.4823C87.2699 45.0223 87.7599 44.5624 88.2799 44.0624C88.3086 44.034 88.327 43.9968 88.3321 43.9568C88.3372 43.9168 88.3286 43.8762 88.3079 43.8416C88.2871 43.807 88.2553 43.7803 88.2176 43.766C88.1799 43.7516 88.1384 43.7503 88.0999 43.7623C87.4502 43.9943 86.8596 44.3665 86.3699 44.8524C85.4537 43.7064 84.1726 42.9088 82.7399 42.5924C82.2607 42.5061 81.7686 42.5238 81.2969 42.6441C80.8251 42.7645 80.3847 42.9848 80.0055 43.2901C79.6263 43.5954 79.317 43.9786 79.0986 44.4137C78.8803 44.8489 78.758 45.3258 78.7399 45.8124C78.6942 46.3225 78.8172 46.8336 79.09 47.2671C79.3627 47.7006 79.7702 48.0327 80.2499 48.2123C79.8699 48.6923 79.4999 49.2124 79.1599 49.6924L77.9599 51.2323C77.0033 51.1181 76.0365 51.1181 75.0799 51.2323C74.7496 51.0445 74.392 50.9095 74.0199 50.8323C73.7099 50.7723 73.3099 51.1224 73.5499 51.4424C74.0703 52.2442 74.886 52.8083 75.8199 53.0123L75.9999 53.1224C76.9999 54.6224 76.6999 56.8123 76.2599 58.4223C75.5799 60.9423 72.8899 61.7224 71.5899 59.3424C71.2199 58.6824 70.9499 57.9724 70.5899 57.3424C68.8299 54.3424 65.3899 59.6924 64.6499 60.9424C64.0748 61.8624 63.76 62.921 63.7388 64.0058C63.7177 65.0905 63.9911 66.1607 64.5299 67.1024C62.9327 68.3797 61.5953 69.9514 60.5899 71.7323C59.9099 73.1223 59.7499 76.4224 60.3199 79.3424C57.1599 85.1624 57.4299 93.4823 63.1599 96.9223C63.5599 97.1623 63.9099 96.5523 63.5199 96.3023C58.7099 93.1723 58.5699 88.0523 59.8799 83.0423C60.1062 82.2884 60.3732 81.5473 60.6799 80.8224C61.5599 83.7124 63.2899 85.7524 66.1499 84.1924C69.0099 82.6324 70.3099 80.1824 69.5099 76.9724ZM85.6299 49.3023C85.5093 48.7362 85.513 48.1506 85.6408 47.5861C85.7685 47.0215 86.0173 46.4914 86.3699 46.0324C87.2399 47.3724 87.4199 48.8123 85.6299 49.3023ZM71.3099 67.5523C71.1099 67.4823 70.8599 67.5524 70.8799 67.8224C71.1199 71.1024 67.0499 68.8224 65.9899 67.8224C65.6664 67.5281 65.3839 67.1918 65.1499 66.8224C67.4799 65.1824 70.1899 64.6523 71.3099 67.5523ZM61.4499 80.4324C61.3499 80.1624 61.2699 79.8824 61.1899 79.6024V79.5024C62.2632 76.6424 64.7066 75.6257 68.5199 76.4523C71.8999 81.1823 63.4699 86.0924 61.4199 80.4324H61.4499Z" fill="white"/>
<path fill-rule="evenodd" clip-rule="evenodd" d="M53.8101 68.5125C54.6201 63.7525 49.9401 58.3425 45.6101 56.3925C45.3603 54.5772 44.506 52.899 43.1851 51.6289C41.8642 50.3588 40.1539 49.571 38.3302 49.3925C38.1102 43.6425 32.5101 40.5825 27.4401 39.6125C27.3407 39.6013 27.2406 39.626 27.1578 39.6821C27.075 39.7382 27.0149 39.8221 26.9884 39.9185C26.9619 40.015 26.9707 40.1177 27.0131 40.2082C27.0556 40.2988 27.129 40.3712 27.2201 40.4125C30.6301 41.4125 34.6001 42.7225 36.5001 45.9625C37.0514 47.0318 37.3588 48.2101 37.4002 49.4125C36.4029 49.5196 35.4546 49.9002 34.6601 50.5125C34.6034 50.5487 34.5553 50.597 34.5193 50.6538C34.4833 50.7106 34.4601 50.7747 34.4516 50.8414C34.443 50.9082 34.4491 50.976 34.4696 51.0401C34.4901 51.1043 34.5244 51.1631 34.5702 51.2125C36.6602 53.9025 38.2102 52.8425 38.3302 50.1025C38.6267 50.047 38.9292 50.0302 39.2301 50.0525C41.6601 50.4825 43.3701 53.1225 44.2301 55.2225C44.3398 55.523 44.43 55.8303 44.5001 56.1425C42.2501 55.7125 39.5002 56.3825 39.9602 59.2925C40.3202 61.2925 44.1702 61.0025 44.9602 59.5025C45.3644 58.7547 45.587 57.9223 45.6101 57.0725C49.1301 59.2025 53.5301 63.5125 52.9401 67.9525C50.5501 66.5125 47.6302 65.8525 47.0902 68.7525C46.6802 70.9525 48.6302 74.8325 51.2702 72.6625C52.4145 71.7629 53.2498 70.529 53.6601 69.1325C53.8142 69.2645 53.9611 69.4047 54.1001 69.5525C55.5101 70.7425 56.1001 72.7025 56.5501 74.4025C57.9801 79.6425 56.7801 85.7625 56.0501 91.0325C56.0501 91.4225 56.5802 91.5925 56.6402 91.2025C57.7602 84.5525 59.1701 77.1225 56.0501 70.8125C55.4738 69.8966 54.7105 69.1128 53.8101 68.5125ZM35.8101 51.3025C35.3301 50.8325 36.4101 50.4525 37.5001 50.2325C37.6501 51.3825 37.1001 51.7425 35.7801 51.3025H35.8101ZM44.5902 58.3025C44.4933 58.7743 44.2225 59.1925 43.8316 59.4741C43.4408 59.7556 42.9584 59.88 42.4801 59.8225L40.7702 58.2625C41.1571 57.6229 41.7306 57.1172 42.4135 56.8133C43.0964 56.5094 43.856 56.4219 44.5902 56.5625C44.6774 57.1468 44.6672 57.7415 44.5601 58.3225L44.5902 58.3025ZM51.4002 71.4125L48.0001 70.6325C49.5101 68.0225 51.1402 67.3125 52.8902 68.4425C52.6356 69.5484 52.1137 70.5751 51.3701 71.4325L51.4002 71.4125Z" fill="white"/>
<path fill-rule="evenodd" clip-rule="evenodd" d="M61.03 42.3023C61.0013 42.208 60.9431 42.1255 60.8638 42.0668C60.7846 42.0082 60.6887 41.9765 60.5901 41.9765C60.4915 41.9765 60.3955 42.0082 60.3163 42.0668C60.2371 42.1255 60.1788 42.208 60.1501 42.3023C59.2501 45.5423 55.7501 48.0523 53.9001 43.6523C52.5001 40.3123 56.3101 37.7123 58.9801 36.8423C59.5901 36.6423 60.7001 36.6223 61.1201 36.0123C63.0601 33.2023 61.12 27.6323 59.78 24.9523C59.51 24.4223 58.7201 24.8923 58.9801 25.4223C60.1599 27.9423 60.7742 30.6899 60.78 33.4723C60.88 36.1223 59.0601 35.6723 57.6301 36.3323C55.1401 37.4823 53.3401 39.0523 52.8101 41.8123C52.3401 44.2423 55.0601 48.3823 57.9001 47.1423C58.9001 46.7123 60.9001 45.1423 60.5901 44.0423C61.3401 46.5523 62.3301 54.5223 57.5901 54.3723C56.8579 54.4609 56.1412 54.6493 55.4601 54.9323C50.6801 56.2523 57.6801 65.6523 59.1701 66.8623C59.5201 67.1423 60.0201 66.6723 59.6701 66.3623C59.3201 66.0523 52.0501 55.8023 56.1101 55.8023C57.2606 55.7117 58.3976 55.4937 59.5001 55.1523C63.8101 54.0123 61.77 44.8023 61.03 42.3023Z" fill="white"/>
<path fill-rule="evenodd" clip-rule="evenodd" d="M105.74 58.1823C105.828 58.1584 105.902 58.1008 105.947 58.022C105.992 57.9432 106.004 57.8498 105.98 57.7623C105.956 57.6748 105.898 57.6003 105.82 57.5553C105.741 57.5103 105.648 57.4984 105.56 57.5223C86.38 61.2923 71.76 77.6423 68.14 96.4723C68.06 96.8923 68.67 97.0723 68.77 96.6523C73.68 76.6623 86.56 64.5223 105.74 58.1823Z" fill="white"/>
<path fill-rule="evenodd" clip-rule="evenodd" d="M75.3101 26.7426C75.2594 26.7566 75.214 26.7851 75.1792 26.8245C75.1445 26.864 75.1221 26.9127 75.1147 26.9647C75.1072 27.0167 75.1151 27.0698 75.1374 27.1174C75.1597 27.1649 75.1954 27.205 75.2401 27.2326C75.4936 27.4027 75.786 27.5059 76.0901 27.5326C69.9501 36.1226 65.9101 47.2326 63.4201 57.1926C63.4081 57.2364 63.4141 57.2831 63.4366 57.3225C63.4591 57.3618 63.4963 57.3907 63.5401 57.4026C63.5838 57.4145 63.6306 57.4086 63.67 57.3861C63.7093 57.3636 63.7382 57.3264 63.7501 57.2826C66.0401 51.4426 68.0401 45.5226 70.5701 39.7726C72.5637 35.5879 74.7664 31.506 77.1701 27.5426L77.7701 27.4326C78.747 27.1753 79.6052 26.589 80.2001 25.7726C80.5201 25.3726 79.9801 24.7726 79.6301 25.2026C79.1414 25.7715 78.5096 26.1997 77.8001 26.4426L78.6001 24.9926C78.7101 24.7826 78.4101 24.5226 78.2401 24.7226C77.7401 25.3326 77.2401 25.9726 76.7601 26.6126C76.2729 26.5799 75.7837 26.6237 75.3101 26.7426Z" fill="white"/>
<path fill-rule="evenodd" clip-rule="evenodd" d="M51.25 55.1224C50.76 45.5624 43.83 33.6924 36.25 27.9124C35.92 27.6724 35.6 28.1724 35.84 28.4524C42.48 36.1624 49.51 44.5424 50.56 55.1224C50.63 55.5424 51.31 55.5524 51.25 55.1224Z" fill="white"/>
<path fill-rule="evenodd" clip-rule="evenodd" d="M42.7001 27.1224C43.0301 26.9024 43.3501 26.6624 43.7001 26.4224C43.9935 26.2486 44.3099 26.1173 44.6401 26.0324C44.6401 26.1624 44.6401 26.3024 44.6901 26.4324C44.3301 27.0457 43.9968 27.6657 43.6901 28.2924L43.3401 27.7524C43.299 27.6834 43.2322 27.6336 43.1543 27.6139C43.0765 27.5942 42.9941 27.6063 42.9251 27.6474C42.8561 27.6885 42.8064 27.7553 42.7867 27.8331C42.767 27.911 42.779 27.9934 42.8201 28.0624L43.3401 29.1124C43.3401 29.1667 43.3528 29.2203 43.3771 29.2689C43.4014 29.3175 43.4366 29.3598 43.4801 29.3924C45.9301 34.2824 48.9001 38.8524 50.1401 44.2924C50.2001 44.5624 50.5801 44.4424 50.5401 44.1824C49.6801 38.8324 47.1001 33.6324 44.1701 29.0424C44.5001 28.6124 44.8101 28.1724 45.1101 27.7224C45.1792 27.7257 45.2482 27.7139 45.3124 27.688C45.3766 27.6621 45.4344 27.6226 45.4819 27.5723C45.5294 27.522 45.5654 27.4619 45.5876 27.3964C45.6097 27.3308 45.6174 27.2612 45.6101 27.1924V26.9824C45.8001 26.6824 45.9901 26.3824 46.1701 26.0724C46.5919 26.2107 46.9802 26.4354 47.3101 26.7324C47.6401 27.0224 48.3101 26.7324 48.1101 26.2624C47.8563 25.5951 47.5487 24.9497 47.1901 24.3324L47.7701 23.3324C47.8246 23.2389 47.8465 23.13 47.8326 23.0228C47.8186 22.9155 47.7696 22.8158 47.6931 22.7394C47.6166 22.6629 47.517 22.6138 47.4097 22.5999C47.3024 22.586 47.1936 22.608 47.1001 22.6624C46.8694 22.794 46.6458 22.9375 46.4301 23.0924C46.0601 22.5124 45.6801 21.9424 45.2901 21.3624C45.2407 21.2863 45.1686 21.2278 45.084 21.1952C44.9994 21.1626 44.9066 21.1576 44.819 21.1809C44.7313 21.2042 44.6533 21.2546 44.5961 21.3249C44.5388 21.3952 44.5052 21.4819 44.5001 21.5724C44.5001 22.5724 44.5001 23.5224 44.5701 24.4924C44.0901 24.8924 43.5701 25.2924 43.1101 25.6724C42.7519 25.868 42.4165 26.1028 42.1101 26.3724C41.6901 26.7224 42.2301 27.4224 42.7001 27.1224Z" fill="white"/>
<path fill-rule="evenodd" clip-rule="evenodd" d="M32.3101 20.3523C32.3518 18.8521 32.7168 17.3786 33.3801 16.0323C33.7086 15.3832 34.141 14.7921 34.6601 14.2823C35.0501 13.8823 35.4901 13.7123 35.7201 13.2123C35.7409 13.1764 35.752 13.1357 35.7523 13.0942C35.7527 13.0528 35.7423 13.0119 35.7222 12.9756C35.702 12.9394 35.6728 12.9089 35.6374 12.8873C35.602 12.8657 35.5616 12.8537 35.5201 12.8523C34.2101 12.6923 33.1001 14.5823 32.5701 15.5623C31.8208 17.0459 31.4466 18.6906 31.4801 20.3523C31.4955 20.4513 31.5458 20.5415 31.6219 20.6067C31.698 20.6719 31.7949 20.7077 31.8951 20.7077C31.9953 20.7077 32.0922 20.6719 32.1683 20.6067C32.2444 20.5415 32.2947 20.4513 32.3101 20.3523Z" fill="white"/>
<path fill-rule="evenodd" clip-rule="evenodd" d="M33.65 18.3424C33.43 18.7824 34.07 19.1625 34.31 18.7225C34.7583 17.8769 35.3823 17.137 36.14 16.5524C36.541 16.2441 37.0251 16.0629 37.53 16.0324C37.8623 16.0695 38.1977 16.0695 38.53 16.0324C38.5593 16.023 38.5862 16.0071 38.6088 15.9861C38.6313 15.965 38.649 15.9393 38.6604 15.9106C38.6719 15.882 38.6769 15.8511 38.6751 15.8204C38.6733 15.7896 38.6648 15.7595 38.65 15.7324C38.16 14.7824 36.84 15.1425 36.08 15.5025C34.9841 16.1613 34.1315 17.1578 33.65 18.3424Z" fill="white"/>
<path fill-rule="evenodd" clip-rule="evenodd" d="M34.7901 21.6022C35.6435 20.9469 36.6299 20.4862 37.6801 20.2522C38.9201 19.9722 39.8102 20.5522 40.8202 21.1422C40.8581 21.1669 40.9028 21.1793 40.948 21.1777C40.9933 21.1761 41.0369 21.1606 41.073 21.1332C41.1091 21.1059 41.1359 21.068 41.1497 21.0249C41.1635 20.9818 41.1637 20.9354 41.1502 20.8922C40.1502 17.8322 35.9201 19.6122 34.3001 20.9722C33.9501 21.2622 34.4201 21.8822 34.7901 21.6022Z" fill="white"/>
<path fill-rule="evenodd" clip-rule="evenodd" d="M38.51 23.6722C39.24 24.0822 39.77 24.7222 40.51 25.1422C40.72 25.2722 41.06 25.0622 40.96 24.8022C40.3 23.1122 38.16 22.3922 36.53 22.1022C36.06 22.0222 35.86 22.7022 36.33 22.8222C37.0916 23.0063 37.8248 23.2922 38.51 23.6722Z" fill="white"/>
<path fill-rule="evenodd" clip-rule="evenodd" d="M34.2401 23.7122C34.1698 23.6432 34.075 23.605 33.9766 23.606C33.8781 23.6069 33.7841 23.6469 33.7152 23.7172C33.6462 23.7875 33.608 23.8823 33.6089 23.9807C33.6098 24.0792 33.6498 24.1732 33.7201 24.2422C34.2189 24.7425 34.6896 25.27 35.1301 25.8222C35.4801 26.2722 35.7502 27.1122 36.3302 27.2622C36.399 27.278 36.4712 27.2672 36.5324 27.232C36.5936 27.1967 36.6392 27.1397 36.6601 27.0722C36.8701 26.5022 36.2601 25.8922 35.9301 25.4622C35.4083 24.8402 34.8436 24.2554 34.2401 23.7122Z" fill="white"/>
<path fill-rule="evenodd" clip-rule="evenodd" d="M31.76 33.2524C33.91 31.5824 33.76 28.7824 32.82 26.4924C32.64 26.0724 31.91 26.3724 32.08 26.8024C32.4906 27.7983 32.6364 28.8835 32.5032 29.9525C32.37 31.0215 31.9624 32.0377 31.32 32.9024C31.12 33.1824 31.53 33.4324 31.76 33.2524Z" fill="white"/>
<path fill-rule="evenodd" clip-rule="evenodd" d="M27.97 28.6325C28.6336 28.3576 29.1765 27.8537 29.5001 27.2125C29.7401 26.7325 29.05 26.3225 28.79 26.7925C28.5033 27.3233 28.0179 27.7189 27.4401 27.8925C26.9434 27.9618 26.4587 28.0998 26.0001 28.3025C25.9625 28.3233 25.9313 28.3537 25.9095 28.3906C25.8877 28.4275 25.8762 28.4696 25.8762 28.5125C25.8762 28.5554 25.8877 28.5975 25.9095 28.6344C25.9313 28.6713 25.9625 28.7018 26.0001 28.7225C26.3142 28.8559 26.6543 28.9171 26.9953 28.9015C27.3363 28.8859 27.6693 28.794 27.97 28.6325Z" fill="white"/>
<path fill-rule="evenodd" clip-rule="evenodd" d="M26.91 24.3022C27.35 24.0822 26.97 23.4622 26.53 23.6522C26.036 23.8822 25.4946 23.9918 24.95 23.9722C24.41 23.9722 23.95 23.5722 23.45 23.4822C23.4169 23.4745 23.3824 23.4754 23.3498 23.4848C23.3172 23.4941 23.2874 23.5116 23.2634 23.5357C23.2394 23.5597 23.2219 23.5894 23.2125 23.622C23.2032 23.6547 23.2024 23.6892 23.21 23.7222C23.6 25.3122 25.9 24.8122 26.91 24.3022Z" fill="white"/>
<path fill-rule="evenodd" clip-rule="evenodd" d="M25.41 21.6125C25.88 21.7725 26.05 21.0625 25.61 20.8925C23.79 20.1825 23.46 18.6625 23.07 16.9425C23.0534 16.881 23.017 16.8266 22.9664 16.7878C22.9158 16.749 22.8537 16.728 22.79 16.728C22.7262 16.728 22.6643 16.749 22.6137 16.7878C22.563 16.8266 22.5266 16.881 22.51 16.9425C22.336 17.9412 22.5354 18.9689 23.0702 19.8301C23.605 20.6913 24.4377 21.3257 25.41 21.6125Z" fill="white"/>
<path fill-rule="evenodd" clip-rule="evenodd" d="M27.9501 19.5525C27.346 18.5179 26.9328 17.3832 26.7301 16.2025C26.5301 15.1425 26.7901 14.0825 26.6301 13.0325C26.6301 12.8225 26.3301 12.8425 26.2301 12.9825C24.8501 14.8625 26.2301 18.2325 27.3101 19.9325C27.5701 20.3225 28.2001 19.9725 27.9501 19.5525Z" fill="white"/>
<path fill-rule="evenodd" clip-rule="evenodd" d="M29.2001 16.9226C29.0584 16.2656 28.9913 15.5947 29.0001 14.9226C29.0551 14.2938 29.0551 13.6614 29.0001 13.0326C29.0001 12.8526 28.7201 12.8626 28.6401 13.0326C27.8701 14.1326 28.1601 15.9326 28.4501 17.1626C28.5901 17.5926 29.3101 17.3926 29.2001 16.9226Z" fill="white"/>
<path fill-rule="evenodd" clip-rule="evenodd" d="M80.7302 24.7226C81.2102 24.9126 81.5602 24.0826 81.0902 23.8826C81.0105 23.8486 80.9336 23.8085 80.8602 23.7626C80.9421 23.8289 81.0448 23.8642 81.1502 23.8626C82.5702 23.8626 84.0502 23.2326 84.1502 21.6326C84.1163 20.9848 83.86 20.3685 83.4246 19.8876C82.9893 19.4067 82.4014 19.0906 81.7602 18.9926C81.3733 18.9227 80.9771 18.9227 80.5902 18.9926C80.622 18.9123 80.622 18.8229 80.5902 18.7426C80.3801 17.5888 80.4107 16.404 80.6802 15.2626C81.0902 14.1277 81.6234 13.0412 82.2702 12.0226C82.2943 11.9722 82.3021 11.9156 82.2927 11.8606C82.2832 11.8055 82.2569 11.7548 82.2175 11.7153C82.178 11.6758 82.1272 11.6496 82.0722 11.6401C82.0172 11.6307 81.9605 11.6385 81.9102 11.6626C79.5102 12.9526 79.2802 16.6626 79.9102 18.9426C79.917 18.9831 79.9321 19.0217 79.9545 19.0561C79.9768 19.0905 80.006 19.1199 80.0402 19.1426C79.5988 19.2711 79.2026 19.5212 78.8967 19.8643C78.5907 20.2073 78.3875 20.6295 78.3102 21.0826C78.2497 21.8723 78.455 22.6596 78.8936 23.3192C79.3321 23.9788 79.9785 24.4728 80.7302 24.7226ZM81.4202 21.2326C81.5402 20.7626 82.1002 20.5926 82.4802 20.3626C82.8426 20.6372 83.0831 21.0429 83.1502 21.4926C83.2502 22.4426 82.3202 22.7726 81.5302 22.8526C81.3591 22.3302 81.3213 21.7733 81.4202 21.2326ZM81.2002 19.9226C80.2002 20.5726 80.3802 22.4126 80.6802 23.5026C80.7111 23.6062 80.7741 23.6972 80.8602 23.7626C79.0202 22.7726 78.6502 19.9326 81.2002 19.9226Z" fill="white"/>
<path fill-rule="evenodd" clip-rule="evenodd" d="M82.1202 17.7224C82.4358 16.5569 82.9427 15.4518 83.6202 14.4523C84.3702 13.3923 85.5102 13.1124 86.4502 12.3424C86.478 12.315 86.498 12.2808 86.5082 12.2431C86.5184 12.2055 86.5184 12.1658 86.5083 12.1282C86.4981 12.0905 86.4781 12.0562 86.4503 12.0289C86.4226 12.0015 86.388 11.982 86.3502 11.9724C85.0702 11.7124 83.8602 12.7624 83.0902 13.6824C82.2306 14.8116 81.6483 16.1269 81.3902 17.5224C81.3735 17.6157 81.3923 17.712 81.443 17.7922C81.4936 17.8724 81.5724 17.9307 81.6638 17.9558C81.7553 17.9809 81.8529 17.9708 81.9373 17.9276C82.0218 17.8844 82.087 17.8112 82.1202 17.7224Z" fill="white"/>
<path fill-rule="evenodd" clip-rule="evenodd" d="M85.0701 17.9126C85.7075 17.2615 86.5697 16.8787 87.4801 16.8426C88.4801 16.8426 89.0401 17.5226 89.8701 17.8426C89.9058 17.85 89.9428 17.8484 89.9777 17.838C90.0127 17.8275 90.0445 17.8085 90.0703 17.7828C90.096 17.757 90.115 17.7252 90.1254 17.6903C90.1359 17.6553 90.1375 17.6183 90.1301 17.5826C89.947 17.0971 89.62 16.679 89.193 16.3841C88.7659 16.0893 88.2591 15.9318 87.7401 15.9326C87.131 15.931 86.5283 16.0565 85.9704 16.301C85.4125 16.5455 84.9118 16.9037 84.5001 17.3526C84.1301 17.7026 84.6901 18.2526 85.0701 17.9126Z" fill="white"/>
<path fill-rule="evenodd" clip-rule="evenodd" d="M86.9001 19.4926C87.7876 19.5296 88.6411 19.8444 89.3401 20.3926C89.9731 21.042 90.4935 21.7922 90.8801 22.6126C90.9149 22.6653 90.9655 22.7058 91.0246 22.7281C91.0837 22.7504 91.1484 22.7534 91.2094 22.7368C91.2704 22.7201 91.3245 22.6847 91.3641 22.6354C91.4038 22.5862 91.4268 22.5257 91.4301 22.4626C91.3201 20.1126 89.0701 18.7426 86.9001 18.7826C86.8162 18.7967 86.7399 18.8401 86.6849 18.9051C86.63 18.9701 86.5999 19.0525 86.5999 19.1376C86.5999 19.2227 86.63 19.3051 86.6849 19.3701C86.7399 19.435 86.8162 19.4784 86.9001 19.4926Z" fill="white"/>
<path fill-rule="evenodd" clip-rule="evenodd" d="M88.5099 26.1822C88.5285 26.2179 88.5565 26.2477 88.5909 26.2685C88.6252 26.2894 88.6647 26.3004 88.7049 26.3004C88.7451 26.3004 88.7845 26.2894 88.8188 26.2685C88.8532 26.2477 88.8813 26.2179 88.8999 26.1822C89.7799 24.4722 88.6998 22.4822 87.4698 21.2722C87.1198 20.9222 86.6099 21.4422 86.9299 21.8022C87.4742 22.3745 87.8902 23.0564 88.1499 23.8022C88.3227 24.5867 88.443 25.3818 88.5099 26.1822Z" fill="white"/>
<path fill-rule="evenodd" clip-rule="evenodd" d="M82.82 30.1825C82.72 30.3025 82.82 30.5525 82.97 30.5325C85.8 30.2625 86.97 26.7925 86.07 24.4725C85.9 24.0125 85.16 24.1925 85.31 24.6825C85.4898 25.1893 85.5639 25.7276 85.5278 26.2642C85.4917 26.8008 85.3461 27.3243 85.1 27.8025C84.58 28.8325 83.53 29.3225 82.82 30.1825Z" fill="white"/>
<path fill-rule="evenodd" clip-rule="evenodd" d="M82.31 25.6925C81.963 26.6309 81.4327 27.491 80.75 28.2225C80.18 28.8425 79.25 29.2225 78.83 29.9125C78.8111 29.9473 78.8014 29.9865 78.802 30.0263C78.8027 30.066 78.8136 30.1048 78.8338 30.1391C78.8539 30.1733 78.8826 30.2017 78.917 30.2216C78.9514 30.2415 78.9903 30.2521 79.03 30.2524C80.03 30.3224 80.9301 29.3024 81.5201 28.6424C82.1994 27.835 82.7034 26.8951 83 25.8825C83.15 25.4425 82.48 25.2725 82.31 25.6925Z" fill="white"/>
<path fill-rule="evenodd" clip-rule="evenodd" d="M76.4299 24.6824C76.9599 24.5824 76.7299 23.7924 76.2099 23.8724C75.9194 23.9296 75.6197 23.9216 75.3327 23.849C75.0456 23.7764 74.7782 23.6409 74.5499 23.4524C74.1299 23.0824 74.0599 22.5024 73.8299 22.0224C73.7199 21.7824 73.4099 21.8924 73.3299 22.0924C73.2219 22.4682 73.2299 22.868 73.353 23.2392C73.4762 23.6103 73.7087 23.9356 74.0199 24.1724C74.3551 24.4375 74.747 24.6216 75.1651 24.71C75.5831 24.7985 76.0161 24.789 76.4299 24.6824Z" fill="white"/>
<path fill-rule="evenodd" clip-rule="evenodd" d="M73.9999 17.5023C73.846 17.9255 73.8028 18.3811 73.8746 18.8257C73.9463 19.2703 74.1306 19.6891 74.4099 20.0423C74.9187 20.7885 75.6555 21.3499 76.5099 21.6423C76.9299 21.8123 77.2299 21.0923 76.8199 20.9023C76.16 20.6302 75.5911 20.1758 75.1799 19.5923C74.7399 18.9523 74.8099 18.1323 74.3999 17.5023C74.3781 17.4693 74.3483 17.4423 74.3134 17.4235C74.2785 17.4048 74.2395 17.395 74.1999 17.395C74.1603 17.395 74.1213 17.4048 74.0864 17.4235C74.0515 17.4423 74.0218 17.4693 73.9999 17.5023Z" fill="white"/>
<path fill-rule="evenodd" clip-rule="evenodd" d="M27.6501 23.2924C27.8113 23.8841 28.1444 24.4146 28.6072 24.8169C29.07 25.2191 29.6417 25.4751 30.25 25.5525C30.3482 25.579 30.4528 25.5654 30.5409 25.5148C30.6291 25.4642 30.6935 25.3806 30.72 25.2825C30.7465 25.1843 30.733 25.0797 30.6824 24.9915C30.6317 24.9034 30.5482 24.839 30.4501 24.8125C30.058 24.7354 29.6889 24.569 29.3715 24.3262C29.0541 24.0834 28.797 23.7708 28.62 23.4125C28.33 22.6925 28.83 22.1525 29.47 21.9025C30.11 21.6525 31.47 21.4625 31.99 22.2225C32.51 22.9825 31.47 23.4124 31.05 23.7624C30.83 23.9424 31.0501 24.2625 31.2601 24.2725C31.5269 24.2765 31.791 24.218 32.0312 24.1017C32.2714 23.9854 32.4811 23.8144 32.6434 23.6026C32.8057 23.3907 32.9162 23.1437 32.966 22.8815C33.0158 22.6193 33.0034 22.3491 32.93 22.0925C32.51 20.6825 30.7401 20.6724 29.5901 20.9224C29.0232 20.9904 28.5046 21.2751 28.1429 21.7169C27.7813 22.1587 27.6047 22.7233 27.6501 23.2924Z" fill="white"/>
<path fill-rule="evenodd" clip-rule="evenodd" d="M11.2401 62.3523C11.4201 62.6523 11.6101 62.9323 11.7801 63.2323C12.0501 63.7023 12.8901 63.3823 12.6801 62.8523C12.6763 62.8158 12.6763 62.7789 12.6801 62.7423C11.9731 61.0578 11.0413 59.4768 9.91007 58.0423L9.64011 57.6923C10.3926 57.1153 11.1074 56.4907 11.7801 55.8223C12.1734 55.6192 12.5812 55.4454 13.0001 55.3023C13.5701 55.1223 13.3301 54.2223 12.7501 54.3923C12.727 54.291 12.6696 54.2008 12.5876 54.137C12.5055 54.0732 12.404 54.0397 12.3001 54.0423C11.3001 54.0423 10.3701 53.9823 9.41007 53.9223C9.387 53.1726 9.27971 52.428 9.09013 51.7023C9.0686 51.629 9.02699 51.5632 8.97007 51.5123C8.91007 51.2723 8.8801 51.0323 8.8101 50.7823C8.7101 50.3623 7.99008 50.3223 7.92008 50.7823C7.78008 51.6623 7.59008 52.7223 7.48008 53.7823C6.37008 53.6923 5.2501 53.5823 4.1301 53.4623C3.6701 53.4123 3.58009 53.9823 3.80009 54.2623C4.69009 55.4223 5.59007 56.6123 6.53007 57.7523C6.38068 58.3678 6.10112 58.9441 5.71012 59.4423C5.15012 59.8823 4.60012 60.3423 4.08012 60.8323C4.00423 60.9214 3.96129 61.0338 3.95847 61.1508C3.95566 61.2678 3.9931 61.3822 4.06461 61.4748C4.13612 61.5674 4.23729 61.6326 4.35117 61.6595C4.46505 61.6863 4.58474 61.6732 4.6901 61.6223C5.30758 61.2373 5.85533 60.7504 6.3101 60.1823C6.7501 59.8323 7.19011 59.4923 7.64011 59.1823C8.71115 60.377 9.91949 61.4411 11.2401 62.3523ZM9.3101 54.8923C9.8901 54.8923 10.4801 54.9623 11.0701 54.9823L10.9701 55.0823C10.3843 55.3975 9.82867 55.7657 9.3101 56.1823C9.3101 55.7923 9.3101 55.4023 9.3101 55.0223C9.31669 54.9792 9.31669 54.9354 9.3101 54.8923ZM5.05009 54.5023L6.26011 54.6323C6.2243 54.736 6.2243 54.8486 6.26011 54.9523C6.39956 55.4038 6.48351 55.8706 6.51011 56.3423C6.05011 55.7323 5.57013 55.1223 5.09013 54.5023H5.05009Z" fill="white"/>
<path fill-rule="evenodd" clip-rule="evenodd" d="M117.31 52.5126C116.44 52.6726 115.57 52.8526 114.71 53.0426C114.833 52.2604 114.999 51.4859 115.21 50.7226C115.35 50.2526 114.7 49.8326 114.36 50.2226C113.425 51.3243 112.56 52.4833 111.77 53.6926L110.24 54.0126C108.861 52.9161 107.221 52.196 105.48 51.9226C104.85 51.8326 104.59 52.7726 105.22 52.9226C106.525 53.1246 107.773 53.6019 108.88 54.3226C108.11 54.4626 107.34 54.6026 106.56 54.7026C105.98 54.7726 105.95 55.7026 106.56 55.6226C107.712 55.5279 108.857 55.3676 109.99 55.1426C110.19 55.3026 110.37 55.4726 110.56 55.6426C109.709 57.0686 108.931 58.5371 108.23 60.0426C108.04 60.4626 108.47 61.0426 108.93 60.7426C110.2 59.8626 111.49 58.9826 112.73 58.0526C113.46 58.9626 114.16 59.9226 114.89 60.8626L114.97 60.9626C115.33 61.4326 116.03 60.8326 115.76 60.3526C115.142 59.1765 114.751 57.8939 114.61 56.5726C115.773 55.6213 116.841 54.5596 117.8 53.4026C117.906 53.3315 117.981 53.2234 118.011 53.0995C118.041 52.9757 118.024 52.8451 117.962 52.7335C117.901 52.6219 117.8 52.5373 117.679 52.4964C117.558 52.4555 117.427 52.4613 117.31 52.5126ZM110.39 58.4326L110.01 58.7126C110.36 58.0326 110.73 57.3626 111.1 56.7126C111.121 56.775 111.159 56.8304 111.21 56.8726C110.93 57.3926 110.65 57.9026 110.39 58.4326ZM112.88 56.6226L112.68 56.4026C112.976 56.1279 113.199 55.7844 113.33 55.4026C113.33 55.4026 113.33 55.3326 113.38 55.2826C113.55 54.7026 112.78 54.4626 112.46 54.9026L112.36 55.0626C112.311 55.0402 112.259 55.0286 112.205 55.0286C112.152 55.0286 112.099 55.0402 112.05 55.0626C112.16 54.9126 112.26 54.7526 112.36 54.5926L113.54 54.3326C113.51 54.9056 113.51 55.4797 113.54 56.0526L112.88 56.6226ZM114.55 55.2326C114.55 54.8626 114.55 54.4926 114.55 54.1126L116.02 53.7926C115.57 54.3026 115.07 54.7726 114.55 55.2326Z" fill="white"/>
<path fill-rule="evenodd" clip-rule="evenodd" d="M63.93 37.2922C64.56 36.6122 65.22 35.9322 65.93 35.2322C65.9254 35.2519 65.9254 35.2725 65.93 35.2922C66.07 35.8822 66.9301 35.6222 66.8301 35.0422C66.8301 34.8122 66.76 34.5822 66.74 34.3622L67.38 33.6422C67.9885 33.701 68.5849 33.8492 69.1501 34.0822C69.5801 34.2722 70.1501 33.8722 69.8301 33.4022C69.5101 32.9322 69.2001 32.3122 68.8301 31.7722C69.194 31.2933 69.528 30.7924 69.8301 30.2722C70.1001 29.7922 69.43 29.2722 69.05 29.6722C68.67 30.0722 68.4901 30.2922 68.2001 30.5822C67.6444 29.5921 67.1694 28.5588 66.78 27.4922C66.7501 27.3981 66.688 27.3174 66.6046 27.2645C66.5212 27.2116 66.4218 27.1898 66.3238 27.203C66.2259 27.2161 66.1358 27.2633 66.0693 27.3363C66.0027 27.4094 65.9641 27.5035 65.9601 27.6022C65.8801 29.2322 65.6401 30.8622 65.6401 32.4922L65.0801 32.7122C64.3517 32.819 63.6304 32.9692 62.92 33.1622C62.8028 33.196 62.7015 33.2706 62.6346 33.3726C62.5677 33.4746 62.5396 33.5971 62.5553 33.7181C62.571 33.839 62.6296 33.9504 62.7204 34.0319C62.8112 34.1134 62.9281 34.1596 63.05 34.1622C63.8231 34.123 64.5854 33.9644 65.31 33.6922H65.68C65.68 33.7622 65.68 33.8222 65.68 33.8922C64.7872 34.7863 63.9741 35.7567 63.25 36.7922C63.2247 36.8806 63.227 36.9746 63.2566 37.0616C63.2863 37.1486 63.3419 37.2245 63.416 37.2789C63.4901 37.3334 63.579 37.3638 63.6709 37.3662C63.7628 37.3686 63.8533 37.3428 63.93 37.2922ZM66.7001 29.7422C66.9301 30.2522 67.17 30.7422 67.43 31.2522C67.1665 31.482 66.8893 31.6957 66.6 31.8922C66.62 31.1822 66.6601 30.4622 66.7001 29.7422Z" fill="white"/>
<path fill-rule="evenodd" clip-rule="evenodd" d="M38.3101 40.1222C38.4036 40.1767 38.5125 40.1986 38.6198 40.1847C38.727 40.1708 38.8267 40.1218 38.9032 40.0453C38.9796 39.9688 39.0287 39.8691 39.0426 39.7619C39.0565 39.6546 39.0345 39.5457 38.9801 39.4522L37.8902 37.8122C38.0802 37.3722 38.2601 36.9322 38.4301 36.5022C38.6001 36.0722 37.9101 35.6522 37.6001 36.0222C37.4301 36.2222 37.2401 36.4022 37.0501 36.5922C36.5701 35.8922 36.0501 35.2122 35.5401 34.5922C35.2601 34.2322 34.6801 34.5922 34.8001 35.0222C35.0901 35.9722 35.3701 36.9222 35.6201 37.8722C35.2516 38.1403 34.8639 38.3809 34.4602 38.5922C33.8961 38.7524 33.3574 38.9914 32.8601 39.3022C32.3901 39.6022 32.6901 40.4222 33.2501 40.2222L33.3101 40.1822C33.7947 40.0022 34.2687 39.7952 34.7301 39.5622C35.1103 39.4535 35.5048 39.4029 35.9002 39.4122C35.6302 39.9522 35.3601 40.4922 35.1101 41.0522C35.0544 41.149 35.0395 41.264 35.0686 41.3718C35.0976 41.4797 35.1684 41.5715 35.2652 41.6272C35.362 41.6829 35.4769 41.6979 35.5847 41.6688C35.6926 41.6397 35.7845 41.569 35.8402 41.4722C35.9902 41.2722 36.1202 41.0522 36.2602 40.8422C36.4202 41.3522 37.2601 41.0922 37.1301 40.5322C37.0801 40.2322 37.0202 39.9422 36.9602 39.6522V39.5922C37.4311 39.7102 37.8848 39.8883 38.3101 40.1222Z" fill="white"/>
<path fill-rule="evenodd" clip-rule="evenodd" d="M13.7201 57.1823C13.3001 57.1323 13.2301 57.8024 13.6201 57.9124C31.6201 62.7124 51.2202 75.4824 50.1502 96.5624C50.1502 97.1524 51.0301 97.1424 51.0701 96.5624C52.4801 76.7524 32.3101 59.3123 13.7201 57.1823Z" fill="white"/>
<path fill-rule="evenodd" clip-rule="evenodd" d="M24.46 54.7722C29.27 57.5622 33.63 60.2922 37.6 64.2622C41.14 67.7922 44.11 71.8322 47.36 75.6122C47.64 75.9322 48.07 75.4722 47.82 75.1522C41.6 67.1522 34.72 57.6022 24.69 54.2322C24.6225 54.2189 24.5526 54.2293 24.4918 54.2615C24.4311 54.2937 24.3832 54.3458 24.3563 54.409C24.3293 54.4723 24.3249 54.5429 24.3438 54.609C24.3627 54.6751 24.4037 54.7327 24.46 54.7722Z" fill="white"/>
<path fill-rule="evenodd" clip-rule="evenodd" d="M21.82 57.1825C22.2209 56.6632 22.5349 56.0823 22.75 55.4625C23.06 55.9125 23.37 56.3725 23.65 56.8425C23.7116 56.9192 23.7987 56.9713 23.8954 56.9891C23.9922 57.0069 24.0921 56.9894 24.177 56.9397C24.2619 56.89 24.326 56.8114 24.3578 56.7183C24.3896 56.6251 24.3867 56.5237 24.3499 56.4325C23.9585 55.7373 23.5208 55.0691 23.0399 54.4325C23.1417 53.9905 23.2185 53.5431 23.27 53.0925C23.56 53.0125 23.84 52.9125 24.13 52.8625C24.67 52.7725 24.55 52.0525 24.13 51.8625L23.3599 51.6125C23.368 51.0516 23.3447 50.4907 23.2899 49.9325C23.3072 49.7999 23.2711 49.6659 23.1895 49.5599C23.1079 49.4539 22.9875 49.3847 22.8549 49.3675C22.7223 49.3503 22.5883 49.3864 22.4824 49.468C22.3764 49.5496 22.3072 49.6699 22.2899 49.8025C22.1199 50.2525 21.94 50.7125 21.75 51.1725C20.93 50.9825 20.1 50.8325 19.27 50.6925C19.1631 50.6697 19.0517 50.6847 18.9547 50.7352C18.8578 50.7856 18.7815 50.8682 18.7389 50.9688C18.6963 51.0694 18.6901 51.1817 18.7213 51.2864C18.7525 51.3911 18.8192 51.4816 18.9099 51.5425C19.5455 51.9827 20.1412 52.4779 20.69 53.0225C19.6692 53.6338 18.7871 54.4512 18.0999 55.4225C17.7699 55.8925 18.3799 56.2925 18.7899 56.1125C19.8941 55.6333 20.8306 54.8361 21.4799 53.8225C21.6299 53.9925 21.76 54.1725 21.9 54.3525C21.6045 55.1758 21.3771 56.022 21.2199 56.8825C21.1962 56.9594 21.2005 57.0423 21.2322 57.1164C21.2639 57.1904 21.3208 57.2508 21.3928 57.2868C21.4648 57.3228 21.5473 57.3321 21.6255 57.313C21.7037 57.2939 21.7726 57.2476 21.82 57.1825Z" fill="white"/>
<path fill-rule="evenodd" clip-rule="evenodd" d="M100.03 77.9322C100.548 78.4759 101.19 78.8875 101.9 79.1322C102.45 79.3222 102.66 78.4822 102.14 78.2822C101.783 78.1597 101.446 77.9844 101.14 77.7622C101.4 77.7622 101.39 77.2722 101.14 77.2422L100.55 77.1722C100.471 77.0764 100.398 76.9763 100.33 76.8722C100.017 76.1909 99.8504 75.4518 99.84 74.7022C99.8229 74.6476 99.7904 74.5991 99.7465 74.5623C99.7027 74.5255 99.6491 74.502 99.5924 74.4947C99.5356 74.4873 99.4779 74.4964 99.4261 74.5207C99.3743 74.5451 99.3305 74.5838 99.3 74.6322C99.1253 75.0182 99.0426 75.4394 99.0582 75.8628C99.0738 76.2862 99.1874 76.7002 99.39 77.0723C87.56 76.4123 73.12 85.2223 70.99 97.0723C70.89 97.6323 71.75 97.8722 71.86 97.3022C74.55 83.8722 88.24 79.6722 100.03 77.9322Z" fill="white"/>
<path fill-rule="evenodd" clip-rule="evenodd" d="M21.49 75.8824C20.6482 75.2797 19.6805 74.8762 18.6599 74.7024C18.1699 74.6124 17.95 75.3524 18.45 75.4624C19.2546 75.6376 20.014 75.9781 20.68 76.4624C21.3411 77.0501 21.9687 77.6744 22.56 78.3324C22.6119 78.3851 22.68 78.4188 22.7535 78.4281C22.8269 78.4374 22.9013 78.4217 22.9648 78.3837C23.0282 78.3456 23.077 78.2873 23.1034 78.2182C23.1297 78.149 23.132 78.073 23.11 78.0024C22.9474 77.4813 22.6707 77.003 22.3 76.6024C34.77 76.8524 44.13 84.4524 46.87 96.9624C46.99 97.5224 47.79 97.2724 47.71 96.7324C45.94 84.9124 34.02 73.3624 21.49 75.8824Z" fill="white"/>
<path fill-rule="evenodd" clip-rule="evenodd" d="M17.9 67.5922C17.9108 67.5536 17.9125 67.5131 17.905 67.4737C17.8975 67.4343 17.881 67.3972 17.8568 67.3652C17.8326 67.3333 17.8014 67.3074 17.7655 67.2895C17.7296 67.2716 17.6901 67.2623 17.65 67.2622C16.79 67.1622 16.05 68.2622 15.74 68.9322C15.562 69.3478 15.4702 69.7952 15.4702 70.2472C15.4702 70.6993 15.562 71.1467 15.74 71.5623C15.93 72.0323 16.68 71.8522 16.52 71.3422C16.3924 70.9988 16.3354 70.633 16.3526 70.267C16.3698 69.901 16.4607 69.5422 16.62 69.2122C16.95 68.5722 17.68 68.2522 17.9 67.5922Z" fill="white"/>
<path fill-rule="evenodd" clip-rule="evenodd" d="M18.3099 72.0624C18.3238 71.3128 18.6244 70.5971 19.15 70.0624C19.62 69.5824 20.26 69.5924 20.82 69.3024C20.8698 69.2733 20.9111 69.2317 20.9398 69.1817C20.9685 69.1317 20.9836 69.0751 20.9836 69.0174C20.9836 68.9597 20.9685 68.9031 20.9398 68.8531C20.9111 68.8031 20.8698 68.7615 20.82 68.7324C20.4077 68.6144 19.9703 68.6166 19.5593 68.7389C19.1483 68.8611 18.7807 69.0983 18.5 69.4224C18.1694 69.7695 17.915 70.1819 17.7531 70.6331C17.5912 71.0843 17.5254 71.5643 17.5599 72.0424C17.572 72.1319 17.6155 72.2142 17.6826 72.2745C17.7498 72.3348 17.8362 72.3693 17.9265 72.3717C18.0167 72.3741 18.1049 72.3443 18.1751 72.2876C18.2454 72.2309 18.2932 72.1511 18.3099 72.0624Z" fill="white"/>
<path fill-rule="evenodd" clip-rule="evenodd" d="M19.07 73.6222C19.6216 73.2178 20.27 72.966 20.95 72.8922C21.63 72.8322 22.14 73.2421 22.79 73.2621C23.04 73.2621 23.13 73.0122 23.05 72.8122C22.75 72.1222 21.87 71.9821 21.19 71.9521C20.2539 71.9856 19.3576 72.3385 18.65 72.9521C18.24 73.1821 18.62 73.9222 19.07 73.6222Z" fill="white"/>
<path fill-rule="evenodd" clip-rule="evenodd" d="M18.4699 77.7425C18.0099 77.4425 17.6099 78.1625 18.0499 78.4725C20.2499 80.0225 20.1199 82.4725 19.0499 84.6725C19.0358 84.707 19.0333 84.7452 19.043 84.7812C19.0527 84.8173 19.074 84.8491 19.1036 84.8718C19.1331 84.8946 19.1693 84.9069 19.2066 84.9071C19.2439 84.9072 19.2802 84.8951 19.3099 84.8725C21.7499 82.8425 20.9399 79.3625 18.4699 77.7425Z" fill="white"/>
<path fill-rule="evenodd" clip-rule="evenodd" d="M16.3899 81.1825C16.3688 81.6141 16.2396 82.0335 16.0142 82.4022C15.7888 82.7708 15.4744 83.077 15.0999 83.2925C14.3399 83.7325 13.5099 83.3925 12.7399 83.6525C12.6973 83.6656 12.6588 83.6894 12.628 83.7216C12.5973 83.7539 12.5753 83.7935 12.5642 83.8367C12.5532 83.8798 12.5535 83.9251 12.565 83.9682C12.5765 84.0112 12.5988 84.0506 12.6299 84.0825C13.3699 84.8925 14.9199 84.5025 15.7399 84.0225C16.1973 83.7115 16.5642 83.2849 16.8031 82.786C17.042 82.2871 17.1444 81.7339 17.0999 81.1825C17.0858 81.0986 17.0424 81.0224 16.9774 80.9674C16.9124 80.9125 16.83 80.8823 16.7449 80.8823C16.6598 80.8823 16.5774 80.9125 16.5124 80.9674C16.4474 81.0224 16.4041 81.0986 16.3899 81.1825Z" fill="white"/>
<path fill-rule="evenodd" clip-rule="evenodd" d="M11.9 80.7527C11.3679 80.7475 10.8367 80.7074 10.3099 80.6327C9.83994 80.5527 9.42997 80.3027 8.95997 80.2227C8.72997 80.2227 8.42993 80.4326 8.60993 80.6826C9.31993 81.6826 10.85 81.5327 11.9 81.5027C11.9889 81.4881 12.0698 81.4423 12.1281 81.3737C12.1865 81.305 12.2185 81.2178 12.2185 81.1277C12.2185 81.0375 12.1865 80.9503 12.1281 80.8816C12.0698 80.8129 11.9889 80.7672 11.9 80.7527Z" fill="white"/>
<path fill-rule="evenodd" clip-rule="evenodd" d="M9.49003 77.0924C9.1597 77.1058 8.83006 77.0525 8.5208 76.9357C8.21153 76.8188 7.92899 76.6409 7.69005 76.4124C7.22005 75.9124 7.39002 75.0924 6.91002 74.6324C6.89046 74.6124 6.86717 74.5966 6.84141 74.5858C6.81566 74.5749 6.78799 74.5693 6.76005 74.5693C6.73212 74.5693 6.70445 74.5749 6.67869 74.5858C6.65294 74.5966 6.62958 74.6124 6.61003 74.6324C6.04003 75.2224 6.51007 76.4224 6.96007 76.9624C7.2798 77.3081 7.67318 77.5775 8.11113 77.7506C8.54907 77.9237 9.02033 77.9961 9.49003 77.9624C9.54716 77.9624 9.60376 77.9511 9.65654 77.9293C9.70931 77.9074 9.75726 77.8754 9.79765 77.835C9.83804 77.7946 9.87009 77.7466 9.89195 77.6938C9.91381 77.6411 9.92503 77.5845 9.92503 77.5274C9.92503 77.4702 9.91381 77.4137 9.89195 77.3609C9.87009 77.3081 9.83804 77.2602 9.79765 77.2198C9.75726 77.1794 9.70931 77.1473 9.65654 77.1255C9.60376 77.1036 9.54716 77.0924 9.49003 77.0924Z" fill="white"/>
<path fill-rule="evenodd" clip-rule="evenodd" d="M10.69 74.7622C10.2979 74.2099 9.988 73.6036 9.77004 72.9622C9.54004 72.2422 9.70002 71.4622 9.44002 70.7722C9.37002 70.6122 9.14002 70.4923 9.00002 70.6623C7.94002 71.9323 9.23002 74.2122 10 75.2922C10.0504 75.3612 10.1198 75.414 10.1997 75.4442C10.2796 75.4744 10.3666 75.4806 10.45 75.4622C10.07 77.4622 12.24 78.9222 13.88 79.4622C13.9848 79.4914 14.0968 79.4778 14.1916 79.4243C14.2863 79.3709 14.3559 79.282 14.385 79.1772C14.4142 79.0725 14.4006 78.9604 14.3471 78.8657C14.2937 78.771 14.2048 78.7014 14.1 78.6722C12.75 78.2122 11.05 77.0422 11.43 75.4022C11.5691 74.8798 11.8833 74.4209 12.3202 74.1023C12.7571 73.7838 13.2901 73.6249 13.83 73.6522C14.2314 73.6875 14.6196 73.8128 14.9659 74.0188C15.3122 74.2249 15.6076 74.5063 15.83 74.8423C16.33 75.6223 15.75 76.2322 15.1 76.6122C14.86 76.1022 14.89 75.4822 14.53 75.0122C14.5021 74.97 14.4617 74.9377 14.4144 74.9199C14.3671 74.902 14.3153 74.8996 14.2666 74.9129C14.2178 74.9262 14.1744 74.9546 14.1427 74.994C14.111 75.0333 14.0926 75.0818 14.09 75.1323C13.9923 75.5526 13.9863 75.989 14.0726 76.4118C14.1589 76.8346 14.3354 77.2339 14.59 77.5822C14.6652 77.6562 14.7623 77.704 14.8668 77.7184C14.9713 77.7328 15.0776 77.7131 15.17 77.6623C16.34 77.1223 17.34 76.0922 16.83 74.7322C16.5559 74.16 16.1326 73.6723 15.6046 73.3203C15.0767 72.9684 14.4637 72.7652 13.83 72.7322C13.1602 72.7002 12.4971 72.8788 11.9339 73.2429C11.3708 73.607 10.9358 74.1383 10.69 74.7622Z" fill="white"/>
<path fill-rule="evenodd" clip-rule="evenodd" d="M12.41 69.0325C12.4092 68.9965 12.3992 68.9614 12.3809 68.9304C12.3626 68.8994 12.3367 68.8736 12.3055 68.8556C12.2744 68.8375 12.2392 68.8277 12.2032 68.8272C12.1672 68.8266 12.1317 68.8354 12.1 68.8525C10.8 69.4825 11.1 71.5125 11.54 72.5725C11.78 73.0625 12.4801 72.6325 12.2701 72.1525C12.012 71.5636 11.9592 70.9051 12.1201 70.2825C12.2661 69.8789 12.3634 69.4592 12.41 69.0325Z" fill="white"/>
<path fill-rule="evenodd" clip-rule="evenodd" d="M105.54 71.6425C105.517 71.741 105.53 71.8443 105.576 71.9344C105.622 72.0244 105.698 72.0953 105.792 72.1347C105.885 72.1741 105.989 72.1794 106.085 72.1498C106.182 72.1201 106.265 72.0573 106.32 71.9725C106.657 71.2729 107.166 70.6706 107.8 70.2225C108.469 69.8734 109.199 69.6561 109.95 69.5825C109.998 69.5678 110.04 69.5397 110.073 69.5014C110.105 69.4632 110.125 69.4164 110.132 69.3668C110.138 69.3172 110.13 69.2668 110.108 69.2217C110.087 69.1766 110.053 69.1387 110.01 69.1125C108.16 68.2325 106.11 69.8925 105.54 71.6425Z" fill="white"/>
<path fill-rule="evenodd" clip-rule="evenodd" d="M114.12 72.3322C114.168 72.332 114.215 72.3192 114.256 72.2949C114.297 72.2707 114.331 72.236 114.355 72.1943C114.378 72.1526 114.39 72.1054 114.389 72.0576C114.388 72.0098 114.375 71.9631 114.35 71.9222C113.35 70.3822 110.59 70.7722 109.16 71.3222C108.62 71.5222 108.84 72.3922 109.4 72.1922C110.136 71.9239 110.917 71.7984 111.7 71.8222C112.55 71.8422 113.31 72.3122 114.12 72.3322Z" fill="white"/>
<path fill-rule="evenodd" clip-rule="evenodd" d="M113.42 74.1124C112.95 73.8324 112.55 74.5425 113 74.8425C113.757 75.3485 114.376 76.0361 114.8 76.8425C115.078 77.5546 115.412 78.2434 115.8 78.9025C115.827 78.9303 115.86 78.9507 115.897 78.9615C115.934 78.9723 115.973 78.9732 116.011 78.9641C116.048 78.955 116.083 78.9362 116.111 78.9096C116.139 78.8829 116.159 78.8495 116.17 78.8125C116.7 76.9825 114.8 74.9524 113.42 74.1124Z" fill="white"/>
<path fill-rule="evenodd" clip-rule="evenodd" d="M112.85 77.4125C113.257 78.0182 113.543 78.6976 113.69 79.4125C113.724 80.0062 113.794 80.5973 113.9 81.1825C113.91 81.2203 113.929 81.2549 113.956 81.2826C113.984 81.3104 114.018 81.3304 114.056 81.3406C114.093 81.3508 114.133 81.3507 114.171 81.3405C114.208 81.3303 114.243 81.3103 114.27 81.2825C115.37 80.2025 114.27 77.9725 113.57 76.9825C113.31 76.5625 112.54 76.9525 112.85 77.4125Z" fill="white"/>
<path fill-rule="evenodd" clip-rule="evenodd" d="M111.31 80.6222C111.545 81.4207 111.455 82.2796 111.06 83.0122C110.69 83.7322 110.06 84.2322 109.6 84.9022C109.46 85.1122 109.69 85.4522 109.94 85.3522C110.838 84.9359 111.55 84.2014 111.938 83.2908C112.326 82.3802 112.362 81.3582 112.04 80.4222C112.007 80.3334 111.942 80.2602 111.857 80.217C111.773 80.1738 111.675 80.1637 111.584 80.1888C111.492 80.2139 111.413 80.2722 111.363 80.3524C111.312 80.4326 111.293 80.5289 111.31 80.6222Z" fill="white"/>
<path fill-rule="evenodd" clip-rule="evenodd" d="M108.4 82.9727C107.845 83.6349 107.165 84.1819 106.4 84.5827C105.641 84.8288 104.861 85.0061 104.07 85.1127C104.022 85.1281 103.979 85.1567 103.946 85.1953C103.914 85.2338 103.892 85.2808 103.885 85.3308C103.878 85.3808 103.885 85.4319 103.905 85.4782C103.925 85.5245 103.958 85.5641 104 85.5927C105.74 86.7127 107.95 84.7926 108.94 83.5126C109.23 83.1826 108.73 82.6027 108.4 82.9727Z" fill="white"/>
<path fill-rule="evenodd" clip-rule="evenodd" d="M104.62 83.4225C103.851 83.6674 103.047 83.7791 102.24 83.7525C101.37 83.7525 100.78 83.1125 99.9802 82.9725C99.9319 82.9608 99.8814 82.9617 99.8336 82.9752C99.7857 82.9886 99.7422 83.0141 99.707 83.0493C99.6719 83.0844 99.6463 83.128 99.6329 83.1758C99.6194 83.2237 99.6185 83.2742 99.6302 83.3225C99.8402 84.1425 100.79 84.4625 101.53 84.6325C102.651 84.8173 103.802 84.6964 104.86 84.2825C105.4 84.1025 105.18 83.2525 104.62 83.4225Z" fill="white"/>
<path fill-rule="evenodd" clip-rule="evenodd" d="M100.31 78.7423C100.263 78.7312 100.213 78.7318 100.166 78.744C100.119 78.7562 100.076 78.7796 100.04 78.8123C99.5999 79.3923 100.22 80.1623 100.66 80.5523C101.301 81.0469 102.047 81.3889 102.84 81.5523C102.951 81.5673 103.063 81.5417 103.156 81.4801C103.249 81.4185 103.316 81.3252 103.346 81.2175C103.375 81.1098 103.364 80.9952 103.316 80.8949C103.267 80.7945 103.183 80.7154 103.08 80.6723C102.447 80.5297 101.853 80.2498 101.34 79.8523C100.91 79.5523 100.76 78.9123 100.31 78.7423Z" fill="white"/>
<path fill-rule="evenodd" clip-rule="evenodd" d="M102.49 72.7323C101.87 73.0623 101.94 73.8823 101.95 74.4723C101.965 74.5612 102.01 74.6421 102.079 74.7004C102.148 74.7588 102.235 74.7908 102.325 74.7908C102.415 74.7908 102.503 74.7588 102.571 74.7004C102.64 74.6421 102.686 74.5612 102.7 74.4723C102.693 73.9856 102.757 73.5005 102.89 73.0323C102.904 72.9804 102.902 72.9256 102.884 72.875C102.866 72.8243 102.834 72.78 102.791 72.7479C102.748 72.7157 102.697 72.697 102.643 72.6942C102.589 72.6914 102.536 72.7047 102.49 72.7323Z" fill="white"/>
<path fill-rule="evenodd" clip-rule="evenodd" d="M107.41 77.1826C107.459 77.1261 107.49 77.0555 107.497 76.9809C107.504 76.9062 107.488 76.8312 107.451 76.7662C107.413 76.7013 107.356 76.6496 107.288 76.6184C107.22 76.5873 107.144 76.5783 107.07 76.5926C106.563 76.6799 106.097 76.9251 105.738 77.2933C105.378 77.6614 105.145 78.1337 105.07 78.6426C105.07 79.4726 105.87 79.9726 106.55 80.2226C108.19 80.8226 110.67 80.2226 110.95 78.2226C111.031 77.5779 110.936 76.9233 110.675 76.3282C110.415 75.7331 109.997 75.2197 109.468 74.8424C108.939 74.4651 108.318 74.238 107.671 74.1852C107.023 74.1325 106.373 74.2559 105.79 74.5426C105.194 74.8055 104.663 75.1962 104.234 75.6869C103.806 76.1777 103.49 76.7565 103.31 77.3826C103.177 78.0951 103.256 78.831 103.537 79.4992C103.818 80.1674 104.288 80.7387 104.89 81.1426L105.4 81.5026C105.87 81.8226 106.29 81.0726 105.84 80.7526C105.312 80.4574 104.877 80.0196 104.585 79.4892C104.293 78.9588 104.156 78.357 104.19 77.7526C104.292 77.2893 104.492 76.8532 104.777 76.4737C105.061 76.0942 105.424 75.7801 105.84 75.5526C106.254 75.2666 106.741 75.1035 107.244 75.0822C107.747 75.0608 108.245 75.1821 108.682 75.4319C109.119 75.6818 109.477 76.05 109.713 76.4943C109.95 76.9385 110.056 77.4406 110.02 77.9426C110.02 79.3426 108.16 79.5326 107.11 79.2826C106.74 79.1926 106.2 79.0026 106.11 78.5826C106.02 78.1626 107.14 77.4326 107.41 77.1826Z" fill="white"/>
<path fill-rule="evenodd" clip-rule="evenodd" d="M52.4 15.1123C52.4 15.2123 52.33 15.2923 52.3 15.3923C52.2828 15.4826 52.293 15.5761 52.3294 15.6605C52.3658 15.745 52.4267 15.8166 52.5042 15.8662C52.5817 15.9157 52.6723 15.9408 52.7642 15.9383C52.8562 15.9359 52.9453 15.9059 53.02 15.8523C54.2404 17.2897 55.5568 18.6428 56.96 19.9023C56.9501 20.0755 56.9501 20.2491 56.96 20.4223C56.96 20.7123 57.4 20.6423 57.49 20.4223L57.96 20.8023C57.96 21.1523 57.96 21.5123 57.96 21.8723C57.96 22.0523 58.25 22.1623 58.34 21.9723C58.43 21.7823 58.51 21.5122 58.59 21.2922C58.96 21.5822 59.34 21.8623 59.72 22.1223L59.61 22.2622C59.32 22.6622 59.94 23.0723 60.27 22.7723L60.46 22.5923C60.5348 22.6087 60.6124 22.6063 60.686 22.5852C60.7596 22.5641 60.8267 22.5249 60.8814 22.4713C60.936 22.4177 60.9763 22.3513 60.9988 22.2781C61.0213 22.2049 61.0251 22.1273 61.01 22.0523C64.2655 18.6303 66.9649 14.7196 69.01 10.4623C70.13 8.27226 72.32 3.36227 70.23 1.09227C66.65 -2.79773 60.61 4.68227 59.93 8.22227C59.7941 7.9492 59.6404 7.68529 59.47 7.43226C59.4815 7.38011 59.482 7.32609 59.4713 7.27376C59.4605 7.22142 59.4389 7.17196 59.4078 7.12855C59.3767 7.08515 59.3367 7.04879 59.2905 7.02186C59.2444 6.99494 59.1931 6.97804 59.14 6.97227C56.33 3.20227 50.14 0.152256 48.14 5.61226C47.14 8.54226 49.79 11.8423 51.43 13.9523C51.7567 14.3323 52.08 14.7189 52.4 15.1123ZM58.1 19.3323C58.0354 19.2843 57.9752 19.2308 57.92 19.1723C58.23 17.9023 58.36 16.5422 58.67 15.2922C58.74 14.9922 58.84 14.7023 58.92 14.4023C58.5407 16.0262 58.2668 17.673 58.1 19.3323ZM60.68 8.66227C61.2118 6.36934 62.5056 4.32458 64.35 2.86226C64.9869 2.31664 65.7057 1.87458 66.48 1.55226C65.71 2.46226 65.08 3.48227 64.24 4.34227C64.2059 4.37444 64.1785 4.41315 64.1596 4.4561C64.1407 4.49905 64.1307 4.54535 64.13 4.59227C63.06 8.18227 61.92 11.7623 60.83 15.3423C61.3 12.7723 61.5 10.1223 61.83 7.64225C61.83 7.30225 61.29 7.22227 61.23 7.56227C61.14 8.15227 61.03 8.73227 60.93 9.31227C60.9029 9.26818 60.8669 9.23028 60.8242 9.201C60.7815 9.17172 60.7331 9.15171 60.6822 9.14229C60.6313 9.13286 60.579 9.13423 60.5287 9.14628C60.4784 9.15834 60.4311 9.18081 60.39 9.21226C60.39 9.21226 60.39 9.07226 60.32 8.99226C60.4099 8.99036 60.496 8.95582 60.5622 8.89509C60.6285 8.83437 60.6703 8.75162 60.68 8.66227ZM59.89 20.1623C60.2597 19.6351 60.5938 19.0839 60.89 18.5122C60.9414 18.5189 60.9936 18.5101 61.0399 18.487C61.0862 18.4638 61.1246 18.4274 61.15 18.3823C63.1 14.9723 63.76 10.7923 65.22 7.15226C65.41 6.66226 64.63 6.45226 64.43 6.93226C64.36 7.10226 64.3 7.28226 64.23 7.46226C64.43 6.57226 64.63 5.69227 64.86 4.84227C65.9271 3.91101 66.7104 2.69804 67.12 1.34227L67.48 1.22227C70.2 0.472272 70.07 3.76226 69.8 5.43226C69.22 9.16226 67.19 12.4923 64.86 15.6023C65.29 14.6023 65.67 13.5123 66.02 12.4523C66.0662 12.457 66.1128 12.4493 66.155 12.43C66.1972 12.4107 66.2335 12.3804 66.26 12.3423C67.3154 10.6082 68.2509 8.80403 69.06 6.94227C69.25 6.54227 68.66 6.19227 68.46 6.59227C67.95 7.59227 67.4 8.59227 66.89 9.59227C67.57 7.16227 68.16 4.70228 68.8 2.32228C68.8141 2.23474 68.7953 2.14508 68.7473 2.07051C68.6994 1.99594 68.6256 1.94167 68.5401 1.91813C68.4546 1.8946 68.3635 1.90343 68.2841 1.94294C68.2048 1.98246 68.1427 2.04988 68.11 2.13228C66.35 8.04228 64.69 13.8023 61.94 19.3023C61.39 19.9923 60.84 20.6823 60.32 21.3023C59.99 21.0223 59.67 20.7323 59.32 20.4323L59.44 20.1223C59.4541 20.1679 59.481 20.2085 59.5175 20.2394C59.5539 20.2702 59.5985 20.2899 59.6458 20.2962C59.6932 20.3025 59.7413 20.2952 59.7846 20.275C59.8278 20.2548 59.8645 20.2226 59.89 20.1823V20.1623ZM59.14 8.62227C59.28 8.89227 59.41 9.16226 59.52 9.43226C58.52 12.0023 57.15 15.2723 56.93 18.2523C56.69 18.0223 56.43 17.7923 56.19 17.5523C56.7341 16.4769 57.1535 15.3429 57.44 14.1723C58.08 12.3523 58.63 10.4923 59.14 8.62227ZM57.53 6.42225C56.69 8.75225 55.76 11.0623 54.95 13.4223C54.79 13.8723 54.37 14.7823 54.66 15.2823C54.95 15.7823 55.36 15.3323 55.44 14.9923C55.44 14.9923 55.44 14.9123 55.44 14.8723C55.5452 14.6518 55.6256 14.4204 55.68 14.1823C55.94 13.3123 56.23 12.4523 56.52 11.5923C57.0267 10.0723 57.5267 8.55227 58.02 7.03227C58.2 7.25227 58.37 7.48226 58.53 7.71226C57.97 9.62226 57.33 11.5123 56.68 13.4023C56.35 14.4023 55.68 15.6023 55.3 16.7423C54.68 16.1223 54.08 15.4823 53.49 14.8223C53.9604 13.7026 54.3677 12.5575 54.71 11.3923C55.04 10.2923 55.36 9.19226 55.71 8.11226C55.86 7.70226 55.22 7.53226 55.07 7.93226C54.42 9.65226 53.86 11.4123 53.21 13.1423C53.05 13.4423 52.9 13.7623 52.76 14.0823C54.05 11.2123 54 7.45226 54.23 4.40226C54.235 4.3336 54.2135 4.26563 54.17 4.21226C55.4332 4.70398 56.5782 5.45709 57.53 6.42225ZM50.91 4.23225C50.3041 6.22621 50.0569 8.3119 50.18 10.3923C48.5 7.62225 48.62 2.93225 53.02 3.79225C53.3219 3.85565 53.6192 3.93917 53.91 4.04225C53.8307 4.05089 53.7568 4.08634 53.7005 4.14271C53.6441 4.19908 53.6086 4.27303 53.6 4.35228C53.42 6.11228 53.21 7.86226 52.96 9.61226C52.77 10.8623 52.44 12.1023 52.28 13.3623C51.79 12.7323 51.28 12.0923 50.85 11.4223C51.0307 10.5645 51.1113 9.68862 51.09 8.81227C51.1151 7.34212 51.2656 5.87679 51.54 4.43226C51.61 4.00226 51.01 3.83225 50.91 4.23225Z" fill="white"/>
<path fill-rule="evenodd" clip-rule="evenodd" d="M52.3099 11.7125C52.6766 10.7189 52.876 9.67133 52.9 8.61249C53.0317 7.38709 53.0884 6.1548 53.07 4.92249C53.07 4.8217 53.0299 4.72507 52.9586 4.65381C52.8874 4.58254 52.7907 4.54248 52.6899 4.54248C52.5892 4.54248 52.4925 4.58254 52.4213 4.65381C52.35 4.72507 52.3099 4.8217 52.3099 4.92249C52.3099 6.00249 52.1899 7.07249 52.0599 8.14249C51.8042 9.29384 51.7267 10.4776 51.83 11.6525C51.8466 11.7 51.8761 11.7419 51.9152 11.7735C51.9543 11.8051 52.0014 11.8251 52.0513 11.8313C52.1012 11.8376 52.1519 11.8297 52.1976 11.8087C52.2433 11.7877 52.2822 11.7544 52.3099 11.7125Z" fill="white"/>
<path fill-rule="evenodd" clip-rule="evenodd" d="M16.2199 41.2823C18.3299 41.0023 21.6699 40.6523 23.4799 39.2823C23.5486 39.2786 23.6154 39.2589 23.6751 39.2248C23.7348 39.1906 23.7856 39.1429 23.8235 39.0855C23.8614 39.0282 23.8854 38.9627 23.8935 38.8944C23.9015 38.8261 23.8935 38.7569 23.8699 38.6923C22.7446 35.2206 21.3538 31.8406 19.7099 28.5823C18.5999 26.3023 17.2199 23.3623 14.4699 22.7723C10.6699 21.9623 13.7299 30.8423 14.6999 32.7723L13.8299 33.0123C13.7514 32.9957 13.6698 33.0009 13.594 33.0273C13.5182 33.0538 13.4511 33.1004 13.3999 33.1623C12.5851 33.4334 11.7926 33.7677 11.0299 34.1623C11.0089 34.1248 10.9819 34.091 10.9499 34.0623C10.6599 33.7323 10.2199 34.1623 10.3999 34.5023C8.09994 35.8623 6.62993 37.8523 9.13993 40.2523C10.9899 41.9623 13.9199 41.5823 16.2199 41.2823ZM13.8999 27.6823C13.6479 26.7029 13.5334 25.6932 13.5599 24.6823C14.6199 26.5623 15.7399 28.6823 17.0299 30.6023C16.2199 29.6023 15.3999 28.6023 14.5799 27.6023C14.3199 27.2923 13.9099 27.6023 13.9899 27.9723L13.8999 27.6823ZM13.9899 28.0323L14.0599 28.1723C15.4699 29.9123 16.8699 31.6723 18.2299 33.4523C18.7099 34.0623 19.1499 34.7123 19.5999 35.3623L18.8599 34.4623C17.9399 33.3023 17.0499 32.1123 16.0799 30.9923C15.7899 30.6523 15.3099 31.1423 15.5899 31.4723C15.8699 31.8023 16.0899 32.1123 16.3399 32.4723C16.0299 32.3023 15.5699 32.6223 15.8199 32.9623C17.1799 34.9023 18.6699 37.6323 20.8199 38.7623C21.0399 38.8823 21.3799 38.6223 21.1999 38.3823C21.0199 38.1423 20.8599 37.9823 20.6899 37.7923C20.8399 37.9023 20.9799 38.0223 21.1399 38.1323C21.2999 38.2423 21.5399 38.0423 21.4799 37.8523C21.6499 38.0323 21.7999 38.2323 21.9799 38.4123C22.1599 38.5923 22.5099 38.3423 22.3999 38.0823C21.7613 36.7323 20.944 35.4743 19.9699 34.3423C20.2299 34.5923 20.4899 34.8523 20.7599 35.0923C20.8079 35.1412 20.8722 35.1707 20.9406 35.1754C21.0089 35.1801 21.0766 35.1595 21.1308 35.1176C21.1851 35.0757 21.222 35.0154 21.2348 34.9481C21.2475 34.8807 21.2351 34.8111 21.1999 34.7523C20.1281 33.038 18.956 31.3885 17.6899 29.8123C16.3799 27.9723 15.1699 26.0623 13.9899 24.1323C13.9636 24.0867 13.9257 24.0488 13.88 24.0224C13.8344 23.9961 13.7826 23.9822 13.7299 23.9823C14.3699 23.0823 16.3499 24.8423 16.7299 25.4223C19.5199 29.1123 21.3299 34.1323 22.7299 38.5423C21.5799 38.8423 20.4499 39.1723 19.3199 39.4823C19.3302 39.4463 19.3302 39.4082 19.3199 39.3723C18.8717 38.3102 18.2648 37.3222 17.5199 36.4423C16.7987 35.383 16.1601 34.2697 15.6099 33.1123C15.6194 33.0627 15.6194 33.0118 15.6099 32.9623C15.6468 32.8984 15.6662 32.826 15.6662 32.7523C15.6662 32.6786 15.6468 32.6061 15.6099 32.5423C14.8886 31.1104 14.3446 29.5959 13.9899 28.0323ZM15.0799 33.5723C15.6027 34.6966 16.2042 35.7827 16.8799 36.8223C17.4216 37.8492 18.1391 38.7732 18.9999 39.5523L17.9999 39.8123C17.5468 38.886 17.0219 37.9966 16.4299 37.1523C15.7699 36.0423 15.0999 34.9223 14.4299 33.8223L15.0799 33.5723ZM13.6999 34.1123C14.3799 35.2723 15.0299 36.4423 15.6999 37.6023C15.9599 38.0623 16.2199 38.5523 16.5099 39.0223C16.0499 38.4223 15.5099 37.8823 15.0899 37.2823C14.4484 36.3654 13.8926 35.3912 13.4299 34.3723C13.4042 34.3235 13.3663 34.2821 13.3199 34.2523L13.6999 34.1123ZM12.7499 34.4723C12.7301 34.5307 12.7301 34.5939 12.7499 34.6523C13.1832 35.7206 13.7051 36.7508 14.3099 37.7323C14.3463 37.7978 14.3864 37.8612 14.4299 37.9223C14.1899 37.6923 13.9599 37.4623 13.7599 37.2323C13.0699 36.4523 12.3999 35.6723 11.7599 34.8923L12.7499 34.4723ZM10.9299 35.2923H11.0299C11.7199 36.1623 12.4099 37.0523 13.1199 37.9223C13.7767 38.8683 14.592 39.6938 15.5299 40.3623C15.3299 40.3623 15.1299 40.4423 14.9199 40.4623C14.9398 40.4183 14.95 40.3706 14.95 40.3223C14.95 40.274 14.9398 40.2263 14.9199 40.1823C14.3653 39.4293 13.6894 38.7737 12.9199 38.2423C12.0599 37.4523 11.2099 36.6423 10.3599 35.8223C10.3248 35.7889 10.2842 35.7618 10.2399 35.7423L10.9299 35.2923ZM9.68992 36.1023C9.68979 36.1508 9.69946 36.1988 9.71836 36.2435C9.73726 36.2882 9.76499 36.3286 9.7999 36.3623C10.6199 37.2123 11.4299 38.0523 12.2799 38.8723C12.8356 39.506 13.4868 40.0492 14.2099 40.4823C13.7136 40.5073 13.2162 40.5073 12.7199 40.4823C12.7472 40.4473 12.7667 40.4069 12.7771 40.3638C12.7874 40.3207 12.7883 40.2758 12.7799 40.2323C12.6299 39.4823 11.7799 38.8823 11.3099 38.3323C10.8399 37.7823 10.0599 36.9723 9.40989 36.3323L9.68992 36.1023ZM8.86991 36.9923C9.40991 37.5823 9.92994 38.1823 10.4599 38.7823C10.901 39.412 11.4413 39.9658 12.0599 40.4223H11.7399C11.0752 40.3115 10.4501 40.0316 9.92478 39.6096C9.39942 39.1875 8.99137 38.6375 8.73991 38.0123C8.68247 37.8436 8.66434 37.664 8.68687 37.4872C8.7094 37.3105 8.77199 37.1412 8.86991 36.9923Z" fill="white"/>
<path fill-rule="evenodd" clip-rule="evenodd" d="M16.15 26.2624C17.3079 28.4938 18.6703 30.6129 20.2199 32.5924C20.2546 32.6226 20.2979 32.6412 20.3437 32.6455C20.3895 32.6498 20.4355 32.6397 20.4752 32.6165C20.515 32.5933 20.5465 32.5583 20.5653 32.5163C20.584 32.4743 20.5892 32.4275 20.58 32.3824C19.78 30.0824 17.9599 28.0224 16.7299 25.9224C16.6787 25.8592 16.6066 25.8164 16.5266 25.8019C16.4465 25.7873 16.3639 25.8019 16.2938 25.8431C16.2236 25.8842 16.1705 25.9491 16.1441 26.0261C16.1177 26.103 16.1198 26.1868 16.15 26.2624Z" fill="white"/>
<path fill-rule="evenodd" clip-rule="evenodd" d="M89.31 45.1825C89.3076 45.2592 89.3313 45.3344 89.3772 45.3959C89.423 45.4575 89.4884 45.5017 89.5625 45.5214C89.6367 45.5411 89.7153 45.5351 89.7857 45.5044C89.856 45.4737 89.9139 45.4202 89.95 45.3525C89.95 45.2425 90.0399 45.1224 90.0999 45.0124C90.139 45.1331 90.22 45.2358 90.3282 45.3019C90.4365 45.3679 90.5648 45.393 90.69 45.3725C95.59 44.5825 100.75 44.0825 105.34 42.0625C107.24 41.2225 110.96 39.8425 110.86 37.1925C110.72 33.1925 103.33 34.2524 100.47 35.6124C101.47 33.4724 102.8 30.6724 101.56 28.6124C100.32 26.5524 98.5599 25.7625 96.2799 26.9325C93.9999 28.1025 92.69 31.0024 91.87 33.4524L91.8 33.5325C91.7832 33.5667 91.7744 33.6043 91.7744 33.6424C91.7744 33.6806 91.7832 33.7182 91.8 33.7525C91.74 33.9225 91.69 34.0925 91.63 34.2525C90.53 37.4825 89.31 41.6925 89.31 45.1825ZM107.8 35.7624C108.133 35.8882 108.449 36.0562 108.74 36.2624C107.83 36.9824 106.89 37.6625 105.97 38.3725C104.873 39.0543 103.944 39.9736 103.25 41.0625C103.1 41.3725 103.42 41.7925 103.75 41.5725C104.75 40.9425 105.48 40.0325 106.37 39.3125C107.26 38.5925 108.37 37.7725 109.37 36.9725C109.503 37.3097 109.523 37.6809 109.427 38.0305C109.332 38.3801 109.126 38.6895 108.84 38.9125C108.84 38.5525 108.54 38.1625 108.18 38.4325C106.784 39.2881 105.487 40.2941 104.31 41.4325C104.283 41.4711 104.266 41.5157 104.26 41.5625C102.811 42.112 101.324 42.5532 99.81 42.8825C100.51 42.4025 101.19 41.8825 101.81 41.3825C103.32 40.2925 104.81 39.1124 106.23 37.9524C106.277 37.9013 106.31 37.8392 106.327 37.7719C106.345 37.7046 106.345 37.6341 106.328 37.5667C106.311 37.4994 106.278 37.4372 106.231 37.3859C106.184 37.3345 106.125 37.2955 106.06 37.2724C106.58 36.8824 107.06 36.4925 107.62 36.1325C107.694 36.0977 107.751 36.0351 107.779 35.9583C107.807 35.8815 107.804 35.7968 107.77 35.7225L107.8 35.7624ZM91.95 37.1825C92.9265 36.5174 93.8585 35.7892 94.74 35.0025C96.2133 33.7825 97.6167 32.4991 98.95 31.1525C99.0189 31.0848 99.0582 30.9926 99.0591 30.896C99.0601 30.7994 99.0226 30.7064 98.955 30.6374C98.8874 30.5685 98.7951 30.5292 98.6985 30.5283C98.6019 30.5273 98.5089 30.5648 98.44 30.6325C97.2 31.8325 95.9 32.9425 94.57 34.0325C93.81 34.6525 92.97 35.2524 92.2 35.8924C92.3511 35.1167 92.5413 34.349 92.77 33.5925C92.91 33.5125 93.04 33.4125 93.17 33.3225C92.9909 33.5648 92.8337 33.8225 92.7 34.0925C92.6 34.3225 92.82 34.6225 93.08 34.4625C94.0676 33.7106 94.9908 32.8777 95.84 31.9725C96.89 31.0225 97.96 30.0825 98.96 29.0625C99.0039 29.0228 99.0369 28.9726 99.0562 28.9166C99.0754 28.8607 99.0802 28.8007 99.07 28.7425C99.2 28.6525 99.3299 28.5624 99.4699 28.4824C99.51 28.4588 99.545 28.4275 99.573 28.3903C99.6009 28.3532 99.6213 28.3109 99.6329 28.2658C99.6445 28.2208 99.6472 28.1739 99.6407 28.1279C99.6341 28.0818 99.6186 28.0375 99.5949 27.9975C99.5713 27.9574 99.54 27.9224 99.5028 27.8944C99.4657 27.8665 99.4234 27.8461 99.3783 27.8345C99.3333 27.8229 99.2864 27.8203 99.2404 27.8268C99.1943 27.8333 99.15 27.8488 99.11 27.8725C97.7455 28.6293 96.4445 29.4955 95.2199 30.4625C94.6599 30.9125 94.03 31.3525 93.44 31.8225C94.44 29.6525 95.96 27.4625 98.33 27.1825C102.33 26.7025 100.79 31.8825 100.27 33.3825C100.05 33.9925 99.8 34.5925 99.56 35.1925C98.0179 35.4488 96.5218 35.9306 95.12 36.6225L95.33 36.4524C97.0331 35.1189 98.6622 33.6935 100.21 32.1825C100.61 31.7925 99.9999 31.1825 99.5999 31.5725C98.1799 32.9425 96.68 34.2025 95.15 35.4425C94.09 36.2925 92.87 37.0924 91.82 38.0224C91.87 37.7324 91.91 37.4725 91.95 37.1825ZM96.8 37.3225C96.8611 37.2982 96.9142 37.2572 96.9532 37.2041C96.9921 37.151 97.0152 37.0881 97.02 37.0224C97.8067 36.7173 98.566 36.346 99.29 35.9125C99.29 36.0125 99.21 36.1125 99.17 36.2125C99.1521 36.2564 99.1431 36.3035 99.1435 36.351C99.1438 36.3984 99.1536 36.4454 99.1722 36.4891C99.1907 36.5327 99.2178 36.5723 99.2517 36.6055C99.2857 36.6387 99.3259 36.6649 99.37 36.6825C96.8451 37.7335 94.4246 39.0191 92.14 40.5224C92.0633 40.584 92.0112 40.6711 91.9934 40.7679C91.9755 40.8646 91.993 40.9646 92.0428 41.0495C92.0925 41.1343 92.1711 41.1985 92.2642 41.2303C92.3573 41.262 92.4587 41.2593 92.55 41.2225C95.55 39.4725 98.85 38.3025 101.89 36.6225C101.952 36.5773 101.998 36.5122 102.018 36.4379C102.039 36.3637 102.034 36.2846 102.003 36.2137C101.973 36.1428 101.92 36.0842 101.852 36.0477C101.784 36.0111 101.706 35.9987 101.63 36.0124L101.23 36.1124C102.583 35.5169 104.053 35.2333 105.53 35.2825C106.097 35.2875 106.661 35.3614 107.21 35.5025C106.81 35.7425 106.43 35.9925 106.04 36.2425C106.022 36.2308 106.001 36.2247 105.98 36.2247C105.959 36.2247 105.938 36.2308 105.92 36.2425C105.13 36.5125 104.36 36.8325 103.6 37.1625C103.583 37.155 103.564 37.1512 103.545 37.1512C103.526 37.1512 103.507 37.155 103.49 37.1625C99.54 37.9625 95.68 40.2525 91.93 41.7225C91.42 41.9225 91.6399 42.7224 92.1599 42.5524C93.2899 42.1224 94.51 41.6925 95.75 41.2525L95.02 41.6424C94.16 42.0824 93.29 42.5224 92.43 42.9824C91.93 43.2424 92.37 43.9825 92.86 43.7225C96.15 42.1725 99.4 40.4425 102.55 38.6025C100.76 39.8225 98.79 40.8424 97.08 42.1724C96.84 42.3524 96.96 42.7825 97.3 42.6825C97.988 42.4645 98.6569 42.1902 99.3 41.8624C98.6358 42.2811 98.004 42.7491 97.4099 43.2624C95.0399 43.6824 92.6599 43.9725 90.4099 44.3425H90.34C90.8537 42.9665 91.2289 41.5428 91.46 40.0925C93.31 39.2725 95.02 38.2924 96.8 37.3624V37.3225Z" fill="white"/>
<path fill-rule="evenodd" clip-rule="evenodd" d="M91.9001 56.1823C90.9001 56.4723 91.12 55.1023 90.72 54.6123C90.6678 54.5616 90.5979 54.5332 90.5251 54.5332C90.4523 54.5332 90.3823 54.5616 90.3301 54.6123C90.1082 54.9299 90.0029 55.3145 90.032 55.7008C90.0612 56.0872 90.223 56.4516 90.49 56.7323C90.7053 56.949 90.9746 57.1041 91.27 57.1815C91.5655 57.2588 91.8762 57.2557 92.17 57.1723C93.32 56.9123 94.3301 55.5523 93.4001 54.5323C92.7206 53.8211 91.7963 53.3944 90.8143 53.3387C89.8322 53.2831 88.8656 53.6024 88.11 54.2323C87.8024 54.5363 87.5754 54.9122 87.4497 55.3261C87.324 55.7399 87.3035 56.1786 87.3901 56.6023C87.4773 57.0935 87.6608 57.5624 87.93 57.9823C81.78 61.9823 75.6801 69.5723 73.5101 76.4723C73.3701 76.9023 74.06 77.2023 74.24 76.7823C77.58 69.2223 82.92 64.3023 88.47 58.5123C88.5811 58.5814 88.7093 58.6181 88.8401 58.6181C88.9709 58.6181 89.099 58.5814 89.2101 58.5123C89.2851 58.4715 89.3473 58.4106 89.3897 58.3364C89.4321 58.2622 89.453 58.1777 89.4501 58.0923C89.4501 57.6523 88.9901 57.3823 88.7601 57.0323C88.7168 56.955 88.645 56.8975 88.5601 56.8723C88.3618 56.5101 88.3094 56.0858 88.4134 55.6862C88.5175 55.2866 88.7703 54.9418 89.1201 54.7223C89.6738 54.4262 90.3065 54.3112 90.9291 54.3938C91.5516 54.4763 92.1326 54.7521 92.5901 55.1823C93.0901 55.6023 92.3101 56.0823 91.9001 56.1823Z" fill="white"/>
<path fill-rule="evenodd" clip-rule="evenodd" d="M44.8101 84.9724C44.8702 85.0612 44.962 85.1236 45.0667 85.1468C45.1714 85.1701 45.2811 85.1524 45.3731 85.0974C45.4652 85.0424 45.5327 84.9543 45.5619 84.8511C45.5911 84.7479 45.5797 84.6375 45.53 84.5424C42.9827 80.0427 39.0956 76.4492 34.41 74.2624C34.3536 74.2369 34.2899 74.2333 34.2309 74.2521C34.172 74.271 34.1221 74.3111 34.091 74.3646C34.0598 74.4181 34.0498 74.4812 34.0625 74.5418C34.0753 74.6024 34.11 74.656 34.16 74.6924C38.23 77.7724 42.0401 80.5724 44.8101 84.9724Z" fill="white"/>
<path fill-rule="evenodd" clip-rule="evenodd" d="M33.1699 88.3525C32.7999 88.2925 32.5099 88.8025 32.8999 88.9925C36.3799 90.6725 40.7099 90.4325 43.1099 93.9925C43.3099 94.2825 43.7799 93.9925 43.5999 93.7125C41.4399 90.1125 37.0499 89.0125 33.1699 88.3525Z" fill="white"/>
<path fill-rule="evenodd" clip-rule="evenodd" d="M85.48 88.9727C83.48 88.6727 80.95 90.0827 79.28 91.1027C77.3381 92.175 75.8999 93.9727 75.28 96.1027C75.2495 96.2127 75.2641 96.3304 75.3203 96.4298C75.3766 96.5292 75.47 96.6022 75.5801 96.6327C75.6901 96.6632 75.8078 96.6487 75.9072 96.5924C76.0066 96.5362 76.0795 96.4427 76.11 96.3326C76.8273 94.3141 78.2861 92.6444 80.1901 91.6627C81.8701 90.6627 83.88 90.4826 85.54 89.5526C85.78 89.4526 85.77 89.0227 85.48 88.9727Z" fill="white"/>
<path fill-rule="evenodd" clip-rule="evenodd" d="M26.2499 86.1826C25.4699 88.4526 27.9899 90.5826 30.0499 90.5926C30.1481 90.5926 30.2422 90.5536 30.3116 90.4842C30.381 90.4148 30.4199 90.3207 30.4199 90.2226C30.4199 90.1244 30.381 90.0303 30.3116 89.9609C30.2422 89.8915 30.1481 89.8526 30.0499 89.8526C28.5299 89.7426 26.8699 88.2226 27.1199 86.6026C27.3299 85.1926 29.81 84.6025 30.83 85.4625C31.1265 85.789 31.3192 86.1963 31.3833 86.6327C31.4474 87.069 31.3801 87.5146 31.1899 87.9126C30.7199 88.9126 30 87.4025 29.65 86.9925C29.6089 86.9534 29.5571 86.9272 29.5013 86.9171C29.4454 86.9071 29.3879 86.9136 29.3357 86.936C29.2835 86.9584 29.2391 86.9955 29.2078 87.0429C29.1766 87.0903 29.1599 87.1458 29.1599 87.2025C29.2899 88.5425 30.7399 90.1225 31.8599 88.6425C32.2413 88.0345 32.4037 87.3145 32.32 86.6016C32.2364 85.8887 31.9118 85.2258 31.4 84.7226C29.87 83.3726 26.8799 84.3226 26.2499 86.1826Z" fill="white"/>
<path fill-rule="evenodd" clip-rule="evenodd" d="M32.7 54.5622C33.78 55.5622 34.85 56.6622 35.89 57.7522C36.16 58.0322 36.53 57.6222 36.31 57.3322C35.3725 56.142 34.3711 55.0036 33.31 53.9222C32.418 52.8583 31.3531 51.9522 30.16 51.2422C29.91 51.1322 29.58 51.3722 29.76 51.6422C30.631 52.7194 31.6168 53.6986 32.7 54.5622Z" fill="white"/>
<path fill-rule="evenodd" clip-rule="evenodd" d="M69.9499 49.5924C69.9329 49.6681 69.9431 49.7474 69.9788 49.8163C70.0145 49.8852 70.0733 49.9393 70.145 49.9692C70.2166 49.999 70.2964 50.0026 70.3705 49.9795C70.4445 49.9563 70.5081 49.9077 70.5499 49.8424C72.7699 45.0824 76.3399 41.5524 79.6199 37.5624C79.6776 37.4853 79.7057 37.39 79.6989 37.294C79.692 37.198 79.6508 37.1076 79.5827 37.0395C79.5146 36.9714 79.4243 36.9302 79.3282 36.9234C79.2322 36.9165 79.1369 36.9446 79.0599 37.0024C75.0324 40.3845 71.903 44.7093 69.9499 49.5924Z" fill="white"/>
<path fill-rule="evenodd" clip-rule="evenodd" d="M83.05 35.5523C82.8072 35.719 82.6056 35.9388 82.4603 36.195C82.3151 36.4512 82.2302 36.7371 82.2119 37.031C82.1935 37.3249 82.2424 37.6192 82.3547 37.8914C82.467 38.1637 82.6398 38.4068 82.86 38.6023C83.78 39.2723 85.12 38.6023 85.78 37.9023C87.1 36.4423 87.08 33.7423 85.09 32.9023C84.2779 32.605 83.3987 32.5411 82.5521 32.7178C81.7055 32.8946 80.9253 33.3049 80.3 33.9023C78.59 35.5923 79.96 37.8023 81.46 39.0523C81.87 39.4023 82.46 38.8323 82.06 38.4523C81.06 37.5423 79.85 36.1123 80.8 34.7623C81.1979 34.3118 81.701 33.9665 82.2645 33.7572C82.828 33.5478 83.4344 33.4809 84.03 33.5623C84.3112 33.5748 84.5859 33.6513 84.8331 33.7859C85.0803 33.9206 85.2935 34.1099 85.4565 34.3394C85.6195 34.5689 85.7279 34.8326 85.7736 35.1104C85.8192 35.3882 85.8009 35.6727 85.72 35.9423C85.6934 36.4408 85.4927 36.9141 85.1528 37.2797C84.8128 37.6452 84.3552 37.8797 83.86 37.9423C82.59 37.9423 83.38 36.4223 83.57 35.8223C83.67 35.5323 83.31 35.3723 83.05 35.5523Z" fill="white"/>
<path fill-rule="evenodd" clip-rule="evenodd" d="M54.1501 35.7722C54.6733 31.6949 53.7266 27.5647 51.48 24.1222C51.29 23.8522 50.82 24.0222 50.93 24.3622C52.19 28.2422 53.62 31.5922 53.73 35.7722C53.73 35.7998 53.7355 35.8271 53.746 35.8525C53.7566 35.878 53.7721 35.9012 53.7916 35.9207C53.8111 35.9402 53.8342 35.9557 53.8597 35.9662C53.8851 35.9768 53.9125 35.9822 53.9401 35.9822C53.9676 35.9822 53.995 35.9768 54.0204 35.9662C54.0459 35.9557 54.0691 35.9402 54.0886 35.9207C54.1081 35.9012 54.1235 35.878 54.1341 35.8525C54.1446 35.8271 54.1501 35.7998 54.1501 35.7722Z" fill="white"/>
<path fill-rule="evenodd" clip-rule="evenodd" d="M68.07 25.7925C68.0848 25.8839 68.1316 25.9671 68.2022 26.0272C68.2727 26.0872 68.3623 26.1202 68.455 26.1202C68.5476 26.1202 68.6372 26.0872 68.7078 26.0272C68.7783 25.9671 68.8252 25.8839 68.84 25.7925C69.02 22.2025 70.46 19.2625 71.43 15.8825C71.4565 15.8188 71.4566 15.7472 71.4304 15.6835C71.4041 15.6197 71.3536 15.569 71.2899 15.5425C71.2263 15.5159 71.1547 15.5158 71.091 15.5421C71.0272 15.5683 70.9765 15.6188 70.95 15.6825C68.9929 18.6852 67.989 22.2092 68.07 25.7925Z" fill="white"/>
<path fill-rule="evenodd" clip-rule="evenodd" d="M26.1199 44.1826C25.9234 44.2506 25.7531 44.3782 25.6324 44.5475C25.5118 44.7169 25.447 44.9197 25.447 45.1276C25.447 45.3356 25.5118 45.5383 25.6324 45.7077C25.7531 45.877 25.9234 46.0046 26.1199 46.0726C26.3538 46.0485 26.5704 45.9386 26.7279 45.764C26.8854 45.5895 26.9726 45.3627 26.9726 45.1276C26.9726 44.8925 26.8854 44.6658 26.7279 44.4912C26.5704 44.3167 26.3538 44.2067 26.1199 44.1826Z" fill="white"/>
<path fill-rule="evenodd" clip-rule="evenodd" d="M20.9799 43.3623C20.764 43.3854 20.5642 43.4876 20.4191 43.6491C20.2739 43.8106 20.1936 44.0201 20.1936 44.2373C20.1936 44.4545 20.2739 44.664 20.4191 44.8255C20.5642 44.987 20.764 45.0892 20.9799 45.1123C21.1959 45.0892 21.3956 44.987 21.5408 44.8255C21.6859 44.664 21.7662 44.4545 21.7662 44.2373C21.7662 44.0201 21.6859 43.8106 21.5408 43.6491C21.3956 43.4876 21.1959 43.3854 20.9799 43.3623Z" fill="white"/>
<path fill-rule="evenodd" clip-rule="evenodd" d="M20.37 91.1826C20.1419 91.1826 19.9232 91.2732 19.7619 91.4345C19.6006 91.5958 19.51 91.8145 19.51 92.0426C19.51 92.2707 19.6006 92.4894 19.7619 92.6507C19.9232 92.812 20.1419 92.9026 20.37 92.9026C20.5981 92.9026 20.8168 92.812 20.9781 92.6507C21.1394 92.4894 21.23 92.2707 21.23 92.0426C21.23 91.8145 21.1394 91.5958 20.9781 91.4345C20.8168 91.2732 20.5981 91.1826 20.37 91.1826Z" fill="white"/>
<path fill-rule="evenodd" clip-rule="evenodd" d="M13.42 91.9424C13.2396 91.9424 13.0667 92.014 12.9391 92.1415C12.8116 92.2691 12.74 92.442 12.74 92.6224C12.74 92.8027 12.8116 92.9757 12.9391 93.1032C13.0667 93.2307 13.2396 93.3024 13.42 93.3024C13.6003 93.3024 13.7733 93.2307 13.9008 93.1032C14.0283 92.9757 14.1 92.8027 14.1 92.6224C14.1 92.442 14.0283 92.2691 13.9008 92.1415C13.7733 92.014 13.6003 91.9424 13.42 91.9424Z" fill="white"/>
<path fill-rule="evenodd" clip-rule="evenodd" d="M20.37 87.0824C20.4166 87.072 20.4584 87.0461 20.4883 87.0088C20.5182 86.9715 20.5344 86.9252 20.5344 86.8774C20.5344 86.8296 20.5182 86.7832 20.4883 86.746C20.4584 86.7087 20.4166 86.6827 20.37 86.6724C20.3234 86.6827 20.2817 86.7087 20.2518 86.746C20.2219 86.7832 20.2056 86.8296 20.2056 86.8774C20.2056 86.9252 20.2219 86.9715 20.2518 87.0088C20.2817 87.0461 20.3234 87.072 20.37 87.0824Z" fill="white"/>
<path fill-rule="evenodd" clip-rule="evenodd" d="M16.7401 46.3126C16.877 46.2944 17.0026 46.227 17.0936 46.1231C17.1846 46.0192 17.2347 45.8857 17.2347 45.7476C17.2347 45.6095 17.1846 45.4761 17.0936 45.3721C17.0026 45.2682 16.877 45.2009 16.7401 45.1826C16.6031 45.2009 16.4775 45.2682 16.3865 45.3721C16.2955 45.4761 16.2454 45.6095 16.2454 45.7476C16.2454 45.8857 16.2955 46.0192 16.3865 46.1231C16.4775 46.227 16.6031 46.2944 16.7401 46.3126Z" fill="white"/>
<path fill-rule="evenodd" clip-rule="evenodd" d="M64.3101 42.3922C65.4101 43.0222 66.3101 42.1022 65.7101 41.0022C64.8701 39.5322 62.8401 41.5622 64.3101 42.3922Z" fill="white"/>
<path fill-rule="evenodd" clip-rule="evenodd" d="M66.9402 38.8823C66.8315 38.9134 66.7359 38.9789 66.6678 39.0692C66.5998 39.1594 66.563 39.2693 66.563 39.3823C66.563 39.4953 66.5998 39.6052 66.6678 39.6955C66.7359 39.7857 66.8315 39.8513 66.9402 39.8823C67.0488 39.8513 67.1444 39.7857 67.2125 39.6955C67.2805 39.6052 67.3173 39.4953 67.3173 39.3823C67.3173 39.2693 67.2805 39.1594 67.2125 39.0692C67.1444 38.9789 67.0488 38.9134 66.9402 38.8823Z" fill="white"/>
<path fill-rule="evenodd" clip-rule="evenodd" d="M87.8101 30.4922C88.0143 30.4922 88.2102 30.411 88.3546 30.2666C88.499 30.1222 88.5801 29.9264 88.5801 29.7222C88.5801 29.518 88.499 29.3221 88.3546 29.1777C88.2102 29.0333 88.0143 28.9521 87.8101 28.9521C87.6058 28.9521 87.41 29.0333 87.2656 29.1777C87.1212 29.3221 87.04 29.518 87.04 29.7222C87.04 29.9264 87.1212 30.1222 87.2656 30.2666C87.41 30.411 87.6058 30.4922 87.8101 30.4922Z" fill="white"/>
<path fill-rule="evenodd" clip-rule="evenodd" d="M97.1802 52.8926C96.915 52.8926 96.6606 52.998 96.4731 53.1855C96.2855 53.373 96.1802 53.6274 96.1802 53.8926C96.1802 54.1578 96.2855 54.4122 96.4731 54.5997C96.6606 54.7873 96.915 54.8926 97.1802 54.8926C97.4978 54.9234 97.8175 54.8608 98.1002 54.7126C98.2405 54.6219 98.3559 54.4976 98.4359 54.3508C98.5158 54.2041 98.5576 54.0397 98.5576 53.8726C98.5576 53.7055 98.5158 53.5411 98.4359 53.3944C98.3559 53.2476 98.2405 53.1233 98.1002 53.0326C97.812 52.9028 97.4939 52.8544 97.1802 52.8926Z" fill="white"/>
<path fill-rule="evenodd" clip-rule="evenodd" d="M94.7599 51.6725C94.9528 51.6507 95.131 51.5586 95.2603 51.4138C95.3897 51.269 95.4611 51.0817 95.4611 50.8875C95.4611 50.6934 95.3897 50.506 95.2603 50.3612C95.131 50.2164 94.9528 50.1243 94.7599 50.1025C94.567 50.1243 94.3888 50.2164 94.2595 50.3612C94.1301 50.506 94.0586 50.6934 94.0586 50.8875C94.0586 51.0817 94.1301 51.269 94.2595 51.4138C94.3888 51.5586 94.567 51.6507 94.7599 51.6725Z" fill="white"/>
<path fill-rule="evenodd" clip-rule="evenodd" d="M95.9702 70.5322C96.0471 70.5322 96.1208 70.5016 96.1752 70.4472C96.2296 70.3928 96.2602 70.3191 96.2602 70.2422C96.2602 70.1652 96.2296 70.0915 96.1752 70.0371C96.1208 69.9827 96.0471 69.9521 95.9702 69.9521C95.8932 69.9521 95.8195 69.9827 95.7651 70.0371C95.7108 70.0915 95.6802 70.1652 95.6802 70.2422C95.6802 70.3191 95.7108 70.3928 95.7651 70.4472C95.8195 70.5016 95.8932 70.5322 95.9702 70.5322Z" fill="white"/>
<path fill-rule="evenodd" clip-rule="evenodd" d="M87.47 85.5723L87.5201 85.5122C87.5991 85.3754 87.6406 85.2202 87.6406 85.0623C87.6406 84.9043 87.5991 84.7491 87.5201 84.6122L87.47 84.5522C87.36 84.3616 87.1901 84.2126 86.9867 84.1284C86.7833 84.0441 86.5578 84.0294 86.3452 84.0863C86.1326 84.1433 85.9447 84.2688 85.8107 84.4435C85.6767 84.6181 85.604 84.8321 85.604 85.0522C85.604 85.2724 85.6767 85.4864 85.8107 85.661C85.9447 85.8356 86.1326 85.9612 86.3452 86.0182C86.5578 86.0752 86.7833 86.0604 86.9867 85.9761C87.1901 85.8919 87.36 85.7429 87.47 85.5522V85.5723Z" fill="white"/>
<path fill-rule="evenodd" clip-rule="evenodd" d="M87.5099 89.3823C87.2925 89.3823 87.0839 89.4687 86.9301 89.6225C86.7763 89.7763 86.6899 89.9848 86.6899 90.2023C86.6899 90.4198 86.7763 90.6284 86.9301 90.7821C87.0839 90.9359 87.2925 91.0223 87.5099 91.0223C87.7274 91.0223 87.936 90.9359 88.0898 90.7821C88.2436 90.6284 88.33 90.4198 88.33 90.2023C88.33 89.9848 88.2436 89.7763 88.0898 89.6225C87.936 89.4687 87.7274 89.3823 87.5099 89.3823Z" fill="white"/>
<path fill-rule="evenodd" clip-rule="evenodd" d="M90.2299 86.6724C90.0318 86.6945 89.8489 86.7888 89.7161 86.9373C89.5832 87.0858 89.5098 87.2781 89.5098 87.4774C89.5098 87.6767 89.5832 87.8689 89.7161 88.0174C89.8489 88.1659 90.0318 88.2603 90.2299 88.2824C90.4279 88.2603 90.6109 88.1659 90.7437 88.0174C90.8766 87.8689 90.95 87.6767 90.95 87.4774C90.95 87.2781 90.8766 87.0858 90.7437 86.9373C90.6109 86.7888 90.4279 86.6945 90.2299 86.6724Z" fill="white"/>
<path fill-rule="evenodd" clip-rule="evenodd" d="M95.6699 89.4727C95.4763 89.4727 95.2906 89.5496 95.1537 89.6865C95.0168 89.8234 94.9399 90.009 94.9399 90.2026C94.9399 90.3962 95.0168 90.5819 95.1537 90.7188C95.2906 90.8557 95.4763 90.9326 95.6699 90.9326C95.8635 90.9326 96.0492 90.8557 96.1861 90.7188C96.323 90.5819 96.4 90.3962 96.4 90.2026C96.4 90.009 96.323 89.8234 96.1861 89.6865C96.0492 89.5496 95.8635 89.4727 95.6699 89.4727Z" fill="white"/>
<path fill-rule="evenodd" clip-rule="evenodd" d="M44.8699 17.7526C45.1444 17.7526 45.4077 17.6436 45.6018 17.4495C45.7959 17.2554 45.9049 16.9921 45.9049 16.7176C45.9049 16.4431 45.7959 16.1798 45.6018 15.9857C45.4077 15.7916 45.1444 15.6826 44.8699 15.6826C44.5954 15.6826 44.3322 15.7916 44.1381 15.9857C43.944 16.1798 43.835 16.4431 43.835 16.7176C43.835 16.9921 43.944 17.2554 44.1381 17.4495C44.3322 17.6436 44.5954 17.7526 44.8699 17.7526Z" fill="white"/>
<path fill-rule="evenodd" clip-rule="evenodd" d="M40.9401 13.7524C41.1025 13.7324 41.2519 13.6538 41.3602 13.5313C41.4686 13.4088 41.5284 13.2509 41.5284 13.0874C41.5284 12.9238 41.4686 12.7659 41.3602 12.6434C41.2519 12.5209 41.1025 12.4423 40.9401 12.4224C40.7778 12.4423 40.6284 12.5209 40.52 12.6434C40.4117 12.7659 40.3518 12.9238 40.3518 13.0874C40.3518 13.2509 40.4117 13.4088 40.52 13.5313C40.6284 13.6538 40.7778 13.7324 40.9401 13.7524Z" fill="white"/>
<path fill-rule="evenodd" clip-rule="evenodd" d="M73.6 14.1826C73.8043 14.1826 74.0001 14.1015 74.1445 13.9571C74.2889 13.8127 74.3701 13.6168 74.3701 13.4126C74.3701 13.2084 74.2889 13.0125 74.1445 12.8681C74.0001 12.7237 73.8043 12.6426 73.6 12.6426C73.3958 12.6426 73.2 12.7237 73.0556 12.8681C72.9112 13.0125 72.8301 13.2084 72.8301 13.4126C72.8301 13.6168 72.9112 13.8127 73.0556 13.9571C73.2 14.1015 73.3958 14.1826 73.6 14.1826Z" fill="white"/>
<path fill-rule="evenodd" clip-rule="evenodd" d="M100.21 47.7524C99.9447 47.7524 99.6903 47.8578 99.5028 48.0453C99.3153 48.2329 99.21 48.4872 99.21 48.7524C99.21 49.0177 99.3153 49.272 99.5028 49.4595C99.6903 49.6471 99.9447 49.7524 100.21 49.7524C100.475 49.7524 100.73 49.6471 100.917 49.4595C101.105 49.272 101.21 49.0177 101.21 48.7524C101.21 48.4872 101.105 48.2329 100.917 48.0453C100.73 47.8578 100.475 47.7524 100.21 47.7524Z" fill="white"/>
<path fill-rule="evenodd" clip-rule="evenodd" d="M98.09 49.4727C97.8894 49.4949 97.704 49.5904 97.5694 49.7407C97.4348 49.8911 97.3604 50.0858 97.3604 50.2877C97.3604 50.4895 97.4348 50.6842 97.5694 50.8346C97.704 50.9849 97.8894 51.0804 98.09 51.1027C98.2906 51.0804 98.4759 50.9849 98.6105 50.8346C98.7451 50.6842 98.8195 50.4895 98.8195 50.2877C98.8195 50.0858 98.7451 49.8911 98.6105 49.7407C98.4759 49.5904 98.2906 49.4949 98.09 49.4727Z" fill="white"/>
<path fill-rule="evenodd" clip-rule="evenodd" d="M101.72 54.6222C101.908 54.6222 102.089 54.5474 102.222 54.4142C102.355 54.2811 102.43 54.1005 102.43 53.9122C102.43 53.7239 102.355 53.5433 102.222 53.4101C102.089 53.277 101.908 53.2021 101.72 53.2021C101.532 53.2021 101.351 53.277 101.218 53.4101C101.085 53.5433 101.01 53.7239 101.01 53.9122C101.01 54.1005 101.085 54.2811 101.218 54.4142C101.351 54.5474 101.532 54.6222 101.72 54.6222Z" fill="white"/>
<path fill-rule="evenodd" clip-rule="evenodd" d="M105.04 48.5224C105.2 48.5026 105.347 48.4251 105.453 48.3045C105.56 48.1838 105.619 48.0284 105.619 47.8674C105.619 47.7064 105.56 47.551 105.453 47.4303C105.347 47.3097 105.2 47.2322 105.04 47.2124C104.88 47.2322 104.733 47.3097 104.626 47.4303C104.52 47.551 104.461 47.7064 104.461 47.8674C104.461 48.0284 104.52 48.1838 104.626 48.3045C104.733 48.4251 104.88 48.5026 105.04 48.5224Z" fill="white"/>
<path fill-rule="evenodd" clip-rule="evenodd" d="M97.79 70.8922C97.9901 70.8264 98.1643 70.6992 98.2878 70.5286C98.4113 70.358 98.4778 70.1528 98.4778 69.9422C98.4778 69.7316 98.4113 69.5264 98.2878 69.3558C98.1643 69.1852 97.9901 69.0579 97.79 68.9922C97.59 69.0579 97.4158 69.1852 97.2923 69.3558C97.1688 69.5264 97.1023 69.7316 97.1023 69.9422C97.1023 70.1528 97.1688 70.358 97.2923 70.5286C97.4158 70.6992 97.59 70.8264 97.79 70.8922Z" fill="white"/>
<path fill-rule="evenodd" clip-rule="evenodd" d="M93.8501 72.6523C93.6239 72.676 93.4145 72.7826 93.2623 72.9516C93.1101 73.1206 93.0259 73.3399 93.0259 73.5674C93.0259 73.7948 93.1101 74.0141 93.2623 74.1831C93.4145 74.352 93.6239 74.4587 93.8501 74.4823C94.0763 74.4587 94.2857 74.352 94.4379 74.1831C94.5901 74.0141 94.6743 73.7948 94.6743 73.5674C94.6743 73.3399 94.5901 73.1206 94.4379 72.9516C94.2857 72.7826 94.0763 72.676 93.8501 72.6523Z" fill="white"/>
<path fill-rule="evenodd" clip-rule="evenodd" d="M94.16 68.0425C93.9926 68.0627 93.8384 68.1436 93.7266 68.2698C93.6147 68.396 93.553 68.5589 93.553 68.7275C93.553 68.8961 93.6147 69.0589 93.7266 69.1852C93.8384 69.3114 93.9926 69.3922 94.16 69.4125C94.3275 69.3922 94.4817 69.3114 94.5935 69.1852C94.7054 69.0589 94.7672 68.8961 94.7672 68.7275C94.7672 68.5589 94.7054 68.396 94.5935 68.2698C94.4817 68.1436 94.3275 68.0627 94.16 68.0425Z" fill="white"/>
<path fill-rule="evenodd" clip-rule="evenodd" d="M25.2101 68.6025C25.0299 68.6236 24.8638 68.7101 24.7432 68.8456C24.6226 68.9811 24.5559 69.1561 24.5559 69.3375C24.5559 69.5189 24.6226 69.694 24.7432 69.8295C24.8638 69.965 25.0299 70.0515 25.2101 70.0725C25.3902 70.0515 25.5564 69.965 25.6769 69.8295C25.7975 69.694 25.8642 69.5189 25.8642 69.3375C25.8642 69.1561 25.7975 68.9811 25.6769 68.8456C25.5564 68.7101 25.3902 68.6236 25.2101 68.6025Z" fill="white"/>
<path fill-rule="evenodd" clip-rule="evenodd" d="M11.5999 67.0122C11.4844 67.0354 11.3805 67.0979 11.3058 67.1891C11.2312 67.2802 11.1904 67.3944 11.1904 67.5122C11.1904 67.63 11.2312 67.7442 11.3058 67.8354C11.3805 67.9265 11.4844 67.989 11.5999 68.0122C11.7154 67.989 11.8193 67.9265 11.894 67.8354C11.9686 67.7442 12.0095 67.63 12.0095 67.5122C12.0095 67.3944 11.9686 67.2802 11.894 67.1891C11.8193 67.0979 11.7154 67.0354 11.5999 67.0122Z" fill="white"/>
<path fill-rule="evenodd" clip-rule="evenodd" d="M7.97009 88.6323C7.80777 88.6523 7.65835 88.7309 7.54999 88.8534C7.44162 88.9759 7.38184 89.1338 7.38184 89.2973C7.38184 89.4608 7.44162 89.6187 7.54999 89.7412C7.65835 89.8637 7.80777 89.9424 7.97009 89.9623C8.13242 89.9424 8.28189 89.8637 8.39026 89.7412C8.49862 89.6187 8.55841 89.4608 8.55841 89.2973C8.55841 89.1338 8.49862 88.9759 8.39026 88.8534C8.28189 88.7309 8.13242 88.6523 7.97009 88.6323Z" fill="white"/>
<path fill-rule="evenodd" clip-rule="evenodd" d="M10.3901 85.7622C10.1753 85.7622 9.96923 85.8475 9.81732 85.9995C9.66542 86.1514 9.58008 86.3574 9.58008 86.5722C9.58008 86.7871 9.66542 86.9931 9.81732 87.145C9.96923 87.2969 10.1753 87.3822 10.3901 87.3822C10.6049 87.3822 10.8109 87.2969 10.9628 87.145C11.1147 86.9931 11.2001 86.7871 11.2001 86.5722C11.2001 86.3574 11.1147 86.1514 10.9628 85.9995C10.8109 85.8475 10.6049 85.7622 10.3901 85.7622Z" fill="white"/>
<path fill-rule="evenodd" clip-rule="evenodd" d="M43.6599 46.5225C43.4637 46.5225 43.2754 46.6004 43.1367 46.7392C42.9979 46.878 42.9199 47.0662 42.9199 47.2625C42.9199 47.4587 42.9979 47.647 43.1367 47.7857C43.2754 47.9245 43.4637 48.0025 43.6599 48.0025C43.8562 48.0025 44.0444 47.9245 44.1832 47.7857C44.3219 47.647 44.4 47.4587 44.4 47.2625C44.4 47.0662 44.3219 46.878 44.1832 46.7392C44.0444 46.6004 43.8562 46.5225 43.6599 46.5225Z" fill="white"/>
<path fill-rule="evenodd" clip-rule="evenodd" d="M52.1602 78.6622C51.999 78.7025 51.8504 78.7823 51.7278 78.8945C51.6053 79.0066 51.5126 79.1475 51.4581 79.3045C51.4037 79.4614 51.3891 79.6295 51.4159 79.7935C51.4427 79.9574 51.5099 80.1121 51.6114 80.2436C51.713 80.3751 51.8457 80.4792 51.9976 80.5465C52.1495 80.6139 52.3157 80.6423 52.4813 80.6292C52.6469 80.6162 52.8068 80.5621 52.9462 80.4718C53.0857 80.3816 53.2004 80.258 53.2801 80.1122C53.3734 79.9417 53.415 79.7476 53.3998 79.5538C53.3845 79.36 53.3131 79.1749 53.1943 79.021C53.0754 78.8672 52.9143 78.7513 52.7306 78.6876C52.547 78.6239 52.3487 78.615 52.1602 78.6622Z" fill="white"/>
<path fill-rule="evenodd" clip-rule="evenodd" d="M53.3099 74.9521C53.1297 74.9732 52.9635 75.0597 52.843 75.1952C52.7224 75.3307 52.6558 75.5058 52.6558 75.6872C52.6558 75.8686 52.7224 76.0436 52.843 76.1791C52.9635 76.3146 53.1297 76.4011 53.3099 76.4221C53.49 76.4011 53.6562 76.3146 53.7768 76.1791C53.8974 76.0436 53.964 75.8686 53.964 75.6872C53.964 75.5058 53.8974 75.3307 53.7768 75.1952C53.6562 75.0597 53.49 74.9732 53.3099 74.9521Z" fill="white"/>
<path fill-rule="evenodd" clip-rule="evenodd" d="M49.71 78.0625C49.6286 78.0764 49.5547 78.1187 49.5014 78.1818C49.4481 78.245 49.4189 78.3249 49.4189 78.4075C49.4189 78.4901 49.4481 78.57 49.5014 78.6332C49.5547 78.6963 49.6286 78.7386 49.71 78.7525C49.7914 78.7386 49.8653 78.6963 49.9186 78.6332C49.9718 78.57 50.001 78.4901 50.001 78.4075C50.001 78.3249 49.9718 78.245 49.9186 78.1818C49.8653 78.1187 49.7914 78.0764 49.71 78.0625Z" fill="white"/>
<path fill-rule="evenodd" clip-rule="evenodd" d="M63.62 87.8125C63.3866 87.8125 63.1628 87.9052 62.9977 88.0703C62.8327 88.2353 62.74 88.4591 62.74 88.6925C62.74 88.9259 62.8327 89.1497 62.9977 89.3148C63.1628 89.4798 63.3866 89.5725 63.62 89.5725C63.8534 89.5725 64.0772 89.4798 64.2422 89.3148C64.4073 89.1497 64.5 88.9259 64.5 88.6925C64.5 88.4591 64.4073 88.2353 64.2422 88.0703C64.0772 87.9052 63.8534 87.8125 63.62 87.8125Z" fill="white"/>
<path fill-rule="evenodd" clip-rule="evenodd" d="M63.92 91.5825C63.7398 91.6036 63.5737 91.6901 63.4531 91.8256C63.3325 91.9611 63.2659 92.1361 63.2659 92.3175C63.2659 92.4989 63.3325 92.674 63.4531 92.8095C63.5737 92.945 63.7398 93.0315 63.92 93.0525C64.1001 93.0315 64.2663 92.945 64.3869 92.8095C64.5075 92.674 64.5741 92.4989 64.5741 92.3175C64.5741 92.1361 64.5075 91.9611 64.3869 91.8256C64.2663 91.6901 64.1001 91.6036 63.92 91.5825Z" fill="white"/>
<path fill-rule="evenodd" clip-rule="evenodd" d="M75.1099 65.6226C74.9269 65.6226 74.7514 65.6952 74.622 65.8246C74.4926 65.954 74.4199 66.1296 74.4199 66.3126C74.4199 66.4956 74.4926 66.671 74.622 66.8004C74.7514 66.9298 74.9269 67.0026 75.1099 67.0026C75.2929 67.0026 75.4684 66.9298 75.5978 66.8004C75.7272 66.671 75.7999 66.4956 75.7999 66.3126C75.7999 66.1296 75.7272 65.954 75.5978 65.8246C75.4684 65.6952 75.2929 65.6226 75.1099 65.6226Z" fill="white"/>
<path fill-rule="evenodd" clip-rule="evenodd" d="M61.2001 62.4323C61.3751 62.4323 61.543 62.3628 61.6667 62.239C61.7905 62.1152 61.86 61.9474 61.86 61.7723C61.86 61.5973 61.7905 61.4294 61.6667 61.3056C61.543 61.1819 61.3751 61.1123 61.2001 61.1123C61.025 61.1123 60.8572 61.1819 60.7334 61.3056C60.6096 61.4294 60.54 61.5973 60.54 61.7723C60.54 61.9474 60.6096 62.1152 60.7334 62.239C60.8572 62.3628 61.025 62.4323 61.2001 62.4323Z" fill="white"/>
<path fill-rule="evenodd" clip-rule="evenodd" d="M68.99 73.2622V73.5222C68.99 73.7874 69.0954 74.0418 69.2829 74.2293C69.4704 74.4169 69.7248 74.5222 69.99 74.5222C70.2552 74.5222 70.5095 74.4169 70.6971 74.2293C70.8846 74.0418 70.99 73.7874 70.99 73.5222V73.2622C70.99 72.997 70.8846 72.7427 70.6971 72.5551C70.5095 72.3676 70.2552 72.2622 69.99 72.2622C69.7248 72.2622 69.4704 72.3676 69.2829 72.5551C69.0954 72.7427 68.99 72.997 68.99 73.2622Z" fill="white"/>
<path fill-rule="evenodd" clip-rule="evenodd" d="M55.45 51.1826C55.2423 51.2432 55.0598 51.3695 54.93 51.5426C54.8002 51.7157 54.73 51.9262 54.73 52.1426C54.73 52.359 54.8002 52.5695 54.93 52.7426C55.0598 52.9157 55.2423 53.042 55.45 53.1026C55.6577 53.042 55.8401 52.9157 55.97 52.7426C56.0998 52.5695 56.17 52.359 56.17 52.1426C56.17 51.9262 56.0998 51.7157 55.97 51.5426C55.8401 51.3695 55.6577 51.2432 55.45 51.1826Z" fill="white"/>
<path fill-rule="evenodd" clip-rule="evenodd" d="M53.0302 51.1822C53.1798 51.163 53.3173 51.09 53.4169 50.9768C53.5166 50.8636 53.5716 50.718 53.5716 50.5672C53.5716 50.4163 53.5166 50.2707 53.4169 50.1575C53.3173 50.0443 53.1798 49.9713 53.0302 49.9521C52.8805 49.9713 52.743 50.0443 52.6434 50.1575C52.5437 50.2707 52.4888 50.4163 52.4888 50.5672C52.4888 50.718 52.5437 50.8636 52.6434 50.9768C52.743 51.09 52.8805 51.163 53.0302 51.1822Z" fill="white"/>
<path fill-rule="evenodd" clip-rule="evenodd" d="M44.8701 51.1822C45.0146 51.1634 45.1474 51.0927 45.2436 50.9832C45.3398 50.8737 45.3928 50.7329 45.3928 50.5872C45.3928 50.4414 45.3398 50.3007 45.2436 50.1912C45.1474 50.0817 45.0146 50.011 44.8701 49.9922C44.7256 50.011 44.5928 50.0817 44.4966 50.1912C44.4005 50.3007 44.3474 50.4414 44.3474 50.5872C44.3474 50.7329 44.4005 50.8737 44.4966 50.9832C44.5928 51.0927 44.7256 51.1634 44.8701 51.1822Z" fill="white"/>
<path fill-rule="evenodd" clip-rule="evenodd" d="M44.5599 4.54218C44.6867 4.52464 44.8028 4.46183 44.8869 4.36533C44.971 4.26883 45.0173 4.14516 45.0173 4.01718C45.0173 3.8892 44.971 3.76554 44.8869 3.66904C44.8028 3.57254 44.6867 3.50973 44.5599 3.49219C44.4332 3.50973 44.317 3.57254 44.233 3.66904C44.1489 3.76554 44.1025 3.8892 44.1025 4.01718C44.1025 4.14516 44.1489 4.26883 44.233 4.36533C44.317 4.46183 44.4332 4.52464 44.5599 4.54218Z" fill="white"/>
<path fill-rule="evenodd" clip-rule="evenodd" d="M40.6301 6.86234C40.8237 6.86234 41.0094 6.78543 41.1463 6.64853C41.2832 6.51163 41.3601 6.32596 41.3601 6.13235C41.3601 5.93875 41.2832 5.75305 41.1463 5.61615C41.0094 5.47925 40.8237 5.40234 40.6301 5.40234C40.4365 5.40234 40.2509 5.47925 40.114 5.61615C39.9771 5.75305 39.9001 5.93875 39.9001 6.13235C39.9001 6.32596 39.9771 6.51163 40.114 6.64853C40.2509 6.78543 40.4365 6.86234 40.6301 6.86234Z" fill="white"/>
<path fill-rule="evenodd" clip-rule="evenodd" d="M7.07013 47.9125C7.22991 47.8928 7.37696 47.8152 7.48358 47.6946C7.5902 47.574 7.64905 47.4185 7.64905 47.2575C7.64905 47.0965 7.5902 46.9411 7.48358 46.8204C7.37696 46.6998 7.22991 46.6223 7.07013 46.6025C6.91035 46.6223 6.7633 46.6998 6.65668 46.8204C6.55006 46.9411 6.49121 47.0965 6.49121 47.2575C6.49121 47.4185 6.55006 47.574 6.65668 47.6946C6.7633 47.8152 6.91035 47.8928 7.07013 47.9125Z" fill="white"/>
<path fill-rule="evenodd" clip-rule="evenodd" d="M4.31 43.2923C4.46117 43.2923 4.60618 43.2323 4.71307 43.1254C4.81997 43.0185 4.88 42.8735 4.88 42.7224C4.88 42.5712 4.81997 42.4262 4.71307 42.3193C4.60618 42.2124 4.46117 42.1523 4.31 42.1523C4.15882 42.1523 4.01382 42.2124 3.90692 42.3193C3.80003 42.4262 3.73999 42.5712 3.73999 42.7224C3.73999 42.8735 3.80003 43.0185 3.90692 43.1254C4.01382 43.2323 4.15882 43.2923 4.31 43.2923Z" fill="white"/>
<path fill-rule="evenodd" clip-rule="evenodd" d="M96.3101 22.5425C96.5753 22.5425 96.8296 22.4371 97.0172 22.2496C97.2047 22.0621 97.3101 21.8077 97.3101 21.5425C97.3101 21.2773 97.2047 21.0229 97.0172 20.8354C96.8296 20.6479 96.5753 20.5425 96.3101 20.5425C96.0448 20.5425 95.7905 20.6479 95.603 20.8354C95.4154 21.0229 95.3101 21.2773 95.3101 21.5425C95.3101 21.8077 95.4154 22.0621 95.603 22.2496C95.7905 22.4371 96.0448 22.5425 96.3101 22.5425Z" fill="white"/>
<path fill-rule="evenodd" clip-rule="evenodd" d="M93.2502 18.3524C93.4278 18.3315 93.5915 18.2461 93.7104 18.1124C93.8292 17.9788 93.8949 17.8062 93.8949 17.6273C93.8949 17.4485 93.8292 17.2759 93.7104 17.1422C93.5915 17.0086 93.4278 16.9232 93.2502 16.9023C93.0726 16.9232 92.9088 17.0086 92.79 17.1422C92.6711 17.2759 92.6055 17.4485 92.6055 17.6273C92.6055 17.8062 92.6711 17.9788 92.79 18.1124C92.9088 18.2461 93.0726 18.3315 93.2502 18.3524Z" fill="white"/>
<path fill-rule="evenodd" clip-rule="evenodd" d="M92.9501 11.6325C93.1251 11.6325 93.293 11.563 93.4167 11.4392C93.5405 11.3154 93.61 11.1475 93.61 10.9725C93.61 10.7975 93.5405 10.6296 93.4167 10.5058C93.293 10.382 93.1251 10.3125 92.9501 10.3125C92.775 10.3125 92.6072 10.382 92.4834 10.5058C92.3596 10.6296 92.29 10.7975 92.29 10.9725C92.29 11.1475 92.3596 11.3154 92.4834 11.4392C92.6072 11.563 92.775 11.6325 92.9501 11.6325Z" fill="white"/>
<path fill-rule="evenodd" clip-rule="evenodd" d="M0.720093 69.7422C0.522057 69.7643 0.339156 69.8586 0.206299 70.0071C0.0734421 70.1557 0 70.3479 0 70.5472C0 70.7464 0.0734421 70.9387 0.206299 71.0872C0.339156 71.2358 0.522057 71.3301 0.720093 71.3522C0.918129 71.3301 1.10109 71.2358 1.23395 71.0872C1.3668 70.9387 1.44025 70.7464 1.44025 70.5472C1.44025 70.3479 1.3668 70.1557 1.23395 70.0071C1.10109 69.8586 0.918129 69.7643 0.720093 69.7422Z" fill="white"/>
<path fill-rule="evenodd" clip-rule="evenodd" d="M118.05 65.8223C117.84 65.8223 117.64 65.9055 117.491 66.0536C117.343 66.2018 117.26 66.4027 117.26 66.6122C117.26 66.8218 117.343 67.0227 117.491 67.1709C117.64 67.319 117.84 67.4023 118.05 67.4023C118.26 67.4023 118.46 67.319 118.609 67.1709C118.757 67.0227 118.84 66.8218 118.84 66.6122C118.84 66.4027 118.757 66.2018 118.609 66.0536C118.46 65.9055 118.26 65.8223 118.05 65.8223Z" fill="white"/>
<path fill-rule="evenodd" clip-rule="evenodd" d="M119.56 70.4727C119.395 70.4928 119.243 70.5725 119.133 70.6969C119.023 70.8212 118.962 70.9816 118.962 71.1476C118.962 71.3137 119.023 71.4741 119.133 71.5984C119.243 71.7228 119.395 71.8026 119.56 71.8227C119.725 71.8026 119.877 71.7228 119.987 71.5984C120.097 71.4741 120.158 71.3137 120.158 71.1476C120.158 70.9816 120.097 70.8212 119.987 70.6969C119.877 70.5725 119.725 70.4928 119.56 70.4727Z" fill="white"/>
<path fill-rule="evenodd" clip-rule="evenodd" d="M123.79 70.3823C123.586 70.3823 123.39 70.4634 123.246 70.6078C123.101 70.7523 123.02 70.9481 123.02 71.1523C123.02 71.3565 123.101 71.5524 123.246 71.6968C123.39 71.8412 123.586 71.9223 123.79 71.9223C123.994 71.9223 124.19 71.8412 124.334 71.6968C124.479 71.5524 124.56 71.3565 124.56 71.1523C124.56 70.9481 124.479 70.7523 124.334 70.6078C124.19 70.4634 123.994 70.3823 123.79 70.3823Z" fill="white"/>
</svg>
