<svg width="18" height="17" viewBox="0 0 18 17" fill="none" xmlns="http://www.w3.org/2000/svg">
<path d="M9 5.3125C8.36957 5.3125 7.7533 5.49944 7.22912 5.84969C6.70494 6.19994 6.29639 6.69776 6.05513 7.2802C5.81388 7.86264 5.75076 8.50354 5.87375 9.12185C5.99674 9.74016 6.30032 10.3081 6.7461 10.7539C7.19188 11.1997 7.75984 11.5033 8.37815 11.6263C8.99646 11.7492 9.63736 11.6861 10.2198 11.4449C10.8022 11.2036 11.3001 10.7951 11.6503 10.2709C12.0006 9.7467 12.1875 9.13043 12.1875 8.5C12.1866 7.65489 11.8505 6.84465 11.2529 6.24707C10.6554 5.64949 9.84511 5.31338 9 5.3125ZM9 10.625C8.57971 10.625 8.16887 10.5004 7.81941 10.2669C7.46996 10.0334 7.19759 9.70149 7.03676 9.3132C6.87592 8.92491 6.83384 8.49764 6.91583 8.08543C6.99782 7.67322 7.20021 7.29458 7.4974 6.9974C7.79458 6.70021 8.17322 6.49782 8.58543 6.41583C8.99764 6.33384 9.42491 6.37592 9.8132 6.53676C10.2015 6.69759 10.5334 6.96996 10.7669 7.31941C11.0004 7.66887 11.125 8.07971 11.125 8.5C11.125 9.06359 10.9011 9.60409 10.5026 10.0026C10.1041 10.4011 9.56359 10.625 9 10.625ZM12.1875 1.59375H5.8125C4.82655 1.5948 3.88128 1.98694 3.18411 2.68411C2.48694 3.38128 2.0948 4.32655 2.09375 5.3125V11.6875C2.0948 12.6735 2.48694 13.6187 3.18411 14.3159C3.88128 15.0131 4.82655 15.4052 5.8125 15.4062H12.1875C13.1735 15.4052 14.1187 15.0131 14.8159 14.3159C15.5131 13.6187 15.9052 12.6735 15.9062 11.6875V5.3125C15.9052 4.32655 15.5131 3.38128 14.8159 2.68411C14.1187 1.98694 13.1735 1.5948 12.1875 1.59375ZM14.8438 11.6875C14.8438 12.392 14.5639 13.0676 14.0658 13.5658C13.5676 14.0639 12.892 14.3438 12.1875 14.3438H5.8125C5.10802 14.3438 4.43239 14.0639 3.93425 13.5658C3.4361 13.0676 3.15625 12.392 3.15625 11.6875V5.3125C3.15625 4.60802 3.4361 3.93239 3.93425 3.43425C4.43239 2.9361 5.10802 2.65625 5.8125 2.65625H12.1875C12.892 2.65625 13.5676 2.9361 14.0658 3.43425C14.5639 3.93239 14.8438 4.60802 14.8438 5.3125V11.6875ZM13.25 5.04688C13.25 5.20448 13.2033 5.35855 13.1157 5.48959C13.0281 5.62064 12.9037 5.72278 12.7581 5.78309C12.6125 5.84341 12.4522 5.85919 12.2977 5.82844C12.1431 5.79769 12.0011 5.7218 11.8896 5.61035C11.7782 5.49891 11.7023 5.35692 11.6716 5.20234C11.6408 5.04776 11.6566 4.88753 11.7169 4.74192C11.7772 4.59631 11.8794 4.47186 12.0104 4.3843C12.1415 4.29674 12.2955 4.25 12.4531 4.25C12.6645 4.25 12.8672 4.33396 13.0166 4.4834C13.166 4.63284 13.25 4.83553 13.25 5.04688Z" fill="white"/>
</svg>
