<svg width="14" height="13" viewBox="0 0 14 13" fill="none" xmlns="http://www.w3.org/2000/svg">
<path d="M12.6263 1.27624L1.37193 5.33675L4.71001 6.62435C5.68573 7.00017 6.46093 7.72022 6.86534 8.62636L8.252 11.7253L12.6263 1.27624ZM13.903 1.714L9.52875 12.1644C9.25225 12.8255 8.45662 13.1638 7.75153 12.9218C7.57973 12.8629 7.42289 12.7716 7.29085 12.6538C7.15881 12.5359 7.05442 12.394 6.98424 12.2369L5.59689 9.13665C5.327 8.53286 4.81015 8.05315 4.15977 7.80284L0.822381 6.51523C0.12836 6.24757 -0.188236 5.50363 0.115226 4.85277C0.189778 4.69368 0.297478 4.54984 0.432127 4.42955C0.566777 4.30926 0.725717 4.21488 0.899802 4.15184L12.1541 0.090049C12.3986 -0.00118956 12.6666 -0.0237076 12.9248 0.025293C13.1829 0.0742937 13.4199 0.192653 13.6062 0.365663C13.7925 0.538673 13.92 0.758707 13.9728 0.998424C14.0255 1.23814 14.0013 1.48697 13.903 1.714Z" fill="white"/>
</svg>
