<svg width="75" height="68" viewBox="0 0 75 68" fill="none" xmlns="http://www.w3.org/2000/svg">
<path fill-rule="evenodd" clip-rule="evenodd" d="M74.3595 39.8742C74.4131 39.8889 74.4694 39.8894 74.5232 39.8759C74.577 39.8623 74.6264 39.8351 74.6666 39.7968C74.7068 39.7586 74.7365 39.7106 74.7527 39.6575C74.7689 39.6045 74.7711 39.5481 74.7592 39.4939C74.3982 37.5602 72.9737 35.4072 70.9561 34.666C71.2202 34.4224 71.4658 34.1595 71.6909 33.8796C72.5601 32.8941 73.0352 31.6225 73.0252 30.3085C73.023 30.2595 73.0099 30.2116 72.9867 30.1683C72.9635 30.125 72.931 30.0874 72.8914 30.0584C72.8518 30.0293 72.8063 30.0095 72.7581 30.0004C72.7098 29.9912 72.6602 29.993 72.6127 30.0056C72.2124 30.1626 71.8385 30.38 71.504 30.6502C72.5998 28.6519 73.1735 26.2025 72.4064 24.1334C72.3872 24.0733 72.3494 24.0209 72.2984 23.9838C72.2474 23.9467 72.1859 23.9268 72.1228 23.9271C70.9883 23.9271 70.1891 26.1831 69.8345 27.0147C69.7507 27.2338 69.6798 27.4594 69.6154 27.6593C69.494 27.5597 69.367 27.4671 69.235 27.3821C69.3813 26.9826 69.4016 26.5478 69.2933 26.1364C69.1849 25.725 68.9531 25.3566 68.6291 25.0809C68.6682 25.0871 68.7082 25.0787 68.7415 25.0573C68.7748 25.0359 68.799 25.003 68.8096 24.9649C69.0087 24.2168 68.9256 23.4217 68.5761 22.731C68.2266 22.0404 67.6352 21.5025 66.9145 21.2198C65.3095 20.5752 60.0819 20.0402 61.7191 17.4554C61.7455 17.4149 61.761 17.3683 61.7643 17.32C62.5731 17.4715 63.3735 17.6651 64.1621 17.9002C65.7156 18.4029 66.1797 19.2538 66.4827 20.7106C66.5278 20.9297 66.863 20.9104 66.921 20.7106C67.1161 20.1513 67.0931 19.539 66.8565 18.996C68.0079 19.5727 69.2818 19.8624 70.5694 19.8404C70.7563 19.8404 70.9561 19.6535 70.8723 19.4601C70.1955 17.8293 68.7903 15.541 67.0048 14.7481C68.2659 14.2 69.3728 13.3499 70.2277 12.2729C70.2607 12.2199 70.2748 12.1574 70.2677 12.0954C70.2607 12.0334 70.233 11.9755 70.189 11.9313C69.177 11.1642 67.9781 11.4156 66.8952 12.086C66.9752 11.3307 66.8984 10.567 66.6696 9.8428C66.5319 9.37422 66.2613 8.95559 65.8907 8.63757C65.52 8.31954 65.0652 8.11575 64.5811 8.05084C65.3417 6.02683 64.0783 3.53871 63.466 1.49536C63.4482 1.43918 63.413 1.39014 63.3655 1.35532C63.318 1.3205 63.2606 1.30173 63.2017 1.30173C63.1428 1.30173 63.0854 1.3205 63.0379 1.35532C62.9903 1.39014 62.9552 1.43918 62.9374 1.49536C62.0672 3.66118 61.4484 6.13641 62.9825 8.17976C63.0057 8.20851 63.0341 8.23257 63.0663 8.25066C62.9374 8.29578 62.8149 8.3409 62.686 8.39891C62.3895 8.54717 62.6538 8.94682 62.9439 8.8179C63.1318 8.73805 63.3258 8.67339 63.524 8.62452C63.3757 8.88881 63.2146 9.15953 63.0212 9.4367H62.9374C62.8741 9.45484 62.8199 9.49595 62.7853 9.55199C62.7507 9.60802 62.7383 9.67495 62.7505 9.73966C62.6622 9.66159 62.5696 9.58843 62.4733 9.5205C62.6131 9.07735 62.5972 8.59972 62.4282 8.16687C62.3345 7.92065 62.1844 7.69986 61.9899 7.52228C61.2228 6.04616 58.5929 5.29199 57.1361 5.9946C57.6076 4.08733 57.5899 2.09187 57.0845 0.193286C57.0685 0.147988 57.0415 0.10738 57.0059 0.0751154C56.9702 0.0428507 56.9272 0.0199382 56.8805 0.00843453C56.8339 -0.00306913 56.7851 -0.00280129 56.7386 0.00921155C56.6921 0.0212244 56.6492 0.0446076 56.614 0.0772596C55.1765 1.84988 55.3248 4.22842 56.3819 6.1493C56.406 6.19096 56.4419 6.22459 56.4851 6.24599C56.4851 6.33623 56.4851 6.43292 56.4851 6.52316C56.3886 6.65029 56.3125 6.79164 56.2595 6.94214H56.2143C56.1692 4.42824 53.578 3.0746 51.3026 2.20441C51.2551 2.19185 51.2054 2.19007 51.1572 2.19921C51.109 2.20835 51.0634 2.22817 51.0238 2.25723C50.9843 2.28629 50.9517 2.32384 50.9286 2.36712C50.9054 2.4104 50.8922 2.45832 50.89 2.50736C50.8127 4.87945 53.2299 6.70365 55.5311 7.36113L55.6084 7.9477C55.6471 8.19265 56.0532 8.17331 56.1112 7.9477C56.1112 7.83168 56.1112 7.72854 56.1628 7.61896C56.1563 7.70694 56.1563 7.79527 56.1628 7.88324C56.195 8.21843 56.7429 8.22488 56.7171 7.88324C56.707 7.76959 56.707 7.65527 56.7171 7.54161C56.7546 7.52682 56.788 7.50322 56.8145 7.47281C56.8409 7.4424 56.8597 7.40607 56.8692 7.36688C56.8787 7.3277 56.8786 7.28681 56.8689 7.24766C56.8593 7.20852 56.8404 7.17227 56.8138 7.14197C57.1425 6.33623 58.1932 6.16863 59.1795 6.38135C59.6971 6.48007 60.1796 6.71353 60.5782 7.05817C60.257 7.09373 59.9436 7.18078 59.65 7.316C59.3283 7.44119 59.0424 7.64371 58.8175 7.90566C58.5927 8.16761 58.4358 8.48092 58.3608 8.8179C58.2641 9.63008 59.0054 10.1071 59.7338 10.3198C59.7203 10.5855 59.7398 10.8518 59.7918 11.1126C59.8563 11.4865 60.4364 11.3254 60.3848 10.9515C60.2559 10.1844 60.4815 9.46893 61.4162 9.73321C61.55 9.77156 61.6796 9.82339 61.8029 9.88792C61.4226 10.1973 60.2559 11.3254 61.3388 11.5961C61.5128 11.6352 61.6934 11.6352 61.8674 11.5961C61.8502 11.8655 61.8654 12.136 61.9125 12.4018C61.9963 12.7886 62.6151 12.621 62.5571 12.2342C62.5409 11.9422 62.5409 11.6496 62.5571 11.3576C62.7704 11.2391 62.9501 11.0683 63.0792 10.8612C63.1613 10.7267 63.1975 10.5691 63.1824 10.4122C63.1673 10.2553 63.1017 10.1075 62.9954 9.99105C63.036 9.99705 63.0773 9.99705 63.1179 9.99105C64.1492 9.70743 64.8325 10.1651 64.7616 11.2029C64.7131 11.6303 64.5481 12.0361 64.2846 12.376C63.9752 12.8015 63.4466 12.9497 63.105 13.3171C63.082 13.339 63.0654 13.3667 63.057 13.3973C63.0486 13.4279 63.0487 13.4602 63.0573 13.4907C63.066 13.5212 63.0828 13.5488 63.1059 13.5705C63.1291 13.5922 63.1578 13.6071 63.1888 13.6136C64.536 13.8457 65.4255 11.9893 65.4255 10.9644C65.4356 10.744 65.3984 10.5239 65.3164 10.3191C65.2344 10.1142 65.1096 9.92928 64.9502 9.77665C64.7909 9.62403 64.6007 9.50725 64.3925 9.43416C64.1843 9.36108 63.9629 9.33337 63.7431 9.35291C63.9724 9.13046 64.1718 8.8791 64.3362 8.60518C64.7965 8.67937 65.2224 8.89476 65.555 9.22156C65.8875 9.54836 66.1103 9.97042 66.1926 10.4294C66.3538 11.0901 66.3538 11.7798 66.1926 12.4405C66.1926 12.5372 66.1281 12.621 66.0959 12.7112C65.4069 13.3045 64.8267 14.0135 64.3813 14.8061C64.2015 14.8856 64.029 14.9805 63.8656 15.0898C63.8434 15.1034 63.8237 15.1208 63.8076 15.1413C63.2554 14.7879 62.6288 14.5672 61.977 14.4967C62.0011 14.4702 62.0149 14.4359 62.0156 14.4C62.1123 12.6532 60.9005 11.7895 59.1923 11.609C56.7945 11.3511 53.8938 12.5178 52.1341 10.5583H52.205C54.8865 10.1844 56.8783 9.61719 59.2504 11.2029C59.4179 11.3189 59.6049 11.1062 59.5146 10.9515C58.754 9.66231 57.3359 9.38514 55.892 9.41092C55.9024 9.37952 55.9024 9.34564 55.892 9.31424C55.067 7.15486 53.6166 6.96793 51.9729 7.38047C51.6307 7.04502 51.2188 6.78909 50.7665 6.63089C50.3142 6.47269 49.8326 6.4161 49.3559 6.46514C48.6948 6.06616 47.9606 5.80319 47.1965 5.69164C46.1979 5.46854 45.1584 5.50852 44.1798 5.80766C44.1429 5.81694 44.1086 5.83448 44.0794 5.85897C44.0503 5.88345 44.0271 5.91423 44.0116 5.94899C43.996 5.98375 43.9886 6.02159 43.9899 6.05963C43.9911 6.09768 44.0009 6.13495 44.0187 6.16863C43.7543 6.24599 43.4975 6.3474 43.2516 6.47159C43.2635 6.4452 43.2661 6.4156 43.2591 6.38755C43.2521 6.35949 43.2358 6.3346 43.213 6.31689C42.317 5.59495 40.7313 5.6723 39.6226 5.97526C36.3996 6.05906 35.0718 10.5647 31.7393 10.7839C31.8231 10.6808 31.9197 10.5905 32.0035 10.4809C32.6481 9.72677 33.2154 8.94682 33.8922 8.23777C34.93 7.13552 36.1289 6.76166 37.5212 6.2202C37.56 6.20912 37.5935 6.18442 37.6156 6.15063C37.6376 6.11684 37.6467 6.07624 37.6412 6.03626C37.6358 5.99629 37.616 5.95964 37.5857 5.93304C37.5554 5.90644 37.5165 5.89168 37.4761 5.89146C36.4436 5.8206 35.4185 6.10991 34.5755 6.71009C34.5905 6.6767 34.597 6.64007 34.5943 6.60353C34.5916 6.567 34.5797 6.53172 34.5598 6.50095C34.54 6.47017 34.5127 6.44487 34.4805 6.42735C34.4483 6.40984 34.4123 6.40067 34.3756 6.40069C32.848 6.20086 31.23 7.34179 30.1407 8.24421C29.5458 8.74034 29.021 9.31498 28.5808 9.95238C28.6666 9.02895 28.6903 8.1008 28.6517 7.1742C28.647 7.12193 28.6279 7.07199 28.5965 7.02993C28.5651 6.98788 28.5227 6.95536 28.4739 6.93598C28.4251 6.91661 28.3719 6.91114 28.3202 6.9202C28.2686 6.92925 28.2204 6.95247 28.1811 6.98726C26.8 8.2306 25.7951 9.83622 25.2805 11.6219C24.855 10.0684 24.2169 8.51494 22.9664 7.53517C22.9301 7.5013 22.8859 7.47708 22.8378 7.46474C22.7898 7.45239 22.7394 7.4523 22.6913 7.46449C22.6431 7.47668 22.5989 7.50075 22.5625 7.5345C22.5261 7.56824 22.4987 7.61058 22.4829 7.65764C22.221 8.67608 22.2257 9.74482 22.4967 10.7609C22.7676 11.777 23.2957 12.7062 24.03 13.4589L23.9591 13.4267C23.4236 13.2585 22.858 13.2089 22.3014 13.2812C21.7449 13.3536 21.2107 13.5462 20.7361 13.8457C21.7417 12.8015 22.0897 11.0997 22.1155 9.78478C22.1122 9.70556 22.0779 9.63081 22.02 9.57658C21.9622 9.52235 21.8854 9.49296 21.8061 9.49472C19.6725 9.61075 19.0022 12.2858 19.3954 13.9424C19.4078 14.0016 19.4417 14.054 19.4904 14.0897C19.5392 14.1254 19.5995 14.1418 19.6596 14.1358C19.5501 14.3291 19.8014 14.5354 19.9884 14.4323L20.0464 14.3936C19.7896 14.6332 19.5721 14.9116 19.4018 15.2187C19.4018 13.4203 18.8668 11.5381 18.8088 9.78478C18.803 9.7271 18.7814 9.67212 18.7465 9.62587C18.7115 9.57962 18.6645 9.54389 18.6106 9.52258C18.5566 9.50128 18.4979 9.49523 18.4408 9.5051C18.3836 9.51496 18.3303 9.54036 18.2867 9.57851C17.8976 9.9841 17.5976 10.4665 17.4058 10.9948C17.214 11.5231 17.1347 12.0856 17.1729 12.6463C17.2111 13.207 17.3661 13.7536 17.6278 14.2509C17.8895 14.7483 18.2522 15.1855 18.6928 15.5345C18.6928 15.7086 18.7379 15.8826 18.7637 16.0566C17.597 14.5676 16.1402 13.2849 14.0517 13.3687C14.0028 13.3672 13.9543 13.3771 13.9099 13.3975C13.8655 13.418 13.8264 13.4485 13.7958 13.4866C13.7652 13.5247 13.7438 13.5694 13.7334 13.6172C13.723 13.665 13.7239 13.7145 13.7359 13.7619C13.7359 13.8521 13.8068 13.9295 13.839 14.0197C13.8077 14.0464 13.7826 14.0795 13.7654 14.1167C13.7482 14.154 13.7393 14.1946 13.7393 14.2357C13.7393 14.2767 13.7482 14.3173 13.7654 14.3546C13.7826 14.3919 13.8077 14.425 13.839 14.4516C13.9486 14.5354 14.0582 14.6321 14.1677 14.7288C14.4503 15.2226 14.8093 15.6686 15.2313 16.0502C14.8428 15.8957 14.4183 15.8548 14.0074 15.9324C13.5965 16.01 13.2162 16.2029 12.9108 16.4885C13.4223 13.7246 13.0361 10.8695 11.8085 8.3409C11.7797 8.29721 11.7404 8.26138 11.6943 8.23663C11.6482 8.21187 11.5966 8.19897 11.5443 8.19909H11.3509C11.2876 8.1978 11.2256 8.21727 11.1744 8.25451C11.1232 8.29176 11.0855 8.34473 11.0673 8.40536C10.4613 10.6743 10.3002 12.9175 11.1704 14.9673C10.7192 14.5354 10.2293 14.1293 9.7523 13.7297C8.94799 13.0045 8.00512 12.4497 6.98056 12.0989C6.93088 12.0851 6.87848 12.0846 6.82852 12.0973C6.77857 12.11 6.73278 12.1355 6.69569 12.1713C6.6586 12.2071 6.63148 12.2519 6.61701 12.3014C6.60253 12.3509 6.60119 12.4032 6.61314 12.4534C6.90321 14.3485 8.99168 15.3927 10.6934 15.9793H10.7321C10.4045 15.9942 10.0809 16.0572 9.77164 16.1662C8.83837 16.4859 8.05874 17.1436 7.58648 18.0097C7.46982 18.2455 7.39977 18.5016 7.3802 18.7639C6.38754 17.2943 4.66648 16.6368 3.24838 15.4958C3.20467 15.4536 3.14971 15.4249 3.09008 15.4131C3.03044 15.4013 2.96868 15.407 2.9122 15.4295C2.85572 15.4519 2.80691 15.4902 2.77165 15.5397C2.73638 15.5892 2.71615 15.6478 2.71338 15.7086C2.61024 17.9582 4.85341 19.2151 6.76785 20.0402C6.27857 19.9916 5.78678 20.1038 5.36692 20.3596C4.94706 20.6155 4.62198 21.0012 4.44088 21.4583C4.19746 21.869 4.10606 22.3522 4.18264 22.8235C4.25922 23.2948 4.49891 23.7241 4.85985 24.0367C4.652 24.2498 4.49258 24.5052 4.39246 24.7855C4.29235 25.0658 4.25389 25.3645 4.27973 25.661C4.29898 26.1693 4.45611 26.6627 4.7343 27.0885C5.01249 27.5143 5.40126 27.8565 5.85897 28.0782C4.04029 27.4483 2.06702 27.4212 0.231704 28.0009C0.172301 28.0163 0.118825 28.049 0.0780711 28.0949C0.0373175 28.1408 0.01113 28.1978 0.00283815 28.2586C-0.00545372 28.3194 0.00451918 28.3813 0.0314993 28.4364C0.0584794 28.4915 0.101248 28.5374 0.154357 28.5681C1.13692 29.0999 2.22672 29.4032 3.3427 29.4557C4.45869 29.5081 5.57215 29.3083 6.60026 28.8711H6.70338C5.74115 29.7294 4.97402 30.7839 4.45365 31.9636C3.93328 33.1433 3.67176 34.4209 3.68671 35.7102C3.6904 35.7727 3.71188 35.8329 3.7486 35.8836C3.78533 35.9343 3.83578 35.9735 3.89401 35.9965C3.95225 36.0195 4.01584 36.0254 4.07732 36.0135C4.1388 36.0016 4.19561 35.9724 4.24105 35.9293C6.39398 33.9956 7.89588 31.862 8.10859 29.1289L8.32775 28.8131C8.61397 29.5765 9.19113 30.1954 9.93278 30.5341C10.2244 30.6694 10.5398 30.746 10.861 30.7597C9.18681 31.9105 8.00468 33.6469 7.5478 35.6264C7.53719 35.6662 7.53463 35.7077 7.54027 35.7485C7.54591 35.7893 7.55964 35.8286 7.58065 35.864C7.60167 35.8994 7.62954 35.9303 7.66263 35.9548C7.69573 35.9793 7.73339 35.9969 7.7734 36.0067C10.1068 36.5288 11.7118 34.4661 12.5756 32.4163C12.5849 32.6918 12.6194 32.9658 12.6787 33.235C12.6359 33.2313 12.5929 33.2412 12.556 33.2631C12.519 33.2851 12.4898 33.3181 12.4725 33.3574C11.6326 35.0644 11.2653 36.9652 11.4089 38.8622C11.4089 39.191 11.9568 39.3006 12.0535 38.9396C12.2404 38.1854 12.5369 37.3926 12.7819 36.5933C13.0398 37.1762 13.4253 37.6939 13.9099 38.1081C13.8686 38.1368 13.8371 38.1776 13.8198 38.2249C13.8025 38.2722 13.8002 38.3237 13.8132 38.3724C14.005 39.1996 14.2859 40.0036 14.6512 40.7702C14.6322 40.79 14.6189 40.8145 14.6125 40.8411C14.0398 42.8185 14.1326 44.9293 14.8768 46.8487C14.8316 46.8401 14.7849 46.8469 14.744 46.8679C14.7032 46.889 14.6705 46.923 14.6512 46.9647C14.3326 47.6994 14.1753 48.4937 14.1897 49.2943C14.2042 50.0949 14.3901 50.8831 14.735 51.6058C14.7097 51.6144 14.6865 51.6279 14.6665 51.6456C14.6466 51.6633 14.6304 51.6849 14.6189 51.7089C14.2597 52.4286 14.0787 53.2241 14.091 54.0284C14.1033 54.8327 14.3087 55.6223 14.6899 56.3306C14.3706 57.0999 14.2269 57.9308 14.2693 58.7626C14.3117 59.5944 14.539 60.4064 14.9348 61.1393C14.8059 62.9248 14.2 65.1228 14.9348 66.8117C12.7938 67.0673 10.6299 67.0673 8.4889 66.8117C8.19239 66.7665 8.06347 67.1662 8.35998 67.25C13.4265 68.6487 18.6734 66.6054 23.8301 67.9913C24.0815 68.0622 24.262 67.6819 24.0106 67.5723C22.0828 66.8158 20.0111 66.4965 17.945 66.6376C17.9644 66.4017 17.9644 66.1645 17.945 65.9286C18.3585 64.7428 18.4035 63.4597 18.0739 62.248C18.1449 61.884 18.1449 61.5097 18.0739 61.1457C18.2768 60.3259 18.3227 59.4751 18.2093 58.6383C18.2327 58.6236 18.2524 58.6038 18.2669 58.5803C18.2815 58.5568 18.2904 58.5304 18.2931 58.5029C18.3246 57.9033 18.2593 57.3026 18.0997 56.7238C18.4895 55.3908 18.4693 53.9714 18.0417 52.65C18.0514 52.631 18.0564 52.6101 18.0564 52.5888C18.0564 52.5675 18.0514 52.5465 18.0417 52.5275C17.7861 51.4518 17.4121 50.4076 16.9266 49.4142C16.9563 49.4135 16.9854 49.4055 17.0112 49.3909C17.0371 49.3762 17.0589 49.3555 17.0748 49.3304C17.394 48.569 17.5583 47.7516 17.5583 46.9261C17.5583 46.1005 17.394 45.2832 17.0748 44.5217C17.7581 43.0069 17.5196 41.0861 17.1135 39.5326C17.1016 39.4978 17.0842 39.4652 17.0619 39.4359C18.1027 39.5093 19.1337 39.1947 19.9562 38.5528C19.9562 38.656 19.9562 38.7655 19.9562 38.8687C19.3589 39.5467 18.9035 40.3375 18.6168 41.1944C18.3301 42.0513 18.2178 42.9569 18.2867 43.8578C18.2924 43.9185 18.3149 43.9764 18.3517 44.0251C18.3885 44.0737 18.4381 44.1112 18.495 44.1333C18.5518 44.1553 18.6137 44.1612 18.6737 44.1501C18.7336 44.139 18.7894 44.1115 18.8346 44.0705C19.5993 43.3522 20.1143 42.408 20.3042 41.3761C20.4381 42.0187 20.7029 42.6268 21.0822 43.1625C21.4615 43.6981 21.9471 44.1499 22.5087 44.4895C22.582 44.5307 22.6682 44.5423 22.7497 44.522C22.8312 44.5016 22.9018 44.4507 22.947 44.3799C23.3551 43.8249 23.5899 43.1616 23.622 42.4734C23.6542 41.7853 23.4821 41.103 23.1275 40.5124C23.793 40.8375 24.5424 40.95 25.274 40.8347C25.314 40.8249 25.3517 40.8073 25.3848 40.7828C25.4179 40.7582 25.4458 40.7274 25.4668 40.692C25.4878 40.6565 25.5015 40.6173 25.5072 40.5765C25.5128 40.5357 25.5102 40.4942 25.4996 40.4544C25.311 39.8871 24.9794 39.3779 24.5368 38.976C24.0943 38.5741 23.5556 38.2929 22.9728 38.1596C23.3494 38.0647 23.7028 37.8943 24.0116 37.6588C24.3204 37.4232 24.5781 37.1274 24.7692 36.7893C24.9603 36.4512 25.0807 36.0778 25.1231 35.6917C25.1656 35.3057 25.1292 34.915 25.0162 34.5435C24.9992 34.4943 24.9658 34.4525 24.9215 34.4252C24.8772 34.3978 24.8249 34.3866 24.7733 34.3935C24.7218 34.4003 24.6741 34.4247 24.6385 34.4626C24.6029 34.5005 24.5815 34.5496 24.5779 34.6015C24.4747 36.0647 24.1911 37.4699 22.3991 37.6891C22.168 37.7181 21.9341 37.7181 21.703 37.6891C21.692 37.657 21.6727 37.6283 21.6472 37.606C21.6216 37.5836 21.5906 37.5685 21.5572 37.5619C21.5239 37.5554 21.4895 37.5577 21.4573 37.5687C21.4252 37.5798 21.3966 37.599 21.3743 37.6246C21.22 37.5934 21.069 37.5481 20.923 37.4893C21.052 37.283 20.7554 37.0767 20.5814 37.2379L20.5169 37.2959C20.1268 37.0683 19.7763 36.7787 19.4792 36.4386C19.9163 36.2978 20.3028 36.0326 20.5913 35.6753C20.8799 35.3181 21.0579 34.8844 21.1035 34.4275C22.238 34.1245 23.0373 33.2994 22.7021 31.9974C22.6531 31.8089 22.5724 31.6302 22.4636 31.4688C22.441 31.1946 22.3712 30.9264 22.2573 30.6759C22.4653 30.4804 22.6225 30.237 22.715 29.9669C23.3619 30.372 23.9084 30.9186 24.3136 31.5655C24.5657 31.9184 24.7091 32.3374 24.7261 32.7709C24.7202 32.8861 24.6851 32.998 24.6243 33.0961C24.5634 33.1941 24.4787 33.2752 24.378 33.3317C24.2929 33.0267 24.183 32.7292 24.0493 32.4421C23.9397 32.1907 23.5014 32.3712 23.5916 32.6291C23.711 32.9646 23.791 33.3129 23.8301 33.6668L23.7141 33.7442C23.6938 33.7645 23.6794 33.7899 23.6722 33.8177C23.665 33.8455 23.6653 33.8747 23.6732 33.9023C23.6811 33.9299 23.6962 33.9549 23.717 33.9747C23.7378 33.9945 23.7635 34.0084 23.7915 34.0149H23.8495C23.8484 34.3872 23.7986 34.7578 23.7012 35.1172C23.669 35.2203 23.7979 35.3428 23.901 35.2654C24.1047 35.1222 24.2664 34.9272 24.3696 34.7006C24.4727 34.4739 24.5134 34.2239 24.4876 33.9762C24.7242 33.9299 24.949 33.8361 25.1484 33.7006C25.3478 33.565 25.5177 33.3905 25.6478 33.1875C25.7779 32.9845 25.8655 32.7573 25.9054 32.5195C25.9453 32.2817 25.9367 32.0383 25.8799 31.804C25.7369 31.1928 25.4532 30.6235 25.0515 30.1412C24.6498 29.6589 24.1411 29.277 23.5659 29.0258C23.2951 28.9098 23.0631 29.2772 23.3274 29.4125C24.1644 29.8439 24.8153 30.5659 25.158 31.443C25.3058 31.7518 25.3487 32.1003 25.2805 32.4357C25.2703 32.2714 25.24 32.1091 25.1902 31.9522C24.7439 30.8663 23.8968 29.9939 22.8246 29.5157C22.8601 29.2591 22.8601 28.9988 22.8246 28.7422C22.6431 27.8148 22.1659 26.9712 21.4645 26.3379C21.5805 26.3959 21.6837 26.4668 21.8061 26.5183C22.2009 26.6721 22.6292 26.719 23.0479 26.6545C23.4666 26.59 23.8609 26.4163 24.1911 26.1509C24.3818 25.9898 24.547 25.8008 24.681 25.5901C24.7455 27.9429 25.3836 30.6888 27.5365 31.7073C27.5847 31.7332 27.6386 31.7467 27.6933 31.7465C27.7481 31.7463 27.8019 31.7324 27.8499 31.7062C27.8979 31.6799 27.9386 31.6421 27.9683 31.5962C27.998 31.5502 28.0158 31.4976 28.02 31.443C28.2069 28.9936 28.3681 26.1251 26.5568 24.2043C26.9667 24.2775 27.3879 24.2555 27.7879 24.1398C28.1472 24.0453 28.4818 23.8742 28.7689 23.6384C29.0559 23.4025 29.2886 23.1074 29.451 22.7733C29.6099 22.4182 29.6611 22.0242 29.5981 21.6403C29.535 21.2564 29.3606 20.8995 29.0964 20.6139C29.366 20.3782 29.5854 20.0907 29.7416 19.7684C29.8977 19.4462 29.9874 19.0958 30.0053 18.7381C30.1702 18.8475 30.3077 18.9933 30.4072 19.1643C30.5067 19.3353 30.5655 19.527 30.579 19.7244C30.579 20.2852 29.8828 20.6268 29.5025 20.9362C29.3478 21.0651 29.5025 21.2649 29.683 21.2327C30.0633 21.1852 30.4163 21.0102 30.6844 20.7362C30.9525 20.4623 31.1198 20.1056 31.1591 19.7244C31.1914 19.0798 30.5854 18.5834 30.0182 18.2805C30.0091 18.0458 29.9767 17.8126 29.9215 17.5843C29.7464 16.9678 29.4323 16.3996 29.0031 15.9236C28.574 15.4475 28.0414 15.0763 27.4463 14.8384C28.8048 14.2676 30.0712 13.4987 31.2042 12.5565C31.2457 12.5156 31.2739 12.4631 31.2851 12.4059C31.2963 12.3487 31.29 12.2894 31.2671 12.2358C31.2441 12.1823 31.2055 12.1369 31.1564 12.1055C31.1072 12.0742 31.0498 12.0584 30.9915 12.0602C30.7625 12.0729 30.5344 12.0987 30.3083 12.1375C30.6102 11.8775 30.8985 11.6021 31.172 11.3125C31.354 11.3326 31.5369 11.3434 31.7199 11.3447C31.7032 11.3905 31.7032 11.4407 31.7199 11.4865C34.1049 19.9435 37.908 28.2458 43.619 35.1172C47.7573 40.0999 54.648 45.4306 61.7127 45.6562C61.8358 46.2112 62.107 46.7224 62.4974 47.1355C62.8879 47.5487 63.383 47.8483 63.9301 48.0025C59.9143 53.0368 55.776 58.4965 54.3966 64.7619C54.3821 64.8183 54.3905 64.8782 54.4202 64.9283C54.4498 64.9785 54.4981 65.0148 54.5545 65.0294C54.6109 65.0439 54.6708 65.0354 54.721 65.0058C54.7711 64.9762 54.8075 64.9279 54.822 64.8714C57.0136 59.0701 60.1399 54.2808 63.7109 49.3368C62.376 52.5237 61.3234 55.8216 60.5653 59.1926C60.5482 59.2559 60.557 59.3233 60.5896 59.3801C60.6222 59.4369 60.6761 59.4785 60.7394 59.4956C60.8026 59.5127 60.8701 59.5039 60.9269 59.4713C60.9837 59.4386 61.0252 59.3848 61.0423 59.3215C62.1252 55.4089 64.5231 51.4317 65.1161 47.4031L65.2966 47.1581C65.3136 47.1376 65.3264 47.114 65.3341 47.0885C65.3419 47.0631 65.3445 47.0363 65.3417 47.0099C65.5253 46.9595 65.6965 46.8717 65.8445 46.752C65.6544 47.1334 65.5582 47.5546 65.5638 47.9806C65.5694 48.4067 65.6767 48.8253 65.8767 49.2015C66.0161 49.4438 66.178 49.6726 66.3602 49.8847C66.9468 51.4898 65.9154 53.069 66.6245 54.6096C65.5416 56.2984 64.117 58.2128 65.7349 59.9661C65.374 60.5591 65.2192 61.1779 66.0701 61.5131L66.2893 61.5905C65.8252 62.9506 65.2644 65.6578 66.4762 66.8117C62.267 66.3604 58.0965 65.3936 53.8358 65.6256C47.8927 65.9479 42.0462 68.8486 36.1611 66.4442C35.8388 66.3153 35.5552 66.7536 35.884 66.9019C40.6346 68.9968 46.1201 67.5465 51.0125 66.6698C58.103 65.3807 64.897 68.6036 71.9037 67.4691C72.2002 67.424 72.1293 66.9535 71.8392 66.9792C70.3353 67.0701 68.8266 67.0421 67.3271 66.8955C66.8155 66.1831 66.5059 65.3457 66.4311 64.4718C66.4092 63.5469 66.5443 62.6249 66.8307 61.7452C67.1064 61.7926 67.3699 61.8945 67.6056 62.045C67.8414 62.1956 68.0447 62.3917 68.2037 62.6218C69.1835 63.911 68.294 65.1615 67.7783 66.4314C67.7009 66.6183 67.991 66.773 68.1263 66.6247C69.2866 65.3356 69.6798 63.7885 68.7709 62.3189C68.4865 61.8123 68.0287 61.4254 67.4818 61.2295C66.6438 60.9781 65.9799 60.9846 66.1926 60.2755C66.6946 60.4086 67.2169 60.4479 67.7332 60.3915C68.1857 60.3528 68.6407 60.3528 69.0932 60.3915C69.9183 60.514 69.8345 61.2875 69.7378 61.9321C69.6874 61.7527 69.6272 61.5763 69.5573 61.4035C69.4413 61.1264 68.9901 61.2295 69.0868 61.526C69.3267 62.253 69.4337 63.0172 69.4026 63.7821C69.364 64.6007 68.9385 65.2711 68.7581 66.051C68.7513 66.0909 68.7572 66.1319 68.7749 66.1682C68.7926 66.2045 68.8213 66.2344 68.8568 66.2536C68.8924 66.2728 68.9331 66.2804 68.9732 66.2753C69.0133 66.2701 69.0507 66.2526 69.0803 66.2251C70.073 65.3484 70.1761 63.8723 69.9183 62.5767C69.9522 62.5799 69.9863 62.5738 70.017 62.559C70.0477 62.5443 70.0737 62.5214 70.0924 62.4929C70.737 61.3455 70.5436 59.863 68.9643 59.7469C68.1715 59.6889 67.211 59.9145 66.4504 59.6438C66.4956 59.4504 66.2313 59.3215 66.0766 59.4698C64.7487 58.5867 66.2055 56.3693 67.0499 55.0479C67.1658 55.128 67.2864 55.2011 67.4109 55.267C68.9901 56.1566 68.5518 57.5489 68.1521 58.9928C68.144 59.043 68.153 59.0945 68.1778 59.139C68.2026 59.1834 68.2417 59.2181 68.2888 59.2375C68.3358 59.257 68.388 59.2599 68.4369 59.2459C68.4859 59.2319 68.5286 59.2017 68.5582 59.1604C69.2028 58.1999 69.6605 56.524 68.8547 55.5056C68.8547 55.5056 68.8547 55.5056 68.8934 55.5056C69.0842 55.2693 69.2244 54.9963 69.3054 54.7035C69.3863 54.4108 69.4063 54.1046 69.364 53.8038C69.5123 53.3759 69.5123 52.9104 69.364 52.4824C70.5565 51.1932 71.0786 49.3368 69.8667 47.8801C69.6226 47.6625 69.3492 47.4803 69.0546 47.3386C67.4689 46.4426 67.6107 45.1857 67.8685 43.7547C68.0165 43.0743 67.9809 42.3669 67.7654 41.7049C69.1448 43.0327 69.0546 44.5604 69.5122 46.3395C69.5281 46.3838 69.5586 46.4213 69.5987 46.4458C69.6388 46.4704 69.6861 46.4805 69.7328 46.4744C69.7794 46.4684 69.8226 46.4466 69.8552 46.4127C69.8878 46.3788 69.9078 46.3348 69.9119 46.2879C70.0073 45.262 69.9067 44.2273 69.6154 43.239L69.7894 43.4388C70.2535 45.8754 71.2526 48.4473 73.412 49.8847C73.4879 49.9261 73.5767 49.9371 73.6604 49.9156C73.7442 49.894 73.8166 49.8415 73.8632 49.7687C75.3329 47.2677 73.0961 44.2059 70.6918 42.7556C70.9626 42.5751 71.2204 42.3172 71.4267 42.1561C71.9101 41.7629 72.3871 41.3632 72.8383 40.9314C72.8821 40.8877 72.9119 40.8319 72.9237 40.7712C72.9355 40.7104 72.9288 40.6476 72.9046 40.5907C72.8803 40.5338 72.8395 40.4854 72.7874 40.452C72.7354 40.4185 72.6746 40.4013 72.6127 40.4028C71.8799 40.4299 71.1549 40.5624 70.4598 40.796C70.8348 39.6813 70.884 38.4827 70.6016 37.341C71.0217 37.9976 71.5719 38.5611 72.2182 38.9968C72.8645 39.4325 73.5933 39.7311 74.3595 39.8742ZM54.7189 5.42736L54.5255 5.15018C54.3321 4.89235 53.8809 5.15018 54.0743 5.40802L54.7189 6.39424C53.1719 5.67875 51.7344 4.53782 51.5282 2.97147C52.5511 3.31679 53.508 3.83336 54.3579 4.49915C54.673 4.76931 54.924 5.10619 55.0927 5.48537C55.0485 5.43139 54.9859 5.39562 54.9169 5.38492C54.8479 5.37421 54.7774 5.38933 54.7189 5.42736ZM56.5689 5.24687C56.2649 4.57293 56.1147 3.83979 56.1292 3.10061C56.1437 2.36144 56.3225 1.63475 56.6527 0.973239C56.8145 2.39483 56.7907 3.83144 56.5818 5.24687H56.5689ZM61.4226 9.11441C61.1988 9.05705 60.9643 9.05526 60.7396 9.10918C60.515 9.16311 60.3069 9.27111 60.1334 9.42381C60.0115 9.53001 59.9184 9.66525 59.8627 9.81701C59.4566 9.63653 58.941 9.32713 59.0119 8.86947C59.0822 8.64599 59.2015 8.44097 59.3609 8.26928C59.5203 8.09759 59.716 7.96352 59.9336 7.8768C60.3276 7.66052 60.7913 7.60951 61.2228 7.73499C61.442 8.01861 61.6482 8.32801 61.8674 8.65031C61.8674 8.85658 61.8674 9.07574 61.9318 9.2949C61.7722 9.21481 61.6062 9.14797 61.4355 9.09507L61.4226 9.11441ZM63.7947 8.08307L63.4531 8.15397C63.47 8.12339 63.4789 8.08901 63.4789 8.05406C63.4789 8.01911 63.47 7.98473 63.4531 7.95415C62.3959 6.40069 62.4088 4.15751 63.1372 2.40423C63.3564 3.2293 63.6593 4.0286 63.9236 4.84078C64.3019 5.88988 64.2603 7.04455 63.8076 8.06373L63.7947 8.08307ZM18.2093 10.6614C18.248 11.4865 18.3447 12.3116 18.4478 13.1366C18.5058 13.633 18.5445 14.1422 18.5896 14.645C18.1279 14.0947 17.8453 13.4164 17.7796 12.701C17.714 11.9857 17.8684 11.2673 18.2222 10.6421L18.2093 10.6614ZM7.34797 12.8853C8.47939 13.538 9.51608 14.3426 10.4291 15.2767C9.21728 14.7223 7.89588 14.0133 7.36087 12.8401L7.34797 12.8853ZM3.36441 16.3532C4.05412 16.8237 4.80185 17.2427 5.47222 17.739C5.43601 17.7728 5.41058 17.8165 5.39911 17.8647C5.38765 17.9128 5.39065 17.9633 5.40776 18.0097C5.5247 18.3676 5.68949 18.708 5.89765 19.0218C4.73738 18.3772 3.6287 17.5134 3.37731 16.308L3.36441 16.3532ZM1.15992 28.3876C2.16623 28.1944 3.2013 28.2076 4.20238 28.4263C4.55046 28.4908 4.89853 28.5939 5.25306 28.6842C3.88897 28.974 2.4697 28.8552 1.1728 28.3425L1.15992 28.3876ZM19.0022 43.065C19.0203 42.7509 19.0613 42.4385 19.1246 42.1303C19.1681 42.1252 19.21 42.1111 19.2478 42.0889C19.2855 42.0667 19.3182 42.0369 19.3438 42.0014C19.5494 41.7097 19.7265 41.3989 19.8724 41.0732C19.7332 41.7772 19.4405 42.4419 19.0151 43.0198L19.0022 43.065ZM24.8035 40.2803C24.0994 40.2637 23.4202 40.0169 22.8697 39.5777C22.5818 39.3612 22.3424 39.0867 22.1671 38.772C22.7042 38.7243 23.2433 38.8381 23.7153 39.0988C24.1873 39.3595 24.5707 39.7552 24.8164 40.2352L24.8035 40.2803ZM20.8844 38.8429C20.9027 38.8131 20.9158 38.7804 20.923 38.7462C22.4249 40.0354 23.7786 41.9692 22.657 43.8062C21.1938 42.7942 20.7232 40.9829 20.6459 39.2941L20.8844 38.8429ZM22.9084 8.28933C23.4904 8.91724 23.9398 9.65605 24.2298 10.4616C24.0429 10.3778 23.785 10.4616 23.8044 10.7001C23.8013 10.7258 23.8013 10.7518 23.8044 10.7775C23.8699 11.3614 24.0756 11.9209 24.4038 12.4083C24.5521 12.7757 24.7197 13.1367 24.9002 13.4912C23.5336 12.0795 22.5668 10.1522 22.9213 8.24421L22.9084 8.28933ZM19.911 13.691C19.6725 12.5178 20.0335 10.4681 21.4323 10.0749C21.3926 10.8282 21.218 11.5684 20.9166 12.26C20.6466 12.7797 20.3084 13.2609 19.911 13.691ZM23.9204 13.994C24.8041 14.3918 25.5428 15.0539 26.0346 15.8891C26.2433 16.165 26.3625 16.4982 26.3764 16.8438C26.3902 17.1895 26.2979 17.5311 26.112 17.8228C25.6071 17.6693 25.0753 17.6253 24.5521 17.6939C24.4891 17.703 24.4266 17.716 24.3652 17.7326C24.3786 17.3519 24.3076 16.9729 24.1571 16.6229C24.0067 16.273 23.7805 15.9607 23.495 15.7086C23.2896 15.5645 23.0466 15.4835 22.7959 15.4755C22.5451 15.4675 22.2975 15.5328 22.0833 15.6634C21.8628 15.7902 21.6873 15.9824 21.581 16.2134C21.4748 16.4444 21.4431 16.7028 21.4903 16.9526C21.6256 17.6875 22.3863 18.0935 23.0502 18.3385H23.1211C23.0625 18.4016 23.0106 18.4708 22.9664 18.5448C22.9455 18.4943 22.9095 18.4515 22.8632 18.4223C22.0261 17.8795 21.0352 17.6238 20.0399 17.6939C18.6219 15.3992 21.4967 12.9691 23.9462 13.994H23.9204ZM25.0742 19.415C24.7225 19.5275 24.4185 19.7544 24.2105 20.0595L24.1202 20.1111C23.9889 19.972 23.8802 19.8132 23.7979 19.6406C23.7823 19.6004 23.7589 19.5638 23.7289 19.5328C23.6989 19.5019 23.663 19.4773 23.6233 19.4605C23.5837 19.4436 23.541 19.4349 23.4979 19.4349C23.4549 19.4348 23.4122 19.4434 23.3725 19.4601C23.3371 19.2245 23.3917 18.9842 23.5255 18.7871C23.6593 18.5901 23.8624 18.4506 24.0944 18.3965C24.6256 18.2124 25.1985 18.1856 25.7446 18.3192C25.6608 18.4223 25.5705 18.5254 25.4674 18.635C25.4325 18.6707 25.4105 18.7171 25.4047 18.7667C25.399 18.8163 25.4099 18.8664 25.4357 18.9091C25.4615 18.9519 25.5008 18.9849 25.5473 19.0029C25.5939 19.021 25.6451 19.0231 25.693 19.0089C25.9775 18.9361 26.2378 18.7894 26.4472 18.5834C26.577 18.656 26.7 18.7401 26.8146 18.8348C26.9981 19.0045 27.1335 19.2197 27.207 19.4585C27.2806 19.6973 27.2898 19.9514 27.2336 20.1949C27.1954 20.4148 27.091 20.6178 26.9344 20.7768C26.7777 20.9358 26.5763 21.0431 26.3569 21.0844C26.3569 21.0844 26.3569 21.0844 26.3569 21.0393C26.3054 20.3496 26.1055 19.1636 25.1 19.415H25.0742ZM23.3531 18.1258C23.3684 18.0618 23.3598 17.9944 23.3289 17.9362C23.2981 17.8781 23.2471 17.8332 23.1855 17.8099C22.9388 17.74 22.7101 17.6173 22.5153 17.4504C22.3206 17.2834 22.1644 17.0762 22.0575 16.843C22.0246 16.7033 22.0361 16.5568 22.0904 16.4239C22.1447 16.2911 22.2391 16.1784 22.3605 16.1018C22.4823 16.0077 22.6319 15.9567 22.7859 15.9567C22.9399 15.9567 23.0895 16.0077 23.2113 16.1018C23.7141 16.5079 23.7463 17.2685 23.7979 17.8422C23.6492 17.93 23.5089 18.0314 23.3789 18.1451L23.3531 18.1258ZM19.086 17.926C18.4112 18.2223 17.8583 18.741 17.5196 19.3956C17.5159 18.6461 17.2794 17.9163 16.8428 17.3071C16.7493 17.1766 16.6481 17.0518 16.5398 16.9333C17.351 17.3778 18.2152 17.7179 19.1117 17.9453L19.086 17.926ZM9.95856 22.3478C10.1519 23.9335 12.2017 25.4548 13.6585 24.0044C15.1153 22.5541 12.7174 21.02 11.3058 21.0909C11.2259 21.0908 11.1491 21.1216 11.0914 21.1769C11.0337 21.2322 10.9997 21.3076 10.9964 21.3874C10.9769 21.5644 11.0015 21.7435 11.0678 21.9088C11.1342 22.0741 11.2402 22.2205 11.3767 22.3349C11.4262 22.3743 11.4894 22.3923 11.5523 22.385C11.6151 22.3778 11.6725 22.3459 11.7118 22.2963C11.7512 22.2467 11.7692 22.1835 11.7619 22.1207C11.7547 22.0578 11.7228 22.0004 11.6732 21.9611C11.6279 21.8784 11.6077 21.7843 11.6152 21.6904C11.9665 21.7257 12.3053 21.8396 12.6066 22.0237C12.9079 22.2079 13.1639 22.4574 13.3556 22.7539C13.8326 23.4952 12.711 23.9013 12.1566 23.94C11.8884 23.9209 11.6299 23.8317 11.407 23.6812C11.1841 23.5307 11.0047 23.3243 10.8868 23.0827C10.6543 22.6715 10.5584 22.1972 10.6129 21.728C10.6673 21.2589 10.8693 20.8191 11.1897 20.4721C11.401 20.2238 11.6815 20.0443 11.9955 19.9564L12.1888 19.9951C12.2 20.0161 12.2156 20.0345 12.2344 20.0491C12.2533 20.0636 12.275 20.074 12.2982 20.0795C12.3214 20.085 12.3455 20.0855 12.3688 20.0809C12.3922 20.0764 12.4144 20.0669 12.4338 20.0531C12.9914 20.1942 13.5271 20.4111 14.0259 20.6977C14.481 20.953 14.8782 21.2997 15.1926 21.7161C15.1949 21.7526 15.1949 21.7892 15.1926 21.8257C15.1642 21.8786 15.1551 21.9396 15.1669 21.9985C15.1786 22.0573 15.2105 22.1102 15.2571 22.148C15.3106 22.4935 15.2799 22.8467 15.1677 23.1777C15.0555 23.5088 14.865 23.8079 14.6125 24.0496C13.8197 24.7779 12.4789 24.6942 11.4991 24.4943C10.5032 24.3047 9.59717 23.7928 8.92077 23.0376C8.10214 22.0127 8.87566 21.0007 9.79097 20.3561C10.1349 20.1161 10.5341 19.9675 10.9512 19.9242C10.5983 20.2178 10.3248 20.5953 10.1558 21.0222C9.98686 21.4491 9.92791 21.9116 9.98435 22.3672L9.95856 22.3478ZM15.3022 24.2816C15.6659 24.0298 15.9297 23.6582 16.0475 23.2318C16.1653 22.8053 16.1297 22.351 15.9468 21.9482C16.4932 21.6536 16.9414 21.2054 17.236 20.659C17.2413 20.8465 17.2694 21.0327 17.3198 21.2134C17.2727 21.207 17.225 21.207 17.178 21.2134C16.8106 21.3487 16.9459 21.729 16.991 21.9998C17.0044 22.0399 17.0324 22.0734 17.0695 22.0937C17.1065 22.1141 17.1499 22.1196 17.1909 22.1093C17.2586 22.0922 17.3213 22.0593 17.3739 22.0134C17.4265 21.9675 17.4676 21.9098 17.4938 21.8451C17.4938 21.8451 17.4938 21.8064 17.4938 21.787C17.5558 21.9441 17.6054 22.1057 17.6421 22.2705C17.8039 23.0928 17.7641 23.9421 17.5261 24.7457C17.4571 25.0126 17.3666 25.2734 17.2553 25.5257C16.6195 25.8485 16.076 26.3276 15.6761 26.918C15.1695 26.763 14.7279 26.446 14.4191 26.0156C14.3869 25.9806 14.3437 25.9578 14.2967 25.9511C14.2999 25.9125 14.2999 25.8737 14.2967 25.8351C14.7823 25.4242 15.1401 24.8829 15.328 24.2752L15.3022 24.2816ZM14.5996 14.1873C14.5609 14.1164 14.5416 14.0391 14.5094 13.9682C15.1538 14.0485 15.7758 14.2562 16.3391 14.5794C16.9024 14.9025 17.3957 15.3346 17.7903 15.8504C16.7525 15.2896 15.6438 14.8126 14.6254 14.1809L14.5996 14.1873ZM12.6658 17.32C12.6931 17.3285 12.7223 17.3285 12.7496 17.32C13.3556 16.9462 13.6585 16.4047 14.4707 16.4305C14.8483 16.4869 15.2092 16.6244 15.5285 16.8336C15.8479 17.0428 16.1181 17.3187 16.3207 17.6423C16.5604 17.9277 16.7354 18.2616 16.8336 18.6211C16.9319 18.9806 16.951 19.3571 16.8897 19.7247C16.8285 20.0923 16.6883 20.4422 16.4787 20.7504C16.2692 21.0586 15.9954 21.3177 15.6761 21.5099C15.473 20.9297 15.1131 20.4172 14.6363 20.0292C14.1595 19.6411 13.5846 19.3928 12.9752 19.3118C12.8508 19.3021 12.7258 19.3021 12.6014 19.3118C12.8028 18.6648 12.8361 17.9771 12.6981 17.3136L12.6658 17.32ZM11.4605 9.00483C11.5636 8.54717 11.4605 9.09507 11.628 9.57207C11.8947 10.2907 12.1101 11.0274 12.2726 11.7766C12.556 13.1222 12.5757 14.5101 12.3307 15.8633C10.9641 13.7555 10.9255 11.4478 11.4927 8.99838L11.4605 9.00483ZM7.51557 19.8468H7.55425C7.68566 20.0494 7.87404 20.2087 8.0957 20.3045C8.29552 20.3818 8.47601 20.2207 8.38576 20.0273C8.06347 19.3827 7.74117 18.938 8.10214 18.2031C8.48362 17.5474 9.0703 17.0355 9.77164 16.7464C10.069 16.5801 10.406 16.4977 10.7465 16.5079C11.0871 16.5181 11.4185 16.6206 11.7054 16.8044C12.35 17.3652 12.292 18.4867 12.1631 19.3827C12.0728 19.3827 11.9761 19.3827 11.8859 19.4343C11.5048 19.3892 11.1196 19.3892 10.7385 19.4343C9.78294 19.5763 8.91919 20.0821 8.32775 20.8459C8.03429 20.5721 7.6936 20.3537 7.32219 20.2014C7.36242 20.1958 7.40095 20.1815 7.43504 20.1595C7.46913 20.1374 7.49795 20.1081 7.51948 20.0737C7.541 20.0392 7.55469 20.0005 7.55959 19.9602C7.56448 19.9199 7.56046 19.879 7.5478 19.8404L7.51557 19.8468ZM4.29262 34.9109C4.45435 32.9787 5.27071 31.1595 6.6067 29.7542C5.96211 30.8629 5.37553 31.9909 4.82763 33.1447C4.66004 33.4928 5.17571 33.7893 5.37553 33.4541C5.98144 32.3841 6.58091 31.3721 7.21906 30.373C6.66742 32.1091 5.672 33.6711 4.3313 34.9045L4.29262 34.9109ZM8.23107 35.4266C8.59905 34.1544 9.2742 32.9923 10.1971 32.0425C10.0681 32.2939 10.4678 32.6033 10.7514 32.3906C11.28 31.9974 11.7828 31.5719 12.2855 31.1594C11.7312 33.0609 10.3776 35.6071 8.26974 35.4201L8.23107 35.4266ZM12.7432 29.8509C12.7882 29.7769 12.8271 29.6993 12.8592 29.6188C12.8683 29.583 12.8665 29.5452 12.8541 29.5104C12.8417 29.4755 12.8193 29.4451 12.7896 29.423C12.7599 29.4009 12.7244 29.3881 12.6874 29.3863C12.6505 29.3844 12.6138 29.3936 12.582 29.4125C12.2235 29.671 11.8363 29.8873 11.4282 30.0571C10.9648 30.1705 10.4758 30.1085 10.0553 29.8831C9.64008 29.6871 9.29029 29.3755 9.04789 28.9856C8.80549 28.5957 8.68077 28.1441 8.68872 27.685C8.68872 27.3499 8.16661 27.3563 8.14727 27.685C8.13107 27.8479 8.13107 28.012 8.14727 28.1749C8.13674 28.1356 8.11928 28.0985 8.0957 28.0654C8.0957 27.9944 8.0957 27.93 8.0957 27.8591C8.09152 27.8167 8.07765 27.7759 8.05517 27.7398C8.03268 27.7037 8.00219 27.6732 7.96604 27.6508C7.92989 27.6284 7.88906 27.6145 7.84671 27.6104C7.80436 27.6063 7.76163 27.612 7.72184 27.627C6.37464 27.6786 5.33686 27.453 4.93721 26.0349C4.73094 25.2872 4.93721 24.5523 5.38842 24.3332C5.71316 24.4772 6.05946 24.5664 6.41332 24.5975C6.42877 24.8282 6.51063 25.0495 6.64901 25.2348C6.7874 25.4201 6.97641 25.5614 7.19328 25.6417C7.22781 25.6516 7.26434 25.6523 7.29925 25.6438C7.33415 25.6352 7.36621 25.6177 7.39226 25.593C7.41831 25.5682 7.43744 25.5371 7.44777 25.5027C7.45809 25.4683 7.45924 25.4318 7.45111 25.3968C7.34797 25.1196 7.14171 24.9198 7.03213 24.6555C6.974 24.5044 6.94965 24.3425 6.96078 24.181C6.97192 24.0195 7.01827 23.8625 7.09658 23.7208C7.2255 23.4243 6.78718 23.16 6.63248 23.463C6.56383 23.5912 6.51185 23.7277 6.47778 23.8691C6.16262 23.6918 5.79843 23.6217 5.43999 23.6693C3.83496 22.5025 5.79451 19.0927 8.07636 21.2391C7.98655 21.4192 7.92771 21.6132 7.90232 21.8128C7.76051 22.9602 8.65649 23.8304 9.60404 24.3912C10.2967 24.7966 11.0685 25.0485 11.867 25.1296C12.6655 25.2108 13.4721 25.1195 14.2322 24.8617C13.8097 25.4906 13.1765 25.9478 12.4467 26.1509C11.0544 26.5054 9.86832 25.4612 9.22373 24.417C9.05614 24.1462 8.62427 24.3847 8.78541 24.6619C9.52669 25.9511 10.7192 26.8858 12.2984 26.7697C12.8569 26.7106 13.3914 26.511 13.8519 26.1896C13.8519 27.4788 12.8463 28.0911 11.4476 28.0202C10.8487 27.9903 10.2664 27.8132 9.7523 27.5046C9.24307 27.2016 9.28175 26.86 9.23663 26.3959C9.23392 26.3508 9.2185 26.3075 9.19215 26.2708C9.1658 26.2342 9.12959 26.2058 9.08774 26.189C9.0459 26.1721 9.00013 26.1674 8.95574 26.1755C8.91135 26.1836 8.87017 26.2042 8.83698 26.2347C8.3342 26.6666 8.70806 27.395 9.09482 27.7624C9.72528 28.2621 10.4959 28.5528 11.2993 28.5939C12.9108 28.768 14.0968 27.9816 14.2902 26.6602C14.5773 27.0083 14.9507 27.275 15.3731 27.4337C15.0436 28.0703 14.8796 28.7797 14.8961 29.4963C14.1965 29.6376 13.5702 30.0239 13.1299 30.5857L13.188 30.3472C13.1973 30.3068 13.1981 30.2649 13.1902 30.2242C13.1824 30.1835 13.1661 30.1449 13.1424 30.1109C13.1187 30.0769 13.0882 30.0482 13.0527 30.0268C13.0173 30.0053 12.9777 29.9915 12.9366 29.9862C12.9214 29.949 12.8967 29.9163 12.8651 29.8915C12.8334 29.8666 12.7959 29.8504 12.7561 29.8444L12.7432 29.8509ZM17.4165 30.1732C18.0269 29.8273 18.708 29.6245 19.4083 29.5801C19.805 29.5308 20.2078 29.5744 20.5848 29.7076C20.9618 29.8407 21.3027 30.0597 21.5805 30.3472C21.4474 30.434 21.3073 30.5095 21.1615 30.5728C20.4521 30.3799 19.7107 30.3338 18.9828 30.4375C18.6151 30.4868 18.2604 30.6072 17.9386 30.792C17.797 30.5621 17.6258 30.3519 17.4294 30.1667L17.4165 30.1732ZM17.8741 32.3454C17.6584 32.5037 17.5037 32.7313 17.4358 32.99C17.4007 33.1113 17.3876 33.238 17.3971 33.3639C17.243 33.2687 17.1003 33.1563 16.9717 33.0287C16.9717 32.9578 16.9717 32.8804 17.0233 32.8095C17.1453 32.4008 17.3667 32.0287 17.6679 31.7266C17.6929 31.8948 17.7384 32.0593 17.8032 32.2165C17.8178 32.265 17.8471 32.3078 17.887 32.339L17.8741 32.3454ZM17.4938 31.1014C17.0739 31.4609 16.7504 31.9195 16.5527 32.4357C16.4777 32.2591 16.4299 32.0722 16.4109 31.8813C16.3879 31.6311 16.4237 31.379 16.5155 31.1451C16.6072 30.9111 16.7524 30.7019 16.9395 30.5341C17.1535 30.6941 17.3444 30.8828 17.5067 31.0949L17.4938 31.1014ZM16.0435 31.269C15.7923 30.9202 15.6166 30.5228 15.5278 30.1023C15.896 30.0988 16.26 30.1804 16.5914 30.3408C16.3398 30.6039 16.1523 30.9215 16.0435 31.269ZM15.7921 31.8169C15.8307 31.864 15.8862 31.8941 15.9468 31.9007C15.9459 32.2156 16.0027 32.528 16.1144 32.8224C16.1781 32.9739 16.2604 33.1168 16.3593 33.2479C16.2112 34.0245 16.3364 34.8285 16.7139 35.5233C16.3927 35.7619 15.9956 35.8753 15.5969 35.842C15.1981 35.8088 14.8252 35.6313 14.548 35.3428C14.0936 34.9165 13.7468 34.3885 13.536 33.8022C13.6789 33.5533 13.8474 33.32 14.0388 33.1061C14.258 32.8676 13.897 32.5259 13.6778 32.758C13.5545 32.8869 13.4383 33.0224 13.3298 33.1641C13.3298 33.0738 13.2782 32.99 13.2589 32.9062C13.1858 32.6135 13.1727 32.309 13.2203 32.011C13.268 31.713 13.3755 31.4278 13.5362 31.1725C13.697 30.9171 13.9078 30.697 14.1559 30.5252C14.404 30.3535 14.6843 30.2337 14.9799 30.1732C15.103 30.7715 15.3808 31.3272 15.7857 31.7846L15.7921 31.8169ZM14.3933 38.5013C15.1261 38.999 15.969 39.3109 16.8492 39.4101C16.8026 39.4332 16.7647 39.4708 16.7414 39.5174C16.7181 39.5639 16.7107 39.6168 16.7203 39.668C16.8642 40.5394 16.9375 41.4211 16.9395 42.3043C16.9395 42.7813 16.875 43.2519 16.8299 43.7224C16.0757 41.9498 14.9799 40.2481 14.3869 38.469L14.3933 38.5013ZM14.9606 41.4277C15.2313 41.9627 15.5149 42.4977 15.8114 43.0392C16.9395 45.089 17.0555 46.7971 16.7848 49.0145C15.631 46.5909 14.3676 44.3864 14.9541 41.3955L14.9606 41.4277ZM15.386 66.7988C15.386 65.9028 15.2571 65.0133 15.3022 64.1173C15.3022 63.4276 15.3989 62.7443 15.444 62.0546C15.7405 62.538 16.0886 63.015 16.3658 63.4985C16.9186 64.4772 17.2837 65.5506 17.4423 66.6634C16.7525 66.6634 16.0435 66.7214 15.3989 66.7665L15.386 66.7988ZM17.5583 64.4525C17.3041 63.8785 17.0068 63.3248 16.6687 62.7959C15.4182 60.7847 14.5803 59.2119 15.0379 56.9946C15.4698 57.71 15.9984 58.3804 16.456 59.0701C16.7185 59.463 16.9348 59.8847 17.1006 60.3271C17.0651 60.3352 17.0318 60.3512 17.0032 60.3738C16.9746 60.3965 16.9515 60.4252 16.9354 60.458C16.9194 60.4907 16.9108 60.5266 16.9104 60.5631C16.91 60.5995 16.9177 60.6356 16.933 60.6687C17.4349 61.8522 17.647 63.1383 17.5518 64.4202L17.5583 64.4525ZM17.6485 59.8759C17.3797 59.3608 17.0783 58.8635 16.7461 58.3869C15.3731 56.3371 14.1677 54.6482 14.9799 52.1859C15.747 53.8232 16.6623 55.2413 17.3327 56.8592C17.3327 56.8592 17.3327 56.8592 17.3327 56.8979C17.6021 57.8551 17.7068 58.8513 17.6421 59.8436L17.6485 59.8759ZM17.5003 52.1988C17.5905 52.895 17.6808 53.5847 17.7452 54.2808C17.7742 54.7488 17.7742 55.2181 17.7452 55.686C16.5463 52.9143 13.9228 50.6002 14.967 47.1839C15.6664 48.9135 16.5117 50.5804 17.4938 52.1666L17.5003 52.1988ZM20.1624 37.6697C18.6347 38.8622 16.9395 39.3199 15.0057 38.3143C14.3244 38.0042 13.7723 37.4667 13.4442 36.7939C13.116 36.1211 13.0323 35.3551 13.2073 34.6273C13.5044 35.1631 13.9028 35.6359 14.3804 36.0196C14.7584 36.3364 15.2373 36.5074 15.7304 36.5015C16.2235 36.4956 16.6982 36.3132 17.0684 35.9874C17.323 36.2285 17.6305 36.4065 17.9663 36.5073C18.3022 36.608 18.6569 36.6287 19.0022 36.5675C19.3172 36.9925 19.7085 37.3553 20.156 37.6375L20.1624 37.6697ZM19.1762 35.8907C19.1762 35.852 19.1246 35.8198 19.1053 35.7811C18.9699 35.5297 18.6154 35.7037 18.6541 35.9487C18.4367 35.941 18.2207 35.9107 18.0095 35.8584C17.7621 35.7902 17.5388 35.654 17.3649 35.4652C17.3477 35.4178 17.3131 35.3787 17.2682 35.3557C16.9686 34.8844 16.8389 34.325 16.9008 33.77C17.139 33.9327 17.3967 34.0648 17.6679 34.1632C17.8335 34.4222 18.0534 34.6422 18.3125 34.8078C18.6133 35.0032 18.9746 35.0834 19.3299 35.0336C19.6852 34.9839 20.0106 34.8076 20.2462 34.537H20.3042C20.3643 34.5406 20.4246 34.5406 20.4847 34.537C20.4156 34.8603 20.2548 35.1569 20.0216 35.3912C19.7885 35.6255 19.4927 35.7877 19.1698 35.8584L19.1762 35.8907ZM18.6992 32.6677C19.0107 32.5565 19.3526 32.5655 19.6578 32.6931C19.963 32.8207 20.2096 33.0576 20.3493 33.3574C20.2175 33.6163 20.0382 33.848 19.8208 34.0407C19.2533 34.042 18.6893 33.9506 18.1513 33.77C18.0875 33.6627 18.0511 33.5414 18.0453 33.4168C18.0395 33.2921 18.0645 33.1679 18.118 33.0552C18.1715 32.9425 18.2519 32.8446 18.3521 32.7703C18.4524 32.696 18.5693 32.6475 18.6928 32.6291L18.6992 32.6677ZM19.4727 32.0811C19.1186 32.0278 18.7575 32.0431 18.4091 32.1263C18.0482 31.2303 18.609 30.9531 19.4469 31.2947C19.713 31.3869 19.9501 31.5473 20.1345 31.76C20.3189 31.9727 20.4441 32.2302 20.4976 32.5066C20.2063 32.2548 19.8479 32.0936 19.4663 32.0425L19.4727 32.0811ZM21.2002 33.8344C21.1759 33.6119 21.1172 33.3944 21.0262 33.1898C21.1143 32.9172 21.1375 32.6278 21.0939 32.3446C21.0502 32.0615 20.941 31.7924 20.7748 31.559C20.5566 31.304 20.2891 31.0957 19.9884 30.9467C20.576 30.9635 21.1501 31.1275 21.6579 31.4237C21.8993 31.5576 22.0913 31.7655 22.2058 32.0167C22.209 32.0768 22.209 32.1371 22.2058 32.1972C22.2061 32.2203 22.2129 32.2428 22.2254 32.2622C22.238 32.2816 22.2557 32.297 22.2767 32.3068C22.2852 32.6386 22.1845 32.9641 21.99 33.2331C21.7955 33.5021 21.518 33.6998 21.2002 33.7958V33.8344ZM22.1413 28.291C22.3062 28.5748 22.377 28.9036 22.3434 29.2302C22.3098 29.5568 22.1736 29.8643 21.9544 30.1087C20.8973 28.9936 18.7314 28.9484 17.1909 29.8509L17.0748 29.9347C16.5911 29.6384 16.0302 29.4925 15.4634 29.5157C15.4579 28.8347 15.6408 28.1654 15.9919 27.5819C16.1352 27.5644 16.2759 27.5298 16.4109 27.4788C17.0228 27.1874 17.5001 26.6732 17.7452 26.0413C18.3701 25.7893 19.0598 25.7463 19.7112 25.9189C20.2593 26.1105 20.7595 26.4182 21.1778 26.8209C21.5961 27.2236 21.9225 27.7119 22.1349 28.2523L22.1413 28.291ZM18.4671 24.8231L18.7637 24.6104C19.0099 24.4847 19.229 24.3116 19.4083 24.1011C19.5952 23.9464 19.7757 23.7917 19.9497 23.6306C19.9254 23.9973 19.9745 24.3651 20.094 24.7127C20.2135 25.0602 20.4012 25.3804 20.6459 25.6546C20.4579 25.5488 20.2618 25.4582 20.0593 25.3839C19.3985 25.151 18.6848 25.113 18.003 25.2743C18.0163 25.2236 18.0336 25.174 18.0546 25.126C18.0868 25.0293 18.0997 24.9262 18.1255 24.8231C18.1727 24.8648 18.2334 24.8878 18.2963 24.8878C18.3593 24.8878 18.42 24.8648 18.4671 24.8231ZM18.2673 22.3736C18.543 22.5163 18.8422 22.608 19.1504 22.6444C18.8125 22.8615 18.5353 23.1609 18.3447 23.5146C18.3579 23.1326 18.332 22.7503 18.2673 22.3736ZM24.9259 22.8055C24.7543 23.2994 24.6438 23.8124 24.5972 24.3332C24.5002 24.7797 24.2917 25.1943 23.9913 25.5386C23.7591 25.7755 23.4632 25.9399 23.1394 26.012C22.8156 26.0841 22.4779 26.0607 22.1671 25.9447C21.8392 25.8387 21.538 25.6633 21.284 25.4304C21.03 25.1976 20.8292 24.9127 20.6952 24.5952C20.5613 24.2777 20.4973 23.9351 20.5077 23.5906C20.5181 23.2462 20.6026 22.9081 20.7554 22.5992C20.9984 22.5588 21.2362 22.4918 21.4645 22.3994C21.8511 22.8378 22.3728 23.1349 22.947 23.2438C22.9773 23.2456 23.0074 23.2391 23.0342 23.2251C23.0611 23.2111 23.0837 23.1901 23.0995 23.1643C23.1154 23.1386 23.124 23.109 23.1244 23.0787C23.1248 23.0484 23.1169 23.0186 23.1018 22.9924C22.7748 22.628 22.4022 22.3074 21.9931 22.0384C22.0029 22.0056 22.0051 21.9709 21.9995 21.937C21.9939 21.9031 21.9807 21.871 21.9608 21.843C21.9409 21.815 21.9149 21.792 21.8847 21.7756C21.8546 21.7592 21.8211 21.7499 21.7868 21.7484H21.6901C21.4412 21.4921 21.2634 21.1755 21.1741 20.8296C21.0848 20.4838 21.0871 20.1206 21.1809 19.7759C21.2389 19.5697 20.9295 19.4987 20.8457 19.6921C20.6879 20.0308 20.6199 20.4043 20.6481 20.7768C20.6763 21.1493 20.7999 21.5083 21.0068 21.8193C20.9827 21.7896 20.9522 21.7657 20.9176 21.7493C20.8831 21.7329 20.8453 21.7244 20.807 21.7244C20.7688 21.7244 20.731 21.7329 20.6964 21.7493C20.6618 21.7657 20.6314 21.7896 20.6072 21.8193C20.6072 21.8515 20.5685 21.8902 20.5427 21.9289C20.3318 21.9869 20.1161 22.0258 19.8981 22.0449C19.4312 22.0977 18.9586 22.022 18.5316 21.8257C18.241 21.6583 18.0178 21.395 17.9001 21.081C17.7825 20.7669 17.7779 20.4218 17.887 20.1047C17.9962 19.7266 18.189 19.3779 18.4512 19.0844C18.7135 18.791 19.0383 18.5603 19.4018 18.4094C19.571 18.3364 19.7485 18.2844 19.9304 18.2547C19.9679 18.2697 20.0088 18.274 20.0486 18.2672C20.0884 18.2603 20.1256 18.2426 20.156 18.216C21.0113 18.1822 21.8586 18.3923 22.599 18.8219C22.6555 18.8406 22.7165 18.8406 22.773 18.8219C22.5023 19.5632 22.9599 20.369 23.4176 20.9555C23.4728 21.0174 23.5459 21.0606 23.6267 21.0791C23.7076 21.0975 23.7922 21.0904 23.8688 21.0587C23.9204 21.4196 24.3329 21.5937 24.797 21.671C24.7924 22.0193 24.8469 22.3659 24.9582 22.6959C24.9455 22.711 24.9361 22.7285 24.9305 22.7473C24.925 22.7662 24.9234 22.786 24.9259 22.8055ZM24.7519 20.4785C24.8739 20.2745 25.0532 20.1109 25.2676 20.008C25.3068 19.9919 25.3508 19.9919 25.39 20.008C25.4867 20.5108 25.3578 20.8008 25.7252 21.1618C25.5536 21.1751 25.3812 21.1751 25.2096 21.1618C24.5521 21.0458 24.3845 21.0458 24.7519 20.4785ZM27.5108 30.9015C25.577 29.6124 25.2676 26.3894 25.3127 24.2623C25.375 23.9898 25.3967 23.7096 25.3772 23.4308C25.4611 23.5211 25.5516 23.6051 25.6479 23.6821C25.629 23.712 25.6189 23.7467 25.6189 23.7821C25.6189 23.8174 25.629 23.8521 25.6479 23.882C25.8228 24.3765 25.9628 24.8826 26.0669 25.3968C26.1187 25.9684 26.2692 26.5267 26.5116 27.0469C26.5263 27.0753 26.5484 27.0991 26.5757 27.1158C26.603 27.1324 26.6344 27.1412 26.6663 27.1412C26.6983 27.1412 26.7296 27.1324 26.7569 27.1158C26.7842 27.0991 26.8064 27.0753 26.821 27.0469C26.9158 26.3825 26.845 25.7049 26.6148 25.0745C27.7363 26.6988 27.6461 28.9162 27.5108 30.9015ZM29.1996 17.1267C29.5112 17.7203 29.6091 18.4031 29.4767 19.0604C29.2898 19.9242 28.5485 20.2142 27.8717 20.659C27.7106 20.7621 27.7492 21.0651 27.9813 21.0458C28.2545 21.0206 28.5209 20.9463 28.7677 20.8266C28.9224 21.4132 29.2382 21.8966 28.9546 22.5283C28.8265 22.7717 28.65 22.9863 28.4362 23.1592C28.2223 23.3321 27.9754 23.4596 27.7106 23.5339C26.3118 23.9851 25.4287 22.9989 25.3449 21.7677C25.5897 21.7821 25.835 21.7821 26.0798 21.7677C26.575 21.7576 27.0465 21.5532 27.3926 21.1987C27.7386 20.8443 27.9315 20.368 27.9297 19.8726C27.9337 19.5013 27.8306 19.1366 27.6329 18.8223C27.4351 18.5079 27.151 18.2572 26.8146 18.1C27.0612 17.5318 27.0978 16.8943 26.9177 16.3016C26.7952 15.9172 26.6101 15.5557 26.3698 15.2316C26.4184 15.2441 26.4695 15.2441 26.5181 15.2316C26.6148 15.2316 26.705 15.1671 26.8017 15.1349C27.3148 15.2886 27.7916 15.5443 28.2036 15.8865C28.6156 16.2287 28.9543 16.6505 29.1996 17.1267ZM26.4085 13.7812C26.3724 13.828 26.3495 13.8836 26.3423 13.9422C26.3351 14.0008 26.3439 14.0603 26.3676 14.1144C26.3914 14.1685 26.4292 14.2152 26.4773 14.2496C26.5253 14.284 26.5817 14.3048 26.6406 14.3098L26.5696 14.4129C26.55 14.4509 26.539 14.4927 26.5374 14.5354C26.3112 14.5031 26.0826 14.4901 25.8542 14.4967H25.7768L25.5383 14.2905C25.5569 14.2558 25.5667 14.217 25.5667 14.1777C25.5667 14.1383 25.5569 14.0995 25.5383 14.0649C25.5864 14.0462 25.6287 14.0151 25.6608 13.9746C25.7066 14.0418 25.7561 14.1063 25.809 14.168C26.0604 14.4452 26.4536 14.052 26.2216 13.7748C24.9324 12.2213 26.6792 9.26266 28.0522 7.78011C28.0329 9.9975 27.9297 11.9313 26.4085 13.7812ZM28.7419 13.5556C28.6891 13.5183 28.6261 13.498 28.5614 13.4976H28.194C28.7485 13.1179 29.3766 12.8587 30.0375 12.737C29.6207 13.0249 29.1888 13.2978 28.7419 13.5556ZM27.7364 12.853C27.7815 12.7628 27.833 12.679 27.8717 12.5952C27.9209 12.5858 27.9664 12.5626 28.0029 12.5284C28.0394 12.4942 28.0655 12.4503 28.078 12.4018C28.4829 11.0521 29.2472 9.83777 30.2889 8.8888C31.5008 7.7092 32.8351 7.33534 34.3885 6.80033C32.0615 8.4956 30.5274 11.9313 27.7364 12.853ZM72.3613 30.8178C72.25 31.7347 71.8862 32.6028 71.3106 33.3252C71.0883 33.6188 70.8233 33.8774 70.5242 34.0923C70.9263 33.7385 71.1796 33.2457 71.2333 32.7129C71.2275 32.6611 71.2077 32.612 71.1759 32.5708C71.1441 32.5296 71.1016 32.498 71.053 32.4793C71.0044 32.4607 70.9516 32.4558 70.9004 32.4651C70.8492 32.4745 70.8016 32.4978 70.7627 32.5324C70.6854 32.5904 70.6145 32.6613 70.5436 32.7257C70.9597 31.9327 71.5893 31.2718 72.3613 30.8178ZM71.9037 24.6039C72.1228 24.3461 72.0777 25.2485 72.1099 25.5257C72.1681 26.3004 72.0895 27.0793 71.8779 27.8269C71.7108 28.493 71.4776 29.1408 71.1817 29.7606C71.2553 29.0508 71.2074 28.3336 71.0399 27.6399C70.9626 27.2918 70.434 27.4465 70.492 27.7817C70.5747 28.2821 70.6028 28.79 70.5758 29.2965C70.5758 29.7542 70.3502 30.2118 70.376 30.6631C70.3223 30.5674 70.2749 30.4684 70.2342 30.3665C70.4542 30.0378 70.5601 29.6459 70.5357 29.2511C70.5112 28.8563 70.3577 28.4805 70.0988 28.1814C70.4139 26.8647 71.0319 25.6398 71.9037 24.6039ZM69.8925 32.4937C69.5394 33.0911 69.2929 33.7455 69.1641 34.4275C68.5441 33.7904 67.9629 33.1167 67.4237 32.4099C67.4237 32.3454 67.3529 32.2874 67.3142 32.223C67.0426 31.8277 66.882 31.3668 66.8492 30.8884C66.8163 30.41 66.9123 29.9315 67.1272 29.5028C67.2304 29.5866 67.3271 29.6704 67.4431 29.7542C68.1474 30.2059 68.8214 30.7033 69.4607 31.2432C69.6341 31.3969 69.765 31.5927 69.8407 31.8118C69.9163 32.0308 69.9342 32.2657 69.8925 32.4937ZM69.4736 28.3748C69.3471 29.1276 69.4365 29.9009 69.7314 30.605C68.4422 29.3803 66.2248 28.7486 66.5084 26.7891L66.9016 26.9889C67.5978 27.3176 68.3326 27.5755 68.9965 27.9622C69.1771 28.0727 69.3382 28.2121 69.4736 28.3748ZM68.7645 27.1243C68.049 26.7697 67.2304 26.4797 66.56 26.0929C66.5397 26.062 66.5132 26.0357 66.4821 26.0158C66.451 25.9958 66.416 25.9825 66.3795 25.9769C66.0365 25.7851 65.7518 25.5041 65.5555 25.1637C65.3592 24.8232 65.2586 24.436 65.2644 24.0431C66.0075 24.2989 66.735 24.598 67.4431 24.9391C68.4422 25.4677 68.6163 26.1896 68.7645 27.1243ZM63.1824 20.7621C64.2524 21.1618 65.3933 21.3616 66.4762 21.7355C68.0812 22.2898 68.1135 23.5597 68.4551 24.9584C68.0667 24.6305 67.6323 24.3612 67.1659 24.1591C65.3675 23.3534 63.0921 22.9989 63.0857 20.7493L63.1824 20.7621ZM66.7211 12.982C67.2638 12.5677 67.8808 12.2613 68.5389 12.0795C69.0739 11.9506 69.7249 12.0795 69.1835 12.6339C68.7372 13.0655 68.2341 13.4342 67.688 13.7297C67.5462 13.8199 67.3915 13.8908 67.2433 13.9682C67.5978 13.691 67.9459 13.4009 68.2811 13.0915C68.6163 12.7821 68.1973 12.4469 67.9072 12.621C67.4495 12.9304 67.0306 13.2656 66.5729 13.5943C66.5397 13.6167 66.512 13.6462 66.4919 13.6809C66.4718 13.7155 66.4598 13.7542 66.4569 13.7941L66.1281 14.0391C66.403 13.7359 66.6057 13.3745 66.7211 12.982ZM64.4586 15.7988C65.0388 15.599 65.6253 15.3863 66.199 15.1542C67.9652 15.5345 69.3511 17.6617 70.0666 19.2796C69.05 19.211 68.0574 18.9395 67.1474 18.4812C66.2374 18.0229 65.4284 17.387 64.768 16.611C64.768 16.611 64.768 16.611 64.768 16.5659C64.768 16.5208 64.7229 16.4756 64.7036 16.4241C64.9581 16.7362 65.2605 17.006 65.5996 17.2234C65.7897 17.3688 66.0097 17.4703 66.2438 17.5205C66.4779 17.5706 66.7202 17.5682 66.9532 17.5134C66.9765 17.5014 66.9965 17.4838 67.0115 17.4623C67.0265 17.4407 67.036 17.4158 67.0391 17.3898C67.0423 17.3637 67.0391 17.3373 67.0297 17.3128C67.0204 17.2883 67.0052 17.2664 66.9854 17.2491C66.734 16.9655 66.2313 16.9204 65.8896 16.7399C65.5127 16.5227 65.182 16.2336 64.9163 15.8891C64.8861 15.8606 64.8496 15.8397 64.8098 15.828C64.77 15.8163 64.728 15.8141 64.6872 15.8216C64.6464 15.8292 64.608 15.8462 64.575 15.8713C64.542 15.8965 64.5154 15.9291 64.4973 15.9664L64.3877 15.7988H64.4586ZM63.9559 16.308C63.9504 16.3292 63.9504 16.3514 63.9559 16.3725C64.1562 16.8067 64.4262 17.2051 64.7552 17.5521C62.2413 16.7012 58.5542 16.6883 58.58 14.8706C60.5653 14.9931 62.4862 14.9351 63.9559 16.2758V16.308ZM55.3635 12.318C58.0192 12.3567 60.5847 11.4285 61.7449 14.4C60.7587 14.2711 59.6629 14.2905 58.638 14.2325C58.6152 14.1889 58.5818 14.1519 58.5408 14.1248C58.4999 14.0977 58.4527 14.0815 58.4037 14.0776C58.3548 14.0738 58.3057 14.0824 58.2609 14.1027C58.2162 14.123 58.1774 14.1544 58.1481 14.1938L57.8387 14.1551C57.8364 14.1027 57.8159 14.0528 57.7807 14.0139C57.7456 13.975 57.698 13.9496 57.6461 13.942C57.5943 13.9343 57.5414 13.945 57.4965 13.9721C57.4517 13.9993 57.4177 14.0412 57.4004 14.0906C56.2466 13.8844 55.299 13.4461 54.8929 12.2729L55.3635 12.318ZM51.8505 7.92837C53.5586 7.43203 54.461 8.23777 55.4408 9.41092C52.8625 9.56562 50.4324 10.5518 47.9314 9.41092C48.2085 9.32068 48.4793 9.23044 48.75 9.1273C49.762 8.70832 50.7482 8.24421 51.8247 7.92837H51.8505ZM49.5235 7.0066C49.7395 7.01505 49.9547 7.03657 50.1681 7.07106C50.5844 7.17203 50.9839 7.33269 51.3541 7.54806C49.1367 8.2571 46.6744 9.6881 44.9082 8.74055C46.3263 7.99283 47.4221 7.18064 49.3043 7.18709C49.3526 7.18443 49.3984 7.16491 49.4338 7.13192C49.4691 7.09893 49.4917 7.05458 49.4977 7.0066H49.5235ZM45.3014 6.42002C45.3332 6.41358 45.3629 6.39951 45.388 6.37902C45.4131 6.35854 45.4328 6.33225 45.4455 6.30244C45.4582 6.27262 45.4635 6.24017 45.4608 6.20788C45.4582 6.17558 45.4477 6.14442 45.4303 6.11707C46.0955 6.087 46.7615 6.14992 47.4092 6.304C47.6906 6.37915 47.9663 6.47392 48.2343 6.58762C47.4025 6.67705 46.5999 6.94531 45.8816 7.37402C44.167 8.29578 42.8778 9.3658 40.8924 8.85658C42.2718 7.9477 43.5288 6.93569 45.2756 6.42002H45.3014ZM37.3214 7.7092C38.2496 6.84545 39.2552 6.64563 40.4541 6.42002C40.4869 6.41271 40.5173 6.39698 40.5421 6.37437C40.567 6.35176 40.5855 6.32307 40.5959 6.29111C40.8602 6.29111 41.1245 6.29111 41.3952 6.29111C41.9357 6.40468 42.4824 6.48647 43.0325 6.53605C40.6475 7.82523 38.5784 10.7517 35.942 9.11441C36.3481 8.6632 36.7993 8.16686 37.315 7.71565L37.3214 7.7092ZM64.7036 47.1452L64.4264 47.4933C63.5562 47.0292 62.7118 46.6295 62.4088 45.6433H62.5442C62.7894 46.0766 63.1453 46.437 63.5755 46.6876C63.7029 46.7782 63.8416 46.8519 63.9881 46.9067C64.2308 46.9912 64.4853 47.0369 64.7423 47.0421L64.7036 47.1452ZM64.9743 45.4306L64.6069 45.2695C64.233 45.0632 64.0268 44.8827 63.5885 45.0503L63.5433 45.089H63.3113H63.1759C63.1423 45.0746 63.1061 45.0672 63.0695 45.0672C63.033 45.0672 62.9968 45.0746 62.9632 45.089C45.2757 44.4444 37.3472 24.8166 32.3516 11.3769C32.3549 11.3621 32.3549 11.3467 32.3516 11.3318C33.1525 11.2464 33.9159 10.9481 34.5626 10.4681C34.6515 10.9255 34.8761 11.3455 35.2072 11.6734C35.2716 11.7379 35.3619 11.6734 35.3296 11.5832C35.0882 11.1867 34.92 10.75 34.8333 10.294C34.9558 10.1973 35.0782 10.1135 35.2007 10.0104C35.5105 11.3847 36.0025 12.7114 36.6639 13.9553C36.681 13.9963 36.7137 14.0289 36.7548 14.0458C36.7959 14.0627 36.842 14.0626 36.8831 14.0455C36.9241 14.0284 36.9567 13.9957 36.9736 13.9546C36.9905 13.9135 36.9904 13.8674 36.9733 13.8264C36.6252 12.4147 36.0322 11.0482 35.5552 9.66876L35.6326 9.59141C36.838 10.5067 38.0433 10.4358 39.3905 9.80412C39.7238 9.64476 40.0487 9.46834 40.3639 9.27556C40.6605 9.4064 40.9692 9.50788 41.2856 9.57851C41.2534 9.59982 41.2267 9.62845 41.2076 9.66206C41.1886 9.69567 41.1778 9.7333 41.176 9.77189C40.8151 15.9793 45.2305 22.986 48.8209 27.8526C48.9691 28.0525 49.3108 27.8526 49.169 27.6593C45.527 22.3221 42.1623 16.2307 41.7111 9.77189C41.7046 9.72339 41.6869 9.67705 41.6595 9.63653C42.4685 9.72326 43.2859 9.58962 44.0251 9.24977L44.3088 9.12086C44.3088 10.3714 44.5473 11.8797 45.4046 12.8401C45.5077 12.9562 45.6753 12.8401 45.6495 12.7048C45.4239 11.5638 45.0049 10.5196 44.8244 9.37225C45.0433 9.48844 45.2747 9.57927 45.5141 9.64297C45.4915 9.6691 45.4755 9.70038 45.4676 9.73408C45.4598 9.76777 45.4602 9.80288 45.469 9.83635C45.5961 10.6567 45.8122 11.4607 46.1136 12.2342C46.191 12.4083 46.5133 12.4147 46.4939 12.1827C46.4055 11.3449 46.2261 10.5192 45.9589 9.72032C46.4355 9.76691 46.9165 9.73644 47.3835 9.63008C47.3878 9.67031 47.4018 9.7089 47.4242 9.74256C47.4467 9.77623 47.4769 9.80398 47.5124 9.82346C48.7558 10.5091 50.1819 10.7907 51.5926 10.6292C51.8977 11.1069 52.3113 11.5059 52.7996 11.7938C53.2879 12.0816 53.8373 12.2502 54.403 12.2858C54.648 13.8457 55.9629 14.4903 57.5164 14.7417C57.5711 16.1025 57.8454 17.4455 58.3286 18.7188C58.3431 18.7603 58.3728 18.7947 58.4116 18.8152C58.4505 18.8357 58.4957 18.8407 58.5381 18.8293C58.5805 18.8179 58.617 18.7908 58.6403 18.7536C58.6637 18.7164 58.672 18.6717 58.6638 18.6286C58.4768 17.3394 58.1481 16.0953 58.0192 14.8126H58.1288C58.0964 15.0473 58.1199 15.2863 58.1971 15.5103C58.2744 15.7343 58.4034 15.9369 58.5735 16.1018C58.5493 16.114 58.5298 16.1339 58.5182 16.1584C58.5065 16.1829 58.5033 16.2106 58.5091 16.2371C58.6035 17.6698 58.955 19.0737 59.5469 20.3818C59.6049 20.4914 59.8112 20.4463 59.8047 20.3174C59.5892 18.9929 59.2964 17.6822 58.9281 16.3918C59.5453 16.7573 60.2215 17.0125 60.9263 17.146L61.3388 17.2362C60.2172 18.7704 61.2808 19.8533 62.686 20.5172C62.4926 22.1416 63.3306 23.1407 64.7809 23.8175C64.7085 24.3372 64.7925 24.8667 65.0221 25.3385C65.2517 25.8103 65.6165 26.203 66.0701 26.4668C65.9444 26.9185 65.9415 27.3955 66.0616 27.8487C66.1817 28.3019 66.4205 28.7149 66.7534 29.0451C66.1088 30.2312 65.8445 31.4237 66.7534 32.5646C66.8888 32.7257 67.0306 32.874 67.1724 33.0287C67.8556 35.3105 65.4771 37.1476 66.0443 39.6035C66.1744 40.0202 66.4203 40.3913 66.7534 40.6735C67.0428 41.0857 67.2438 41.5534 67.3436 42.047C67.4435 42.5407 67.4401 43.0497 67.3335 43.542C67.313 43.5753 67.2998 43.6127 67.2948 43.6515C67.2072 44.1321 67.0486 44.597 66.8243 45.031C64.5553 38.7398 64.8905 32.6033 64.2459 26.0413C64.2459 25.8286 63.8914 25.8222 63.8914 26.0413C63.8914 32.2423 63.5562 38.9331 66.0572 44.7345C65.78 44.5926 65.5093 44.4315 65.2386 44.2768C61.4291 40.6091 59.7531 35.6715 57.9032 30.8629C55.5955 24.8682 54.0872 18.6157 52.4435 12.4534C52.4241 12.4128 52.3911 12.3802 52.3503 12.3613C52.3095 12.3423 52.2633 12.3383 52.2198 12.3497C52.1762 12.3612 52.1381 12.3874 52.1118 12.424C52.0856 12.4606 52.073 12.5052 52.0761 12.5501C53.5965 19.4111 55.5558 26.1674 57.9418 32.7773C59.231 36.1485 60.5202 39.9258 62.9052 42.8458C55.5182 37.4828 51.7796 28.2523 47.6477 20.6139C47.5897 20.5043 47.3963 20.5817 47.4479 20.6977C49.6145 26.1876 52.4414 31.3934 55.8663 36.2001C58.0965 39.2619 61.023 43.4195 64.8905 44.844C65.0839 44.9987 65.2902 45.147 65.4964 45.2952C65.3108 45.3357 65.1279 45.3873 64.9485 45.4499L64.9743 45.4306ZM65.9928 46.2299C65.9547 46.1815 65.9031 46.1456 65.8445 46.1268L65.3224 45.9785C65.5421 45.9114 65.7475 45.8043 65.9283 45.6627C65.9516 45.6365 65.9692 45.6058 65.9799 45.5724C66.1733 45.5724 66.3215 45.2823 66.141 45.1341C66.1207 45.1203 66.1032 45.1028 66.0895 45.0825C66.1081 45.0638 66.1233 45.042 66.1346 45.0181C66.2377 45.2372 66.3344 45.4564 66.444 45.6627C66.3344 45.8754 66.2313 46.0881 66.1281 46.3073C66.1085 46.2839 66.0837 46.2654 66.0558 46.2531C66.0279 46.2408 65.9975 46.2351 65.967 46.2363L65.9928 46.2299ZM68.7774 54.5709C68.7774 54.7836 68.7065 54.9899 68.6678 55.2155C68.6454 55.1866 68.6194 55.1606 68.5905 55.1381C68.3556 54.9723 68.1077 54.8257 67.8492 54.6998C67.7213 54.6364 67.6039 54.5538 67.5011 54.4549C67.5228 54.4241 67.5422 54.3918 67.5591 54.3582C67.5836 54.3067 67.5924 54.2492 67.5845 54.1928C67.5765 54.1364 67.5521 54.0835 67.5143 54.0409C67.4764 53.9983 67.4269 53.9677 67.3718 53.9531C67.3168 53.9384 67.2586 53.9403 67.2046 53.9585C67.0878 53.2946 67.1275 52.6126 67.3206 51.9668C67.4013 51.5829 67.4122 51.1877 67.3529 50.8C67.9083 51.2755 68.3491 51.8705 68.642 52.5404C68.584 52.6371 68.5196 52.7274 68.4615 52.8176C68.3262 53.0174 68.5905 53.1786 68.7645 53.0754C68.8107 53.5095 68.7668 53.9483 68.6356 54.3646C68.629 54.4079 68.6367 54.4521 68.6577 54.4906C68.6786 54.529 68.7116 54.5595 68.7516 54.5773L68.7774 54.5709ZM68.4422 47.6609C70.26 48.6729 69.9183 50.2393 69.1448 51.7154C68.9457 51.4119 68.7168 51.129 68.4615 50.8709C67.3271 49.7236 66.0701 49.0145 66.5278 47.1517C66.6707 46.6209 66.874 46.1084 67.1337 45.624C67.1165 46.0294 67.2197 46.4309 67.4302 46.7778C67.6852 47.1471 68.0229 47.4517 68.4164 47.6673L68.4422 47.6609ZM69.9699 39.7518C69.9325 40.3305 69.8528 40.9057 69.7314 41.4728C69.6798 41.7049 69.6089 41.9369 69.5509 42.1625C69.5219 42.175 69.4962 42.1942 69.476 42.2185C69.4559 42.2428 69.4417 42.2715 69.4348 42.3024C69.4279 42.3332 69.4284 42.3652 69.4362 42.3958C69.4441 42.4264 69.4591 42.4547 69.48 42.4784C69.48 42.5171 69.48 42.5557 69.48 42.5944C68.8943 41.6975 68.1494 40.9153 67.2819 40.2868C65.2193 38.5915 67.3786 36.4192 67.9717 34.7626C68.0546 34.5314 68.0919 34.2862 68.0812 34.0407C68.4009 34.3743 68.7022 34.725 68.9837 35.0914C69.0072 35.1315 69.033 35.1703 69.061 35.2074C69.045 35.2424 69.0379 35.2808 69.0404 35.3193C69.0429 35.3577 69.0549 35.3949 69.0754 35.4275C69.0958 35.4601 69.1241 35.4871 69.1576 35.5061C69.1911 35.525 69.2288 35.5354 69.2673 35.5361C70.0212 36.7331 70.3335 38.1557 70.1504 39.5584C70.0968 39.5584 70.0453 39.5792 70.0068 39.6165C69.9682 39.6538 69.9458 39.7046 69.9441 39.7582L69.9699 39.7518ZM73.5731 49.0725C72.097 47.9445 71.2655 46.1654 70.7434 44.3799L71.027 44.7151C71.4474 45.3553 71.9127 45.9649 72.4193 46.5393C72.4415 46.5623 72.47 46.5782 72.5012 46.585C72.5324 46.5917 72.5649 46.5891 72.5946 46.5773C72.6243 46.5656 72.6498 46.5453 72.668 46.519C72.6861 46.4927 72.6961 46.4617 72.6965 46.4297C72.5817 45.7576 72.2567 45.1393 71.7683 44.6635C71.4396 44.2575 71.0915 43.8771 70.7305 43.4968C72.5096 44.9794 74.5207 46.8938 73.5474 49.079L73.5731 49.0725ZM70.6789 41.3375C71.0335 41.2859 71.3815 41.2021 71.7296 41.1312C71.5491 41.2859 71.3686 41.4535 71.1817 41.6017C70.8307 41.8254 70.4986 42.0776 70.189 42.3559C70.189 42.3559 70.1891 42.3172 70.1568 42.3108C70.2779 41.9672 70.3558 41.61 70.3889 41.2472C70.425 41.2782 70.4671 41.3016 70.5125 41.316C70.5579 41.3304 70.6057 41.3355 70.6532 41.331L70.6789 41.3375ZM70.3824 35.1365H70.4147C71.1676 35.4987 71.8697 35.9582 72.5031 36.503C73.2391 37.2256 73.7554 38.142 73.9921 39.1459C73.1037 38.8318 72.308 38.3005 71.6775 37.6002C71.047 36.8999 70.6018 36.0529 70.3824 35.1365Z" fill="#211717"/>
<path fill-rule="evenodd" clip-rule="evenodd" d="M59.8755 31.0111C58.9408 26.7697 57.3423 22.6766 56.601 18.3965C56.5688 18.216 56.24 18.2612 56.2594 18.4416C56.8524 22.7862 58.3994 26.8729 59.5725 31.0885C59.6306 31.269 59.9206 31.1916 59.8755 31.0111Z" fill="#211717"/>
<path fill-rule="evenodd" clip-rule="evenodd" d="M52.8624 34.1439C49.1109 29.1483 45.0822 24.5846 42.0333 19.1185C41.9495 18.9767 41.7432 19.1185 41.8077 19.2474C44.4428 24.9044 48.1336 30.0063 52.6819 34.2793C52.7851 34.3631 52.9398 34.247 52.8624 34.1439Z" fill="#211717"/>
<path fill-rule="evenodd" clip-rule="evenodd" d="M45.3852 28.1685C45.2499 27.9623 44.9018 28.1685 45.0372 28.3619C47.4601 32.2358 50.824 35.4334 54.8156 37.6569C54.9574 37.7278 55.125 37.5409 54.9961 37.4377C51.4573 34.5371 47.9185 32.0038 45.3852 28.1685Z" fill="#211717"/>
<path fill-rule="evenodd" clip-rule="evenodd" d="M62.5698 34.2019C62.4216 32.6678 61.7061 31.2239 61.4483 29.6898C61.416 29.5093 61.0809 29.5479 61.1066 29.7349C61.2856 31.2912 61.6962 32.8121 62.3249 34.247C62.3765 34.3759 62.5827 34.3179 62.5698 34.2019Z" fill="#211717"/>
<path fill-rule="evenodd" clip-rule="evenodd" d="M63.3499 61.6678C63.8625 59.1493 64.2092 56.5998 64.3877 54.0359C64.3877 53.7652 63.9945 53.7781 63.9622 54.0359C63.6593 56.5562 63.0469 59.0895 63.0727 61.6356C63.0985 61.7839 63.3241 61.8225 63.3499 61.6678Z" fill="#211717"/>
<path fill-rule="evenodd" clip-rule="evenodd" d="M59.8176 56.0147C59.0962 56.9369 58.6916 58.0672 58.6638 59.2377C58.6638 59.3537 58.825 59.3602 58.8572 59.2377C59.1955 58.1808 59.587 57.1416 60.0303 56.1243C60.0375 56.0973 60.0353 56.0687 60.024 56.0432C60.0126 56.0176 59.9929 55.9967 59.9681 55.9839C59.9433 55.9711 59.9148 55.9672 59.8874 55.9728C59.8601 55.9784 59.8354 55.9932 59.8176 56.0147Z" fill="#211717"/>
<path fill-rule="evenodd" clip-rule="evenodd" d="M59.5983 57.8906C59.3325 58.6786 59.2145 59.509 59.2503 60.34C59.2503 60.4173 59.3792 60.4689 59.4243 60.3851C59.8239 59.6438 59.7015 58.7607 59.8626 57.9615C59.872 57.9264 59.8671 57.8891 59.849 57.8576C59.8309 57.8262 59.801 57.8033 59.7659 57.7939C59.7309 57.7845 59.6936 57.7894 59.6621 57.8075C59.6307 57.8256 59.6077 57.8555 59.5983 57.8906Z" fill="#211717"/>
<path fill-rule="evenodd" clip-rule="evenodd" d="M36.1869 10.3134C36.6415 12.2676 37.3524 14.1533 38.3012 15.9213C38.3174 15.9615 38.3489 15.9935 38.3888 16.0105C38.4287 16.0274 38.4737 16.0278 38.5139 16.0115C38.554 15.9953 38.5861 15.9638 38.6031 15.9239C38.62 15.884 38.6204 15.839 38.6041 15.7988C38.0433 13.9102 37.186 12.0795 36.4447 10.2489C36.3674 10.1135 36.1482 10.1651 36.1869 10.3134Z" fill="#211717"/>
<path fill-rule="evenodd" clip-rule="evenodd" d="M61.9704 24.1785C61.9704 23.6757 61.6803 23.2052 61.6675 22.6895C61.6675 22.451 61.2742 22.451 61.2807 22.6895C61.2742 23.2503 61.4507 23.798 61.7835 24.2494C61.8415 24.3396 61.9704 24.2752 61.9704 24.1785Z" fill="#211717"/>
<path fill-rule="evenodd" clip-rule="evenodd" d="M19.0151 27.6465C18.7394 27.6434 18.4661 27.6993 18.2138 27.8105C17.9614 27.9216 17.7357 28.0855 17.5519 28.2911C17.3199 28.5038 17.6615 28.8261 17.8935 28.6263C18.0422 28.4654 18.226 28.341 18.4306 28.2628C18.6352 28.1845 18.8551 28.1545 19.0731 28.175C19.4212 28.2331 19.6791 28.4973 20.0014 28.6134C20.1561 28.6649 20.2398 28.4909 20.1883 28.3813C20.0723 28.1684 19.9034 27.9889 19.698 27.8602C19.4925 27.7315 19.2573 27.6579 19.0151 27.6465Z" fill="#211717"/>
</svg>
