<svg width="15" height="15" viewBox="0 0 15 15" fill="none" xmlns="http://www.w3.org/2000/svg">
<path d="M10.5391 2.84123L12.1579 4.46007M11.5798 1.41509L7.20045 5.79444C6.97417 6.0204 6.81985 6.3083 6.75694 6.62183L6.35242 8.64672L8.3773 8.24143C8.69082 8.17873 8.97834 8.02503 9.20469 7.79868L13.584 3.41933C13.7156 3.28773 13.82 3.1315 13.8913 2.95955C13.9625 2.78761 13.9991 2.60332 13.9991 2.41721C13.9991 2.2311 13.9625 2.04681 13.8913 1.87487C13.82 1.70292 13.7156 1.54669 13.584 1.41509C13.4524 1.28349 13.2962 1.1791 13.1243 1.10788C12.9523 1.03666 12.768 1 12.5819 1C12.3958 1 12.2115 1.03666 12.0396 1.10788C11.8676 1.1791 11.7114 1.28349 11.5798 1.41509Z" stroke="white" stroke-linecap="round" stroke-linejoin="round"/>
<path d="M12.4703 10.1766V12.4707C12.4703 12.8763 12.3091 13.2653 12.0223 13.5521C11.7355 13.8389 11.3465 14.0001 10.9409 14.0001H2.52937C2.12376 14.0001 1.73475 13.8389 1.44794 13.5521C1.16113 13.2653 1 12.8763 1 12.4707V4.05915C1 3.65354 1.16113 3.26454 1.44794 2.97773C1.73475 2.69091 2.12376 2.52979 2.52937 2.52979H4.82342" stroke="white" stroke-linecap="round" stroke-linejoin="round"/>
</svg>
