<svg width="17" height="23" viewBox="0 0 17 23" fill="none" xmlns="http://www.w3.org/2000/svg">
<path d="M16.5096 7.25806L9.64423 0.483871C8.99038 -0.16129 8.00962 -0.16129 7.35577 0.483871L0.490385 7.25806C-0.163462 7.90322 -0.163462 8.87097 0.490385 9.51613C1.14423 10.1613 2.125 10.1613 2.77885 9.51613L8.5 3.87097L14.2212 9.51613C14.5481 9.83871 14.875 10 15.3654 10C15.8558 10 16.1827 9.83871 16.5096 9.51613C17.1635 8.87097 17.1635 7.90322 16.5096 7.25806Z" fill="white"/>
<path d="M16.5096 20.2581L9.64423 13.4839C8.99038 12.8387 8.00962 12.8387 7.35577 13.4839L0.490385 20.2581C-0.163462 20.9032 -0.163462 21.871 0.490385 22.5161C1.14423 23.1613 2.125 23.1613 2.77885 22.5161L8.5 16.871L14.2212 22.5161C14.5481 22.8387 14.875 23 15.3654 23C15.8558 23 16.1827 22.8387 16.5096 22.5161C17.1635 21.871 17.1635 20.9032 16.5096 20.2581Z" fill="white"/>
</svg>
