<svg width="18" height="17" viewBox="0 0 18 17" fill="none" xmlns="http://www.w3.org/2000/svg">
<path d="M15.375 4.78125C14.5299 4.78037 13.7196 4.44426 13.1221 3.84668C12.5245 3.2491 12.1884 2.43886 12.1875 1.59375C12.1875 1.45285 12.1315 1.31773 12.0319 1.2181C11.9323 1.11847 11.7971 1.0625 11.6562 1.0625H9C8.8591 1.0625 8.72398 1.11847 8.62435 1.2181C8.52472 1.31773 8.46875 1.45285 8.46875 1.59375V10.3594C8.46864 10.597 8.40476 10.8303 8.28378 11.0349C8.1628 11.2394 7.98914 11.4078 7.78093 11.5223C7.57272 11.6369 7.33757 11.6935 7.10003 11.6863C6.86248 11.679 6.63123 11.6081 6.43041 11.481C6.22959 11.354 6.06654 11.1753 5.95829 10.9637C5.85003 10.7522 5.80053 10.5154 5.81495 10.2782C5.82936 10.041 5.90716 9.81199 6.04024 9.61508C6.17332 9.41818 6.35679 9.26059 6.57152 9.15875C6.66236 9.11564 6.73909 9.04764 6.79281 8.96265C6.84653 8.87767 6.87503 8.77918 6.875 8.67863V5.84375C6.87503 5.76609 6.85804 5.68938 6.82522 5.619C6.7924 5.54862 6.74455 5.48629 6.68504 5.4364C6.62553 5.38651 6.5558 5.35028 6.48077 5.33025C6.40575 5.31022 6.32724 5.30688 6.25078 5.32047C3.88074 5.74281 2.09375 7.90898 2.09375 10.3594C2.09375 11.6979 2.62547 12.9816 3.57195 13.9281C4.51842 14.8745 5.80211 15.4062 7.14062 15.4062C8.47914 15.4062 9.76283 14.8745 10.7093 13.9281C11.6558 12.9816 12.1875 11.6979 12.1875 10.3594V7.72238C13.1714 8.23573 14.2652 8.50258 15.375 8.5C15.5159 8.5 15.651 8.44403 15.7507 8.3444C15.8503 8.24477 15.9062 8.10965 15.9062 7.96875V5.3125C15.9062 5.1716 15.8503 5.03648 15.7507 4.93685C15.651 4.83722 15.5159 4.78125 15.375 4.78125ZM14.8438 7.41359C13.8056 7.3216 12.8115 6.95108 11.9664 6.34113C11.8869 6.28402 11.7933 6.24996 11.6957 6.24269C11.5982 6.23542 11.5005 6.25524 11.4135 6.29995C11.3264 6.34466 11.2535 6.41253 11.2026 6.49608C11.1517 6.57963 11.1248 6.67561 11.125 6.77344V10.3594C11.125 11.4161 10.7052 12.4295 9.958 13.1768C9.21079 13.924 8.19735 14.3438 7.14062 14.3438C6.0839 14.3438 5.07046 13.924 4.32325 13.1768C3.57603 12.4295 3.15625 11.4161 3.15625 10.3594C3.15625 8.63945 4.26125 7.09684 5.8125 6.53438V8.37184C5.46908 8.60129 5.19097 8.91581 5.00527 9.28473C4.81956 9.65365 4.73261 10.0644 4.75288 10.4769C4.77315 10.8894 4.89995 11.2897 5.12093 11.6386C5.3419 11.9876 5.64951 12.2733 6.01377 12.468C6.37803 12.6627 6.78652 12.7597 7.19941 12.7495C7.61231 12.7393 8.01553 12.6224 8.36978 12.41C8.72403 12.1977 9.01722 11.8971 9.22077 11.5378C9.42432 11.1784 9.53129 10.7724 9.53125 10.3594V2.125H11.1582C11.2777 3.06072 11.7044 3.9303 12.3714 4.59733C13.0384 5.26435 13.908 5.69107 14.8438 5.81055V7.41359Z" fill="white"/>
</svg>
