<svg width="18" height="17" viewBox="0 0 18 17" fill="none" xmlns="http://www.w3.org/2000/svg">
<path d="M12.9565 9.61828L10.8315 8.55578C10.7479 8.5141 10.6547 8.49522 10.5614 8.50105C10.4682 8.50688 10.3781 8.53721 10.3003 8.58898L9.32477 9.23977C8.87696 8.99359 8.50844 8.62507 8.26227 8.17727L8.91305 7.20176C8.96482 7.12395 8.99516 7.03387 9.00099 6.94059C9.00682 6.84732 8.98794 6.75415 8.94625 6.67051L7.88375 4.54551C7.83971 4.45657 7.77164 4.38175 7.68725 4.32952C7.60287 4.27729 7.50554 4.24974 7.40629 4.25C6.70181 4.25 6.02618 4.52985 5.52804 5.028C5.0299 5.52614 4.75004 6.20177 4.75004 6.90625C4.7518 8.45557 5.36804 9.94093 6.46358 11.0365C7.55911 12.132 9.04447 12.7482 10.5938 12.75C10.9426 12.75 11.288 12.6813 11.6103 12.5478C11.9326 12.4143 12.2254 12.2187 12.472 11.972C12.7187 11.7253 12.9144 11.4325 13.0478 11.1103C13.1813 10.788 13.25 10.4426 13.25 10.0938C13.2501 9.99505 13.2227 9.89829 13.1708 9.81431C13.119 9.73033 13.0448 9.66245 12.9565 9.61828ZM10.5938 11.6875C9.32616 11.6861 8.11085 11.1819 7.21449 10.2856C6.31814 9.3892 5.81395 8.17388 5.81254 6.90625C5.81244 6.53777 5.94002 6.18065 6.17357 5.89564C6.40712 5.61063 6.73221 5.41536 7.09352 5.34305L7.85586 6.87039L7.20707 7.83594C7.15859 7.90866 7.1288 7.99223 7.12035 8.07922C7.11189 8.16621 7.12503 8.25395 7.1586 8.33465C7.5387 9.23803 8.25737 9.9567 9.16075 10.3368C9.24169 10.3719 9.33009 10.3862 9.41797 10.3786C9.50585 10.3709 9.59044 10.3415 9.6641 10.293L10.6343 9.64617L12.1616 10.4085C12.0888 10.7702 11.8926 11.0955 11.6067 11.3287C11.3208 11.562 10.9628 11.6888 10.5938 11.6875ZM9.00004 1.59375C7.8077 1.59349 6.63559 1.90193 5.59782 2.48906C4.56005 3.07618 3.69196 3.92199 3.07805 4.94414C2.46414 5.9663 2.12532 7.12999 2.09458 8.32194C2.06384 9.51389 2.34222 10.6935 2.90262 11.7459L2.14891 14.0071C2.08648 14.1943 2.07742 14.3952 2.12274 14.5872C2.16807 14.7793 2.26599 14.955 2.40554 15.0945C2.54508 15.234 2.72073 15.332 2.9128 15.3773C3.10487 15.4226 3.30576 15.4136 3.49297 15.3511L5.75411 14.5974C6.68032 15.0901 7.70659 15.3652 8.75502 15.402C9.80345 15.4388 10.8465 15.2362 11.805 14.8097C12.7634 14.3832 13.6121 13.744 14.2866 12.9405C14.9612 12.137 15.4438 11.1904 15.6979 10.1726C15.9519 9.15475 15.9708 8.0924 15.753 7.06618C15.5352 6.03996 15.0865 5.07685 14.4409 4.24994C13.7953 3.42304 12.9698 2.75408 12.027 2.29384C11.0843 1.8336 10.0491 1.59418 9.00004 1.59375ZM9.00004 14.3438C7.97272 14.3444 6.96343 14.0739 6.07418 13.5595C6.00908 13.5217 5.93669 13.4982 5.86182 13.4906C5.78694 13.4829 5.7113 13.4912 5.63989 13.515L3.15629 14.3438L3.98438 11.8602C4.00825 11.7888 4.01669 11.7132 4.00913 11.6383C4.00157 11.5634 3.9782 11.491 3.94055 11.4259C3.29639 10.3122 3.03776 9.01703 3.20479 7.74135C3.37181 6.46567 3.95516 5.28077 4.86432 4.37046C5.77348 3.46014 6.95765 2.8753 8.23311 2.70667C9.50858 2.53803 10.804 2.79502 11.9186 3.43777C13.0331 4.08053 13.9043 5.07311 14.3971 6.26155C14.8899 7.44998 14.9768 8.76784 14.6442 10.0107C14.3116 11.2535 13.5782 12.3518 12.5577 13.1353C11.5371 13.9188 10.2866 14.3435 9.00004 14.3438Z" fill="white"/>
</svg>
